<svg width="73" height="102" viewBox="0 0 73 102" fill="none" xmlns="http://www.w3.org/2000/svg">
<g clip-path="url(#clip0_2613_1054)">
<mask id="mask0_2613_1054" style="mask-type:luminance" maskUnits="userSpaceOnUse" x="-1" y="0" width="74" height="102">
<path d="M72.8311 0H-0.28418V101.726H72.8311V0Z" fill="white"/>
</mask>
<g mask="url(#mask0_2613_1054)">
<path d="M24.8314 9.77906L26.4925 9.77313C26.3338 9.47533 26.1752 9.17753 26.0166 8.87973C26.2871 8.95455 26.5577 9.02937 26.829 9.10419C26.829 8.7938 26.8282 8.4834 26.8275 8.17301C26.5399 8.2419 26.253 8.3108 25.9655 8.37895C26.0403 8.06189 26.1152 7.74409 26.19 7.42703C25.8609 7.42629 25.5318 7.42555 25.2027 7.4248C25.2746 7.74409 25.3465 8.06337 25.4184 8.38265C25.1175 8.31672 24.8166 8.25005 24.5156 8.18412C24.5156 8.4997 24.5156 8.81528 24.5156 9.13086L25.3658 8.94196L24.8306 9.77906H24.8314Z" fill="#1D1D1D"/>
<path d="M46.1341 9.77906L47.7952 9.77313C47.6366 9.47533 47.4779 9.17753 47.3193 8.87973C47.5899 8.95455 47.8604 9.02937 48.1317 9.10419C48.1317 8.7938 48.131 8.4834 48.1302 8.17301C47.8426 8.2419 47.5558 8.3108 47.2682 8.37895C47.343 8.06189 47.4179 7.74409 47.4928 7.42703C47.1637 7.42629 46.8346 7.42555 46.5055 7.4248C46.5774 7.74409 46.6493 8.06337 46.7212 8.38265C46.4202 8.31672 46.1193 8.25005 45.8184 8.18412C45.8184 8.4997 45.8184 8.81528 45.8184 9.13086L46.6685 8.94196L46.1334 9.77906H46.1341Z" fill="#1D1D1D"/>
<path d="M23.2268 14.9259H27.9632C31.9369 14.9259 33.7158 12.5028 34.2473 10.4026H38.2906C38.8221 12.5028 40.624 14.9259 44.5747 14.9259H49.2881C49.2881 14.9259 50.1197 13.8184 50.328 13.2643C51.067 11.2797 50.1197 10.3567 48.7336 10.3567L46.9317 11.9724L45.1298 10.3567C43.7437 10.3567 42.7965 11.2797 43.5355 13.2643C43.6281 13.5184 43.8586 13.8873 44.0669 14.2103C42.4036 13.9799 40.2548 12.8487 39.7931 10.4026C39.7931 10.4026 41.0405 8.44098 41.3407 7.65648C42.4496 4.81775 41.0405 3.64062 38.9377 3.64062L36.2582 6.77938L33.5779 3.64062C31.4988 3.64062 30.066 4.79479 31.1749 7.65648C31.4751 8.44098 32.7226 10.4026 32.7226 10.4026C32.2608 12.8487 30.112 13.9799 28.4487 14.2103C28.657 13.8873 28.8875 13.5177 28.9802 13.2643C29.7199 11.2797 28.7719 10.3567 27.3858 10.3567L25.5839 11.9724L23.782 10.3567C22.3959 10.3567 21.4486 11.2797 22.1876 13.2643C22.4189 13.8184 23.2276 14.9259 23.2276 14.9259H23.2268Z" fill="#1D1D1D"/>
<path d="M35.0792 3.25851L37.3784 3.25037C37.159 2.83848 36.9396 2.42586 36.7202 2.01398C37.0953 2.11769 37.4696 2.2214 37.8439 2.32511C37.8439 1.89545 37.8424 1.46579 37.8417 1.03612C37.4436 1.13095 37.0464 1.22651 36.6483 1.32133C36.7521 0.882039 36.8559 0.442744 36.9596 0.00345147C36.5045 0.00271067 36.0487 0.00122908 35.5936 0.000488281C35.6929 0.442744 35.793 0.885002 35.8923 1.32652C35.4757 1.23466 35.0591 1.14354 34.6426 1.05168C34.6426 1.48875 34.6426 1.92508 34.6426 2.36215L35.8196 2.10065L35.0792 3.25926V3.25851Z" fill="#1D1D1D"/>
<path d="M15.3345 59.3103C16.0476 60.1111 17.198 60.4134 18.2498 60.1L14.8453 56.9546C14.5629 57.765 14.7445 58.6481 15.3353 59.3103H15.3345Z" fill="#1D1D1D"/>
<path d="M12.4603 16.5873C13.1304 16.0799 15.5793 14.6716 14.979 17.3718C15.2332 17.3718 16.0878 16.7948 16.0878 16.0332C16.0878 14.3716 13.7774 13.6101 13.7774 11.9944C13.7774 9.59422 17.6362 9.59422 17.5206 9.98685C16.8505 12.11 18.121 14.7872 21.7715 14.9717C21.7945 14.9257 21.7715 14.4642 21.7715 14.4642C18.7214 14.4642 17.3123 11.1869 19.7154 8.97121C18.4212 4.93241 16.4577 8.97121 14.7944 10.0098C13.8701 10.5869 11.2825 10.2402 11.075 11.3944C10.7977 12.9871 13.7782 12.9634 12.461 16.5873H12.4603Z" fill="#1D1D1D"/>
<path d="M14.4709 34.1502C14.6095 34.4502 14.7481 34.7273 14.8867 35.0043C10.5662 37.4741 4.5134 37.1963 3.61207 37.1504C3.5424 37.1504 3.49644 37.1963 3.49644 37.266C3.56612 40.2432 6.47689 41.0507 9.06445 40.7048C11.2592 40.4047 14.3316 38.9506 16.5033 37.3119C16.7116 37.5423 16.9421 37.7734 17.1964 38.0038C15.1172 41.3967 10.2422 42.7812 8.64789 42.8968C8.57821 42.8968 8.53226 42.9894 8.55523 43.0353C9.59442 44.8354 11.9515 45.4125 14.5161 44.1895C16.0408 43.4509 17.9354 41.5582 19.2525 39.3891C19.5527 39.5276 19.8529 39.6662 20.1768 39.758C19.3681 43.7968 15.3255 46.2659 14.6088 46.6815C14.5628 46.7045 14.5391 46.7734 14.5858 46.843C15.7873 48.1816 18.5595 48.2046 20.2695 46.2659C21.3094 45.0658 22.1181 42.8501 22.5569 40.1499C23.0186 40.1499 23.7117 40.2195 24.4514 40.4499V40.3803C24.4514 39.0876 24.6597 37.8186 25.0518 36.6415C24.4277 36.6645 23.8273 36.6185 23.3426 36.5259C21.1248 36.1333 19.4378 34.3332 19.4378 32.1641C19.4378 30.9181 19.9922 29.7869 20.8936 28.9794C21.0781 28.8179 21.0551 28.5179 20.8476 28.3794C20.732 28.3098 20.6393 28.2409 20.5474 28.1949C12.7617 23.279 5.66896 11.8781 4.90624 10.6321C4.86029 10.5632 4.79061 10.5632 4.74466 10.6092C2.36534 12.7093 2.11111 16.7941 4.62903 20.0254C6.29232 22.1485 9.78121 24.4798 13.362 26.4874C13.3161 26.8563 13.2694 27.2489 13.2694 27.6178C5.89948 26.0488 1.23202 20.9944 0.470048 20.1402C0.424089 20.0706 0.331437 20.0943 0.285481 20.1632C-1.07762 22.8175 0.100918 26.3711 2.80415 27.8482C5.16048 29.1639 8.85691 29.9254 13.4317 30.4558C13.4784 30.7788 13.5473 31.1018 13.6163 31.4255C6.77782 32.3486 1.44104 29.8565 0.516745 29.3943C0.447067 29.3713 0.355156 29.3943 0.355156 29.4632C0.00826544 32.3019 1.81091 34.5636 4.88326 35.0717C7.95559 35.6718 14.4709 34.1487 14.4709 34.1487V34.1502Z" fill="#1D1D1D"/>
<path d="M3.57762 49.2635C4.33663 49.6213 5.10898 49.6806 5.88652 49.3028C6.02142 49.6124 6.26751 49.7739 6.57585 49.8665C6.96425 49.9836 7.3178 49.9028 7.65802 49.708C7.78922 49.6332 7.89743 49.5887 8.04716 49.7302C10.3346 51.8956 12.6279 54.0535 14.9257 56.2078C14.9301 56.2122 14.9338 56.2159 14.9383 56.2203L18.9557 59.9317C18.9898 59.9503 19.0239 59.9754 19.0609 60.0103C19.6146 60.5347 20.1794 61.0466 20.7346 61.5704C21.0014 61.8223 21.3142 61.8749 21.6433 61.7704C22.2348 61.5822 22.3905 60.9022 21.9406 60.4718C21.4313 59.9843 20.911 59.5058 20.3633 58.9998L16.3184 55.2847C16.2903 55.2669 16.2621 55.2462 16.2317 55.2181C14.7878 53.8476 13.335 52.4853 11.883 51.1244C10.9083 50.211 9.92985 49.3021 8.95589 48.3938C9.29092 47.5871 9.12118 47.0063 8.45186 46.6485C9.04187 44.998 7.93005 43.3638 6.24675 43.1216C6.27788 43.5898 6.30902 44.055 6.34237 44.5595C6.19116 44.4972 6.09258 44.4565 5.99326 44.4158C5.3899 44.1713 4.77247 44.015 4.11353 44.0913C3.44939 44.1683 3.05729 44.5669 2.99354 45.2269C2.92758 45.907 3.16402 46.5092 3.46125 47.0967C3.50647 47.1871 3.5502 47.2775 3.60876 47.3967H2.11816C2.33979 48.2494 2.86012 48.9257 3.57911 49.265L3.57762 49.2635Z" fill="#1D1D1D"/>
<path d="M48.5022 21.1338C48.0864 21.1797 46.6536 21.8035 46.0303 22.565C46.9776 22.265 48.6179 22.242 49.7497 23.2577C49.7497 22.1961 48.8254 21.2501 48.5022 21.1345V21.1338Z" fill="#1D1D1D"/>
<path d="M39.192 32.1417C38.5449 32.3262 36.5347 32.9033 35.3569 32.9263C35.0797 33.7108 37.3671 34.5419 37.2515 34.6108C37.1359 34.6797 34.5483 35.0494 34.1554 34.9797C33.7626 34.9101 30.5746 35.0953 29.697 34.9101C29.3968 34.8405 28.4725 35.3027 28.8186 35.4642C28.8883 35.4872 29.4657 35.3487 29.697 35.4642C30.0202 35.6028 29.9742 35.8331 30.1588 35.8102C30.367 35.8102 30.3433 35.7642 30.436 35.6487C30.5286 35.5331 30.6672 35.4642 30.7132 35.4183C30.7362 35.3953 30.7591 35.3953 30.7829 35.3953L36.8357 36.0413C36.8357 36.0413 37.0899 38.28 35.5882 39.0415C34.6409 39.549 33.601 42.0418 33.2319 42.8722C33.1622 43.0337 33.0236 43.1722 32.839 43.2411C32.6307 43.3107 32.3772 43.4026 32.1919 43.5411C31.8458 43.7723 30.1358 45.5954 29.9512 45.9413C29.7437 46.288 29.2352 46.2184 29.0966 46.4258C28.7734 46.8643 29.3049 47.3259 28.935 47.6718C28.7504 47.88 29.0966 48.7334 29.2582 48.7334C29.5124 48.7334 29.5584 48.6645 29.7667 48.0407C29.9742 47.4177 30.0209 46.771 30.1825 46.5176C30.3441 46.2636 33.7633 44.256 34.2488 43.7945C34.6417 43.4256 36.1204 41.9247 36.6748 41.3484C36.8134 41.2098 36.998 41.118 37.2063 41.118L39.2854 41.0483C39.2854 41.0483 38.4308 41.8558 37.8993 42.2484C37.4835 42.1099 37.2063 42.1329 37.0906 42.2255C36.8134 42.387 37.1366 43.01 36.7675 43.4026C36.5362 43.7026 36.4443 44.3027 36.5132 44.3486C36.6059 44.4182 36.8364 44.2567 36.8831 44.233C37.2759 43.8871 38.2002 42.8944 39.378 42.1788C41.827 40.7246 42.2658 40.309 42.2888 40.0327C42.3118 39.6868 42.1042 39.4327 41.827 39.3638C41.3882 39.2482 38.3151 39.1793 38.4078 39.0638C38.685 38.8556 39.7479 37.5636 39.9325 36.9406C40.0941 36.3635 39.6553 35.4175 39.5856 35.1405C39.5167 34.8634 39.7472 34.4716 39.7472 34.4716L40.6715 34.5175C40.6715 34.5175 40.9027 33.6633 40.7871 33.5248C40.6485 33.3633 40.6255 32.8788 40.6255 32.8788V32.8329C40.4869 32.0484 39.8398 31.9558 39.1935 32.1403L39.192 32.1417Z" fill="#1D1D1D"/>
<path d="M31.2662 48.2512C31.3589 48.6201 31.6361 48.8512 31.7977 48.8046C32.0289 48.7349 32.1668 48.1816 32.2365 47.766C32.2824 47.443 32.5367 46.8659 32.5367 46.8659L35.2858 45.2043L35.8862 43.2656C35.8862 43.2656 32.467 46.3118 31.9585 46.4044C31.3581 46.497 31.4967 46.9355 31.4737 47.2119C31.4737 47.6504 31.1039 47.5119 31.2655 48.2504L31.2662 48.2512Z" fill="#1D1D1D"/>
<path d="M50.9275 20.2794C52.2217 20.4876 52.6375 21.364 52.7294 21.6181C53.1682 21.2491 53.584 19.9564 53.4225 19.1023C52.6597 15.1094 43.3263 17.7637 38.6366 16.0562C38.544 17.2103 40.0924 19.0793 41.5474 19.772C39.5602 21.4795 37.7353 24.5953 36.834 28.4497C38.6826 28.5193 40.4148 28.9808 41.9402 29.7883C41.4785 25.265 45.8909 19.5409 50.9275 20.2794Z" fill="#1D1D1D"/>
<path d="M39.3988 44.9278C39.5145 44.7663 40.2535 43.6351 40.5766 43.3588C40.8998 43.0817 40.9235 42.9899 42.6098 42.1357C44.4814 41.1898 45.1514 40.4282 45.1744 40.1045C45.2204 39.6659 44.8512 39.3429 44.3887 39.2503C43.9269 39.1577 42.887 39.1118 42.887 39.1118C43.0256 39.1118 43.5111 39.6193 43.5341 39.943C43.5571 40.266 43.4415 40.4741 43.0953 40.7742C42.7484 41.0742 41.3861 41.9046 40.5307 42.4358C39.6761 42.9899 39.6761 42.8743 39.4678 42.8973C39.2595 42.9203 39.2135 43.2662 39.2595 43.6359C39.3292 44.0048 39.0512 44.2589 39.0053 44.5359C38.9356 44.813 39.2825 45.09 39.3981 44.9286L39.3988 44.9278Z" fill="#1D1D1D"/>
<path d="M41.594 35.2116L40.7853 35.1656C40.7853 35.1656 41.0166 36.4117 40.901 37.0354C40.8083 37.4969 39.8848 38.6511 39.8848 38.6511L41.2479 38.7667C41.2479 38.7667 42.2878 37.451 42.4494 37.105C42.6339 36.7591 42.3575 35.2123 42.3797 35.0049C42.4027 34.7967 42.7029 34.4278 42.7029 34.4278L43.4886 34.4737C43.4886 34.4737 43.6969 33.5507 43.4886 33.3433C43.2343 33.1122 43.5115 32.6973 43.2114 32.2128C42.9112 31.7283 41.3168 32.0284 41.3168 32.0284C41.3865 32.0284 42.0098 33.2285 41.9869 33.8285C41.9639 34.313 41.594 35.2131 41.594 35.2131V35.2116Z" fill="#1D1D1D"/>
<path d="M26.53 22.5645C25.9059 21.803 24.4738 21.203 24.058 21.1104C23.7348 21.2259 22.8105 22.1719 22.8105 23.2564C23.9661 22.2638 25.6064 22.2867 26.53 22.5638V22.5645Z" fill="#1D1D1D"/>
<path d="M34.0168 16.0559C29.3033 17.7635 19.9699 15.1099 19.2309 19.1021C19.0693 19.9562 19.4852 21.2252 19.924 21.6178C19.9936 21.3408 20.4095 20.4637 21.7259 20.2792C26.7624 19.5177 31.1979 25.3566 30.6902 29.9259C32.2149 29.0947 33.9708 28.5643 35.8194 28.4717C34.9181 24.5943 33.0932 21.5015 31.106 19.771C32.5847 19.0784 34.1094 17.2093 34.0168 16.0552V16.0559Z" fill="#1D1D1D"/>
<path d="M55.0177 9.94C54.9021 9.57109 58.7609 9.54738 58.7609 11.9476C58.7609 13.5632 56.4504 14.3248 56.4504 15.9864C56.4504 16.7709 57.2821 17.325 57.5594 17.325C56.9582 14.6478 59.4309 16.0553 60.0779 16.5405C58.7608 12.9402 61.7183 12.9632 61.4411 11.3016C61.2328 10.1474 58.646 10.4941 57.7217 9.91704C56.0584 8.87844 54.0942 4.83963 52.8007 8.87844C55.2038 11.0942 53.8177 14.3714 50.7446 14.3714C50.7446 14.3714 50.7216 14.8559 50.7446 14.8789C54.4181 14.7404 55.6884 12.0861 55.0184 9.94H55.0177Z" fill="#1D1D1D"/>
<path d="M55.6804 52.1968L56.5306 52.0079L55.9954 52.845L57.6565 52.839C57.4979 52.5412 57.3393 52.2434 57.1807 51.9456C57.4512 52.0205 57.7217 52.0953 57.993 52.1701C57.993 51.8597 57.9923 51.5493 57.9915 51.2389C57.704 51.3078 57.4171 51.3767 57.1295 51.4449C57.2044 51.1278 57.2792 50.81 57.3541 50.4929C57.025 50.4922 56.6959 50.4915 56.3668 50.4907C56.4387 50.81 56.5106 51.1293 56.5825 51.4486C56.2816 51.3826 55.9806 51.316 55.6797 51.25C55.6797 51.5656 55.6797 51.8812 55.6797 52.1968H55.6804Z" fill="#1D1D1D"/>
<path d="M54.1564 53.6759C53.4211 54.1937 52.8785 54.8612 52.5931 55.7131C52.5805 55.7509 52.5665 55.7849 52.5516 55.8153C52.5309 55.8864 52.5101 55.9575 52.4931 56.0331C52.4197 56.3583 52.2292 57.3947 52.6932 58.477C52.7933 58.7103 52.9126 58.9185 53.0356 59.1037C53.0823 59.1526 53.1276 59.203 53.1691 59.2556C54.7812 61.2883 57.6201 61.7046 59.6829 60.1386C60.6613 59.3963 61.2765 58.4162 61.2824 57.1621C61.2899 55.6671 60.6094 54.51 59.3909 53.6544C59.2189 53.5337 59.1092 53.5485 58.9535 53.6729C58.2435 54.2433 57.5245 54.8019 56.7988 55.373C56.7128 55.3101 56.6313 55.2553 56.5542 55.1945C55.9153 54.693 55.2704 54.1981 54.6433 53.6826C54.4595 53.5314 54.3365 53.5477 54.1564 53.6751V53.6759Z" fill="#1D1D1D"/>
<path d="M49.2972 51.5347C49.6589 50.3523 49.7641 49.1656 49.272 47.9944C48.8354 46.9551 48.0482 46.2728 47.0179 45.8631C44.6393 50.0123 41.1193 52.3429 36.3281 52.3244C31.5257 52.3066 28.0153 49.9486 25.6753 45.769C25.6152 45.7898 25.5411 45.8113 25.4692 45.8394C23.5139 46.6128 22.5273 48.5218 22.9505 50.6627C23.2166 52.0066 23.8052 53.2022 24.5471 54.3349C24.9904 55.0112 24.9911 55.0586 24.2217 55.332C22.7734 55.8476 21.2754 56.092 19.7366 56.0439C19.5676 56.0387 19.3734 55.9609 19.24 55.855C18.6107 55.3557 17.9243 55.1527 17.1816 55.2201L20.595 58.3544C20.8796 58.2063 21.1575 58.064 21.4422 57.944C23.1848 57.2069 25.0163 56.8869 26.9005 56.8299C27.3808 56.8151 27.552 56.5336 27.3993 56.0669C27.3104 55.795 27.2244 55.5201 27.171 55.2401C26.9353 53.9993 27.6825 52.874 28.9203 52.6296C29.8046 52.4547 30.5873 52.7533 31.2893 53.2607C32.6968 54.2771 33.4373 55.7535 34.0659 57.3299C33.9569 57.3625 33.8731 57.3892 33.7886 57.4121C31.0239 58.1715 28.44 59.3049 26.1852 61.1072C25.3039 61.8117 24.5405 62.6229 24.0794 63.6778C23.9178 64.0475 23.8689 64.4267 24.0075 64.8038C24.4219 65.932 25.2854 66.5484 26.4054 66.858C26.5781 66.9055 26.6381 66.8254 26.6848 66.6558C26.8153 66.181 26.9346 65.6965 27.1318 65.2476C28.3118 62.5555 30.3494 60.6805 32.8999 59.3204C33.4232 59.0412 33.9954 58.853 34.5603 58.6159C34.6529 58.8545 34.7152 59.0152 34.7485 59.1026C33.948 59.6516 33.1519 60.122 32.4419 60.6983C30.6926 62.1177 29.4288 63.8823 28.8536 66.0898C28.7884 66.3417 28.7647 66.6217 28.7988 66.878C28.9566 68.0707 30.3494 69.0315 31.3649 69.2997C31.5383 69.3456 31.5843 69.2582 31.6058 69.0997C31.7192 68.2885 31.7911 67.467 31.9741 66.6706C32.4811 64.466 33.3595 62.4288 34.8582 60.6968C34.9442 60.5976 35.0139 60.4842 35.091 60.3768C35.1429 60.405 35.1947 60.4339 35.2474 60.462C35.2022 60.8561 35.2199 61.2695 35.1021 61.6399C34.4172 63.7808 33.8517 65.9439 33.6552 68.1922C33.5848 68.9997 33.6441 69.7494 34.2534 70.3702C34.7893 70.9154 35.4119 71.3265 36.099 71.6458C36.185 71.6858 36.3184 71.691 36.4044 71.6547C37.1293 71.3443 37.7949 70.9376 38.3405 70.359C38.7652 69.9094 39.0261 69.3842 38.9683 68.7508C38.8964 67.9641 38.8312 67.1736 38.7066 66.3943C38.4361 64.7038 37.9639 63.0622 37.4251 61.4391C37.3139 61.105 37.3717 60.7761 37.4718 60.3516C37.8542 60.8487 38.2041 61.2539 38.5006 61.6954C39.9941 63.9215 40.7672 66.398 41.0007 69.0523C41.0244 69.3242 41.1245 69.3456 41.335 69.2753C42.0829 69.0256 42.7344 68.6241 43.2503 68.0241C43.787 67.401 43.9463 66.7069 43.7039 65.898C42.9279 63.3126 41.3024 61.388 39.0973 59.9079C38.6977 59.6397 38.2671 59.4167 37.8327 59.1619C37.8935 58.9974 37.9536 58.8367 38.0188 58.6611C38.2093 58.7174 38.3716 58.7582 38.528 58.813C40.1157 59.3671 41.481 60.2864 42.704 61.4184C44.2591 62.857 45.4532 64.529 45.9091 66.6447C45.9595 66.8788 46.0929 66.8966 46.2774 66.844C47.118 66.6069 47.8036 66.1476 48.2936 65.4179C48.7072 64.8016 48.7613 64.1697 48.4159 63.4889C47.854 62.3799 46.9912 61.545 46.021 60.8117C44.2028 59.4382 42.1666 58.4856 40.0127 57.7714C39.5212 57.6085 39.0202 57.4751 38.5176 57.3262C38.8771 56.3521 39.31 55.4438 39.9245 54.6334C40.593 53.7511 41.3669 52.997 42.4728 52.6859C43.7692 52.3214 44.9974 52.9251 45.3346 54.1045C45.5266 54.7764 45.4265 55.4342 45.173 56.0787C45.0033 56.5084 45.2034 56.7988 45.6585 56.8321C46.2997 56.8788 46.9445 56.9062 47.5805 56.9921C49.0985 57.1966 50.5691 57.587 51.9233 58.3181C51.9278 58.3204 51.9322 58.3233 51.9367 58.3255C51.6394 57.4507 51.6824 56.6343 51.8166 56.0061C51.0472 55.9157 50.2748 55.8431 49.5166 55.6965C48.9414 55.5853 48.3825 55.3631 47.8347 55.1438C47.5168 55.0171 47.5182 54.912 47.7087 54.6356C48.3736 53.6704 48.9503 52.6599 49.2957 51.5324L49.2972 51.5347Z" fill="#1D1D1D"/>
<path d="M72.045 29.4645C71.1437 29.926 65.7839 32.4188 58.9454 31.4957C59.0151 31.1727 59.084 30.8497 59.13 30.5268C63.6811 29.9956 67.4012 29.2111 69.7576 27.9184C72.4378 26.4183 73.6156 22.864 72.2762 20.2334C72.2303 20.1638 72.1376 20.1638 72.0917 20.2104C71.3519 21.0646 66.6622 26.1183 59.2923 27.688C59.2693 27.2954 59.2464 26.9265 59.1767 26.5576C62.7575 24.55 66.2464 22.2187 67.9097 20.0956C70.4284 16.8879 70.1971 12.7795 67.7941 10.6793C67.7481 10.6334 67.6555 10.6564 67.6325 10.7023C66.8705 11.9483 59.7771 23.3492 51.9913 28.2651C51.9216 28.311 51.8067 28.3807 51.7141 28.4496C51.4828 28.5881 51.4599 28.8651 51.6681 29.0496C52.5687 29.8571 53.1239 30.9883 53.1239 32.2343C53.1239 34.4033 51.4376 36.2035 49.2191 36.5961C48.8033 36.6657 48.3186 36.7117 47.7871 36.7117C48.18 37.8888 48.3882 39.1348 48.3882 40.4275C49.0116 40.266 49.5898 40.1971 50.0056 40.1971C50.4444 42.8744 51.2531 45.113 52.293 46.3131C53.9793 48.2518 56.7514 48.2288 57.9766 46.8902C58.0226 46.8443 57.9996 46.7746 57.9537 46.7287C57.2377 46.3361 53.1943 43.867 52.3856 39.8052C52.7088 39.6897 53.009 39.5741 53.3099 39.4363C54.6041 41.5824 56.5216 43.4981 58.0463 44.2367C60.6109 45.4597 62.9673 44.8597 64.0072 43.0825C64.0532 43.0129 64.0072 42.944 63.9145 42.944C62.3202 42.8284 57.4459 41.4209 55.3661 38.051C55.5973 37.8436 55.8286 37.6125 56.0591 37.3584C58.2309 38.997 61.3032 40.4512 63.498 40.7505C66.0626 41.0972 68.9971 40.289 69.066 37.3117C69.066 37.2421 69.0201 37.1961 68.9504 37.1961C68.0261 37.2421 61.9733 37.5191 57.6765 35.0501C57.8151 34.773 57.9537 34.473 58.0923 34.1959C58.0923 34.1959 64.6076 35.719 67.7029 35.2116C70.776 34.7041 72.5779 32.4425 72.231 29.6037C72.1851 29.4882 72.0924 29.4422 72.0465 29.4652L72.045 29.4645Z" fill="#1D1D1D"/>
<path d="M11.4484 86.5939V77.9473H9.47079L7.12263 81.789L4.77445 77.9473H2.79688V86.5939H4.77445V81.5668L7.01145 85.2352H7.23379L9.47079 81.5668V86.5939H11.4484Z" fill="#1D1D1D"/>
<path d="M38.6289 86.5939H40.6065V79.8496H43.2015V86.5939H45.1791V77.9473H38.6289V86.5939Z" fill="#1D1D1D"/>
<path d="M59.9239 77.9473H56.6484V86.5946H58.626V83.8766H59.9239C60.7726 83.8766 61.4893 83.5884 62.0742 83.0121C62.659 82.4358 62.9518 81.7357 62.9518 80.9119C62.9518 80.0882 62.659 79.3889 62.0742 78.8118C61.4893 78.2354 60.7718 77.9473 59.9239 77.9473ZM60.6784 81.7024C60.4805 81.9165 60.2293 82.0239 59.9246 82.0239H58.6268V79.8H59.9246C60.2293 79.8 60.4805 79.9074 60.6784 80.1215C60.8763 80.3356 60.9749 80.5993 60.9749 80.9119C60.9749 81.2246 60.8763 81.4883 60.6784 81.7024Z" fill="#1D1D1D"/>
<path d="M63.3223 79.8496H65.5467V86.5939H67.525V79.8496H69.7494V77.9473H63.3223V79.8496Z" fill="#1D1D1D"/>
<path d="M54.102 79.0711C53.2281 78.2066 52.1652 77.7739 50.9133 77.7739C49.6613 77.7739 48.5977 78.2066 47.7245 79.0711C46.8506 79.9356 46.4141 81.0023 46.4141 82.2706C46.4141 83.5388 46.8506 84.6056 47.7245 85.4701C48.5977 86.3346 49.6606 86.7672 50.9133 86.7672C52.1659 86.7672 53.2288 86.3346 54.102 85.4701C54.9751 84.6056 55.4125 83.5388 55.4125 82.2706C55.4125 81.0023 54.9759 79.9356 54.102 79.0711ZM52.7115 84.1233C52.2297 84.6011 51.63 84.8396 50.9133 84.8396C50.1965 84.8396 49.5969 84.6011 49.1151 84.1233C48.6333 83.6455 48.3924 83.0284 48.3924 82.2706C48.3924 81.5127 48.6333 80.8956 49.1151 80.4178C49.5969 79.94 50.1965 79.7015 50.9133 79.7015C51.63 79.7015 52.2297 79.9408 52.7115 80.4178C53.1932 80.8956 53.4349 81.5135 53.4349 82.2706C53.4349 83.0277 53.194 83.6462 52.7115 84.1233Z" fill="#1D1D1D"/>
<path d="M19.8541 86.5939V77.9473H18.3702L15.0332 82.641V77.9473H13.0557V86.5939H14.5388L17.8758 81.9002V86.5939H19.8541Z" fill="#1D1D1D"/>
<path d="M28.1346 86.5939V77.9473H26.1571V81.2579H23.4375V77.9473H21.46V86.5939H23.4375V83.1603H26.1571V86.5939H28.1346Z" fill="#1D1D1D"/>
<path d="M37.5771 84.7655L35.8716 83.7773C35.69 84.107 35.4202 84.3663 35.0622 84.5559C34.7034 84.7455 34.3061 84.8404 33.8696 84.8404C33.1031 84.8404 32.4916 84.6055 32.0343 84.1366C31.577 83.6669 31.3487 83.0454 31.3487 82.2713C31.3487 81.4971 31.577 80.8756 32.0343 80.406C32.4916 79.9363 33.1031 79.7022 33.8696 79.7022C34.3061 79.7022 34.7019 79.7948 35.0562 79.98C35.4105 80.1652 35.6818 80.4267 35.8723 80.7645L37.5779 79.7763C37.1984 79.1585 36.6795 78.671 36.0206 78.3125C35.3609 77.9539 34.6441 77.7754 33.8703 77.7754C32.5761 77.7754 31.5036 78.2058 30.6504 79.0666C29.7973 79.9274 29.3711 80.9956 29.3711 82.272C29.3711 83.5484 29.7973 84.6174 30.6504 85.4775C31.5036 86.3383 32.5761 86.7687 33.8703 86.7687C34.653 86.7687 35.3735 86.5894 36.0332 86.2316C36.6921 85.873 37.2073 85.3856 37.5779 84.7678L37.5771 84.7655Z" fill="#1D1D1D"/>
<path d="M47.7744 97.6007V92.9062H45.7969V101.554H47.2801L50.617 96.8591V101.554H52.5946V92.9062H51.1114L47.7744 97.6007Z" fill="#1D1D1D"/>
<path d="M32.2748 94.6607C32.7114 94.6607 33.1072 94.7533 33.4615 94.9385C33.8158 95.1237 34.0878 95.3852 34.2776 95.723L35.9831 94.7348C35.6036 94.1169 35.0848 93.6295 34.4258 93.271C33.7662 92.9124 33.0494 92.7339 32.2756 92.7339C30.9814 92.7339 29.9089 93.1643 29.0557 94.0251C28.2026 94.8859 27.7764 95.9541 27.7764 97.2305C27.7764 98.5069 28.2026 99.5759 29.0557 100.436C29.9089 101.297 30.9814 101.727 32.2756 101.727C33.0583 101.727 33.7795 101.548 34.4384 101.19C35.0974 100.832 35.6125 100.344 35.9831 99.7263L34.2776 98.738C34.096 99.0677 33.8262 99.327 33.4682 99.5166C33.1094 99.7063 32.7121 99.8011 32.2756 99.8011C31.5091 99.8011 30.8976 99.5662 30.4403 99.0973C29.983 98.6277 29.7547 98.0061 29.7547 97.232C29.7547 96.4579 29.983 95.8363 30.4403 95.3667C30.8976 94.897 31.5091 94.6629 32.2756 94.6629L32.2748 94.6607Z" fill="#1D1D1D"/>
<path d="M14.2051 92.9062H10.9297V101.554H12.9073V98.8356H14.2051C15.0538 98.8356 15.7706 98.5474 16.3554 97.9711C16.9402 97.3947 17.233 96.6947 17.233 95.8709C17.233 95.0472 16.9402 94.3478 16.3554 93.7708C15.7706 93.1944 15.0531 92.9062 14.2051 92.9062ZM14.959 96.6613C14.761 96.8754 14.5098 96.9829 14.2051 96.9829H12.9073V94.759H14.2051C14.5098 94.759 14.761 94.8664 14.959 95.0805C15.1569 95.2946 15.2554 95.5583 15.2554 95.8709C15.2554 96.1835 15.1569 96.4473 14.959 96.6613Z" fill="#1D1D1D"/>
<path d="M22.4113 92.7339C21.1586 92.7339 20.0957 93.1665 19.2226 94.031C18.3494 94.8955 17.9121 95.9623 17.9121 97.2305C17.9121 98.4988 18.3487 99.5655 19.2226 100.43C20.0957 101.295 21.1586 101.727 22.4113 101.727C23.664 101.727 24.7269 101.295 25.6 100.43C26.4732 99.5655 26.9105 98.4988 26.9105 97.2305C26.9105 95.9623 26.4739 94.8955 25.6 94.031C24.7269 93.1665 23.664 92.7339 22.4113 92.7339ZM24.2095 99.0833C23.7277 99.5611 23.1281 99.7996 22.4113 99.7996C21.6945 99.7996 21.0949 99.5611 20.6131 99.0833C20.1313 98.6054 19.8897 97.9884 19.8897 97.2305C19.8897 96.4727 20.1306 95.8556 20.6131 95.3778C21.0949 94.9 21.6945 94.6614 22.4113 94.6614C23.1281 94.6614 23.7277 94.9007 24.2095 95.3778C24.6913 95.8556 24.9322 96.4734 24.9322 97.2305C24.9322 97.9876 24.6913 98.6062 24.2095 99.0833Z" fill="#1D1D1D"/>
<path d="M41.0375 94.6607C41.4741 94.6607 41.8699 94.7533 42.2242 94.9385C42.5785 95.1237 42.8498 95.3852 43.0403 95.723L44.7458 94.7348C44.3663 94.1169 43.8475 93.6295 43.1885 93.271C42.5289 92.9124 41.8121 92.7339 41.0383 92.7339C39.7441 92.7339 38.6715 93.1643 37.8184 94.0251C36.9653 94.8859 36.5391 95.9541 36.5391 97.2305C36.5391 98.5069 36.9653 99.5759 37.8184 100.436C38.6715 101.297 39.7441 101.727 41.0383 101.727C41.821 101.727 42.5415 101.548 43.2011 101.19C43.8601 100.832 44.3752 100.344 44.7458 99.7263L43.0403 98.738C42.8587 99.0677 42.5889 99.327 42.2309 99.5166C41.8721 99.7063 41.4748 99.8011 41.0383 99.8011C40.2718 99.8011 39.6603 99.5662 39.203 99.0973C38.7457 98.6277 38.5174 98.0061 38.5174 97.232C38.5174 96.4579 38.7457 95.8363 39.203 95.3667C39.6603 94.897 40.2718 94.6629 41.0383 94.6629L41.0375 94.6607Z" fill="#1D1D1D"/>
<path d="M56.1787 97.6007V92.9062H54.2012V101.554H55.6844L59.0213 96.8591V101.554H60.9989V92.9062H59.5157L56.1787 97.6007Z" fill="#1D1D1D"/>
</g>
</g>
<defs>
<clipPath id="clip0_2613_1054">
<rect width="73" height="102" fill="white"/>
</clipPath>
</defs>
</svg>
