<svg width="12" height="12" viewBox="0 0 12 12" fill="none" xmlns="http://www.w3.org/2000/svg">
<path d="M11.25 10.0833V1.91667C11.25 1.275 10.725 0.75 10.0833 0.75H1.91667C1.275 0.75 0.75 1.275 0.75 1.91667V10.0833C0.75 10.725 1.275 11.25 1.91667 11.25H10.0833C10.725 11.25 11.25 10.725 11.25 10.0833ZM4.19167 7.155L5.41667 8.63083L7.225 6.30333C7.34167 6.15167 7.575 6.15167 7.69167 6.30917L9.73917 9.03917C9.77167 9.0825 9.79146 9.13403 9.79632 9.18797C9.80119 9.24192 9.79093 9.29616 9.76671 9.3446C9.74248 9.39305 9.70525 9.4338 9.65917 9.46227C9.61309 9.49075 9.56 9.50583 9.50583 9.50583H2.51167C2.26667 9.50583 2.1325 9.22583 2.28417 9.03333L3.73667 7.16667C3.8475 7.015 4.06917 7.00917 4.19167 7.155Z" fill="white"/>
</svg>
