<svg width="64" height="64" viewBox="0 0 64 64" fill="none" xmlns="http://www.w3.org/2000/svg">
<rect width="64" height="64" fill="white"/>
<path d="M28.9078 33.5761H24.6013V36.1243H20.8985V33.5761H11.375L17.3099 26.3285H13.5619L20.1335 18.302H16.2307L23.0894 9.92773L29.1435 18.302H25.4814L28.9372 23.0804L27.1761 24.2739C27.1445 24.2951 27.1156 24.3168 27.0858 24.3389C26.9029 24.4628 26.7377 24.6111 26.5949 24.7796C26.501 24.8858 26.4193 25.0023 26.3515 25.1269V25.1291C26.0874 25.5898 25.9848 26.1255 26.06 26.6512C26.1352 27.1769 26.3839 27.6624 26.7666 28.0305C27.1492 28.3987 27.644 28.6284 28.1722 28.6832C28.7003 28.738 29.2317 28.6147 29.6818 28.333L31.5097 30.8617L28.9078 33.5761ZM47.3131 28.4283H44.4055L37.3335 20.0608C37.0334 19.7021 36.6105 19.4681 36.1472 19.4042C35.6838 19.3403 35.2134 19.4513 34.8274 19.7154L27.4574 24.7087C27.2511 24.8485 27.0744 25.0275 26.9372 25.2356C26.8001 25.4437 26.7053 25.6768 26.6583 25.9215C26.6112 26.1662 26.6129 26.4178 26.663 26.6619C26.7132 26.9059 26.811 27.1378 26.9508 27.3441C27.233 27.7607 27.6693 28.0482 28.1635 28.1432C28.4082 28.1902 28.6598 28.1886 28.9039 28.1384C29.148 28.0883 29.3798 27.9905 29.5861 27.8507L35.5467 23.8101L42.0772 31.5508C42.2557 31.7619 42.4782 31.9312 42.7292 32.047C42.9802 32.1628 43.2535 32.2222 43.5299 32.2209H47.3185C47.8215 32.2203 48.3037 32.02 48.6589 31.6639C49.0142 31.3078 49.2134 30.8251 49.2128 30.3221C49.2122 29.8191 49.0118 29.337 48.6557 28.9817C48.2996 28.6265 47.817 28.4272 47.314 28.4278M48.2722 19.9023C48.2722 20.652 48.0499 21.3849 47.6333 22.0082C47.2167 22.6315 46.6246 23.1173 45.932 23.404C45.2393 23.6908 44.4771 23.7657 43.7419 23.6193C43.0066 23.4728 42.3313 23.1116 41.8014 22.5813C41.2714 22.051 40.9107 21.3754 40.7648 20.64C40.6188 19.9047 40.6943 19.1425 40.9815 18.4501C41.2688 17.7576 41.755 17.1659 42.3786 16.7497C43.0022 16.3336 43.7352 16.1118 44.4849 16.1123C44.9825 16.1124 45.4752 16.2105 45.9348 16.401C46.3945 16.5915 46.8121 16.8707 47.1638 17.2227C47.5155 17.5746 47.7944 17.9924 47.9846 18.4522C48.1748 18.912 48.2725 19.4047 48.2722 19.9023ZM37.199 28.445C37.1936 28.4427 37.1936 28.445 37.199 28.445L37.1936 28.4405C37.1484 28.3953 37.087 28.3822 37.0445 28.3438C36.9009 28.2165 36.7374 28.1136 36.5605 28.039C36.3992 27.9892 36.2323 27.9599 36.0637 27.9519C35.9888 27.9474 35.9215 27.9103 35.8429 27.9103C35.6535 27.9224 35.4671 27.9643 35.2907 28.0345C35.2388 28.0405 35.1876 28.0518 35.138 28.0684C35.0323 28.1244 34.9333 28.1924 34.8432 28.2711C34.7269 28.3337 34.6183 28.4094 34.5194 28.4969L18.5914 45.1144C18.4177 45.2935 18.2812 45.5053 18.1896 45.7374C18.0981 45.9695 18.0533 46.2174 18.058 46.4669C18.0626 46.7164 18.1166 46.9624 18.2167 47.191C18.3169 47.4195 18.4612 47.626 18.6415 47.7985C18.8217 47.971 19.0344 48.1062 19.2671 48.1962C19.4998 48.2862 19.748 48.3293 19.9974 48.323C20.2469 48.3167 20.4926 48.2612 20.7205 48.1595C20.9483 48.0579 21.1539 47.9122 21.3252 47.7308L35.9405 32.4801L41.6302 37.8989H34.0493C33.5611 37.9202 33.1 38.1292 32.7621 38.4822C32.4241 38.8352 32.2355 39.305 32.2355 39.7937C32.2355 40.2823 32.4241 40.7521 32.7621 41.1051C33.1 41.4581 33.5611 41.6671 34.0493 41.6884H46.3671C46.7454 41.6876 47.1148 41.5736 47.4279 41.3612C47.7409 41.1487 47.9833 40.8475 48.1238 40.4962C48.2643 40.1449 48.2966 39.7597 48.2164 39.3899C48.1362 39.0202 47.9473 38.6829 47.6739 38.4214L37.199 28.445Z" fill="#B4B4B4"/>
</svg>
