<svg width="64" height="64" viewBox="0 0 64 64" fill="none" xmlns="http://www.w3.org/2000/svg">
<rect width="64" height="64" fill="white"/>
<path d="M48.2438 50.041H40.0091C39.9029 50.041 39.7977 50.0619 39.6996 50.1025C39.6015 50.1432 39.5123 50.2027 39.4372 50.2778C39.3621 50.3529 39.3026 50.4421 39.2619 50.5402C39.2213 50.6383 39.2003 50.7435 39.2003 50.8497C39.2003 50.9559 39.2213 51.0611 39.2619 51.1592C39.3026 51.2573 39.3621 51.3465 39.4372 51.4216C39.5123 51.4967 39.6015 51.5563 39.6996 51.5969C39.7977 51.6375 39.9029 51.6585 40.0091 51.6585H48.242C48.4565 51.6585 48.6622 51.5733 48.8139 51.4216C48.9655 51.2699 49.0507 51.0642 49.0507 50.8497C49.0507 50.6352 48.9655 50.4295 48.8139 50.2778C48.6622 50.1262 48.4565 50.041 48.242 50.041M32.7737 50.041H24.5426C24.3281 50.041 24.1224 50.1262 23.9707 50.2778C23.8191 50.4295 23.7339 50.6352 23.7339 50.8497C23.7339 51.0642 23.8191 51.2699 23.9707 51.4216C24.1224 51.5733 24.3281 51.6585 24.5426 51.6585H32.7755C32.99 51.6585 33.1957 51.5733 33.3474 51.4216C33.499 51.2699 33.5843 51.0642 33.5843 50.8497C33.5843 50.6352 33.499 50.4295 33.3474 50.2778C33.1957 50.1262 32.99 50.041 32.7755 50.041M51.4485 51.7117H51.4901C51.706 51.7117 51.9131 51.626 52.0658 51.4733C52.2185 51.3206 52.3042 51.1135 52.3042 50.8976C52.3042 50.6817 52.2185 50.4746 52.0658 50.3219C51.9131 50.1692 51.706 50.0834 51.4901 50.0834H51.4485C51.2326 50.0834 51.0255 50.1692 50.8728 50.3219C50.7201 50.4746 50.6344 50.6817 50.6344 50.8976C50.6344 51.1135 50.7201 51.3206 50.8728 51.4733C51.0255 51.626 51.2326 51.7117 51.4485 51.7117ZM36.4973 51.7117H36.5384C36.7543 51.7117 36.9614 51.626 37.1141 51.4733C37.2668 51.3206 37.3526 51.1135 37.3526 50.8976C37.3526 50.6817 37.2668 50.4746 37.1141 50.3219C36.9614 50.1692 36.7543 50.0834 36.5384 50.0834H36.4973C36.2814 50.0834 36.0743 50.1692 35.9216 50.3219C35.7689 50.4746 35.6831 50.6817 35.6831 50.8976C35.6831 51.1135 35.7689 51.3206 35.9216 51.4733C36.0743 51.626 36.2814 51.7117 36.4973 51.7117ZM21.122 51.7117H21.1631C21.379 51.7117 21.5861 51.626 21.7388 51.4733C21.8915 51.3206 21.9773 51.1135 21.9773 50.8976C21.9773 50.6817 21.8915 50.4746 21.7388 50.3219C21.5861 50.1692 21.379 50.0834 21.1631 50.0834H21.122C20.9061 50.0834 20.699 50.1692 20.5463 50.3219C20.3936 50.4746 20.3079 50.6817 20.3079 50.8976C20.3079 51.1135 20.3936 51.3206 20.5463 51.4733C20.699 51.626 20.9061 51.7117 21.122 51.7117ZM18.0573 50.041H9.82437C9.60988 50.041 9.40417 50.1262 9.2525 50.2778C9.10083 50.4295 9.01562 50.6352 9.01562 50.8497C9.01562 51.0642 9.10083 51.2699 9.2525 51.4216C9.40417 51.5733 9.60988 51.6585 9.82437 51.6585H18.0573C18.1635 51.6585 18.2686 51.6375 18.3668 51.5969C18.4649 51.5563 18.554 51.4967 18.6291 51.4216C18.7042 51.3465 18.7638 51.2573 18.8045 51.1592C18.8451 51.0611 18.866 50.9559 18.866 50.8497C18.866 50.7435 18.8451 50.6383 18.8045 50.5402C18.7638 50.4421 18.7042 50.3529 18.6291 50.2778C18.554 50.2027 18.4649 50.1432 18.3668 50.1025C18.2686 50.0619 18.1635 50.041 18.0573 50.041ZM27.9257 33.5761H23.6174V36.1243H19.9145V33.5761H10.3929L16.3287 26.3285H12.5771L19.1514 18.302H15.2485L22.1069 9.92773L28.161 18.302H24.4993L27.9546 23.0804L26.1913 24.2739C26.161 24.2951 26.1308 24.3168 26.101 24.3389C25.9181 24.4626 25.7533 24.6109 25.611 24.7796C25.5159 24.8851 25.4338 25.0017 25.3667 25.1269V25.1291C25.1025 25.5897 24.9997 26.1254 25.0748 26.6511C25.1498 27.1767 25.3984 27.6622 25.781 28.0304C26.1637 28.3986 26.6583 28.6284 27.1865 28.6832C27.7147 28.738 28.246 28.6147 28.6961 28.333L30.5263 30.8617L27.9257 33.5761ZM46.3305 28.4283H43.4229L36.3514 20.0608C36.0515 19.7021 35.6287 19.468 35.1655 19.4041C34.7023 19.3403 34.232 19.4512 33.8462 19.7154L26.4753 24.7087C26.0587 24.9911 25.7712 25.4275 25.6763 25.9218C25.5814 26.4161 25.6867 26.9279 25.9691 27.3445C26.2515 27.7612 26.6878 28.0486 27.1821 28.1435C27.6765 28.2384 28.1882 28.1331 28.6049 27.8507L34.5655 23.8101L41.096 31.5508C41.2741 31.7617 41.4963 31.931 41.7469 32.0468C41.9975 32.1626 42.2704 32.222 42.5464 32.2209H46.335C46.838 32.2203 47.3202 32.02 47.6754 31.6639C48.0307 31.3078 48.2299 30.8251 48.2293 30.3221C48.2287 29.8191 48.0284 29.337 47.6723 28.9817C47.3162 28.6265 46.8335 28.4277 46.3305 28.4283ZM47.2901 19.9023C47.2902 20.6521 47.0679 21.385 46.6514 22.0085C46.2349 22.6319 45.6428 23.1178 44.9501 23.4047C44.2574 23.6916 43.4952 23.7666 42.7598 23.6203C42.0245 23.4739 41.349 23.1128 40.819 22.5825C40.2889 22.0522 39.928 21.3767 39.7819 20.6413C39.6358 19.9059 39.7111 19.1437 39.9983 18.4511C40.2854 17.7585 40.7715 17.1666 41.3951 16.7503C42.0187 16.334 42.7517 16.112 43.5015 16.1123C43.9991 16.1123 44.4919 16.2104 44.9516 16.4009C45.4114 16.5913 45.8291 16.8705 46.1809 17.2225C46.5327 17.5744 46.8118 17.9922 47.0021 18.4521C47.1924 18.9119 47.2903 19.4047 47.2901 19.9023ZM36.216 28.445C36.2105 28.4427 36.2105 28.445 36.216 28.445L36.2105 28.4405C36.1654 28.3953 36.1031 28.3822 36.0602 28.3438C35.9168 28.2162 35.7532 28.1132 35.5761 28.039C35.4149 27.9891 35.248 27.9598 35.0794 27.9519C35.0044 27.9473 34.9371 27.9103 34.8586 27.9103C34.6689 27.9223 34.4824 27.9642 34.3059 28.0345C34.2541 28.0405 34.2031 28.0519 34.1537 28.0684C34.048 28.1245 33.949 28.1925 33.8588 28.2711C33.7424 28.3336 33.6336 28.4093 33.5346 28.4969L17.6071 45.1144C17.4334 45.2935 17.2968 45.5052 17.2052 45.7374C17.1137 45.9695 17.069 46.2174 17.0736 46.4669C17.0783 46.7164 17.1322 46.9624 17.2324 47.191C17.3325 47.4195 17.4769 47.626 17.6571 47.7985C17.8374 47.971 18.05 48.1062 18.2827 48.1962C18.5154 48.2862 18.7636 48.3293 19.0131 48.323C19.2625 48.3167 19.5082 48.2612 19.7361 48.1595C19.964 48.0579 20.1695 47.9122 20.3408 47.7308L34.957 32.4801L40.6467 37.8989H33.0672C32.579 37.9202 32.1179 38.1292 31.78 38.4822C31.442 38.8352 31.2534 39.305 31.2534 39.7936C31.2534 40.2823 31.442 40.7521 31.78 41.1051C32.1179 41.4581 32.579 41.6671 33.0672 41.6884H45.3827C45.7613 41.6881 46.1311 41.5745 46.4445 41.3623C46.758 41.1501 47.0008 40.8489 47.1416 40.4975C47.2825 40.1461 47.315 39.7606 47.2349 39.3906C47.1548 39.0206 46.9658 38.683 46.6922 38.4214L36.216 28.445Z" fill="#B4B4B4"/>
</svg>
