<svg width="64" height="64" viewBox="0 0 64 64" fill="none" xmlns="http://www.w3.org/2000/svg">
<rect width="64" height="64" fill="white"/>
<path d="M32.8317 28.2033C32.2221 27.414 31.5967 26.607 31.0476 25.9085C30.7511 25.5245 30.3245 25.2621 29.8481 25.1707C29.3716 25.0792 28.8782 25.1649 28.4606 25.4118L22.5289 28.9741C22.2036 29.1692 21.8143 29.227 21.4464 29.135C21.0785 29.0429 20.7623 28.8085 20.5673 28.4833C20.3722 28.1581 20.3144 27.7687 20.4064 27.4008C20.4985 27.033 20.7329 26.7167 21.0581 26.5217L27.0102 22.9485C27.0258 22.9419 27.0409 22.934 27.0553 22.925C28.0706 22.3324 29.2676 22.1318 30.4206 22.3609C31.5736 22.5901 32.603 23.2332 33.3144 24.1691C33.9322 24.9548 34.6515 25.8805 35.3334 26.7651L35.4038 26.7258L40.5042 32.8517C30.9762 32.8517 30.2962 36.2533 26.0434 36.2533C23.1534 36.2533 21.791 34.5518 21.791 34.5518L32.8317 28.2033ZM41.2172 22.2815C41.9146 22.2814 42.5964 22.4882 43.1762 22.8755C43.7561 23.2629 44.2081 23.8136 44.475 24.4579C44.7419 25.1021 44.8118 25.8111 44.6758 26.4951C44.5397 27.179 44.2039 27.8073 43.7108 28.3004C43.2177 28.7936 42.5894 29.1294 41.9054 29.2654C41.2214 29.4014 40.5125 29.3316 39.8682 29.0647C39.2239 28.7977 38.6733 28.3458 38.2859 27.7659C37.8985 27.186 37.6918 26.5043 37.6919 25.8069C37.6924 24.872 38.0639 23.9756 38.725 23.3146C39.386 22.6536 40.2824 22.282 41.2172 22.2815ZM49.0099 38.6353C46.6288 37.6148 42.7169 36.2547 39.6548 36.2547C36.7617 36.2547 34.3788 37.1018 32.1693 38.1242C30.1273 38.974 28.2551 39.6554 26.0438 39.6554C22.6417 39.6554 17.1977 37.6152 14.9873 36.7613V40.3368C17.8773 41.524 22.4715 43.0561 26.0438 43.0561C28.9365 43.0561 31.1465 42.2076 33.3591 41.1844C35.4007 40.3368 37.2724 39.6554 39.6544 39.6554C42.7142 39.6554 47.1372 41.524 49.0094 42.3756L49.0099 38.6353Z" fill="#B4B4B4"/>
</svg>
