<svg width="64" height="64" viewBox="0 0 64 64" fill="none" xmlns="http://www.w3.org/2000/svg">
<rect width="64" height="64" fill="white"/>
<path d="M24.0667 16.6371C24.139 16.6011 24.1978 16.5427 24.2344 16.4706C24.2709 16.3986 24.2832 16.3166 24.2695 16.237C24.5948 16.1474 24.8952 15.9844 25.1478 15.7606C26.0455 14.8999 25.5456 13.9774 24.6845 13.0806C23.8233 12.1838 22.9234 11.646 22.0257 12.5067C21.7893 12.7491 21.6117 13.0427 21.5068 13.3646C21.4251 13.3489 21.3406 13.3609 21.2665 13.3987C21.1924 13.4365 21.133 13.4979 21.0977 13.5733C20.7328 13.5932 20.3752 13.6842 20.0451 13.841C19.7599 13.9725 19.4991 14.1514 19.2738 14.3703C18.9418 14.6885 18.6921 15.0828 18.5463 15.519C18.4005 15.9552 18.3629 16.4203 18.4367 16.8743C18.5106 17.3282 18.6936 17.7575 18.9702 18.125C19.2468 18.4925 19.6085 18.7872 20.0243 18.9839C20.4401 19.1805 20.8974 19.2731 21.3569 19.2538C21.8165 19.2344 22.2644 19.1037 22.6622 18.8727C23.06 18.6418 23.3956 18.3177 23.6403 17.9282C23.885 17.5388 24.0313 17.0957 24.0667 16.6371ZM24.0961 13.6419C24.5643 14.1309 24.9265 14.55 24.4366 15.0219C24.2966 15.1551 24.2663 15.1171 24.0301 15.2314C24.0029 15.1677 23.9585 15.1128 23.9019 15.073C23.8453 15.0331 23.7787 15.0098 23.7095 15.0056C23.5941 14.8001 23.4528 14.6103 23.2891 14.4407C23.1216 14.2658 22.9326 14.1128 22.7265 13.9855C22.7259 13.9128 22.7043 13.8418 22.6642 13.7812C22.6241 13.7205 22.5673 13.6728 22.5007 13.6437C22.6262 13.4116 22.591 13.3791 22.7324 13.2445C23.2223 12.7726 23.6269 13.1542 24.0956 13.6423M35.1386 51.9588C34.7046 51.9581 34.2887 51.7853 33.9819 51.4784C33.6751 51.1714 33.5026 50.7554 33.5021 50.3214V37.2771H31.7641V50.321C31.7569 50.7506 31.5813 51.1602 31.2749 51.4615C30.9686 51.7628 30.5561 51.9316 30.1265 51.9316C29.6968 51.9316 29.2843 51.7628 28.978 51.4615C28.6717 51.1602 28.496 50.7506 28.4889 50.321V35.9906C28.4884 35.8127 28.5172 35.6359 28.5742 35.4673C28.4762 35.1885 28.4273 34.8949 28.4297 34.5994L28.4677 25.8508C28.4928 25.1087 28.8062 24.4055 29.3413 23.8907C29.8765 23.3759 30.5912 23.09 31.3337 23.0936H34.4454V23.1229C35.0991 23.1937 35.7041 23.5014 36.1464 23.9878C36.5887 24.4743 36.8375 25.1058 36.846 25.7632L36.8089 34.5086C36.8074 34.8034 36.7562 35.0959 36.6577 35.3738C36.7374 35.57 36.7785 35.7798 36.7787 35.9915V50.321C36.7778 50.7552 36.6049 51.1714 36.2977 51.4783C35.9905 51.7853 35.5742 51.9579 35.1399 51.9583M39.3097 36.4914C38.889 36.5044 38.4804 36.3501 38.1734 36.0623C37.8664 35.7745 37.686 35.3767 37.6719 34.9561V25.3631C37.6986 24.9471 37.8828 24.5569 38.1868 24.2718C38.4909 23.9866 38.8921 23.8279 39.309 23.8279C39.7259 23.8279 40.1271 23.9866 40.4312 24.2718C40.7352 24.5569 40.9194 24.9471 40.9461 25.3631V34.957C40.9321 35.3774 40.752 35.7751 40.4452 36.0629C40.1385 36.3507 39.7301 36.5051 39.3097 36.4923M36.1614 19.0783C36.1656 19.7753 35.963 20.4579 35.5793 21.0398C35.1956 21.6217 34.6479 22.0768 34.0056 22.3476C33.3633 22.6183 32.6552 22.6925 31.9707 22.5608C31.2862 22.4292 30.6561 22.0975 30.1601 21.6078C29.6641 21.1181 29.3244 20.4923 29.1839 19.8095C29.0435 19.1268 29.1086 18.4177 29.3711 17.772C29.6336 17.1263 30.0817 16.5729 30.6586 16.1817C31.2356 15.7906 31.9155 15.5793 32.6126 15.5746C33.5477 15.5688 34.4469 15.9347 35.1124 16.5917C35.7779 17.2487 36.1552 18.1431 36.1614 19.0783ZM26.3173 25.4182C25.8832 25.4178 25.4669 25.2451 25.1601 24.938C24.8532 24.6309 24.6809 24.2145 24.6809 23.7804V16.4465C24.9441 16.3518 25.1843 16.2023 25.3857 16.0081C26.185 15.2436 26.0662 14.4276 25.6115 13.6902C25.8611 13.5704 26.1369 13.5158 26.4133 13.5315C26.6897 13.5473 26.9576 13.633 27.1918 13.7804C27.4261 13.9279 27.6191 14.1324 27.7529 14.3748C27.8866 14.6172 27.9567 14.8895 27.9565 15.1664V23.7804C27.9564 24.2147 27.7838 24.6312 27.4766 24.9384C27.1695 25.2455 26.753 25.4181 26.3187 25.4182" fill="#B4B4B4"/>
</svg>
