<svg width="64" height="64" viewBox="0 0 64 64" fill="none" xmlns="http://www.w3.org/2000/svg">
<rect width="64" height="64" fill="white"/>
<path d="M27.8392 50.4937H9.75501C9.54401 50.4987 9.34332 50.586 9.19585 50.737C9.04838 50.888 8.96582 51.0907 8.96582 51.3017C8.96582 51.5128 9.04838 51.7155 9.19585 51.8665C9.34332 52.0175 9.54401 52.1048 9.75501 52.1098H27.8392C27.9469 52.1124 28.0541 52.0933 28.1543 52.0539C28.2546 52.0144 28.346 51.9553 28.4231 51.88C28.5002 51.8047 28.5614 51.7148 28.6032 51.6155C28.6451 51.5162 28.6666 51.4095 28.6666 51.3017C28.6666 51.194 28.6451 51.0873 28.6032 50.988C28.5614 50.8887 28.5002 50.7988 28.4231 50.7235C28.346 50.6482 28.2546 50.5891 28.1543 50.5496C28.0541 50.5101 27.9469 50.4911 27.8392 50.4937ZM41.5044 51.3516V50.104C41.523 50.0047 41.5195 49.9026 41.4941 49.8049C41.4688 49.7071 41.4222 49.6162 41.3577 49.5385C41.2932 49.4608 41.2124 49.3983 41.121 49.3554C41.0296 49.3124 40.9298 49.2902 40.8289 49.2902C40.7279 49.2902 40.6282 49.3124 40.5368 49.3554C40.4454 49.3983 40.3645 49.4608 40.3 49.5385C40.2356 49.6162 40.189 49.7071 40.1636 49.8049C40.1382 49.9026 40.1347 50.0047 40.1533 50.104V51.3516C40.1347 51.4509 40.1382 51.553 40.1636 51.6507C40.189 51.7485 40.2356 51.8394 40.3 51.9171C40.3645 51.9948 40.4454 52.0573 40.5368 52.1002C40.6282 52.1432 40.7279 52.1654 40.8289 52.1654C40.9298 52.1654 41.0296 52.1432 41.121 52.1002C41.2124 52.0573 41.2932 51.9948 41.3577 51.9171C41.4222 51.8394 41.4688 51.7485 41.4941 51.6507C41.5195 51.553 41.523 51.4509 41.5044 51.3516ZM30.5314 52.1644H30.573C30.7891 52.1644 30.9964 52.0786 31.1493 51.9257C31.3022 51.7729 31.388 51.5655 31.388 51.3494C31.388 51.1332 31.3022 50.9259 31.1493 50.773C30.9964 50.6202 30.7891 50.5343 30.573 50.5343H30.5314C30.3152 50.5343 30.1079 50.6202 29.9551 50.773C29.8022 50.9259 29.7163 51.1332 29.7163 51.3494C29.7163 51.5655 29.8022 51.7729 29.9551 51.9257C30.1079 52.0786 30.3152 52.1644 30.5314 52.1644ZM33.1333 52.1644H33.1744C33.3906 52.1644 33.5979 52.0786 33.7508 51.9257C33.9036 51.7729 33.9895 51.5655 33.9895 51.3494C33.9895 51.1332 33.9036 50.9259 33.7508 50.773C33.5979 50.6202 33.3906 50.5343 33.1744 50.5343H33.1333C32.9172 50.5343 32.7098 50.6202 32.557 50.773C32.4041 50.9259 32.3183 51.1332 32.3183 51.3494C32.3183 51.5655 32.4041 51.7729 32.557 51.9257C32.7098 52.0786 32.9172 52.1644 33.1333 52.1644ZM35.7348 52.1644H35.7763C35.9925 52.1644 36.1998 52.0786 36.3527 51.9257C36.5055 51.7729 36.5914 51.5655 36.5914 51.3494C36.5914 51.1332 36.5055 50.9259 36.3527 50.773C36.1998 50.6202 35.9925 50.5343 35.7763 50.5343H35.7348C35.5186 50.5343 35.3113 50.6202 35.1584 50.773C35.0056 50.9259 34.9197 51.1332 34.9197 51.3494C34.9197 51.5655 35.0056 51.7729 35.1584 51.9257C35.3113 52.0786 35.5186 52.1644 35.7348 52.1644ZM38.3362 52.1644H38.3778C38.5939 52.1644 38.8013 52.0786 38.9541 51.9257C39.107 51.7729 39.1928 51.5655 39.1928 51.3494C39.1928 51.1332 39.107 50.9259 38.9541 50.773C38.8013 50.6202 38.5939 50.5343 38.3778 50.5343H38.3389C38.1228 50.5343 37.9155 50.6202 37.7626 50.773C37.6097 50.9259 37.5239 51.1332 37.5239 51.3494C37.5239 51.5655 37.6097 51.7729 37.7626 51.9257C37.9155 52.0786 38.1228 52.1644 38.3389 52.1644M54.6715 51.3516V50.104C54.6903 50.0047 54.6869 49.9024 54.6617 49.8045C54.6364 49.7067 54.5899 49.6156 54.5254 49.5378C54.4609 49.4599 54.3801 49.3973 54.2886 49.3543C54.1971 49.3113 54.0973 49.289 53.9962 49.289C53.8951 49.289 53.7953 49.3113 53.7038 49.3543C53.6124 49.3973 53.5315 49.4599 53.467 49.5378C53.4025 49.6156 53.356 49.7067 53.3307 49.8045C53.3055 49.9024 53.3021 50.0047 53.3209 50.104V51.3516C53.3025 51.4507 53.3062 51.5527 53.3316 51.6502C53.3571 51.7478 53.4037 51.8385 53.4681 51.916C53.5326 51.9935 53.6133 52.0559 53.7046 52.0987C53.7958 52.1415 53.8954 52.1637 53.9962 52.1637C54.097 52.1637 54.1966 52.1415 54.2878 52.0987C54.3791 52.0559 54.4598 51.9935 54.5243 51.916C54.5887 51.8385 54.6353 51.7478 54.6608 51.6502C54.6862 51.5527 54.6899 51.4507 54.6715 51.3516ZM43.6985 52.1644H43.7401C43.9563 52.1644 44.1636 52.0786 44.3164 51.9257C44.4693 51.7729 44.5552 51.5655 44.5552 51.3494C44.5552 51.1332 44.4693 50.9259 44.3164 50.773C44.1636 50.6202 43.9563 50.5343 43.7401 50.5343H43.699C43.4828 50.5343 43.2755 50.6202 43.1227 50.773C42.9698 50.9259 42.8839 51.1332 42.8839 51.3494C42.8839 51.5655 42.9698 51.7729 43.1227 51.9257C43.2755 52.0786 43.4828 52.1644 43.699 52.1644M46.3004 52.1644H46.3429C46.5591 52.1644 46.7664 52.0786 46.9192 51.9257C47.0721 51.7729 47.158 51.5655 47.158 51.3494C47.158 51.1332 47.0721 50.9259 46.9192 50.773C46.7664 50.6202 46.5591 50.5343 46.3429 50.5343H46.3004C46.0843 50.5343 45.877 50.6202 45.7241 50.773C45.5712 50.9259 45.4854 51.1332 45.4854 51.3494C45.4854 51.5655 45.5712 51.7729 45.7241 51.9257C45.877 52.0786 46.0843 52.1644 46.3004 52.1644ZM48.9019 52.1644H48.9434C49.1596 52.1644 49.3669 52.0786 49.5198 51.9257C49.6726 51.7729 49.7585 51.5655 49.7585 51.3494C49.7585 51.1332 49.6726 50.9259 49.5198 50.773C49.3669 50.6202 49.1596 50.5343 48.9434 50.5343H48.9019C48.6857 50.5343 48.4784 50.6202 48.3256 50.773C48.1727 50.9259 48.0868 51.1332 48.0868 51.3494C48.0868 51.5655 48.1727 51.7729 48.3256 51.9257C48.4784 52.0786 48.6857 52.1644 48.9019 52.1644ZM51.5047 52.1644H51.5463C51.7624 52.1644 51.9697 52.0786 52.1226 51.9257C52.2754 51.7729 52.3613 51.5655 52.3613 51.3494C52.3613 51.1332 52.2754 50.9259 52.1226 50.773C51.9697 50.6202 51.7624 50.5343 51.5463 50.5343H51.5047C51.2885 50.5343 51.0812 50.6202 50.9284 50.773C50.7755 50.9259 50.6896 51.1332 50.6896 51.3494C50.6896 51.5655 50.7755 51.7729 50.9284 51.9257C51.0812 52.0786 51.2885 52.1644 51.5047 52.1644ZM34.8786 24.6101C34.2272 24.8566 33.5173 24.9044 32.8387 24.7474C32.1601 24.5905 31.5432 24.2359 31.0661 23.7285C30.589 23.221 30.2731 22.5835 30.1582 21.8966C30.0434 21.2096 30.1348 20.504 30.4209 19.8689C30.707 19.2339 31.175 18.698 31.7657 18.3289C32.3563 17.9597 33.0432 17.774 33.7394 17.7952C34.4355 17.8164 35.1098 18.0435 35.6769 18.4479C36.2441 18.8522 36.6786 19.4157 36.9255 20.0669C37.0896 20.4996 37.1668 20.9604 37.1528 21.4229C37.1387 21.8855 37.0336 22.3407 36.8435 22.7627C36.6534 23.1846 36.382 23.5649 36.0449 23.8819C35.7077 24.1989 35.3114 24.4463 34.8786 24.6101ZM16.6328 45.6078C16.4222 45.7254 16.19 45.7992 15.9501 45.8249C15.7103 45.8505 15.4677 45.8275 15.237 45.7571C15.0063 45.6867 14.7921 45.5704 14.6075 45.4152C14.4228 45.26 14.2714 45.0691 14.1623 44.854C14.0532 44.6388 13.9887 44.4039 13.9727 44.1632C13.9567 43.9225 13.9894 43.681 14.069 43.4533C14.1486 43.2256 14.2733 43.0163 14.4358 42.838C14.5982 42.6597 14.795 42.516 15.0144 42.4157L17.9757 40.6266L17.9856 40.622C18.3585 40.4332 18.783 40.3718 19.194 40.4473C19.4831 40.399 19.7794 40.4169 20.0606 40.4997L22.8458 41.3125C22.6844 40.9545 22.644 40.5537 22.7308 40.1708C22.8176 39.7878 23.0268 39.4435 23.3267 39.1901C23.7092 38.8916 24.1946 38.7571 24.6762 38.8164C25.1578 38.8757 25.5961 39.1238 25.8948 39.5062L28.9862 43.1156L28.9929 43.1233C29.1768 43.3488 29.3062 43.6137 29.3713 43.8973C29.4364 44.1809 29.4353 44.4757 29.3682 44.7588C29.3581 44.8648 29.3375 44.9694 29.3068 45.0713C29.1592 45.5334 28.8345 45.9182 28.4038 46.1414C27.9731 46.3646 27.4714 46.408 27.0088 46.2621L19.2925 44.0043L16.6418 45.6037L16.6328 45.6078ZM39.8711 15.1304C40.0436 14.9624 40.2483 14.8308 40.4729 14.7437C40.6975 14.6566 40.9373 14.6157 41.1781 14.6234C41.4188 14.6312 41.6555 14.6874 41.874 14.7887C42.0926 14.89 42.2884 15.0344 42.4498 15.2132C42.6112 15.392 42.7349 15.6015 42.8135 15.8292C42.8921 16.0569 42.9239 16.2981 42.9071 16.5384C42.8903 16.7787 42.8252 17.0131 42.7157 17.2276C42.6062 17.4422 42.4545 17.6324 42.2698 17.787L40.846 18.6869L40.8383 18.6951C40.6656 18.863 40.4609 18.9944 40.2363 19.0813C40.0116 19.1683 39.7718 19.2091 39.531 19.2013C39.2903 19.1935 39.0536 19.1372 38.8351 19.0358C38.6166 18.9345 38.4208 18.7901 38.2594 18.6113C38.0979 18.4325 37.9742 18.223 37.8956 17.9954C37.8169 17.7677 37.785 17.5265 37.8017 17.2862C37.8184 17.0459 37.8834 16.8114 37.9928 16.5968C38.1021 16.3822 38.2537 16.1919 38.4383 16.0372L39.8634 15.1385L39.8711 15.1304ZM28.9324 11.2637C29.1127 11.1043 29.3232 10.9829 29.5514 10.9067C29.7796 10.8304 30.0208 10.801 30.2606 10.8201C30.5005 10.8392 30.734 10.9064 30.9473 11.0178C31.1605 11.1291 31.3492 11.2824 31.5019 11.4682C31.6547 11.6541 31.7684 11.8689 31.8362 12.0997C31.9041 12.3305 31.9248 12.5727 31.897 12.8117C31.8692 13.0506 31.7936 13.2816 31.6745 13.4907C31.5555 13.6998 31.3956 13.8827 31.2042 14.0286L27.8627 16.9227L28.116 21.1945V21.2071C28.1331 21.4475 28.1015 21.6888 28.0231 21.9167C27.9447 22.1446 27.8212 22.3543 27.6599 22.5334C27.4986 22.7124 27.3028 22.8571 27.0843 22.9587C26.8658 23.0603 26.629 23.1168 26.3881 23.1248C26.1473 23.1328 25.9073 23.0921 25.6825 23.0052C25.4577 22.9183 25.2528 22.7869 25.08 22.619C24.9072 22.451 24.77 22.25 24.6767 22.0278C24.5834 21.8056 24.5358 21.5668 24.5369 21.3259L24.257 16.5845V16.5723C24.2398 16.0849 24.4103 15.6095 24.7334 15.2442C24.848 14.9058 25.0549 14.6061 25.3308 14.379L28.9243 11.2705L28.9324 11.2637ZM26.0212 24.2714C26.3284 23.7699 26.8214 23.4102 27.3927 23.2706C27.9639 23.131 28.5673 23.223 29.0711 23.5263C30.1273 24.1662 31.2336 26.0068 30.5978 27.0616L26.3341 33.5727L29.4477 33.0209L29.4581 33.0186C29.7144 32.9727 29.9774 32.9797 30.2309 33.0393C30.4843 33.0988 30.7229 33.2097 30.932 33.365C31.1613 33.4457 31.3736 33.5682 31.5583 33.7262L40.2251 40.1836L43.2077 38.8027L43.2181 38.7995C43.4357 38.6945 43.6724 38.6346 43.9138 38.6235C44.1552 38.6124 44.3964 38.6502 44.6228 38.7348C44.8492 38.8194 45.0561 38.9489 45.2311 39.1156C45.4061 39.2823 45.5456 39.4827 45.641 39.7047C45.7365 39.9267 45.7861 40.1657 45.7867 40.4074C45.7873 40.6491 45.739 40.8884 45.6447 41.1109C45.5503 41.3334 45.4119 41.5345 45.2378 41.7021C45.0637 41.8697 44.8574 42.0003 44.6315 42.086L40.8835 43.8232L40.8736 43.8277C40.5912 43.9504 40.2831 44.0023 39.9762 43.9787C39.6692 43.9551 39.3727 43.8567 39.1125 43.6922C38.8709 43.6132 38.6473 43.4872 38.4545 43.3215L29.3303 36.5205L22.5902 37.8689C21.669 38.1538 20.2164 37.7077 19.4126 37.22C18.9063 36.9147 18.5417 36.4211 18.3989 35.8474C18.2561 35.2737 18.3467 34.6667 18.6508 34.1597L26.0113 24.2827L26.0212 24.2714Z" fill="#B4B4B4"/>
</svg>
