<svg width="32" height="32" viewBox="0 0 32 32" fill="none" xmlns="http://www.w3.org/2000/svg">
<path d="M7.9987 12.0002C6.93783 12.0002 5.92042 12.4216 5.17027 13.1717C4.42013 13.9219 3.9987 14.9393 3.9987 16.0002C3.9987 17.061 4.42013 18.0784 5.17027 18.8286C5.92042 19.5787 6.93783 20.0002 7.9987 20.0002C9.05956 20.0002 10.077 19.5787 10.8271 18.8286C11.5773 18.0784 11.9987 17.061 11.9987 16.0002C11.9987 14.9393 11.5773 13.9219 10.8271 13.1717C10.077 12.4216 9.05956 12.0002 7.9987 12.0002ZM1.33203 16.0002C1.33216 14.7344 1.69262 13.4949 2.37126 12.4265C3.0499 11.358 4.01867 10.5049 5.16431 9.96673C6.30995 9.4286 7.58511 9.22772 8.84071 9.38758C10.0963 9.54745 11.2805 10.0615 12.2547 10.8695C13.2524 9.88551 14.5974 9.33375 15.9987 9.3335C17.4587 9.3335 18.78 9.92016 19.7427 10.8695C21.0139 9.81633 22.6307 9.27228 24.28 9.34267C25.9294 9.41305 27.4939 10.0929 28.6708 11.2505C29.8477 12.4082 30.5532 13.9613 30.6508 15.6092C30.7484 17.2572 30.2311 18.8827 29.199 20.1711C28.167 21.4596 26.6936 22.3193 25.0641 22.5838C23.4346 22.8483 21.7649 22.4989 20.3783 21.6031C18.9916 20.7073 17.9866 19.3289 17.5579 17.7347C17.1291 16.1405 17.3071 14.444 18.0574 12.9735C17.8074 12.6693 17.4931 12.4243 17.1371 12.256C16.7812 12.0877 16.3924 12.0004 15.9987 12.0002C15.172 12.0002 14.4294 12.3775 13.94 12.9735C14.3971 13.8715 14.6447 14.8614 14.6641 15.8688C14.6836 16.8763 14.4744 17.875 14.0524 18.79C13.6303 19.7049 13.0063 20.5123 12.2274 21.1515C11.4484 21.7906 10.5347 22.2449 9.55488 22.4801C8.5751 22.7153 7.55474 22.7253 6.57051 22.5095C5.58629 22.2936 4.66379 21.8574 3.87238 21.2338C3.08096 20.6101 2.44121 19.8152 2.00121 18.9087C1.56122 18.0022 1.33242 17.0078 1.33203 16.0002ZM23.9987 12.0002C23.4732 11.9995 22.9528 12.1024 22.4671 12.3032C21.9815 12.504 21.5403 12.7986 21.1687 13.1702C20.7971 13.5417 20.5025 13.983 20.3018 14.4686C20.101 14.9542 19.998 15.4747 19.9987 16.0002C19.9987 16.7913 20.2333 17.5646 20.6728 18.2224C21.1123 18.8802 21.7371 19.3929 22.468 19.6957C23.1989 19.9984 24.0031 20.0776 24.7791 19.9233C25.555 19.769 26.2677 19.388 26.8271 18.8286C27.3865 18.2692 27.7675 17.5564 27.9218 16.7805C28.0762 16.0046 27.997 15.2003 27.6942 14.4694C27.3915 13.7385 26.8788 13.1138 26.221 12.6743C25.5632 12.2348 24.7898 12.0002 23.9987 12.0002Z" fill="#202020"/>
</svg>
