<svg width="64" height="64" viewBox="0 0 64 64" fill="none" xmlns="http://www.w3.org/2000/svg">
<rect width="64" height="64"/>
<path d="M45.6775 28.2122H42.7699L35.698 19.8452C35.3978 19.4865 34.9749 19.2524 34.5116 19.1886C34.0483 19.1247 33.5778 19.2356 33.1918 19.4997L25.8219 24.4931C25.4051 24.7755 25.1177 25.2118 25.0226 25.7061C24.9276 26.2004 25.0329 26.7122 25.3152 27.1289C25.5975 27.5456 26.0339 27.8331 26.5282 27.9281C27.0225 28.0231 27.5343 27.9179 27.951 27.6355L33.9116 23.5945L40.443 31.3352C40.621 31.5462 40.8432 31.7156 41.0938 31.8314C41.3444 31.9472 41.6174 32.0065 41.8934 32.0053H45.682C46.185 32.0047 46.6672 31.8043 47.0225 31.4482C47.3777 31.0921 47.5769 30.6095 47.5763 30.1065C47.5758 29.6035 47.3754 29.1213 47.0193 28.7661C46.6632 28.4108 46.1805 28.2116 45.6775 28.2122ZM46.6357 19.688C46.6357 20.4377 46.4134 21.1706 45.9968 21.7939C45.5803 22.4172 44.9882 22.903 44.2955 23.1898C43.6028 23.4765 42.8407 23.5514 42.1054 23.405C41.3701 23.2585 40.6948 22.8973 40.1649 22.367C39.635 21.8367 39.2742 21.1611 39.1283 20.4258C38.9824 19.6904 39.0578 18.9283 39.3451 18.2358C39.6323 17.5433 40.1185 16.9516 40.7422 16.5355C41.3658 16.1194 42.0988 15.8975 42.8485 15.8981C43.346 15.8981 43.8387 15.9962 44.2984 16.1867C44.758 16.3773 45.1756 16.6565 45.5273 17.0084C45.879 17.3604 46.1579 17.7782 46.3481 18.238C46.5383 18.6977 46.636 19.1905 46.6357 19.688ZM35.5639 28.2293C35.5594 28.2271 35.5594 28.2293 35.5639 28.2293L35.5594 28.2248H35.5557C35.5106 28.1797 35.4492 28.1666 35.4067 28.1282C35.2633 28.0006 35.0997 27.8976 34.9227 27.8234C34.7614 27.7735 34.5945 27.7442 34.4259 27.7362C34.3519 27.7317 34.2832 27.6947 34.206 27.6947C34.0161 27.7066 33.8292 27.7485 33.6524 27.8189C33.6005 27.8247 33.5493 27.8361 33.4998 27.8527C33.3944 27.9086 33.2958 27.9767 33.2063 28.0555C33.0894 28.1177 32.9803 28.1935 32.8811 28.2813L16.9532 44.8988C16.7814 45.0783 16.6466 45.2899 16.5566 45.5215C16.4666 45.7531 16.4231 46.0002 16.4286 46.2486C16.434 46.4971 16.4884 46.742 16.5885 46.9694C16.6886 47.1968 16.8326 47.4023 17.0121 47.5741C17.1916 47.7459 17.4032 47.8806 17.6348 47.9706C17.8664 48.0606 18.1135 48.1041 18.3619 48.0987C18.6104 48.0932 18.8553 48.0389 19.0827 47.9387C19.3101 47.8386 19.5156 47.6947 19.6874 47.5151L34.3045 32.2632L39.9942 37.6819H32.4138C31.9256 37.7032 31.4644 37.9122 31.1265 38.2652C30.7886 38.6182 30.6 39.088 30.6 39.5767C30.6 40.0653 30.7886 40.5352 31.1265 40.8882C31.4644 41.2412 31.9256 41.4501 32.4138 41.4714H44.7324C45.1107 41.4704 45.48 41.3563 45.7929 41.1438C46.1058 40.9313 46.348 40.6301 46.4884 40.2788C46.6288 39.9276 46.661 39.5424 46.5808 39.1727C46.5006 38.8031 46.3117 38.4658 46.0383 38.2044L35.5639 28.2293Z" fill="#B4B4B4"/>
</svg>
