<svg width="64" height="64" viewBox="0 0 64 64" fill="none" xmlns="http://www.w3.org/2000/svg">
<rect width="64" height="64" fill="white"/>
<path d="M27.7526 50.9982C27.6395 51.2108 27.4847 51.3985 27.2973 51.5499C27.11 51.7013 26.8941 51.8134 26.6625 51.8795C26.4309 51.9455 26.1883 51.9642 25.9493 51.9344C25.7103 51.9045 25.4798 51.8268 25.2715 51.7059C25.0632 51.5849 24.8815 51.4232 24.7371 51.2303C24.5928 51.0375 24.4888 50.8176 24.4314 50.5837C24.374 50.3497 24.3644 50.1066 24.4031 49.8689C24.4418 49.6312 24.5281 49.4037 24.6567 49.2001L30.5469 40.3296L30.5523 40.3205C30.6651 40.1071 30.8198 39.9186 31.0072 39.7664C31.1946 39.6143 31.4108 39.5015 31.6429 39.435C31.8749 39.3684 32.118 39.3495 32.3576 39.3792C32.5972 39.409 32.8282 39.4869 33.037 39.6082C33.2457 39.7294 33.4277 39.8917 33.5722 40.0851C33.7167 40.2785 33.8206 40.4991 33.8777 40.7336C33.9348 40.9682 33.9439 41.2119 33.9045 41.45C33.865 41.6882 33.7779 41.9159 33.6482 42.1196L27.7581 50.9883L27.7526 50.9982ZM28.369 19.2154C28.5576 19.0645 28.7747 18.9532 29.0073 18.8884C29.2399 18.8235 29.4833 18.8064 29.7227 18.838C29.9621 18.8696 30.1927 18.9494 30.4005 19.0724C30.6083 19.1954 30.7891 19.3592 30.932 19.5539C31.0749 19.7486 31.177 19.9702 31.232 20.2053C31.287 20.4405 31.294 20.6843 31.2523 20.9222C31.2107 21.1601 31.1214 21.3871 30.9898 21.5896C30.8581 21.7921 30.6869 21.9658 30.4864 22.1004L23.018 29.0423L23.009 29.0491C22.8199 29.1972 22.6029 29.3058 22.371 29.3684C22.1391 29.431 21.897 29.4464 21.659 29.4136C21.421 29.3808 21.1921 29.3005 20.9858 29.1774C20.7795 29.0544 20.6 28.8911 20.4581 28.6974C20.3161 28.5036 20.2145 28.2833 20.1594 28.0495C20.1043 27.8157 20.0967 27.5732 20.1371 27.3364C20.1776 27.0996 20.2652 26.8734 20.3948 26.6711C20.5244 26.4689 20.6934 26.2947 20.8916 26.1591L28.3609 19.2208L28.369 19.2154ZM37.2698 18.5977C37.5109 18.5906 37.751 18.6323 37.9756 18.7204C38.2001 18.8084 38.4046 18.9409 38.5767 19.1099C38.7488 19.279 38.885 19.481 38.9771 19.704C39.0691 19.927 39.1152 20.1662 39.1125 20.4075C39.1098 20.6487 39.0584 20.8868 38.9613 21.1077C38.8643 21.3285 38.7236 21.5275 38.5477 21.6926C38.3719 21.8577 38.1645 21.9856 37.9379 22.0686C37.7114 22.1515 37.4705 22.1879 37.2296 22.1754L29.9215 22.2427H29.9102C29.6694 22.2488 29.4299 22.2064 29.2059 22.1178C28.982 22.0293 28.7781 21.8965 28.6067 21.7274C28.4352 21.5583 28.2996 21.3563 28.2079 21.1336C28.1163 20.9109 28.0705 20.672 28.0733 20.4311C28.0761 20.1903 28.1274 19.9525 28.2242 19.732C28.321 19.5114 28.4612 19.3127 28.6366 19.1476C28.812 18.9825 29.0188 18.8545 29.2448 18.7712C29.4707 18.6879 29.7112 18.651 29.9517 18.6627L37.2585 18.5968L37.2698 18.5977ZM35.5696 19.3554C35.9512 18.9075 36.4941 18.6284 37.0804 18.5787C37.6666 18.529 38.2488 18.7127 38.7003 19.0899C39.6441 19.8855 40.451 21.8751 39.6594 22.818L29.9472 33.8126L28.6549 34.4403C27.8655 35.3683 26.4874 33.8921 25.5499 33.1019C25.0969 32.722 24.8133 32.1778 24.7614 31.5888C24.7095 30.9999 24.8936 30.4145 25.2731 29.9612L35.5615 19.3667L35.5696 19.3554ZM51.503 52.1637H51.5446C51.7607 52.1637 51.9679 52.0778 52.1208 51.925C52.2736 51.7722 52.3594 51.565 52.3594 51.3488C52.3594 51.1327 52.2736 50.9255 52.1208 50.7727C51.9679 50.6198 51.7607 50.534 51.5446 50.534H51.503C51.2869 50.534 51.0797 50.6198 50.9269 50.7727C50.774 50.9255 50.6882 51.1327 50.6882 51.3488C50.6882 51.565 50.774 51.7722 50.9269 51.925C51.0797 52.0778 51.2869 52.1637 51.503 52.1637ZM48.9016 52.1637H48.9427C49.0497 52.1637 49.1556 52.1426 49.2545 52.1017C49.3534 52.0607 49.4432 52.0007 49.5189 51.925C49.5945 51.8494 49.6545 51.7595 49.6955 51.6607C49.7364 51.5618 49.7575 51.4558 49.7575 51.3488C49.7575 51.2418 49.7364 51.1359 49.6955 51.037C49.6545 50.9382 49.5945 50.8483 49.5189 50.7727C49.4432 50.697 49.3534 50.637 49.2545 50.596C49.1556 50.5551 49.0497 50.534 48.9427 50.534H48.9016C48.6855 50.534 48.4782 50.6198 48.3254 50.7727C48.1726 50.9255 48.0867 51.1327 48.0867 51.3488C48.0867 51.565 48.1726 51.7722 48.3254 51.925C48.4782 52.0778 48.6855 52.1637 48.9016 52.1637ZM46.2997 52.1637H46.3412C46.4482 52.1637 46.5542 52.1426 46.653 52.1017C46.7519 52.0607 46.8417 52.0007 46.9174 51.925C46.9931 51.8494 47.0531 51.7595 47.094 51.6607C47.135 51.5618 47.1561 51.4558 47.1561 51.3488C47.1561 51.2418 47.135 51.1359 47.094 51.037C47.0531 50.9382 46.9931 50.8483 46.9174 50.7727C46.8417 50.697 46.7519 50.637 46.653 50.596C46.5542 50.5551 46.4482 50.534 46.3412 50.534H46.2997C46.0836 50.534 45.8763 50.6198 45.7235 50.7727C45.5707 50.9255 45.4848 51.1327 45.4848 51.3488C45.4848 51.565 45.5707 51.7722 45.7235 51.925C45.8763 52.0778 46.0836 52.1637 46.2997 52.1637ZM43.6969 52.1637H43.7398C43.9559 52.1637 44.1631 52.0778 44.316 51.925C44.4688 51.7722 44.5546 51.565 44.5546 51.3488C44.5546 51.1327 44.4688 50.9255 44.316 50.7727C44.1631 50.6198 43.9559 50.534 43.7398 50.534H43.6969C43.4808 50.534 43.2735 50.6198 43.1207 50.7727C42.9679 50.9255 42.882 51.1327 42.882 51.3488C42.882 51.565 42.9679 51.7722 43.1207 51.925C43.2735 52.0778 43.4808 52.1637 43.6969 52.1637ZM54.6698 51.3509V50.1046C54.6886 50.0053 54.6853 49.9031 54.66 49.8053C54.6348 49.7075 54.5883 49.6165 54.5239 49.5387C54.4594 49.4609 54.3786 49.3983 54.2872 49.3553C54.1958 49.3124 54.096 49.2901 53.995 49.2901C53.894 49.2901 53.7942 49.3124 53.7028 49.3553C53.6114 49.3983 53.5306 49.4609 53.4661 49.5387C53.4017 49.6165 53.3552 49.7075 53.3299 49.8053C53.3047 49.9031 53.3014 50.0053 53.3201 50.1046V51.3509C53.3018 51.4499 53.3054 51.5518 53.3308 51.6493C53.3563 51.7468 53.4028 51.8375 53.4672 51.9149C53.5316 51.9924 53.6123 52.0547 53.7035 52.0975C53.7947 52.1403 53.8942 52.1624 53.995 52.1624C54.0957 52.1624 54.1952 52.1403 54.2864 52.0975C54.3777 52.0547 54.4583 51.9924 54.5227 51.9149C54.5872 51.8375 54.6337 51.7468 54.6591 51.6493C54.6846 51.5518 54.6882 51.4499 54.6698 51.3509ZM38.3382 52.1637H38.3797C38.4867 52.1637 38.5927 52.1426 38.6915 52.1017C38.7904 52.0607 38.8802 52.0007 38.9559 51.925C39.0316 51.8494 39.0916 51.7595 39.1325 51.6607C39.1735 51.5618 39.1946 51.4558 39.1946 51.3488C39.1946 51.2418 39.1735 51.1359 39.1325 51.037C39.0916 50.9382 39.0316 50.8483 38.9559 50.7727C38.8802 50.697 38.7904 50.637 38.6915 50.596C38.5927 50.5551 38.4867 50.534 38.3797 50.534H38.3377C38.1216 50.534 37.9144 50.6198 37.7615 50.7727C37.6087 50.9255 37.5229 51.1327 37.5229 51.3488C37.5229 51.565 37.6087 51.7722 37.7615 51.925C37.9144 52.0778 38.1221 52.1637 38.3382 52.1637ZM35.7354 52.1637H35.7778C35.9939 52.1637 36.2012 52.0778 36.354 51.925C36.5068 51.7722 36.5927 51.565 36.5927 51.3488C36.5927 51.1327 36.5068 50.9255 36.354 50.7727C36.2012 50.6198 35.9939 50.534 35.7778 50.534H35.7354C35.5193 50.534 35.312 50.6198 35.1592 50.7727C35.0064 50.9255 34.9205 51.1327 34.9205 51.3488C34.9205 51.565 35.0064 51.7722 35.1592 51.925C35.312 52.0778 35.5193 52.1637 35.7354 52.1637ZM33.1335 52.1637H33.1764C33.3925 52.1637 33.5997 52.0778 33.7525 51.925C33.9054 51.7722 33.9912 51.565 33.9912 51.3488C33.9912 51.1327 33.9054 50.9255 33.7525 50.7727C33.5997 50.6198 33.3925 50.534 33.1764 50.534H33.1335C32.9173 50.534 32.7101 50.6198 32.5573 50.7727C32.4045 50.9255 32.3186 51.1327 32.3186 51.3488C32.3186 51.565 32.4045 51.7722 32.5573 51.925C32.7101 52.0778 32.9173 52.1637 33.1335 52.1637ZM30.532 52.1637H30.5745C30.7906 52.1637 30.9978 52.0778 31.1506 51.925C31.3034 51.7722 31.3893 51.565 31.3893 51.3488C31.3893 51.1327 31.3034 50.9255 31.1506 50.7727C30.9978 50.6198 30.7906 50.534 30.5745 50.534H30.532C30.3159 50.534 30.1086 50.6198 29.9558 50.7727C29.803 50.9255 29.7172 51.1327 29.7172 51.3488C29.7172 51.565 29.803 51.7722 29.9558 51.925C30.1086 52.0778 30.3159 52.1637 30.532 52.1637ZM41.5023 51.3509V50.1046C41.5212 50.0053 41.518 49.9031 41.4929 49.8052C41.4678 49.7073 41.4214 49.6162 41.357 49.5383C41.2926 49.4605 41.2118 49.3978 41.1204 49.3547C41.0289 49.3117 40.9291 49.2894 40.8281 49.2894C40.727 49.2894 40.6272 49.3117 40.5358 49.3547C40.4444 49.3978 40.3636 49.4605 40.2992 49.5383C40.2348 49.6162 40.1884 49.7073 40.1632 49.8052C40.1381 49.9031 40.1349 50.0053 40.1539 50.1046V51.3509C40.1353 51.4499 40.1388 51.5519 40.1641 51.6494C40.1894 51.747 40.2359 51.8378 40.3003 51.9153C40.3646 51.9929 40.4453 52.0553 40.5365 52.0981C40.6278 52.141 40.7273 52.1632 40.8281 52.1632C40.9289 52.1632 41.0284 52.141 41.1196 52.0981C41.2109 52.0553 41.2915 51.9929 41.3559 51.9153C41.4203 51.8378 41.4668 51.747 41.4921 51.6494C41.5173 51.5519 41.5208 51.4499 41.5023 51.3509ZM33.609 39.8315C33.7518 40.0261 33.8539 40.2477 33.909 40.4827C33.9641 40.7178 33.9711 40.9616 33.9296 41.1994C33.8881 41.4373 33.7989 41.6643 33.6674 41.8668C33.536 42.0693 33.3649 42.2432 33.1646 42.3779C32.9642 42.5127 32.7387 42.6055 32.5016 42.6509C32.2644 42.6963 32.0206 42.6933 31.7846 42.642C31.5487 42.5908 31.3255 42.4923 31.1286 42.3527C30.9316 42.213 30.765 42.0349 30.6386 41.8292L25.237 32.6512L25.2316 32.6426C25.0888 32.4478 24.9869 32.2262 24.932 31.991C24.877 31.7559 24.8702 31.512 24.9118 31.2741C24.9535 31.0363 25.0428 30.8093 25.1744 30.6068C25.306 30.4043 25.4771 30.2304 25.6775 30.0957C25.878 29.961 26.1036 29.8682 26.3408 29.8229C26.578 29.7776 26.8219 29.7806 27.0579 29.8319C27.2939 29.8832 27.5171 29.9817 27.7141 30.1214C27.911 30.2611 28.0778 30.4392 28.2042 30.6449L33.6022 39.8216L33.609 39.8315ZM43.7813 20.1086C43.1298 20.355 42.4198 20.4027 41.7412 20.2457C41.0626 20.0887 40.4457 19.7339 39.9687 19.2264C39.4917 18.7188 39.1758 18.0812 39.0611 17.3941C38.9464 16.7071 39.038 16.0014 39.3243 15.3664C39.6107 14.7314 40.0788 14.1956 40.6697 13.8266C41.2605 13.4577 41.9474 13.2722 42.6437 13.2937C43.3399 13.3151 44.0141 13.5425 44.5812 13.9471C45.1482 14.3517 45.5825 14.9154 45.8291 15.5668C45.993 15.9994 46.07 16.4602 46.0558 16.9226C46.0415 17.3851 45.9363 17.8402 45.7461 18.2619C45.556 18.6837 45.2846 19.0639 44.9474 19.3807C44.6103 19.6976 44.2141 19.9449 43.7813 20.1086ZM22.8577 50.4198H12.0744C11.8599 50.4198 11.6542 50.505 11.5025 50.6566C11.3508 50.8083 11.2656 51.014 11.2656 51.2285C11.2656 51.443 11.3508 51.6487 11.5025 51.8004C11.6542 51.952 11.8599 52.0372 12.0744 52.0372H22.8577C23.0722 52.0372 23.2779 51.952 23.4296 51.8004C23.5812 51.6487 23.6664 51.443 23.6664 51.2285C23.6664 51.014 23.5812 50.8083 23.4296 50.6566C23.2779 50.505 23.0722 50.4198 22.8577 50.4198Z" fill="#B4B4B4"/>
</svg>
