<svg width="64" height="64" viewBox="0 0 64 64" fill="none" xmlns="http://www.w3.org/2000/svg">
<rect width="64" height="64" fill="white"/>
<path d="M19.5242 25.8298C19.9616 26.3729 20.2281 27.0336 20.2899 27.7281C20.3517 28.4227 20.2062 29.12 19.8716 29.7318C19.537 30.3437 19.0285 30.8425 18.4104 31.1653C17.7923 31.488 17.0923 31.6202 16.399 31.5451C15.7058 31.4699 15.0504 31.1908 14.5157 30.7431C13.9811 30.2954 13.5913 29.6992 13.3956 29.0299C13.1999 28.3606 13.2072 27.6483 13.4164 26.9831C13.6256 26.3179 14.0274 25.7297 14.571 25.2929C15.2993 24.7079 16.23 24.4358 17.1587 24.5365C18.0874 24.6372 18.9382 25.1023 19.5242 25.8298ZM10.7188 45.7591H51.843V47.0939H10.7188V45.7591ZM47.3771 44.5665C46.9583 44.959 46.4021 45.1713 45.8282 45.1577C45.2544 45.1441 44.7089 44.9057 44.3092 44.4938L39.1419 39.2448L34.0171 44.4491C33.8133 44.6592 33.5694 44.8262 33.2999 44.9404C33.0304 45.0546 32.7407 45.1135 32.448 45.1138C31.8856 45.2507 31.2981 45.2462 30.7379 45.1007C30.1778 44.9552 29.6624 44.6731 29.2378 44.2798L20.6825 36.279C20.1368 35.7157 19.7734 35.001 19.6396 34.2282C19.5059 33.4554 19.608 32.6602 19.9327 31.9463C20.2573 31.2323 20.7895 30.6327 21.4598 30.2256C22.1301 29.8184 22.9076 29.6226 23.6908 29.6636L25.6262 28.8101L21.2402 27.2342L21.3874 27.2866C21.1434 27.2102 20.9175 27.0853 20.723 26.9194C20.5286 26.7535 20.3697 26.55 20.2559 26.3211C20.1421 26.0922 20.0757 25.8427 20.0608 25.5875C20.0458 25.3324 20.0826 25.0768 20.1689 24.8362C20.2552 24.5957 20.3893 24.375 20.563 24.1875C20.7368 24 20.9466 23.8496 21.1799 23.7453C21.4133 23.6409 21.6653 23.5848 21.9209 23.5804C22.1764 23.5759 22.4303 23.6231 22.6671 23.7192L31.3665 26.8422C31.7217 26.9717 32.0303 27.2042 32.2526 27.51C32.4749 27.8159 32.6008 28.1811 32.6143 28.559C32.6278 28.9369 32.5282 29.3101 32.3282 29.6311C32.1283 29.952 31.8371 30.2059 31.492 30.3603L27.3692 32.1797L27.3882 32.3043L33.865 38.3553L36.0654 36.1191L36.1964 35.9837L37.8071 34.3504C38.1439 34.0132 38.5954 33.8154 39.0716 33.7965C39.5478 33.7775 40.0136 33.9389 40.376 34.2483L42.2067 36.1078L42.2166 36.1169L47.4412 41.4254C47.6435 41.631 47.8034 41.8744 47.9116 42.1417C48.0198 42.4091 48.0742 42.6952 48.0718 42.9836C48.0694 43.272 48.0101 43.5571 47.8974 43.8226C47.7847 44.0881 47.6208 44.3287 47.415 44.5308L47.3771 44.5665Z" fill="#B4B4B4"/>
</svg>
