<svg width="64" height="64" viewBox="0 0 64 64" fill="none" xmlns="http://www.w3.org/2000/svg">
<rect width="64" height="64"/>
<path d="M40.4452 28.2295C40.4407 28.2295 40.4407 28.2272 40.4452 28.2295L40.4407 28.225H40.4375C40.3951 28.1798 40.3323 28.1667 40.2894 28.1284C40.1454 28.0012 39.982 27.898 39.8053 27.8226C39.6432 27.7734 39.4756 27.7444 39.3063 27.7364C39.2323 27.7319 39.1641 27.6958 39.0869 27.6958C38.8971 27.7079 38.7104 27.7492 38.5333 27.8181C38.4818 27.8246 38.431 27.8358 38.3815 27.8515C38.2764 27.9084 38.1779 27.9768 38.088 28.0557C37.9718 28.1178 37.8634 28.1936 37.7651 28.2814L21.834 44.9003C21.6588 45.0793 21.5209 45.2912 21.4282 45.5239C21.3355 45.7566 21.2899 46.0053 21.2941 46.2557C21.2982 46.5061 21.352 46.7532 21.4523 46.9827C21.5527 47.2121 21.6975 47.4194 21.8785 47.5925C22.0595 47.7656 22.2731 47.9011 22.5068 47.991C22.7405 48.081 22.9898 48.1237 23.2401 48.1166C23.4905 48.1096 23.7369 48.0529 23.9652 47.9499C24.1935 47.8469 24.3991 47.6997 24.57 47.5167L39.1876 32.2633L44.8773 37.6821H37.2955C36.8073 37.7034 36.3462 37.9123 36.0083 38.2653C35.6703 38.6183 35.4817 39.0882 35.4817 39.5768C35.4817 40.0655 35.6703 40.5353 36.0083 40.8883C36.3462 41.2413 36.8073 41.4503 37.2955 41.4716H49.6133C49.9916 41.4708 50.361 41.3568 50.6741 41.1443C50.9871 40.9319 51.2295 40.6307 51.37 40.2794C51.5105 39.9281 51.5428 39.5428 51.4626 39.1731C51.3824 38.8034 51.1935 38.4661 50.9201 38.2045L40.4452 28.2295ZM13.434 32.0032H27.8217C28.3099 31.9819 28.7711 31.773 29.109 31.4199C29.4469 31.0669 29.6355 30.5971 29.6355 30.1085C29.6355 29.6198 29.4469 29.15 29.109 28.797C28.7711 28.444 28.3099 28.235 27.8217 28.2137H13.434C12.9458 28.235 12.4847 28.444 12.1468 28.797C11.8089 29.15 11.6202 29.6198 11.6202 30.1085C11.6202 30.5971 11.8089 31.0669 12.1468 31.4199C12.4847 31.773 12.9458 31.9819 13.434 32.0032ZM13.434 37.6875H24.0345C24.5368 37.6875 25.0185 37.488 25.3736 37.1328C25.7288 36.7776 25.9283 36.2959 25.9283 35.7936C25.9283 35.2914 25.7288 34.8096 25.3736 34.4545C25.0185 34.0993 24.5368 33.8998 24.0345 33.8998H13.434C12.9318 33.8998 12.45 34.0993 12.0949 34.4545C11.7397 34.8096 11.5402 35.2914 11.5402 35.7936C11.5402 36.2959 11.7397 36.7776 12.0949 37.1328C12.45 37.488 12.9318 37.6875 13.434 37.6875ZM22.1379 41.4806C22.1379 40.978 21.9384 40.4959 21.5832 40.1403C21.228 39.7847 20.7462 39.5847 20.2436 39.5841H13.434C12.931 39.5841 12.4486 39.7839 12.093 40.1395C11.7373 40.4952 11.5375 40.9776 11.5375 41.4806C11.5375 41.9836 11.7373 42.466 12.093 42.8217C12.4486 43.1774 12.931 43.3772 13.434 43.3772H20.2436C20.7466 43.3772 21.229 43.1774 21.5847 42.8217C21.9404 42.466 22.1402 41.9836 22.1402 41.4806M51.2565 19.6882C51.2565 20.3854 51.0497 21.067 50.6624 21.6468C50.275 22.2265 49.7244 22.6784 49.0802 22.9452C48.4361 23.212 47.7272 23.2818 47.0434 23.1458C46.3595 23.0098 45.7314 22.674 45.2383 22.181C44.7453 21.688 44.4096 21.0598 44.2735 20.376C44.1375 19.6921 44.2073 18.9833 44.4741 18.3391C44.741 17.6949 45.1928 17.1443 45.7726 16.757C46.3523 16.3696 47.0339 16.1628 47.7311 16.1628C48.666 16.1631 49.5626 16.5346 50.2237 17.1957C50.8848 17.8567 51.2563 18.7533 51.2565 19.6882ZM50.5615 28.2132H47.6548L40.582 19.844C40.281 19.4853 39.8573 19.2515 39.3935 19.1879C38.9296 19.1243 38.4586 19.2355 38.0722 19.4999L30.7068 24.4933C30.5004 24.633 30.3237 24.8121 30.1865 25.0202C30.0494 25.2283 29.9546 25.4613 29.9075 25.7061C29.8604 25.9508 29.862 26.2024 29.9122 26.4465C29.9624 26.6906 30.0601 26.9225 30.1999 27.1288C30.3397 27.3352 30.5187 27.5119 30.7268 27.6491C30.9349 27.7862 31.168 27.881 31.4127 27.9281C31.6574 27.9752 31.909 27.9736 32.1531 27.9234C32.3973 27.8732 32.6291 27.7755 32.8354 27.6357L38.7897 23.5933L45.3266 31.3354C45.5041 31.5463 45.7259 31.7157 45.9761 31.8315C46.2264 31.9473 46.499 32.0067 46.7747 32.0055H50.5656C51.0686 32.0051 51.5508 31.8048 51.9062 31.4489C52.2616 31.0929 52.461 30.6103 52.4606 30.1073C52.4602 29.6043 52.2599 29.1221 51.904 28.7667C51.548 28.4113 51.0654 28.2119 50.5624 28.2123" fill="#B4B4B4"/>
</svg>
