<svg width="64" height="64" viewBox="0 0 64 64" fill="none" xmlns="http://www.w3.org/2000/svg">
<rect width="64" height="64" fill="white"/>
<path d="M28.3442 38.8829C28.3846 38.6451 28.4725 38.4179 28.6028 38.2149C28.7331 38.012 28.9031 37.8374 29.1025 37.7017C29.3019 37.566 29.5267 37.472 29.7633 37.4254C30 37.3787 30.2436 37.3803 30.4796 37.4301C30.7156 37.4799 30.9391 37.5768 31.1367 37.7151C31.3343 37.8534 31.502 38.0302 31.6296 38.2348C31.7572 38.4395 31.8422 38.6679 31.8794 38.9062C31.9166 39.1445 31.9053 39.3879 31.8461 39.6217L31.9157 44.8986V44.9099C31.8467 45.2448 31.6878 45.5546 31.4559 45.8059C31.2241 46.0571 30.9281 46.2404 30.5998 46.336C30.5497 46.3558 30.4968 46.3739 30.444 46.3897L20.9589 52.8516L20.9481 52.8538C20.7192 52.9306 20.4771 52.9603 20.2364 52.9412C19.9957 52.9221 19.7614 52.8545 19.5475 52.7425C19.3336 52.6305 19.1445 52.4764 18.9917 52.2895C18.8388 52.1026 18.7253 51.8868 18.658 51.6549C18.5907 51.423 18.571 51.1799 18.6 50.9402C18.629 50.7005 18.7062 50.4692 18.8269 50.2601C18.9476 50.0509 19.1093 49.8684 19.3023 49.7234C19.4953 49.5783 19.7157 49.4738 19.9501 49.4161L28.4029 43.6568L28.342 38.8933L28.3442 38.8829ZM16.7454 21.1193C16.3818 21.2574 15.9855 21.2845 15.6065 21.1972C15.2275 21.1099 14.8829 20.9121 14.6164 20.6289C14.3498 20.3457 14.1733 19.9898 14.109 19.6063C14.0448 19.2227 14.0958 18.8287 14.2556 18.4741C14.4154 18.1196 14.6767 17.8204 15.0066 17.6144C15.3365 17.4084 15.72 17.3049 16.1088 17.317C16.4975 17.3291 16.8739 17.4562 17.1903 17.6822C17.5068 17.9083 17.7491 18.2232 17.8865 18.587C18.0705 19.0741 18.0538 19.6144 17.8398 20.0892C17.6259 20.564 17.2323 20.9345 16.7454 21.1193ZM45.9502 12.644C46.979 12.6427 47.9915 12.8999 48.895 13.3919C49.7984 13.8839 50.5638 14.595 51.1208 15.4599C51.6779 16.3248 52.0087 17.3157 52.083 18.3418C52.1573 19.3678 51.9726 20.3961 51.546 21.3322C51.1193 22.2683 50.4644 23.0822 49.6412 23.6992C48.8181 24.3162 47.8531 24.7166 46.8349 24.8635C45.8167 25.0104 44.7779 24.8992 43.8139 24.5401C42.8499 24.181 41.9915 23.5855 41.3176 22.8082L42.3635 22.3566C43.1733 23.1688 44.2349 23.6819 45.3745 23.812C46.514 23.9422 47.664 23.6815 48.6361 23.0728C49.6082 22.4641 50.3448 21.5434 50.7254 20.4614C51.106 19.3795 51.1079 18.2003 50.7309 17.1171C50.354 16.0339 49.6204 15.1108 48.6503 14.4988C47.6802 13.8869 46.5312 13.6225 45.3912 13.7488C44.2512 13.8751 43.1879 14.3847 42.3753 15.1942C41.5628 16.0037 41.0491 17.065 40.9185 18.2045L39.8121 18.6832C39.8389 17.0727 40.4973 15.5372 41.6454 14.4076C42.7936 13.2779 44.3395 12.6446 45.9502 12.644ZM45.9502 14.4859C46.6442 14.486 47.3279 14.6542 47.9427 14.9761C48.5575 15.298 49.0853 15.764 49.4808 16.3343C49.8763 16.9045 50.1278 17.5621 50.2138 18.2508C50.2998 18.9394 50.2178 19.6386 49.9747 20.2887C49.7316 20.9387 49.3347 21.5202 48.818 21.9834C48.3012 22.4467 47.6799 22.7779 47.0073 22.9487C46.3347 23.1195 45.6306 23.1249 44.9555 22.9644C44.2803 22.8039 43.654 22.4823 43.1302 22.027L44.2691 21.5339C44.8194 21.8703 45.458 22.0339 46.1024 22.0034C46.7467 21.9729 47.367 21.7498 47.8831 21.3629C48.3993 20.976 48.7874 20.4431 48.9973 19.8332C49.2073 19.2233 49.2294 18.5644 49.0608 17.9418C48.8922 17.3192 48.5406 16.7615 48.0516 16.3409C47.5626 15.9202 46.9586 15.656 46.3178 15.5824C45.6769 15.5088 45.0288 15.6292 44.4571 15.928C43.8855 16.2268 43.4166 16.6903 43.1113 17.2585L41.7566 17.8455C41.9707 16.8928 42.5027 16.0414 43.265 15.4313C44.0274 14.8212 44.9747 14.4887 45.9511 14.4886M45.9511 10.5754C47.3535 10.5748 48.7327 10.9334 49.9572 11.617C51.1816 12.3007 52.2106 13.2865 52.946 14.4807C53.6813 15.6748 54.0986 17.0374 54.158 18.4385C54.2173 19.8396 53.9168 21.2326 53.2851 22.4847C52.6534 23.7367 51.7116 24.8061 50.5493 25.5909C49.3871 26.3757 48.0432 26.8497 46.6458 26.9677C45.2484 27.0858 43.844 26.844 42.5666 26.2653C41.2891 25.6866 40.1812 24.7904 39.3484 23.6621L40.5834 23.1274C41.6086 24.3924 43.0479 25.2544 44.647 25.561C46.2462 25.8676 47.9022 25.5991 49.3226 24.803C50.743 24.0069 51.8363 22.7344 52.4093 21.2103C52.9824 19.6863 52.9983 18.0087 52.4543 16.474C51.9103 14.9393 50.8414 13.6462 49.4364 12.8233C48.0314 12.0003 46.3808 11.7005 44.7761 11.9766C43.1714 12.2528 41.716 13.0872 40.667 14.3325C39.6179 15.5778 39.0428 17.1538 39.0431 18.7821C39.0431 18.8593 39.0454 18.9365 39.0476 19.0137L37.7765 19.5633C37.7521 19.3063 37.7399 19.0453 37.7399 18.7821C37.7399 17.7038 37.9522 16.6361 38.3648 15.64C38.7773 14.6438 39.3821 13.7386 40.1445 12.9762C40.9069 12.2137 41.812 11.6089 42.8082 11.1963C43.8043 10.7837 44.872 10.5713 45.9502 10.5713M26.3781 25.7718L24.715 28.7196L24.7092 28.7286C24.6803 28.7824 24.65 28.8338 24.6189 28.8844C24.5686 28.968 24.5107 29.0468 24.4459 29.1197C24.1769 29.4182 23.8174 29.6201 23.4226 29.6944C23.0277 29.7687 22.6194 29.7113 22.2603 29.5311C22.1316 29.462 22.0119 29.3772 21.9041 29.2786L21.8625 29.2439L14.2446 23.1433L14.237 23.1365C13.8801 22.8344 13.6519 22.4075 13.5991 21.9429C13.5464 21.4783 13.6729 21.0111 13.9529 20.6366C14.2937 21.1139 14.7828 21.4651 15.344 21.6354C15.9053 21.8057 16.507 21.7856 17.0556 21.5781C17.2608 21.5013 17.4555 21.3989 17.635 21.2733L22.5746 25.2308L23.2673 24.0012C23.3436 23.692 23.4967 23.407 23.7124 23.1727C23.9281 22.9384 24.1995 22.7624 24.5014 22.661L33.362 19.2165C33.4294 19.185 33.4988 19.158 33.5697 19.1356L33.5977 19.1243L33.6077 19.1212C34.0793 18.96 34.5955 18.991 35.0445 19.2074L37.9309 19.9268L43.9683 17.3149L43.9787 17.3091C44.1869 17.1864 44.4177 17.1072 44.6572 17.0761C44.8968 17.045 45.1402 17.0626 45.3727 17.128C45.6053 17.1934 45.8222 17.3051 46.0105 17.4565C46.1987 17.6079 46.3544 17.7958 46.4682 18.0089C46.582 18.222 46.6514 18.456 46.6725 18.6966C46.6935 18.9373 46.6656 19.1797 46.5905 19.4093C46.5154 19.6389 46.3947 19.851 46.2355 20.0327C46.0764 20.2145 45.8821 20.3621 45.6644 20.4668L39.0716 23.3194C38.6502 23.5753 38.1459 23.6577 37.665 23.5492L34.2642 22.703L33.8551 22.861C34.0145 24.455 35.1868 31.1061 34.6575 34.6866L44.2076 38.9701L44.2167 38.9755C44.4789 39.1242 44.7017 39.3334 44.8667 39.5857C45.0316 39.838 45.1339 40.1261 45.165 40.4259C45.3397 40.7185 45.4332 41.0524 45.4359 41.3932L46.8931 51.412V51.4233C46.9047 51.6646 46.8674 51.9058 46.7834 52.1324C46.6994 52.3589 46.5705 52.5661 46.4043 52.7416C46.2382 52.917 46.0383 53.0571 45.8167 53.1533C45.5951 53.2496 45.3563 53.3 45.1147 53.3016C44.873 53.3031 44.6336 53.2559 44.4107 53.1625C44.1879 53.0692 43.9862 52.9318 43.8177 52.7586C43.6493 52.5853 43.5177 52.3798 43.4307 52.1544C43.3438 51.9289 43.3033 51.6882 43.3117 51.4468L41.9205 41.8479L30.4639 36.7123C30.1837 36.6216 29.9143 36.5005 29.6605 36.351L29.4059 36.2368L29.3959 36.2313C29.072 36.0502 28.8093 35.7767 28.6414 35.4457C28.4735 35.1146 28.4079 34.7411 28.4531 34.3727L26.8726 25.891L26.8672 25.8788C26.8326 25.7926 26.8038 25.7042 26.7809 25.6142L26.3781 25.7718ZM28.6287 19.8785C27.9772 20.1249 27.2673 20.1726 26.5886 20.0156C25.91 19.8585 25.2932 19.5038 24.8161 18.9962C24.3391 18.4887 24.0232 17.851 23.9085 17.164C23.7939 16.4769 23.8855 15.7713 24.1718 15.1363C24.4581 14.5013 24.9262 13.9654 25.5171 13.5965C26.1079 13.2276 26.7949 13.0421 27.4911 13.0635C28.1873 13.085 28.8616 13.3124 29.4286 13.717C29.9956 14.1216 30.4299 14.6852 30.6766 15.3366C30.8404 15.7693 30.9174 16.23 30.9032 16.6925C30.8889 17.1549 30.7837 17.61 30.5936 18.0318C30.4034 18.4536 30.132 18.8337 29.7949 19.1506C29.4577 19.4674 29.0615 19.7148 28.6287 19.8785Z" fill="#B4B4B4"/>
</svg>
