<svg width="64" height="64" viewBox="0 0 64 64" fill="none" xmlns="http://www.w3.org/2000/svg">
<rect width="64" height="64" fill="white"/>
<path d="M12.6437 53.625C12.5029 53.7962 12.3286 53.9368 12.1314 54.0382C11.9343 54.1396 11.7185 54.1995 11.4973 54.2144C11.2761 54.2293 11.0543 54.1988 10.8453 54.1248C10.6363 54.0508 10.4447 53.9348 10.2822 53.784C10.1198 53.6332 9.98983 53.4508 9.90045 53.2479C9.81107 53.0451 9.76412 52.8261 9.76249 52.6044C9.76087 52.3827 9.8046 52.1631 9.89099 51.9589C9.97738 51.7548 10.1046 51.5704 10.2649 51.4173L17.242 44.75L17.2487 44.7432C17.3898 44.5728 17.5642 44.433 17.7612 44.3323C17.9582 44.2317 18.1736 44.1723 18.3944 44.1578C18.6151 44.1433 18.8365 44.174 19.045 44.248C19.2534 44.3221 19.4446 44.4379 19.6067 44.5884C19.7689 44.7389 19.8986 44.9209 19.988 45.1232C20.0773 45.3256 20.1244 45.5441 20.1264 45.7653C20.1284 45.9865 20.0853 46.2058 19.9996 46.4097C19.9139 46.6136 19.7874 46.7979 19.628 46.9513L12.6478 53.6178L12.6437 53.625Z" fill="#B4B4B4" />
<path d="M26.4662 51.3343C26.5188 51.5497 26.5268 51.7737 26.4897 51.9923C26.4525 52.211 26.371 52.4197 26.2502 52.6057C26.1294 52.7917 25.9718 52.951 25.7871 53.0738C25.6024 53.1966 25.3946 53.2803 25.1763 53.3198C24.9581 53.3593 24.734 53.3537 24.518 53.3033C24.302 53.253 24.0986 53.159 23.9203 53.0271C23.742 52.8952 23.5925 52.7282 23.4812 52.5364C23.3698 52.3446 23.2989 52.1321 23.2727 51.9118L22.1294 42.3269V42.3175C22.0777 42.1023 22.0706 41.8789 22.1083 41.6608C22.146 41.4428 22.2279 41.2348 22.3488 41.0495C22.4698 40.8642 22.6273 40.7056 22.8117 40.5833C22.9961 40.461 23.2036 40.3777 23.4213 40.3384C23.6391 40.2991 23.8625 40.3046 24.0781 40.3547C24.2936 40.4048 24.4966 40.4983 24.6747 40.6296C24.8528 40.7609 25.0023 40.9272 25.1138 41.1183C25.2254 41.3093 25.2969 41.5212 25.3237 41.7408L26.4621 51.3252L26.4662 51.3343Z" fill="#B4B4B4"/>
<path d="M22.5072 33.4151C22.3909 33.231 22.3129 33.0254 22.2777 32.8106C22.2425 32.5957 22.2509 32.3759 22.3024 32.1644C22.3539 31.9528 22.4474 31.7537 22.5774 31.5791C22.7073 31.4044 22.8711 31.2576 23.059 31.1476C23.2469 31.0375 23.4549 30.9663 23.6709 30.9383C23.8868 30.9103 24.1062 30.926 24.3159 30.9845C24.5256 31.043 24.7214 31.1431 24.8917 31.2788C25.0619 31.4146 25.2032 31.5832 25.3069 31.7746L30.8706 39.1554L30.8756 39.1644C30.9995 39.3486 31.0845 39.5562 31.1251 39.7745C31.1657 39.9927 31.1613 40.217 31.1119 40.4335C31.0625 40.6499 30.9694 40.854 30.8381 41.033C30.7069 41.2121 30.5404 41.3624 30.3488 41.4746C30.1573 41.5869 29.9448 41.6587 29.7244 41.6857C29.504 41.7126 29.2805 41.6942 29.0675 41.6314C28.8545 41.5687 28.6567 41.463 28.4861 41.3208C28.3156 41.1787 28.176 41.0031 28.0759 40.8049L22.5122 33.4232L22.5072 33.4151Z" fill="#B4B4B4"/>
<path d="M26.6379 32.5406C26.4987 32.3723 26.3949 32.1776 26.3328 31.9682C26.2706 31.7588 26.2513 31.539 26.2761 31.3219C26.3009 31.1049 26.3692 30.8951 26.477 30.7051C26.5848 30.5151 26.7298 30.3489 26.9034 30.2162C27.077 30.0836 27.2755 29.9874 27.4872 29.9333C27.6988 29.8793 27.9192 29.8685 28.1351 29.9016C28.351 29.9347 28.558 30.011 28.7437 30.126C28.9294 30.2411 29.09 30.3924 29.2159 30.5709L34.8378 36.383L34.8437 36.3911C34.9871 36.5591 35.0948 36.7545 35.1601 36.9655C35.2255 37.1765 35.2472 37.3986 35.2239 37.6182C35.2006 37.8378 35.1327 38.0504 35.0245 38.243C34.9163 38.4355 34.77 38.604 34.5945 38.7381C34.419 38.8723 34.2181 38.9692 34.0039 39.0231C33.7897 39.077 33.5667 39.0866 33.3487 39.0515C33.1306 39.0164 32.922 38.9372 32.7356 38.8187C32.5492 38.7003 32.3888 38.5451 32.2644 38.3626L26.642 32.5483L26.6379 32.5406Z" fill="#B4B4B4"/>
<path d="M22.7761 25.3331C22.7918 25.1147 22.8515 24.9017 22.9517 24.707C23.0518 24.5123 23.1903 24.3399 23.3588 24.2001C23.5273 24.0603 23.7224 23.9561 23.9322 23.8936C24.1421 23.8312 24.3624 23.8118 24.5799 23.8367C24.7975 23.8616 25.0077 23.9303 25.198 24.0385C25.3883 24.1468 25.5547 24.2924 25.6873 24.4667C25.8199 24.6409 25.9158 24.8402 25.9694 25.0525C26.0229 25.2648 26.033 25.4857 25.9989 25.702L25.3798 32.298V32.3079C25.3669 32.5286 25.3091 32.7444 25.21 32.942C25.1108 33.1397 24.9724 33.315 24.8031 33.4573C24.6339 33.5996 24.4374 33.7059 24.2257 33.7696C24.0139 33.8334 23.7914 33.8532 23.5718 33.828C23.3521 33.8029 23.1399 33.7331 22.9481 33.6231C22.7563 33.5131 22.589 33.3651 22.4563 33.1882C22.3237 33.0113 22.2285 32.8092 22.1767 32.5942C22.1248 32.3793 22.1174 32.156 22.1548 31.9381L22.7743 25.3421L22.7761 25.3331Z" fill="#B4B4B4"/>
<path d="M23.6265 26.3046C23.5208 26.1089 23.4564 25.8935 23.4372 25.6719C23.418 25.4503 23.4446 25.2271 23.5151 25.0162C23.5857 24.8052 23.6988 24.611 23.8474 24.4455C23.9961 24.28 24.1771 24.1468 24.3793 24.0541C24.5815 23.9614 24.8006 23.9112 25.023 23.9066C25.2454 23.902 25.4664 23.9431 25.6723 24.0273C25.8781 24.1115 26.0646 24.2371 26.22 24.3962C26.3753 24.5554 26.4964 24.7448 26.5757 24.9526L29.4598 30.9168L29.4639 30.9263C29.5659 31.1217 29.6271 31.3358 29.6438 31.5556C29.6605 31.7754 29.6323 31.9963 29.561 32.2049C29.4896 32.4135 29.3766 32.6053 29.2288 32.7689C29.0809 32.9324 28.9014 33.0641 28.7011 33.1561C28.5007 33.2481 28.2838 33.2983 28.0634 33.3038C27.8431 33.3093 27.6239 33.27 27.4192 33.1881C27.2145 33.1063 27.0287 32.9836 26.8729 32.8277C26.7171 32.6717 26.5946 32.4857 26.5129 32.281L23.6301 26.3159L23.6265 26.3046Z" fill="#B4B4B4"/>
<path d="M22.9129 24.5501C23.2306 24.1217 23.7048 23.8361 24.2321 23.7556C24.7594 23.6751 25.2972 23.8062 25.7284 24.1203C26.6315 24.7832 27.4804 26.5343 26.8225 27.4352L18.6998 37.967L17.5709 38.6118C16.913 39.5 15.5781 38.2479 14.6809 37.5895C14.2485 37.2727 13.9594 36.7974 13.8771 36.2678C13.7947 35.7382 13.9258 35.1976 14.2415 34.7645L22.9084 24.5592L22.9129 24.5501Z" fill="#B4B4B4"/>
<path d="M20.0495 44.9196C20.1421 45.1211 20.1925 45.3394 20.1976 45.5611C20.2027 45.7828 20.1623 46.0033 20.0791 46.2088C19.9958 46.4143 19.8713 46.6007 19.7134 46.7563C19.5554 46.912 19.3673 47.0337 19.1605 47.1139C18.9538 47.1941 18.7328 47.2312 18.5112 47.2228C18.2896 47.2145 18.072 47.1609 17.8719 47.0653C17.6718 46.9697 17.4933 46.8342 17.3475 46.6671C17.2017 46.5 17.0916 46.3049 17.0241 46.0936L14.0799 36.8994L14.0767 36.8903C13.9841 36.6888 13.9337 36.4705 13.9286 36.2488C13.9236 36.0271 13.9639 35.8067 14.0472 35.6011C14.1305 35.3956 14.2549 35.2093 14.4129 35.0536C14.5708 34.898 14.759 34.7763 14.9657 34.6961C15.1725 34.6158 15.3935 34.5787 15.6151 34.5871C15.8367 34.5954 16.0542 34.6491 16.2544 34.7446C16.4545 34.8402 16.6329 34.9757 16.7787 35.1428C16.9246 35.3099 17.0346 35.5051 17.1022 35.7163L20.0437 44.9092L20.0495 44.9196Z" fill="#B4B4B4"/>
<path d="M24.3858 40.3553C24.5828 40.4578 24.7567 40.5995 24.8968 40.7717C25.0369 40.9439 25.1403 41.143 25.2005 41.3567C25.2607 41.5705 25.2765 41.7942 25.2469 42.0143C25.2173 42.2343 25.1429 42.446 25.0284 42.6362C24.9138 42.8264 24.7616 42.9911 24.5809 43.1202C24.4003 43.2493 24.1951 43.34 23.9781 43.3867C23.761 43.4335 23.5367 43.4353 23.3189 43.392C23.1012 43.3487 22.8946 43.2613 22.7119 43.1351L14.7549 37.669L14.7463 37.6635C14.5519 37.5596 14.3807 37.4171 14.2431 37.2449C14.1054 37.0726 14.0043 36.8742 13.9458 36.6616C13.8872 36.4491 13.8726 36.2268 13.9026 36.0084C13.9327 35.79 14.0069 35.58 14.1207 35.3911C14.2345 35.2023 14.3855 35.0386 14.5645 34.9099C14.7436 34.7813 14.9469 34.6904 15.1622 34.6428C15.3774 34.5952 15.6001 34.5919 15.8167 34.6331C16.0333 34.6743 16.2393 34.7591 16.4221 34.8824L24.3759 40.3504L24.3858 40.3553Z" fill="#B4B4B4"/>
<path d="M30.8275 24.6616C30.2526 24.9245 29.6127 25.011 28.9887 24.9101C28.3647 24.8093 27.7846 24.5256 27.3219 24.095C26.8591 23.6644 26.5344 23.1063 26.389 22.4911C26.2435 21.876 26.2838 21.2315 26.5047 20.6392C26.7256 20.047 27.1171 19.5335 27.6299 19.1639C28.1427 18.7942 28.7535 18.585 29.3852 18.5626C30.017 18.5402 30.6411 18.7056 31.1788 19.038C31.7164 19.3704 32.1434 19.8548 32.4057 20.43C32.7571 21.2005 32.7882 22.0789 32.4923 22.8724C32.1964 23.6658 31.5976 24.3093 30.8275 24.6616Z" fill="#B4B4B4"/>
<path d="M50.1223 10.2054C50.2735 10.0433 50.4562 9.91382 50.6593 9.82492C50.8623 9.73603 51.0814 9.6896 51.3031 9.6885C51.5247 9.68739 51.7443 9.73163 51.9482 9.81848C52.1522 9.90534 52.3362 10.033 52.489 10.1936C52.6417 10.3542 52.7601 10.5443 52.8367 10.7523C52.9133 10.9603 52.9465 11.1818 52.9344 11.4031C52.9223 11.6244 52.865 11.841 52.7661 12.0393C52.6672 12.2377 52.5288 12.4138 52.3594 12.5567L44.9745 18.7752L44.9677 18.7819C44.8162 18.9427 44.6334 19.0708 44.4306 19.1586C44.2279 19.2463 44.0093 19.2918 43.7884 19.2923C43.5675 19.2927 43.3488 19.2481 43.1456 19.1612C42.9425 19.0743 42.7592 18.9469 42.607 18.7868C42.4547 18.6267 42.3367 18.4372 42.2602 18.23C42.1836 18.0227 42.1501 17.8021 42.1617 17.5814C42.1732 17.3608 42.2297 17.1448 42.3275 16.9468C42.4253 16.7487 42.5625 16.5726 42.7307 16.4293L50.1128 10.2108L50.1223 10.2054Z" fill="#B4B4B4"/>
<path d="M34.7985 13.1469C34.7564 12.9295 34.7591 12.7058 34.8065 12.4895C34.8539 12.2732 34.945 12.0689 35.0742 11.8891C35.2034 11.7092 35.3679 11.5577 35.5578 11.4437C35.7476 11.3298 35.9588 11.2558 36.1782 11.2264C36.3977 11.1969 36.6208 11.2126 36.834 11.2725C37.0472 11.3324 37.2459 11.4352 37.4179 11.5746C37.59 11.714 37.7317 11.8871 37.8344 12.0832C37.9372 12.2794 37.9988 12.4944 38.0154 12.7152L38.7212 22.3425V22.352C38.7629 22.5693 38.7598 22.7927 38.7121 23.0087C38.6644 23.2247 38.5731 23.4286 38.4438 23.6081C38.3146 23.7876 38.15 23.9388 37.9603 24.0525C37.7706 24.1662 37.5597 24.24 37.3404 24.2694C37.1212 24.2987 36.8983 24.283 36.6853 24.2232C36.4724 24.1635 36.2739 24.0609 36.1019 23.9217C35.93 23.7825 35.7883 23.6098 35.6854 23.4139C35.5826 23.2181 35.5208 23.0034 35.5039 22.7828L34.7994 13.1564L34.7985 13.1469Z" fill="#B4B4B4"/>
<path d="M48.8733 41.5057C48.7207 41.6674 48.5364 41.7961 48.332 41.8837C48.1276 41.9714 47.9074 42.0162 47.685 42.0153C47.4626 42.0145 47.2428 41.968 47.0391 41.8788C46.8354 41.7895 46.6521 41.6594 46.5007 41.4966C46.3493 41.3337 46.2329 41.1415 46.1587 40.9318C46.0846 40.7221 46.0542 40.4995 46.0695 40.2776C46.0849 40.0558 46.1456 39.8394 46.2479 39.6419C46.3502 39.4445 46.4919 39.2701 46.6643 39.1296L52.6619 32.0956L52.6696 32.0888C52.8231 31.9302 53.0074 31.8045 53.2111 31.7194C53.4148 31.6343 53.6337 31.5916 53.8544 31.5938C54.0752 31.5961 54.2932 31.6433 54.4951 31.7326C54.697 31.8218 54.8786 31.9513 55.0288 32.1131C55.1791 32.2748 55.2948 32.4655 55.3689 32.6734C55.4431 32.8814 55.4741 33.1022 55.4601 33.3225C55.4461 33.5429 55.3873 33.758 55.2875 33.9549C55.1876 34.1518 55.0486 34.3262 54.8791 34.4676L48.8801 41.4989L48.8733 41.5057Z" fill="#B4B4B4"/>
<path d="M36.7646 33.2997C36.9501 33.1768 37.1589 33.0933 37.378 33.0544C37.5971 33.0154 37.8218 33.0219 38.0383 33.0734C38.2547 33.1248 38.4584 33.2201 38.6365 33.3535C38.8146 33.4868 38.9635 33.6553 39.0739 33.8485C39.1843 34.0417 39.2538 34.2555 39.2782 34.4766C39.3026 34.6978 39.2813 34.9216 39.2157 35.1342C39.1501 35.3469 39.0416 35.5437 38.8968 35.7127C38.752 35.8817 38.5741 36.0191 38.374 36.1165L30.9309 41.5994L30.9219 41.6044C30.7362 41.724 30.5282 41.8046 30.3104 41.8412C30.0926 41.8777 29.8696 41.8695 29.6551 41.8171C29.4405 41.7646 29.2389 41.669 29.0626 41.5361C28.8862 41.4031 28.7388 41.2356 28.6293 41.0438C28.5198 40.852 28.4506 40.6399 28.4258 40.4205C28.401 40.201 28.4212 39.9788 28.4851 39.7674C28.5491 39.556 28.6554 39.3598 28.7976 39.1909C28.9399 39.022 29.1151 38.8838 29.3125 38.7848L36.7561 33.3042L36.7646 33.2997Z" fill="#B4B4B4"/>
<path d="M40.9238 42.9944C40.7045 43.0322 40.4798 43.0246 40.2635 42.972C40.0473 42.9194 39.8442 42.823 39.6667 42.6888C39.4893 42.5545 39.3413 42.3852 39.2319 42.1914C39.1225 41.9976 39.0541 41.7834 39.0309 41.5621C39.0076 41.3408 39.0301 41.1171 39.0968 40.9048C39.1636 40.6925 39.2732 40.4962 39.4189 40.328C39.5646 40.1598 39.7433 40.0233 39.9439 39.927C40.1445 39.8306 40.3628 39.7765 40.5851 39.768L47.1585 38.9412H47.1689C47.3874 38.9055 47.6108 38.9148 47.8255 38.9686C48.0402 39.0223 48.2417 39.1193 48.4176 39.2537C48.5935 39.388 48.7401 39.5569 48.8484 39.7499C48.9568 39.9429 49.0245 40.156 49.0476 40.3762C49.0707 40.5963 49.0485 40.8188 48.9826 41.0301C48.9166 41.2414 48.8082 41.437 48.6639 41.6048C48.5197 41.7727 48.3427 41.9094 48.1438 42.0065C47.9449 42.1036 47.7282 42.159 47.5071 42.1694L40.9337 42.9935L40.9238 42.9944Z" fill="#B4B4B4"/>
<path d="M41.7808 40.5953C41.8702 40.799 41.9169 41.019 41.9178 41.2415C41.9188 41.4641 41.8741 41.6844 41.7864 41.889C41.6988 42.0936 41.57 42.2779 41.4082 42.4307C41.2464 42.5835 41.055 42.7014 40.8457 42.7772C40.6365 42.8529 40.4139 42.8849 40.1918 42.8712C39.9696 42.8574 39.7527 42.7982 39.5544 42.6972C39.3561 42.5962 39.1807 42.4556 39.0389 42.284C38.8972 42.1124 38.7922 41.9136 38.7304 41.6998L36.3466 35.5192L36.3435 35.5093C36.2564 35.3059 36.2118 35.0868 36.2124 34.8655C36.213 34.6442 36.2587 34.4254 36.3468 34.2224C36.435 34.0195 36.5636 33.8366 36.7248 33.6851C36.8861 33.5336 37.0766 33.4166 37.2846 33.3412C37.4927 33.2659 37.714 33.2338 37.9348 33.247C38.1557 33.2602 38.3716 33.3183 38.5692 33.4179C38.7668 33.5174 38.9421 33.6562 39.0842 33.8258C39.2263 33.9955 39.3322 34.1923 39.3956 34.4043L41.7776 40.5867L41.7808 40.5953Z" fill="#B4B4B4"/>
<path d="M43.2129 40.6404C43.0657 41.1528 42.7223 41.5863 42.2572 41.8468C41.7922 42.1074 41.2431 42.1738 40.7293 42.0317C39.6519 41.7283 38.2407 40.3867 38.541 39.3119L42.4475 26.5991L43.2797 25.598C43.5845 24.5355 45.2738 25.2367 46.3449 25.5406C46.861 25.6853 47.2986 26.0287 47.5617 26.4956C47.8248 26.9625 47.8919 27.5147 47.7484 28.031L43.216 40.6305L43.2129 40.6404Z" fill="#B4B4B4"/>
<path d="M42.2744 18.4743C42.1946 18.2673 42.158 18.0462 42.1668 17.8246C42.1756 17.603 42.2297 17.3855 42.3257 17.1856C42.4217 16.9856 42.5577 16.8075 42.7251 16.662C42.8926 16.5166 43.088 16.4069 43.2994 16.3398C43.5108 16.2727 43.7337 16.2496 43.9544 16.2719C44.175 16.2942 44.3888 16.3613 44.5826 16.4693C44.7763 16.5773 44.9459 16.7238 45.0809 16.8998C45.2159 17.0757 45.3135 17.2775 45.3676 17.4926L47.732 26.8507L47.7347 26.8602C47.8126 27.0668 47.8475 27.287 47.8374 27.5075C47.8274 27.7281 47.7725 27.9442 47.6762 28.1428C47.5799 28.3414 47.4441 28.5184 47.2772 28.6628C47.1103 28.8072 46.9157 28.9161 46.7053 28.9829C46.4949 29.0497 46.2731 29.0729 46.0534 29.0512C45.8338 29.0295 45.6208 28.9632 45.4276 28.8565C45.2344 28.7498 45.0649 28.6048 44.9295 28.4305C44.7941 28.2561 44.6957 28.056 44.6402 27.8424L42.2776 18.4837L42.2744 18.4743Z" fill="#B4B4B4"/>
<path d="M36.6896 24.3608C36.4803 24.2886 36.2879 24.1744 36.1242 24.0253C35.9606 23.8761 35.8292 23.6951 35.738 23.4933C35.6468 23.2915 35.5978 23.0732 35.594 22.8518C35.5902 22.6304 35.6316 22.4106 35.7158 22.2058C35.8 22.001 35.9252 21.8155 36.0836 21.6608C36.242 21.5061 36.4304 21.3854 36.6371 21.3061C36.8439 21.2268 37.0646 21.1905 37.2859 21.1996C37.5071 21.2087 37.7242 21.2628 37.9237 21.3588L46.6154 25.5583L46.624 25.5624C46.8325 25.6353 47.0239 25.7499 47.1867 25.8992C47.3494 26.0485 47.48 26.2294 47.5705 26.4309C47.6609 26.6324 47.7094 26.8502 47.7129 27.071C47.7165 27.2918 47.6749 27.5111 47.5909 27.7153C47.5069 27.9196 47.3821 28.1046 47.2243 28.259C47.0664 28.4134 46.8787 28.5341 46.6726 28.6136C46.4666 28.6931 46.2465 28.7298 46.0258 28.7214C45.8051 28.713 45.5884 28.6597 45.389 28.5648L36.6991 24.3653L36.6896 24.3608Z" fill="#B4B4B4"/>
<path d="M35.0883 42.6163C35.6327 42.2954 36.2601 42.1432 36.8911 42.1789C37.5221 42.2147 38.1283 42.4368 38.6331 42.8171C39.1378 43.1974 39.5184 43.7189 39.7267 44.3156C39.935 44.9123 39.9617 45.5573 39.8033 46.1692C39.645 46.781 39.3087 47.3321 38.8371 47.7528C38.3654 48.1735 37.7796 48.4449 37.1537 48.5325C36.5278 48.6202 35.89 48.5203 35.3209 48.2454C34.7518 47.9706 34.2771 47.5331 33.9566 46.9883C33.5273 46.2584 33.4054 45.3879 33.6176 44.5681C33.8297 43.7483 34.3587 43.0463 35.0883 42.6163Z" fill="#B4B4B4"/>
</svg>
