<svg width="64" height="64" viewBox="0 0 64 64" fill="none" xmlns="http://www.w3.org/2000/svg">
<rect width="64" height="64" fill="white"/>
<path d="M23.7222 36.7858L23.8883 36.9172C23.9432 36.9597 23.9889 37.0129 24.0228 37.0734C24.0567 37.134 24.0781 37.2007 24.0857 37.2697C24.0933 37.3387 24.087 37.4085 24.0672 37.475C24.0473 37.5415 24.0143 37.6033 23.9701 37.6568L13.4807 49.1044L13.8483 49.444C13.9404 49.5235 13.9987 49.6353 14.011 49.7564C14.0234 49.8775 13.9889 49.9987 13.9147 50.0951L13.7968 50.2401C13.759 50.2882 13.7118 50.3281 13.6582 50.3576C13.6046 50.3871 13.5456 50.4055 13.4847 50.4117C13.4239 50.418 13.3624 50.4119 13.3039 50.3939C13.2454 50.3759 13.1911 50.3463 13.1443 50.3069L12.7456 49.9371L12.4349 50.2902C12.3455 50.3963 12.2188 50.464 12.081 50.4795C11.9431 50.4949 11.8046 50.4569 11.6939 50.3733L11.5295 50.241C11.4747 50.1985 11.429 50.1454 11.395 50.0849C11.3611 50.0244 11.3396 49.9577 11.3318 49.8887C11.3241 49.8198 11.3302 49.75 11.3499 49.6834C11.3696 49.6169 11.4024 49.555 11.4464 49.5013L11.8185 49.0796L11.3218 48.6203C11.229 48.5408 11.1702 48.4287 11.1577 48.3071C11.1452 48.1855 11.1798 48.0637 11.2545 47.9669L11.3724 47.8233C11.4099 47.7751 11.4568 47.7349 11.5102 47.7052C11.5637 47.6755 11.6225 47.6569 11.6833 47.6504C11.7441 47.644 11.8056 47.65 11.8641 47.6679C11.9225 47.6858 11.9768 47.7153 12.0235 47.7547L12.5546 48.2469L22.9857 36.8675C23.0745 36.7614 23.2008 36.6936 23.3384 36.6784C23.476 36.6631 23.6141 36.7016 23.724 36.7858M32.4504 48.693H28.7372V50.078H32.4486L32.4504 48.693ZM33.3134 49.8319V50.5747C33.3208 50.6683 33.3073 50.7623 33.2739 50.85C33.2404 50.9377 33.1879 51.0168 33.12 51.0817C33.0522 51.1465 32.9708 51.1955 32.8817 51.2249C32.7925 51.2544 32.698 51.2637 32.6049 51.252H9.33447V52.6343H33.1156C35.0085 52.3931 34.6915 49.8296 34.6915 49.8296L33.3134 49.8319ZM20.8733 50.936C21.2464 51.3005 21.7481 51.5037 22.2698 51.5016C22.7915 51.4995 23.2914 51.2923 23.6617 50.9247L32.2097 42.5301C32.5652 42.1837 32.7774 41.7162 32.804 41.2206L39.5323 24.5489C39.6486 24.2596 39.6954 23.947 39.6688 23.6363C39.6422 23.3256 39.543 23.0255 39.3792 22.7601C39.2154 22.4948 38.9916 22.2716 38.7258 22.1085C38.46 21.9455 38.1596 21.8472 37.8489 21.8214C37.5012 21.6759 37.1193 21.6322 36.7477 21.6955C36.3762 21.7589 36.0303 21.9266 35.7505 22.1791L24.9644 33.2975C24.5723 33.6518 24.3369 34.1474 24.3101 34.6752C24.2834 35.203 24.4674 35.7199 24.8217 36.1121C25.176 36.5042 25.6716 36.7396 26.1995 36.7663C26.7273 36.7931 27.2442 36.6091 27.6363 36.2547L32.5584 31.1823L29.0913 39.7751C29.0475 39.8822 29.0133 39.993 28.9892 40.1061L20.8696 48.0821C20.6797 48.2681 20.5289 48.4901 20.4261 48.7352C20.3232 48.9803 20.2704 49.2435 20.2708 49.5093C20.2711 49.7751 20.3246 50.0382 20.428 50.283C20.5315 50.5279 20.6829 50.7496 20.8733 50.9351M53.0123 47.272V48.0148C53.0198 48.1084 53.0063 48.2024 52.9728 48.2901C52.9394 48.3778 52.8868 48.4569 52.819 48.5218C52.7512 48.5866 52.6697 48.6356 52.5806 48.665C52.4915 48.6945 52.397 48.7038 52.3038 48.6921H46.0818L48.3202 27.125C48.3224 27.0555 48.3105 26.9862 48.2851 26.9214C48.2597 26.8566 48.2213 26.7977 48.1723 26.7483C48.1233 26.6989 48.0647 26.66 48.0001 26.634C47.9356 26.608 47.8664 26.5955 47.7968 26.5972H47.5873C47.4487 26.6001 47.3166 26.656 47.218 26.7533C47.1194 26.8506 47.0618 26.9821 47.0571 27.1205L44.8129 48.6944H42.033C42.2485 48.4577 42.4037 48.1725 42.4855 47.863C42.5673 47.5535 42.5731 47.2289 42.5027 46.9166L41.4817 42.3052C41.4327 42.0822 41.3455 41.8694 41.2238 41.6762C41.2003 41.3097 41.0752 40.957 40.8626 40.6575L38.1577 36.788C38.0076 36.5737 37.8167 36.391 37.5959 36.2505C37.3752 36.1099 37.1289 36.0142 36.8712 35.9688C36.6135 35.9234 36.3493 35.9292 36.0938 35.9859C35.8384 36.0426 35.5965 36.1491 35.3822 36.2992C35.1679 36.4494 34.9852 36.6403 34.8446 36.861C34.7041 37.0818 34.6084 37.328 34.563 37.5858C34.5176 37.8435 34.5234 38.1076 34.5801 38.3631C34.6368 38.6186 34.7432 38.8604 34.8934 39.0748L37.5468 42.8679C37.5541 42.9702 37.5692 43.0718 37.5919 43.1718L38.6143 47.7822C38.6889 48.1228 38.8523 48.4375 39.0879 48.6944H36.2765V50.078H44.6697L44.471 51.9813L43.7485 51.9253C43.6875 51.9235 43.6267 51.9339 43.5698 51.956C43.5128 51.978 43.4609 52.0113 43.4171 52.0539C43.3733 52.0964 43.3385 52.1474 43.3147 52.2036C43.291 52.2599 43.2788 52.3203 43.2789 52.3814L43.2766 52.5688C43.278 52.6908 43.3261 52.8076 43.4112 52.895C43.4963 52.9824 43.6117 53.0338 43.7336 53.0384L44.411 53.0908L44.3794 53.6526C44.3782 53.7218 44.3909 53.7906 44.4167 53.8549C44.4424 53.9191 44.4808 53.9776 44.5294 54.0269C44.5781 54.0762 44.6361 54.1153 44.7 54.1419C44.764 54.1685 44.8326 54.182 44.9018 54.1818H45.1136C45.2522 54.1786 45.3843 54.1225 45.4827 54.0249C45.5812 53.9273 45.6385 53.7956 45.6428 53.6571L45.6686 53.1888L46.2105 53.2303C46.2717 53.2324 46.3326 53.2221 46.3898 53.2C46.4469 53.1779 46.4989 53.1445 46.5428 53.1017C46.5867 53.059 46.6214 53.0079 46.645 52.9514C46.6686 52.8948 46.6805 52.8341 46.6801 52.7729L46.6837 52.5878C46.6822 52.4658 46.634 52.3491 46.5491 52.2616C46.4642 52.1741 46.349 52.1224 46.2272 52.1172L45.7304 52.078L45.9391 50.0771H52.8177C54.7111 49.8359 54.3937 47.2729 54.3937 47.2729L53.0123 47.272ZM36.0602 23.2231C35.864 23.7066 35.8655 24.2478 36.0644 24.7303C36.2633 25.2127 36.6437 25.5977 37.1237 25.8024L40.8563 27.4095C41.3413 27.615 41.8879 27.62 42.3767 27.4236C42.8655 27.2273 43.2566 26.8454 43.4647 26.3615C43.6728 25.8776 43.6808 25.331 43.4871 24.8411C43.2934 24.3513 42.9136 23.9581 42.4309 23.7474L38.6996 22.1416C38.4554 22.0372 38.1929 21.9824 37.9273 21.9805C37.6618 21.9785 37.3985 22.0295 37.1528 22.1304C36.9071 22.2312 36.684 22.38 36.4964 22.568C36.3088 22.756 36.1606 22.9795 36.0602 23.2254M40.6278 27.0745C40.8763 27.5331 41.2949 27.8759 41.7936 28.0291C42.2922 28.1823 42.8311 28.1336 43.2943 27.8936L49.7539 24.5796C50.219 24.3352 50.5689 23.917 50.7273 23.416C50.8857 22.915 50.8399 22.3716 50.5998 21.9042C50.3596 21.4369 49.9446 21.0832 49.4451 20.9202C48.9455 20.7572 48.4018 20.7981 47.9323 21.0339L41.4749 24.3484C41.2382 24.4695 41.0281 24.6368 40.8569 24.8403C40.6858 25.0438 40.557 25.2794 40.4781 25.5334C40.3993 25.7873 40.372 26.0545 40.3979 26.3191C40.4237 26.5838 40.5022 26.8406 40.6287 27.0745M42.3898 19.4837C42.0743 20.0938 41.585 20.5967 40.9837 20.9287C40.3824 21.2606 39.6961 21.4068 39.0117 21.3487C38.3273 21.2905 37.6756 21.0307 37.1389 20.6021C36.6022 20.1735 36.2046 19.5953 35.9966 18.9407C35.7886 18.2861 35.7793 17.5845 35.9701 16.9247C36.1609 16.2649 36.5431 15.6765 37.0683 15.2339C37.5936 14.7913 38.2383 14.5145 38.9209 14.4384C39.6036 14.3623 40.2934 14.4904 40.9032 14.8064C41.7206 15.2295 42.3365 15.96 42.6154 16.8371C42.8944 17.7142 42.8135 18.6662 42.3907 19.4837" fill="#B4B4B4"/>
</svg>
