<svg width="64" height="64" viewBox="0 0 64 64" fill="none" xmlns="http://www.w3.org/2000/svg">
<rect width="64" height="64"/>
<path d="M11.2152 27.6461H25.5577C25.8082 27.6499 26.057 27.6039 26.2895 27.5108C26.522 27.4176 26.7337 27.2791 26.9122 27.1033C27.0907 26.9276 27.2325 26.718 27.3292 26.487C27.426 26.2559 27.4758 26.0079 27.4758 25.7574C27.4758 25.5069 27.426 25.2589 27.3292 25.0278C27.2325 24.7967 27.0907 24.5872 26.9122 24.4115C26.7337 24.2357 26.522 24.0972 26.2895 24.004C26.057 23.9108 25.8082 23.8649 25.5577 23.8687H11.2152C10.7193 23.8764 10.2464 24.0788 9.89847 24.4321C9.55053 24.7855 9.35551 25.2615 9.35551 25.7574C9.35551 26.2533 9.55053 26.7293 9.89847 27.0827C10.2464 27.436 10.7193 27.6384 11.2152 27.6461ZM11.2152 33.3132H21.7818C22.2775 33.3055 22.7503 33.1032 23.0982 32.7499C23.446 32.3966 23.641 31.9207 23.641 31.425C23.641 30.9292 23.446 30.4533 23.0982 30.1C22.7503 29.7467 22.2775 29.5444 21.7818 29.5367H11.2152C10.7195 29.5444 10.2466 29.7467 9.89878 30.1C9.55093 30.4533 9.35596 30.9292 9.35596 31.425C9.35596 31.9207 9.55093 32.3966 9.89878 32.7499C10.2466 33.1032 10.7195 33.3055 11.2152 33.3132ZM19.8911 37.0918C19.8912 36.8439 19.8425 36.5983 19.7477 36.3692C19.6529 36.14 19.5139 35.9318 19.3386 35.7564C19.1633 35.581 18.9552 35.4418 18.7261 35.3469C18.497 35.2519 18.2515 35.203 18.0035 35.203H11.2143C10.7132 35.203 10.2326 35.402 9.87833 35.7563C9.52401 36.1106 9.32495 36.5912 9.32495 37.0923C9.32495 37.5934 9.52401 38.0739 9.87833 38.4283C10.2326 38.7826 10.7132 38.9816 11.2143 38.9816H18.0035C18.5043 38.9809 18.9843 38.7815 19.3382 38.4272C19.6921 38.0729 19.891 37.5926 19.8911 37.0918ZM23.7221 36.7857L23.887 36.918C23.942 36.9603 23.9879 37.0132 24.022 37.0737C24.0561 37.1342 24.0776 37.201 24.0852 37.27C24.0929 37.339 24.0865 37.4088 24.0664 37.4752C24.0464 37.5417 24.0132 37.6034 23.9687 37.6567L13.4807 49.1043L13.8483 49.4439C13.9404 49.5238 13.9985 49.6359 14.0106 49.7572C14.0227 49.8786 13.9878 49.9999 13.9133 50.0964L13.7968 50.2395C13.759 50.2878 13.7119 50.3278 13.6583 50.3574C13.6047 50.387 13.5457 50.4055 13.4848 50.4118C13.4239 50.4181 13.3624 50.412 13.3039 50.394C13.2453 50.376 13.1911 50.3463 13.1443 50.3068L12.7451 49.9384L12.4335 50.2915C12.344 50.397 12.2175 50.4642 12.0799 50.4794C11.9424 50.4946 11.8043 50.4566 11.6939 50.3732L11.529 50.2418C11.4743 50.1992 11.4286 50.1461 11.3947 50.0856C11.3607 50.0251 11.3393 49.9584 11.3315 49.8895C11.3238 49.8206 11.3299 49.7508 11.3496 49.6842C11.3692 49.6177 11.402 49.5558 11.4459 49.5021L11.818 49.0808L11.3213 48.6202C11.2285 48.5409 11.1697 48.429 11.157 48.3076C11.1443 48.1862 11.1787 48.0645 11.2531 47.9677L11.3719 47.8232C11.4096 47.7751 11.4565 47.7351 11.51 47.7056C11.5635 47.676 11.6224 47.6575 11.6832 47.6513C11.7439 47.645 11.8054 47.651 11.8638 47.669C11.9222 47.687 11.9763 47.7166 12.023 47.756L12.5545 48.2477L22.9856 36.8683C23.0743 36.7618 23.2006 36.6937 23.3383 36.6782C23.476 36.6628 23.6143 36.7011 23.7244 36.7852M32.4504 48.6934H28.7367V50.0783H32.4481L32.4504 48.6934ZM33.3124 49.8313V50.5751C33.3198 50.6686 33.3063 50.7627 33.2729 50.8503C33.2395 50.938 33.1869 51.0172 33.1191 51.082C33.0512 51.1469 32.9698 51.1958 32.8807 51.2253C32.7916 51.2548 32.6971 51.264 32.6039 51.2524H9.33308V52.6346H33.1151C35.0085 52.3935 34.691 49.8291 34.691 49.8291L33.3124 49.8313ZM20.8728 50.9363C21.2462 51.3 21.7475 51.5025 22.2688 51.5004C22.7901 51.4983 23.2897 51.2917 23.6603 50.925L32.2093 42.53C32.5644 42.1834 32.7765 41.716 32.8035 41.2205L39.5318 24.5483C39.6301 24.3057 39.6794 24.0461 39.6771 23.7844C39.6747 23.5227 39.6206 23.264 39.518 23.0233C39.4154 22.7825 39.2662 22.5644 39.079 22.3814C38.8918 22.1985 38.6703 22.0543 38.4273 21.9573C38.2413 21.8843 38.0457 21.8387 37.8466 21.8218C37.4989 21.6765 37.1171 21.6331 36.7458 21.6966C36.3744 21.7601 36.0287 21.9278 35.7491 22.1803L24.9639 33.2974C24.5712 33.6516 24.3351 34.1471 24.3075 34.6752C24.2798 35.2034 24.4628 35.7209 24.8163 36.1142L24.8474 36.149C25.2055 36.5284 25.6981 36.7521 26.2194 36.7721C26.7407 36.792 27.249 36.6065 27.6349 36.2555L32.557 31.1822L29.0899 39.7764C29.0469 39.8835 29.0132 39.9941 28.9892 40.1069L20.8683 48.0833C20.4908 48.4536 20.2757 48.9586 20.2703 49.4874C20.2649 50.0161 20.4695 50.5254 20.8394 50.9033L20.8728 50.9363ZM53.0119 47.2719V48.0165C53.0193 48.1101 53.0058 48.2043 52.9723 48.292C52.9388 48.3798 52.8862 48.459 52.8182 48.5239C52.7503 48.5887 52.6687 48.6377 52.5795 48.6671C52.4903 48.6965 52.3956 48.7056 52.3024 48.6938H46.0804L48.3201 27.1268C48.3225 27.0572 48.3106 26.9879 48.2853 26.9231C48.2599 26.8583 48.2216 26.7994 48.1727 26.7499C48.1238 26.7004 48.0653 26.6614 48.0008 26.6353C47.9364 26.6092 47.8672 26.5965 47.7977 26.598H47.5859C47.4472 26.6003 47.3147 26.656 47.2161 26.7536C47.1175 26.8512 47.0603 26.9831 47.0566 27.1218L44.8128 48.6952H42.033C42.2483 48.4584 42.4032 48.1731 42.4847 47.8636C42.5663 47.5541 42.5719 47.2295 42.5013 46.9174L41.4803 42.306C41.4313 42.0833 41.3445 41.8705 41.2238 41.677C41.1995 41.3106 41.0745 40.9581 40.8626 40.6583L38.1563 36.7888C37.8519 36.3589 37.3896 36.067 36.8705 35.9769C36.3515 35.8868 35.8178 36.0059 35.3863 36.3081C34.9548 36.6103 34.6604 37.071 34.5676 37.5896C34.4749 38.1082 34.5911 38.6425 34.8911 39.0756L37.5454 42.8664C37.5529 42.9687 37.568 43.0703 37.5905 43.1703L38.6129 47.7803C38.6875 48.1212 38.8507 48.4363 39.0861 48.6938H36.276V50.0783H44.6683L44.471 51.9808L43.7485 51.9248C43.6874 51.9231 43.6267 51.9336 43.5698 51.9558C43.5129 51.978 43.461 52.0113 43.4172 52.0539C43.3733 52.0964 43.3385 52.1473 43.3147 52.2036C43.2908 52.2598 43.2785 52.3202 43.2784 52.3813V52.5678C43.2797 52.6897 43.3277 52.8065 43.4126 52.8941C43.4974 52.9816 43.6127 53.0332 43.7345 53.0383L44.4118 53.0912L44.3816 53.6516C44.3804 53.7208 44.393 53.7895 44.4187 53.8538C44.4445 53.918 44.4827 53.9765 44.5314 54.0257C44.58 54.075 44.638 54.114 44.7019 54.1406C44.7658 54.1671 44.8344 54.1806 44.9036 54.1803H45.1154C45.2539 54.1772 45.3859 54.1211 45.4844 54.0236C45.5828 53.9261 45.6401 53.7945 45.6446 53.6561L45.6694 53.1864L46.2113 53.2289C46.2725 53.2306 46.3334 53.2201 46.3905 53.1978C46.4475 53.1755 46.4995 53.142 46.5433 53.0993C46.5871 53.0565 46.6219 53.0054 46.6455 52.9489C46.6692 52.8924 46.6812 52.8318 46.6809 52.7706L46.6841 52.5854C46.6824 52.4636 46.6342 52.3471 46.5494 52.2596C46.4647 52.1722 46.3497 52.1204 46.228 52.1149L45.729 52.0765L45.9363 50.0756H52.8163C54.7088 49.8336 54.3914 47.2701 54.3914 47.2701L53.0119 47.2719ZM36.0584 23.2239C35.8626 23.7075 35.8645 24.2486 36.0637 24.7308C36.263 25.2129 36.6436 25.5976 37.1236 25.8019L40.8562 27.4099C41.3403 27.6098 41.8835 27.6113 42.3686 27.414C42.8537 27.2166 43.2417 26.8364 43.4487 26.3553C43.6557 25.8743 43.6651 25.3311 43.4749 24.8432C43.2847 24.3552 42.9101 23.9617 42.4322 23.7477L38.6982 22.1424C38.2126 21.9325 37.6636 21.9241 37.1717 22.1188C36.6798 22.3136 36.2854 22.6956 36.0751 23.181L36.0584 23.2239ZM40.6273 27.0744C40.8757 27.5332 41.2943 27.8761 41.793 28.0293C42.2917 28.1825 42.8307 28.1338 43.2938 27.8935L49.7538 24.579C50.2239 24.3375 50.5789 23.9191 50.7405 23.4158C50.9021 22.9126 50.8572 22.3657 50.6156 21.8956C50.3741 21.4255 49.9557 21.0706 49.4524 20.909C48.9492 20.7473 48.4023 20.7923 47.9322 21.0338L41.4749 24.3492C41.0041 24.5902 40.6483 25.0082 40.4856 25.5114C40.323 26.0147 40.3668 26.5619 40.6074 27.0328L40.6273 27.0744ZM42.3884 19.4836C42.073 20.0938 41.5838 20.5968 40.9825 20.929C40.3812 21.2611 39.6949 21.4074 39.0105 21.3493C38.326 21.2913 37.6742 21.0315 37.1374 20.6029C36.6006 20.1743 36.203 19.5961 35.9949 18.9415C35.7868 18.2869 35.7776 17.5852 35.9683 16.9254C36.1591 16.2655 36.5413 15.677 37.0666 15.2344C37.592 14.7918 38.2367 14.515 38.9194 14.4389C39.6021 14.3629 40.292 14.4911 40.9018 14.8072C41.7192 15.2302 42.335 15.9604 42.6139 16.8374C42.8929 17.7144 42.8121 18.6662 42.3893 19.4836" fill="#B4B4B4"/>
</svg>
