<svg width="64" height="64" viewBox="0 0 64 64" fill="none" xmlns="http://www.w3.org/2000/svg">
<rect width="64" height="64"/>
<path d="M22.1357 41.4778C22.1357 40.9752 21.9362 40.4931 21.581 40.1375C21.2258 39.7819 20.744 39.5818 20.2413 39.5812H15.3315V35.7971C15.3145 35.3058 15.1074 34.8402 14.7538 34.4986C14.4002 34.1569 13.9277 33.966 13.4361 33.966C12.9444 33.966 12.4719 34.1569 12.1183 34.4986C11.7647 34.8402 11.5576 35.3058 11.5406 35.7971V41.3631C11.5406 41.4015 11.5375 41.4394 11.5375 41.4778C11.5375 41.9808 11.7373 42.4632 12.093 42.8189C12.4486 43.1745 12.931 43.3744 13.434 43.3744H20.2436C20.7466 43.3744 21.229 43.1745 21.5847 42.8189C21.9404 42.4632 22.1402 41.9808 22.1402 41.4778M40.4443 28.2285C40.4398 28.2285 40.4398 28.2285 40.4443 28.2285L40.4398 28.2244H40.4361C40.391 28.1793 40.3309 28.1657 40.2871 28.1278C40.1437 28.0002 39.9801 27.8972 39.8031 27.823C39.6418 27.773 39.4749 27.7436 39.3063 27.7354C39.2323 27.7309 39.165 27.6938 39.0878 27.6938C38.8981 27.707 38.7115 27.7485 38.5342 27.8171C38.4824 27.8244 38.4313 27.836 38.3815 27.8519C38.2766 27.9083 38.1784 27.9765 38.0889 28.0551C37.9728 28.1172 37.8646 28.193 37.7665 28.2809L21.8318 44.8997C21.4844 45.2626 21.2955 45.7485 21.3065 46.2506C21.3174 46.7528 21.5274 47.23 21.8902 47.5773C22.253 47.9246 22.739 48.1135 23.2411 48.1026C23.7432 48.0916 24.2205 47.8816 24.5678 47.5188L39.1862 32.2641L44.8759 37.6829H37.2942C37.0384 37.6717 36.783 37.7124 36.5434 37.8026C36.3037 37.8928 36.0849 38.0306 35.8999 38.2076C35.715 38.3846 35.5678 38.5973 35.4672 38.8328C35.3667 39.0682 35.3149 39.3216 35.3149 39.5776C35.3149 39.8336 35.3667 40.087 35.4672 40.3225C35.5678 40.5579 35.715 40.7706 35.8999 40.9476C36.0849 41.1247 36.3037 41.2624 36.5434 41.3526C36.783 41.4428 37.0384 41.4836 37.2942 41.4724H49.6119C49.9903 41.4716 50.3599 41.3577 50.673 41.1452C50.9862 40.9328 51.2286 40.6315 51.3692 40.2801C51.5097 39.9287 51.5419 39.5434 51.4616 39.1735C51.3813 38.8037 51.1923 38.4664 50.9187 38.2049L40.4443 28.2285ZM13.4327 32.0027H22.0995V35.7926H25.9243V32.0027V30.1083C25.9253 29.6097 25.7295 29.1308 25.3794 28.7757C25.0294 28.4206 24.5534 28.218 24.0548 28.2118H13.4327C12.9445 28.2331 12.4833 28.442 12.1454 28.7951C11.8075 29.1481 11.6189 29.6179 11.6189 30.1065C11.6189 30.5952 11.8075 31.065 12.1454 31.418C12.4833 31.771 12.9445 31.98 13.4327 32.0013M13.4327 37.6856H24.0318C24.534 37.6856 25.0158 37.486 25.3709 37.1309C25.7261 36.7757 25.9256 36.294 25.9256 35.7917C25.9256 35.2894 25.7261 34.8077 25.3709 34.4526C25.0158 34.0974 24.534 33.8979 24.0318 33.8979H13.4327C12.9304 33.8979 12.4487 34.0974 12.0935 34.4526C11.7384 34.8077 11.5388 35.2894 11.5388 35.7917C11.5388 36.294 11.7384 36.7757 12.0935 37.1309C12.4487 37.486 12.9304 37.6856 13.4327 37.6856ZM51.2538 19.6881C51.2534 20.3852 51.0464 21.0665 50.6589 21.6459C50.2713 22.2253 49.7207 22.6769 49.0766 22.9434C48.4324 23.2099 47.7237 23.2794 47.0401 23.1432C46.3565 23.007 45.7285 22.6712 45.2358 22.1781C44.743 21.6851 44.4074 21.057 44.2716 20.3733C44.1357 19.6896 44.2056 18.9809 44.4725 18.3369C44.7393 17.693 45.1911 17.1425 45.7707 16.7553C46.3504 16.3681 47.0318 16.1614 47.7289 16.1614C48.1918 16.1613 48.6502 16.2525 49.0779 16.4296C49.5056 16.6067 49.8942 16.8663 50.2215 17.1937C50.5488 17.521 50.8085 17.9096 50.9856 18.3373C51.1627 18.765 51.2538 19.2234 51.2538 19.6863M50.5602 28.2118H47.6535L40.5797 19.8443C40.2791 19.4856 39.8557 19.2517 39.3921 19.1879C38.9284 19.1241 38.4576 19.2351 38.0713 19.4993L30.705 24.4927C30.2882 24.7749 30.0006 25.2112 29.9055 25.7054C29.8103 26.1997 29.9154 26.7115 30.1976 27.1283C30.4799 27.545 30.9161 27.8326 31.4103 27.9278C31.9046 28.0229 32.4164 27.9178 32.8332 27.6356L38.7879 23.5936L45.3248 31.3348C45.5018 31.5456 45.7229 31.7149 45.9727 31.8307C46.2224 31.9465 46.4945 32.006 46.7698 32.0049H50.5629C51.0659 32.0045 51.5481 31.8043 51.9035 31.4483C52.2589 31.0923 52.4583 30.6098 52.4579 30.1068C52.4575 29.6038 52.2572 29.1215 51.9013 28.7662C51.5453 28.4108 51.0632 28.2114 50.5602 28.2118Z" fill="#B4B4B4"/>
</svg>
