<svg width="64" height="64" viewBox="0 0 64 64" fill="none" xmlns="http://www.w3.org/2000/svg">
<rect width="64" height="64" fill="white"/>
<path d="M21.649 29.293C21.3181 29.4517 20.9494 29.5148 20.5846 29.4749C20.2197 29.4351 19.8733 29.294 19.5844 29.0675C19.2956 28.8411 19.0759 28.5384 18.9501 28.1936C18.8244 27.8488 18.7976 27.4757 18.8728 27.1164L21.0584 21.7171V21.7072C21.112 21.4543 21.2149 21.2144 21.3613 21.0013C21.5076 20.7882 21.6945 20.606 21.9112 20.4651C22.1279 20.3242 22.3703 20.2274 22.6245 20.1802C22.8786 20.133 23.1396 20.1363 23.3925 20.1899C23.6454 20.2435 23.8852 20.3465 24.0983 20.4928C24.3114 20.6391 24.4936 20.826 24.6345 21.0427C24.7754 21.2595 24.8722 21.5019 24.9195 21.756C24.9667 22.0102 24.9634 22.2712 24.9097 22.524L24.4902 23.5599L28.9214 21.3762L28.9278 21.3694C29.3532 21.0832 29.8735 20.9743 30.378 21.0657C30.8825 21.1571 31.3314 21.4417 31.6294 21.8589C31.9274 22.2761 32.0509 22.7932 31.9737 23.3C31.8964 23.8069 31.6246 24.2637 31.2158 24.5732L31.2289 24.6459V29.95C31.2472 29.8836 31.2689 29.8182 31.2939 29.754L33.764 24.8676L33.7676 24.8591C33.9661 24.3832 34.3434 24.0041 34.8183 23.8033C35.2933 23.6025 35.8281 23.5961 36.3077 23.7853C36.7874 23.9745 37.1737 24.3443 37.3837 24.8153C37.5937 25.2863 37.6105 25.8208 37.4307 26.3041L34.9579 31.1855L34.9534 31.1968C34.801 31.5801 34.532 31.9058 34.1843 32.1277C33.8367 32.3497 33.428 32.4568 33.0162 32.4338C32.6044 32.4108 32.2102 32.2588 31.8894 31.9995C31.5687 31.7401 31.3376 31.3865 31.2289 30.9886V32.5072L31.2312 32.5216C31.2953 32.9615 31.2196 33.4104 31.0149 33.805L35.9545 49.0502C36.0561 49.558 35.9534 50.0854 35.6686 50.518C35.3838 50.9506 34.9399 51.2534 34.4333 51.3608C33.9267 51.4682 33.3981 51.3715 32.9623 51.0917C32.5265 50.8119 32.2186 50.3715 32.1054 49.8662V49.854L28.4261 38.5184L24.7517 49.8526L24.7485 49.8648C24.6353 50.3702 24.3274 50.8105 23.8916 51.0904C23.4558 51.3702 22.9273 51.4669 22.4206 51.3595C21.914 51.2521 21.4701 50.9492 21.1854 50.5167C20.9006 50.0841 20.7978 49.5567 20.8994 49.0488L25.8666 33.7278C25.7789 33.5416 25.7181 33.344 25.686 33.1407V27.3138L22.2004 29.0297L22.1913 29.0374C22.0248 29.1496 21.842 29.2358 21.6495 29.293M26.0188 21.0294L25.7442 19.8589H48.5296L48.1901 21.1301H40.4733L40.0913 22.5629L33.1426 23.4073C33.1051 23.1386 33.0374 22.8751 32.9408 22.6216C32.7245 22.0489 32.3675 21.5398 31.9029 21.1413C31.4382 20.7427 30.8808 20.4675 30.2818 20.3409C29.6829 20.2143 29.0617 20.2404 28.4755 20.4168C27.8893 20.5932 27.3569 20.9143 26.9273 21.3504L26.0188 21.0294ZM30.8758 19.467C30.2243 19.7134 29.5144 19.7611 28.8358 19.6041C28.1572 19.4472 27.5404 19.0925 27.0633 18.585C26.5863 18.0775 26.2704 17.44 26.1556 16.753C26.0408 16.066 26.1323 15.3604 26.4185 14.7253C26.7047 14.0903 27.1728 13.5544 27.7635 13.1854C28.3542 12.8164 29.0411 12.6307 29.7373 12.652C30.4335 12.6733 31.1077 12.9006 31.6748 13.305C32.2419 13.7094 32.6763 14.2729 32.9232 14.9242C33.2536 15.7982 33.2235 16.7675 32.8395 17.6193C32.4555 18.471 31.749 19.1354 30.8753 19.4665" fill="#B4B4B4"/>
</svg>
