<svg width="64" height="64" viewBox="0 0 64 64" fill="none" xmlns="http://www.w3.org/2000/svg">
<rect width="64" height="64" fill="white"/>
<path d="M43.2294 31.2408C43.8014 31.103 44.4046 31.1971 44.9075 31.5024C45.4104 31.8076 45.7722 32.2994 45.914 32.8704C46.0557 33.4414 45.9659 34.0453 45.6642 34.5503C45.3624 35.0553 44.8732 35.4206 44.3032 35.5663L34.3472 36.8497L34.3336 36.8528C33.7619 36.9883 33.1597 36.8927 32.658 36.5868C32.1563 36.281 31.7956 35.7895 31.6541 35.2191C31.5127 34.6488 31.602 34.0457 31.9026 33.5409C32.2033 33.036 32.691 32.6702 33.2598 32.5228L43.2163 31.244L43.2294 31.2408ZM13.2601 44.7913C12.7607 44.9256 12.2286 44.858 11.7787 44.6031C11.3288 44.3482 10.9974 43.9264 10.856 43.429C10.7146 42.9316 10.7746 42.3986 11.0232 41.9451C11.2717 41.4917 11.6887 41.1543 12.184 41.0058L24.1626 38.6776L24.173 38.6744C24.6723 38.5405 25.2044 38.6083 25.6541 38.8634C26.1038 39.1184 26.4351 39.5402 26.5764 40.0375C26.7178 40.5348 26.6578 41.0677 26.4094 41.5212C26.161 41.9746 25.7442 42.3121 25.2491 42.4608L13.2709 44.7877L13.2601 44.7913ZM26.4006 41.8634C26.0153 42.2153 25.506 42.3999 24.9847 42.3763C24.4633 42.3528 23.9727 42.1231 23.6207 41.7378C23.2688 41.3526 23.0843 40.8432 23.1078 40.3219C23.1313 39.8006 23.361 39.31 23.7463 38.958L32.0519 33.1238L32.0586 33.1161C32.445 32.7699 32.9524 32.5902 33.4705 32.6161C33.9886 32.642 34.4756 32.8714 34.8255 33.2544C35.1754 33.6374 35.3599 34.143 35.339 34.6613C35.3181 35.1797 35.0934 35.6688 34.7138 36.0224L26.41 41.8543L26.4006 41.8634ZM45.3892 43.0437C45.3748 43.2842 45.312 43.5193 45.2046 43.7349C45.0972 43.9505 44.9473 44.1423 44.7641 44.2986C44.5808 44.455 44.3679 44.5727 44.1381 44.6448C43.9082 44.717 43.6662 44.742 43.4264 44.7184C43.1867 44.6947 42.9542 44.623 42.7429 44.5074C42.5315 44.3918 42.3457 44.2347 42.1964 44.0456C42.0472 43.8565 41.9377 43.6392 41.8744 43.4068C41.8111 43.1744 41.7954 42.9315 41.8282 42.6929L42.5959 33.0958V33.0845C42.61 32.8436 42.6727 32.608 42.7802 32.392C42.8877 32.1759 43.0377 31.9837 43.2212 31.827C43.4048 31.6703 43.6181 31.5523 43.8484 31.4801C44.0786 31.4079 44.3211 31.3829 44.5613 31.4067C44.8014 31.4305 45.0343 31.5026 45.2459 31.6186C45.4575 31.7346 45.6436 31.8922 45.7928 32.0819C45.942 32.2715 46.0514 32.4894 46.1143 32.7224C46.1773 32.9553 46.1925 33.1986 46.1591 33.4377L45.387 43.0334L45.3892 43.0437ZM50.6865 34.1751C50.0176 34.3712 49.3055 34.3646 48.6403 34.156C47.9751 33.9474 47.3868 33.5463 46.9496 33.0033C46.5124 32.4603 46.2461 31.7999 46.1842 31.1055C46.1224 30.4112 46.2679 29.7141 46.6023 29.1024C46.9367 28.4907 47.445 27.992 48.0628 27.6692C48.6807 27.3464 49.3804 27.2141 50.0735 27.289C50.7665 27.3639 51.4218 27.6426 51.9565 28.0899C52.4911 28.5373 52.8811 29.1331 53.0771 29.8021C53.2073 30.246 53.2487 30.7113 53.199 31.1712C53.1494 31.6311 53.0096 32.0768 52.7877 32.4827C52.5658 32.8886 52.2661 33.2468 51.9057 33.5369C51.5453 33.8269 51.1314 34.0432 50.6874 34.1732M10.3877 45.885H51.512V47.2203H10.3877V45.885Z" fill="#B4B4B4"/>
</svg>
