<svg width="39" height="71" viewBox="0 0 39 71" fill="none" xmlns="http://www.w3.org/2000/svg">
<path d="M23.9642 14.9558C23.9704 15.938 23.6852 16.9 23.1448 17.7202C22.6043 18.5404 21.8328 19.1819 20.9278 19.5636C20.0227 19.9453 19.0248 20.0501 18.0603 19.8647C17.0957 19.6793 16.2077 19.2121 15.5087 18.5221C14.8096 17.8321 14.3308 16.9503 14.1329 15.9882C13.935 15.0262 14.0267 14.027 14.3966 13.1171C14.7665 12.2071 15.3978 11.4273 16.2109 10.8762C17.0239 10.3251 17.9821 10.0274 18.9643 10.0208C20.2814 10.0134 21.5476 10.5289 22.485 11.4542C23.4224 12.3794 23.9543 13.6388 23.9642 14.9558ZM23.358 70.6034C22.6022 70.603 21.8774 70.3027 21.3427 69.7684C20.808 69.2342 20.5071 68.5096 20.5061 67.7538V45.6082H17.4771V67.7506C17.4771 68.5068 17.1767 69.232 16.642 69.7667C16.1073 70.3014 15.3821 70.6018 14.626 70.6018C13.8698 70.6018 13.1446 70.3014 12.6099 69.7667C12.0752 69.232 11.7748 68.5068 11.7748 67.7506V42.7974C11.7745 42.5936 11.7962 42.3904 11.8396 42.1913C11.7247 41.7867 11.6681 41.3679 11.6713 40.9474L11.7376 25.7125C11.7813 24.4194 12.3277 23.1943 13.2607 22.2979C14.1937 21.4015 15.4397 20.9045 16.7335 20.9126H22.1506V20.9616C23.2884 21.0859 24.3414 21.6219 25.1114 22.4688C25.8814 23.3156 26.3151 24.4148 26.3309 25.5592L26.2661 40.787C26.2654 41.1948 26.2087 41.6005 26.0978 41.9929C26.1753 42.254 26.2141 42.525 26.2132 42.7974V67.7506C26.2121 68.5065 25.9112 69.231 25.3765 69.7653C24.8419 70.2995 24.1171 70.5998 23.3612 70.6002M27.7691 3.41286V3.36386C27.7691 2.60769 28.0695 1.88248 28.6042 1.34778C29.1389 0.813085 29.8641 0.512695 30.6203 0.512695C31.3765 0.512695 32.1017 0.813085 32.6364 1.34778C33.1711 1.88248 33.4715 2.60769 33.4715 3.36386V3.97234H27.766L27.7691 3.41286ZM4.95585 3.41286V3.36386C4.95585 2.6079 5.25615 1.88289 5.7907 1.34834C6.32525 0.813793 7.05025 0.513487 7.80622 0.513487C8.56219 0.513487 9.28719 0.813793 9.82174 1.34834C10.3563 1.88289 10.6566 2.6079 10.6566 3.36386V3.97234H4.95268L4.95585 3.41286ZM27.766 8.21512H33.4683V25.816C33.4683 26.5722 33.1679 27.2974 32.6332 27.8321C32.0985 28.3668 31.3733 28.6672 30.6171 28.6672C29.861 28.6672 29.1358 28.3668 28.6011 27.8321C28.0664 27.2974 27.766 26.5722 27.766 25.816V8.21512ZM7.80385 28.668C7.04864 28.6663 6.32493 28.3651 5.79158 27.8304C5.25822 27.2957 4.95879 26.5712 4.959 25.816V8.21512H10.6598V25.816C10.6593 26.5724 10.3586 27.2977 9.8237 27.8325C9.28877 28.3673 8.56341 28.6678 7.80701 28.668M37.7775 7.31504H1.03944C0.77205 7.2578 0.532384 7.11057 0.360452 6.89793C0.18852 6.6853 0.0947266 6.42013 0.0947266 6.14668C0.0947266 5.87323 0.18852 5.60805 0.360452 5.39542C0.532384 5.18278 0.77205 5.03556 1.03944 4.97831H37.7775C38.0449 5.03556 38.2845 5.18278 38.4565 5.39542C38.6284 5.60805 38.7222 5.87323 38.7222 6.14668C38.7222 6.42013 38.6284 6.6853 38.4565 6.89793C38.2845 7.11057 38.0449 7.2578 37.7775 7.31504Z" fill="#202020"/>
</svg>
