<svg width="68" height="68" viewBox="0 0 68 68" fill="none" xmlns="http://www.w3.org/2000/svg">
<path d="M31.5887 41.7596H24.0522V46.2189H17.5723V41.7596H0.90625L11.2923 29.0763H4.73336L16.2336 15.0299H9.40365L21.4065 0.375L32.0012 15.0299H25.5924L31.6401 23.3922L28.5581 25.4808C28.5028 25.5179 28.4523 25.5558 28.4001 25.5946C28.08 25.8114 27.791 26.0709 27.5411 26.3658C27.3767 26.5517 27.2338 26.7555 27.1152 26.9735V26.9775C26.653 27.7837 26.4734 28.7212 26.605 29.6411C26.7366 30.561 27.1718 31.4106 27.8415 32.0549C28.5112 32.6991 29.377 33.1011 30.3013 33.197C31.2256 33.293 32.1555 33.0772 32.9432 32.5842L36.142 37.0095L31.5887 41.7596ZM63.7979 32.7509H58.7096L46.3337 18.1079C45.8084 17.4802 45.0683 17.0706 44.2575 16.9588C43.4467 16.8471 42.6234 17.0412 41.9479 17.5033L29.0505 26.2418C28.6894 26.4864 28.3801 26.7997 28.1402 27.1638C27.9002 27.528 27.7343 27.9358 27.652 28.364C27.5697 28.7923 27.5725 29.2326 27.6603 29.6597C27.7481 30.0869 27.9192 30.4925 28.1638 30.8536C28.6578 31.5827 29.4212 32.0858 30.2861 32.252C30.7143 32.3344 31.1546 32.3315 31.5818 32.2437C32.0089 32.1559 32.4146 31.9848 32.7756 31.7402L43.2067 24.6692L54.6351 38.2154C54.9474 38.5847 55.3369 38.8811 55.7761 39.0837C56.2153 39.2863 56.6936 39.3902 57.1773 39.3881H63.8074C64.6876 39.3871 65.5314 39.0364 66.1531 38.4132C66.7748 37.79 67.1235 36.9454 67.1224 36.0652C67.1214 35.1849 66.7707 34.3411 66.1475 33.7195C65.5243 33.0978 64.6797 32.7491 63.7995 32.7501M65.4763 17.8305C65.4763 19.1425 65.0872 20.425 64.3582 21.5158C63.6293 22.6066 62.5931 23.4567 61.3809 23.9585C60.1687 24.4604 58.8349 24.5915 57.5482 24.3352C56.2615 24.0789 55.0798 23.4467 54.1524 22.5187C53.225 21.5906 52.5937 20.4084 52.3383 19.1215C52.0829 17.8346 52.215 16.5009 52.7177 15.2891C53.2204 14.0773 54.0712 13.0417 55.1626 12.3135C56.2539 11.5853 57.5367 11.1971 58.8486 11.1981C59.7194 11.1982 60.5816 11.3698 61.3859 11.7032C62.1903 12.0366 62.9211 12.5253 63.5366 13.1412C64.1521 13.7571 64.6402 14.4882 64.973 15.2929C65.3058 16.0975 65.4769 16.9598 65.4763 17.8305ZM46.0982 32.7802C46.0887 32.7762 46.0887 32.7802 46.0982 32.7802L46.0887 32.7723C46.0097 32.6932 45.9022 32.6703 45.8279 32.6032C45.5765 32.3804 45.2904 32.2002 44.9808 32.0697C44.6986 31.9826 44.4066 31.9313 44.1116 31.9172C43.9804 31.9093 43.8626 31.8445 43.7251 31.8445C43.3935 31.8656 43.0674 31.939 42.7587 32.0618C42.6678 32.0723 42.5783 32.0921 42.4916 32.1211C42.3065 32.2191 42.1333 32.3382 41.9756 32.4759C41.7721 32.5854 41.582 32.718 41.409 32.871L13.535 61.9517C13.231 62.2652 12.992 62.6357 12.8318 63.0418C12.6716 63.448 12.5933 63.8819 12.6014 64.3185C12.6096 64.7551 12.704 65.1857 12.8793 65.5857C13.0545 65.9856 13.3071 66.3469 13.6226 66.6489C13.9381 66.9508 14.3101 67.1873 14.7174 67.3448C15.1246 67.5024 15.559 67.5778 15.9955 67.5668C16.432 67.5558 16.862 67.4585 17.2608 67.2806C17.6596 67.1028 18.0193 66.8478 18.3191 66.5303L43.8958 39.8417L53.8528 49.3245H40.5863C39.732 49.3618 38.925 49.7275 38.3336 50.3452C37.7422 50.963 37.4122 51.7852 37.4122 52.6404C37.4122 53.4955 37.7422 54.3177 38.3336 54.9355C38.925 55.5532 39.732 55.9189 40.5863 55.9562H62.1423C62.8044 55.9547 63.451 55.7553 63.9988 55.3835C64.5466 55.0117 64.9708 54.4846 65.2167 53.8698C65.4626 53.2551 65.519 52.5809 65.3787 51.9338C65.2383 51.2868 64.9077 50.6965 64.4293 50.2388L46.0982 32.7802Z" fill="#202020"/>
</svg>
