<svg width="75" height="49" viewBox="0 0 75 49" fill="none" xmlns="http://www.w3.org/2000/svg">
<path d="M0.816035 41.7318C0.567445 40.7589 0.710786 39.7272 1.21521 38.8589C1.71963 37.9907 2.5448 37.3551 3.51311 37.0891L33.1035 28.9624L43.6412 23.7247V34.3423L37.701 35.9923C36.7308 36.2591 35.7346 36.4207 34.7298 36.4743L5.57009 44.4794C5.08452 44.6158 4.57686 44.6552 4.07607 44.5953C3.57528 44.5355 3.09119 44.3776 2.65142 44.1307C2.21166 43.8838 1.82483 43.5526 1.51303 43.1562C1.20123 42.7598 0.97057 42.3058 0.834209 41.8203L0.816035 41.7318ZM3.01684 46.1808H44.667V1.39818C44.6749 1.09337 44.8015 0.803696 45.0199 0.590906C45.2383 0.378116 45.5312 0.259033 45.8361 0.259033C46.141 0.259033 46.4339 0.378116 46.6523 0.590906C46.8707 0.803696 46.9973 1.09337 47.0053 1.39818V4.37421C47.4413 3.5844 48.1432 2.97482 48.9864 2.65386L49.0701 2.62226C50.0291 2.28259 51.0837 2.33739 52.0023 2.77462C52.9209 3.21185 53.6285 3.99577 53.9696 4.95424L61.9186 24.9859C62.2582 25.9439 62.2043 26.9974 61.7687 27.9158C61.3331 28.8341 60.5513 29.5423 59.5945 29.8854C59.5115 29.9162 59.4278 29.9423 59.3448 29.9644C59.2215 30.0071 59.088 30.0489 58.9426 30.0861L48.0342 33.1222V21.5413L51.6021 19.768L47.0068 8.17129V46.1816H73.8187C74.1285 46.1816 74.4256 46.3046 74.6446 46.5237C74.8636 46.7427 74.9867 47.0398 74.9867 47.3496C74.9867 47.6593 74.8636 47.9564 74.6446 48.1754C74.4256 48.3945 74.1285 48.5175 73.8187 48.5175H3.01684C2.70707 48.5175 2.41 48.3945 2.19096 48.1754C1.97193 47.9564 1.84887 47.6593 1.84887 47.3496C1.84887 47.0398 1.97193 46.7427 2.19096 46.5237C2.41 46.3046 2.70707 46.1808 3.01684 46.1808ZM69.651 25.3241C68.4729 25.6374 67.2284 25.5944 66.0748 25.2004C64.9212 24.8064 63.9103 24.0792 63.1699 23.1107C62.4296 22.1422 61.9931 20.9759 61.9155 19.7593C61.838 18.5428 62.123 17.3305 62.7344 16.2759C63.3458 15.2213 64.2562 14.3716 65.3505 13.8344C66.4447 13.2971 67.6737 13.0964 68.8821 13.2576C70.0904 13.4189 71.2238 13.9348 72.139 14.7401C73.0541 15.5455 73.7099 16.6041 74.0234 17.7821C74.4426 19.362 74.2175 21.0437 73.3977 22.4578C72.5779 23.8719 71.2304 24.9028 69.651 25.3241Z" fill="#202020"/>
</svg>
