<svg width="73" height="42" viewBox="0 0 73 42" fill="none" xmlns="http://www.w3.org/2000/svg">
<path d="M16.1674 4.20144C16.9328 5.15188 17.3991 6.30798 17.5073 7.52349C17.6155 8.73901 17.3608 9.9593 16.7753 11.03C16.1898 12.1007 15.2999 12.9737 14.2182 13.5385C13.1365 14.1033 11.9115 14.3346 10.6983 14.2031C9.48507 14.0716 8.33812 13.5832 7.40254 12.7997C6.46696 12.0162 5.78479 10.9728 5.44234 9.80155C5.09988 8.63027 5.11253 7.38373 5.47868 6.21963C5.84483 5.05554 6.54802 4.0262 7.49931 3.26185C8.77379 2.23807 10.4025 1.76198 12.0278 1.93815C13.653 2.11432 15.1419 2.92834 16.1674 4.20144ZM0.757812 39.0777H72.7253V41.4136H0.757812V39.0777ZM64.9099 36.9907C64.177 37.6775 63.2036 38.049 62.1994 38.0252C61.1952 38.0014 60.2406 37.5842 59.541 36.8634L50.4984 27.6777L41.53 36.7852C41.1733 37.1528 40.7465 37.4452 40.2748 37.645C39.8031 37.8448 39.2962 37.948 38.7839 37.9484C37.7998 38.1881 36.7717 38.1802 35.7914 37.9255C34.8111 37.6708 33.9091 37.1772 33.1661 36.4889L18.1943 22.4875C17.2394 21.5017 16.6034 20.2511 16.3693 18.8987C16.1353 17.5462 16.314 16.1547 16.8821 14.9053C17.4503 13.6559 18.3816 12.6065 19.5547 11.894C20.7278 11.1815 22.0882 10.8388 23.4589 10.9105L26.8458 9.41699L19.1703 6.65907L19.4279 6.75073C19.001 6.61707 18.6056 6.39851 18.2653 6.10816C17.9251 5.81782 17.647 5.46169 17.4478 5.06118C17.2487 4.66066 17.1325 4.22401 17.1064 3.77747C17.0802 3.33094 17.1446 2.88372 17.2956 2.46269C17.4467 2.04166 17.6812 1.6555 17.9853 1.32741C18.2893 0.999328 18.6565 0.736088 19.0649 0.553502C19.4732 0.370916 19.9143 0.272754 20.3615 0.264914C20.8087 0.257074 21.2529 0.339719 21.6674 0.50788L36.8913 5.97315C37.513 6.19967 38.0529 6.60661 38.442 7.14184C38.831 7.67707 39.0514 8.31624 39.075 8.9775C39.0986 9.63876 38.9243 10.292 38.5744 10.8536C38.2245 11.4152 37.715 11.8596 37.111 12.1299L29.8961 15.3137L29.9293 15.5318L41.2637 26.121L45.1145 22.2077L45.3437 21.9707L48.1624 19.1124C48.7518 18.5223 49.542 18.1762 50.3753 18.1431C51.2086 18.11 52.0238 18.3923 52.6581 18.9338L55.8617 22.188L55.8791 22.2038L65.0221 31.4938C65.3762 31.8535 65.6559 32.2794 65.8453 32.7473C66.0346 33.2152 66.1299 33.7158 66.1257 34.2205C66.1214 34.7252 66.0177 35.2242 65.8205 35.6888C65.6232 36.1534 65.3364 36.5746 64.9763 36.9282L64.9099 36.9907Z" fill="#202020"/>
</svg>
