<svg width="327" height="195" viewBox="0 0 327 195" fill="none" xmlns="http://www.w3.org/2000/svg">
<g clip-path="url(#clip0_2312_13934)">
<rect width="327" height="195" fill="white"/>
<path d="M289.499 32.5579C287.306 29.28 284.808 25.9221 282.073 22.5792C270.335 8.22914 253.398 0 235.604 0C234.557 0 233.496 0.0274929 232.449 0.0837285C202.241 1.70581 180.563 23.7951 157.505 56.5792L154.244 56.7892C97.7233 60.4095 39.2783 64.1548 1.42673 91.1979C-25.6363 110.529 -44.1616 134.552 -52.1445 160.668C-60.8523 189.154 -56.4122 218.645 -39.6415 243.71C-21.5474 270.748 7.09528 285.84 41.0141 286.204C41.4077 286.208 41.8001 286.21 42.195 286.21C68.3046 286.21 96.5548 276.929 121.743 260.077C154.04 238.465 182.279 194.07 209.59 151.135L211.665 147.872C245.572 143.851 281.97 135.16 297.684 102.755C303.773 90.2056 310.806 64.3997 289.499 32.5579ZM292.063 100.028C277.438 130.183 242.105 138.086 209.471 141.839L207.991 142.009L204.317 147.783C177.354 190.172 149.473 234.005 118.268 254.885C94.0967 271.057 67.0799 279.963 42.195 279.963L41.0791 279.957C9.28597 279.617 -17.5372 265.508 -34.4491 240.236C-50.1563 216.762 -54.319 189.154 -46.1711 162.496C-38.5942 137.705 -20.8788 114.809 5.05705 96.2828C41.4577 70.2757 98.9967 66.5904 154.646 63.0251L160.902 62.6239L161.762 61.3918C184.097 29.4275 204.722 7.83174 232.781 6.32588C233.726 6.27339 234.667 6.2484 235.604 6.2484C251.515 6.2484 266.69 13.6427 277.236 26.5357C279.844 29.7249 282.222 32.9191 284.304 36.032C303.879 65.2833 297.567 88.6823 292.063 100.028Z" fill="#B4B4B4"/>
<path d="M235.629 44.5977C221.256 44.5977 204.518 65.5998 182.266 99.5823C174.178 100.201 165.863 100.733 157.09 101.296C109.16 104.367 54.8354 107.849 27.3474 127.486C9.392 140.313 -3.03856 155.386 -8.60213 171.075C-14.4894 187.681 -12.4062 204.222 -2.57868 218.912C7.36002 233.764 22.856 241.615 42.2311 241.615C59.5841 241.615 79.0141 235.009 96.942 223.013C121.445 206.617 147.113 166.26 171.939 127.231C176.743 119.68 181.294 112.523 185.817 105.571C225.65 102.388 251.579 97.3454 257.898 82.5492C261.502 74.1138 258.117 63.734 247.551 50.8136C244.177 46.6896 240.165 44.5977 235.629 44.5977ZM166.667 123.879C143.33 160.568 116.879 202.154 93.4679 217.818C76.5573 229.134 58.3607 235.365 42.2323 235.365C25.0392 235.365 11.3403 228.473 2.61624 215.435C-14.8643 189.309 -3.99707 157.556 30.979 132.569C57.016 113.969 110.395 110.548 157.489 107.53C164.577 107.075 171.367 106.64 177.988 106.164C174.297 111.882 170.564 117.751 166.667 123.879ZM252.153 80.0961C247.065 92.0105 220.018 96.3656 190.169 98.9425C206.475 74.3413 224.047 50.8473 235.629 50.8473C238.236 50.8473 240.554 52.1307 242.713 54.7713C251.545 65.5673 254.72 74.0876 252.153 80.0961Z" fill="#B4B4B4"/>
<path d="M259.059 41.4009C252.543 33.4342 243.613 29.2603 234.041 29.7726C214.086 30.8436 196.804 50.9185 173.892 85.2846C168.156 85.6858 162.263 86.0644 156.139 86.4568C103.785 89.8135 49.6479 93.2826 18.7059 115.388C-25.8614 147.228 -39.0656 191.106 -14.9342 227.176C-2.46244 245.813 17.5199 256.218 41.3301 256.473L42.2186 256.478C62.4909 256.478 84.8602 248.98 105.207 235.366C132.304 217.235 158.821 175.546 184.482 135.207L184.999 134.393C188.202 129.358 191.294 124.497 194.342 119.763C234.457 116.125 261.254 109.733 270.932 89.7797C276.812 77.6603 274.745 63.9701 264.789 49.0902C263.122 46.5971 261.195 44.0102 259.059 41.4009ZM265.311 87.0529C256.797 104.605 231.05 110.252 192.269 113.676L190.747 113.81L189.918 115.093C186.597 120.242 183.227 125.537 179.728 131.039L179.196 131.876C153.897 171.647 127.738 212.773 101.733 230.172C82.4033 243.107 61.2675 250.23 42.2199 250.23L41.3988 250.225C19.7119 249.992 1.55028 240.572 -9.73933 223.699C-31.8249 190.691 -19.2331 150.172 22.3387 120.472C51.8299 99.4035 105.06 95.9919 156.549 92.6915C163.225 92.2641 169.636 91.853 175.867 91.4093L177.399 91.3006L178.249 90.0209C199.924 57.3731 216.875 36.9508 234.377 36.0123C234.793 35.9898 235.209 35.9785 235.621 35.9785C242.672 35.9785 249.278 39.3089 254.224 45.3574C256.234 47.8118 258.042 50.2361 259.598 52.5643C268.229 65.4685 270.153 77.0718 265.311 87.0529Z" fill="#B4B4B4"/>
<path d="M270.567 31.9913C261.149 20.4755 247.426 14.1784 233.245 14.9294C208.015 16.2828 188.593 37.3337 165.634 70.9463C162.223 71.1725 158.747 71.3962 155.196 71.6237C100.756 75.1128 44.4621 78.7193 10.0659 103.294C-14.3154 120.709 -30.9111 142.051 -37.9293 165.013C-45.3062 189.149 -41.5271 214.161 -27.287 235.443C-12.0072 258.278 12.3053 271.027 41.1717 271.34L42.2027 271.345C65.3967 271.345 90.7077 262.955 113.476 247.721C143.173 227.852 170.548 184.815 197.035 143.174L198.063 141.554C199.721 138.951 201.349 136.393 202.956 133.875C237.641 130.34 271.26 123.17 284.307 96.2673C290.048 84.4366 293.464 65.2153 277.144 40.8241C275.215 37.9423 273.002 34.9706 270.567 31.9913ZM278.687 93.5405C273.262 104.726 263.352 112.886 248.392 118.488C233.62 124.019 216.061 126.303 200.832 127.809L199.324 127.958L198.508 129.235C196.634 132.167 194.734 135.151 192.794 138.199L191.752 139.84C165.625 180.914 138.608 223.387 110.002 242.526C88.2521 257.08 64.1745 265.097 42.2039 265.097L41.2404 265.092C14.4985 264.804 -7.99323 253.038 -22.0921 231.968C-35.2687 212.275 -38.7716 189.146 -31.9533 166.84C-25.34 145.204 -9.55283 124.987 13.6987 108.378C46.6428 84.8415 102.031 81.2924 155.597 77.8596C159.68 77.5971 163.664 77.3409 167.566 77.081L169.086 76.9798L169.944 75.7189C192.203 42.9548 210.611 22.4013 233.579 21.1691C234.246 21.1329 234.913 21.1154 235.578 21.1154C247.031 21.1154 258.021 26.5215 265.729 35.9466C268.041 38.7721 270.133 41.5826 271.951 44.2994C286.625 66.2288 283.713 83.1807 278.687 93.5405Z" fill="#B4B4B4"/>
</g>
<defs>
<clipPath id="clip0_2312_13934">
<rect width="327" height="195" fill="white"/>
</clipPath>
</defs>
</svg>
