<svg width="327" height="205" viewBox="0 0 327 205" fill="none" xmlns="http://www.w3.org/2000/svg">
<g clip-path="url(#clip0_2312_13950)">
<rect width="327" height="205" fill="white"/>
<g clip-path="url(#clip1_2312_13950)">
<path d="M85.4043 294.001H92.1868V96.6086H234.664V294.001H241.446V89.8262H85.4043V294.001Z" fill="#B4B4B4"/>
<path d="M73.2364 80.5817H73.1709V294H79.9984V83.9955H246.33V294H253.157V77.168H73.2364V80.5817Z" fill="#B4B4B4"/>
<path d="M60.6027 67.9489H60.5371V294H67.3646V71.3627H258.963V294H265.791V64.5352H60.6027V67.9489Z" fill="#B4B4B4"/>
<path d="M47.9689 55.3142H47.9033V293.999H54.7309V58.7279H271.597V293.999H278.424V51.9004H47.9689V55.3142Z" fill="#B4B4B4"/>
<path d="M35.3331 42.6813H35.2676V294H42.0951V46.0951H284.23V294H291.057V39.2676H35.3331V42.6813Z" fill="#B4B4B4"/>
<path d="M22.7023 30.0466H22.6367V293.999H29.4643V33.4603H296.866V293.999H303.694V26.6328H22.7023V30.0466Z" fill="#B4B4B4"/>
<path d="M10.0655 14V17.4138H10V294H16.8275V20.8275H309.498V294H316.326V14H10.0655Z" fill="#B4B4B4"/>
</g>
</g>
<defs>
<clipPath id="clip0_2312_13950">
<rect width="327" height="205" fill="white"/>
</clipPath>
<clipPath id="clip1_2312_13950">
<rect width="306.326" height="280" fill="white" transform="translate(10 14)"/>
</clipPath>
</defs>
</svg>
