<svg width="327" height="205" viewBox="0 0 327 205" fill="none" xmlns="http://www.w3.org/2000/svg">
<g clip-path="url(#clip0_2312_14085)">
<rect width="327" height="205" fill="white"/>
<path d="M155.753 36.1153L148.21 23.7672C144.066 26.2984 140.154 29.4821 136.583 33.2266L147.058 43.2125C149.759 40.3769 152.684 37.99 155.753 36.1153Z" fill="#B4B4B4"/>
<path d="M145.472 178.355L153.313 166.191C148.866 163.327 145.172 161.079 141.686 159.126L134.606 171.745C137.829 173.553 141.282 175.652 145.472 178.355Z" fill="#B4B4B4"/>
<path d="M150.759 98.2876L159.443 86.7133C135.975 69.108 136.043 60.6824 136.622 58.5199C136.729 58.122 136.882 57.7394 137.091 57.3487C137.611 56.3769 138.137 55.4364 138.674 54.5229L126.2 47.1893C125.567 48.2654 124.945 49.3779 124.331 50.5249C123.603 51.885 123.035 53.3149 122.644 54.7745C118.16 71.5097 136.542 87.6244 150.759 98.2876Z" fill="#B4B4B4"/>
<path d="M213.495 41.7222L220.445 29.0323C200.387 18.0442 181.359 13.9183 165.183 17.1425L168.012 31.3349C180.764 28.7925 196.537 32.4325 213.495 41.7222Z" fill="#B4B4B4"/>
<path d="M245.634 46.3112C245.46 46.157 241.298 42.4898 234.517 37.7728L226.252 49.6489C232.288 53.849 236.016 57.1212 236.051 57.1549L245.634 46.3112Z" fill="#B4B4B4"/>
<path d="M188.445 123.087C203.915 133.667 214.348 146.509 217.823 159.25L231.784 155.442C227.407 139.392 214.915 123.66 196.614 111.143L188.445 123.087Z" fill="#B4B4B4"/>
<path d="M100.634 166.643C105.957 162.777 112.516 162.456 121.464 165.592L126.246 151.935C124.771 151.418 123.309 150.966 121.901 150.588C110.372 147.499 100.356 148.961 92.1287 154.934C83.6733 161.077 77.6112 167.927 74.1082 175.293L87.1771 181.506C89.6283 176.349 94.1553 171.347 100.634 166.643Z" fill="#B4B4B4"/>
<path d="M195.875 190.849C187.507 188.606 177.241 182.057 166.576 174.969L158.567 187.017C170.27 194.799 181.646 202.016 192.13 204.825C200.639 207.105 208.043 206.295 214.138 202.42L206.373 190.208C204.733 191.251 201.861 192.453 195.875 190.849Z" fill="#B4B4B4"/>
<path d="M233.027 174.07L218.723 171.881C218.583 172.791 218.394 173.695 218.16 174.57C217.522 176.951 216.522 179.23 215.189 181.341L227.423 189.069C229.535 185.724 231.121 182.105 232.136 178.315C232.507 176.929 232.808 175.501 233.027 174.07Z" fill="#B4B4B4"/>
<path d="M172.04 95.5361L164.06 107.606C168.449 110.508 172.591 113.108 175.326 114.813L182.977 102.531C180.314 100.873 176.282 98.3407 172.04 95.5361Z" fill="#B4B4B4"/>
<path d="M70.5601 194.207C70.9204 199.077 72.2148 204.116 74.4118 209.185L87.6895 203.435C86.1385 199.855 85.2317 196.392 84.9913 193.142L70.5601 194.207Z" fill="#B4B4B4"/>
</g>
<defs>
<clipPath id="clip0_2312_14085">
<rect width="327" height="205" fill="white"/>
</clipPath>
</defs>
</svg>
