<svg width="327" height="205" viewBox="0 0 327 205" fill="none" xmlns="http://www.w3.org/2000/svg">
<g clip-path="url(#clip0_2312_14146)">
<rect width="327" height="205" fill="white"/>
<g clip-path="url(#clip1_2312_14146)">
<path d="M376.583 194.611C373.185 194.611 369.829 194.425 366.525 194.064C359.838 194.794 352.974 194.786 346.379 194.063C339.705 194.793 332.839 194.787 326.247 194.063C319.587 194.791 312.703 194.786 306.103 194.062C299.49 194.787 292.58 194.787 285.966 194.062C279.351 194.787 272.444 194.788 265.828 194.063C259.215 194.788 252.306 194.787 245.692 194.062C239.079 194.787 232.169 194.787 225.555 194.062C218.94 194.787 212.031 194.787 205.417 194.062C198.804 194.787 191.894 194.787 185.28 194.062C178.667 194.787 171.757 194.787 165.143 194.062C158.53 194.787 151.62 194.787 145.006 194.062C138.393 194.787 131.483 194.787 124.869 194.062C121.562 194.424 118.202 194.611 114.801 194.611C64.184 194.611 23 153.427 23 102.806C23 52.184 64.184 11 114.805 11C118.206 11 121.567 11.186 124.873 11.548C131.486 10.823 138.396 10.823 145.01 11.548C151.623 10.823 158.533 10.823 165.147 11.548C171.76 10.823 178.67 10.823 185.284 11.548C191.897 10.823 198.807 10.823 205.421 11.548C212.034 10.823 218.943 10.823 225.559 11.548C232.172 10.823 239.082 10.823 245.696 11.548C252.309 10.823 259.218 10.823 265.832 11.548C272.447 10.823 279.354 10.823 285.97 11.548C292.583 10.823 299.493 10.823 306.107 11.548C312.707 10.825 319.591 10.819 326.25 11.548C332.843 10.826 339.708 10.818 346.383 11.548C352.977 10.825 359.84 10.817 366.526 11.548C372.736 10.867 379.181 10.814 385.652 11.446L385.39 14.09L385.598 15.73C385.804 15.799 386.01 15.869 386.216 15.939L385.244 18.774L386.286 21.542C384.878 22.072 383.488 22.637 382.119 23.236C383.698 24.147 385.252 25.106 386.781 26.115L384.825 29.082L386.851 31.94C384.568 33.558 382.375 35.278 380.28 37.09C382.761 39.514 385.119 42.091 387.343 44.818L383.468 47.978C381.306 45.328 379.007 42.823 376.588 40.474C374.127 42.864 371.817 45.39 369.67 48.034C372.203 51.431 374.509 55.011 376.561 58.746C378.579 55.074 380.861 51.519 383.399 48.103L387.413 51.085C384.31 55.26 381.614 59.654 379.337 64.225C384.793 75.96 387.842 89.035 387.842 102.806C387.842 116.577 384.793 129.652 379.337 141.386C381.613 145.957 384.311 150.352 387.413 154.527L383.399 157.509C380.861 154.093 378.579 150.537 376.561 146.865C374.509 150.6 372.204 154.179 369.67 157.577C371.817 160.221 374.128 162.748 376.589 165.138C379.008 162.788 381.306 160.284 383.468 157.634L387.343 160.794C385.119 163.52 382.762 166.097 380.281 168.522C382.376 170.334 384.568 172.054 386.851 173.672L384.825 176.529L386.781 179.496C385.252 180.505 383.698 181.464 382.119 182.375C383.488 182.974 384.878 183.539 386.286 184.069L385.244 186.837L386.216 189.673C386.01 189.743 385.804 189.813 385.598 189.882L385.39 191.522L385.65 194.166C382.641 194.46 379.59 194.611 376.583 194.611ZM122.845 16.84C80.686 22.744 48.136 59.046 48.136 102.806C48.136 146.566 80.686 182.867 122.844 188.771C88.074 175.692 63.273 142.091 63.273 102.806C63.272 63.521 88.075 29.919 122.845 16.84ZM102.708 16.84C60.549 22.744 28 59.046 28 102.806C28 146.566 60.549 182.867 102.707 188.771C67.937 175.692 43.136 142.091 43.136 102.806C43.136 63.521 67.938 29.919 102.708 16.84ZM373.898 186.582C374.785 186.823 375.679 187.051 376.577 187.264C377.476 187.051 378.373 186.823 379.265 186.579C378.363 186.174 377.471 185.755 376.586 185.321C375.697 185.755 374.8 186.176 373.898 186.582ZM333.614 186.565C334.512 186.81 335.419 187.042 336.329 187.258C337.231 187.044 338.13 186.815 339.022 186.572C338.111 186.162 337.205 185.735 336.309 185.297C335.419 185.734 334.521 186.157 333.614 186.565ZM353.803 186.579C354.681 186.818 355.571 187.045 356.458 187.257C357.347 187.046 358.232 186.82 359.113 186.581C358.22 186.18 357.335 185.763 356.458 185.335C355.58 185.763 354.695 186.178 353.803 186.579ZM253.066 186.565C253.961 186.808 254.857 187.038 255.761 187.253C256.666 187.037 257.564 186.808 258.457 186.565C257.551 186.157 256.651 185.734 255.762 185.297C254.872 185.734 253.973 186.157 253.066 186.565ZM134.941 18.357C96.753 27.462 68.272 61.87 68.272 102.806C68.272 143.741 96.753 178.149 134.941 187.253C135.846 187.037 136.743 186.808 137.636 186.564C105.699 172.179 83.41 140.046 83.41 102.806C83.41 65.566 105.699 33.432 137.637 19.046C136.743 18.803 135.847 18.573 134.941 18.357ZM172.52 186.565C173.414 186.808 174.31 187.038 175.215 187.253C176.12 187.037 177.017 186.808 177.91 186.564C177.004 186.157 176.105 185.734 175.215 185.297C174.324 185.734 173.426 186.157 172.52 186.565ZM152.383 186.565C153.277 186.808 154.174 187.038 155.078 187.253C155.983 187.037 156.88 186.808 157.773 186.565C156.867 186.157 155.968 185.734 155.078 185.297C154.188 185.734 153.289 186.157 152.383 186.565ZM273.204 186.564C274.098 186.808 274.994 187.038 275.899 187.253C276.803 187.037 277.701 186.808 278.594 186.564C277.688 186.156 276.789 185.734 275.899 185.297C275.009 185.734 274.11 186.157 273.204 186.564ZM192.656 186.565C193.55 186.808 194.447 187.038 195.351 187.253C196.256 187.037 197.153 186.808 198.047 186.564C197.141 186.156 196.241 185.734 195.351 185.297C194.462 185.734 193.563 186.157 192.656 186.565ZM313.478 186.564C314.372 186.808 315.268 187.038 316.173 187.253C317.078 187.037 317.974 186.808 318.867 186.565C317.961 186.157 317.062 185.734 316.172 185.297C315.282 185.734 314.384 186.156 313.478 186.564ZM232.93 186.564C233.824 186.808 234.721 187.038 235.626 187.253C236.53 187.037 237.427 186.808 238.32 186.565C237.414 186.157 236.515 185.734 235.625 185.297C234.734 185.734 233.836 186.156 232.93 186.564ZM293.341 186.564C294.235 186.808 295.131 187.038 296.036 187.253C296.94 187.037 297.838 186.808 298.731 186.564C297.825 186.156 296.926 185.734 296.036 185.297C295.146 185.734 294.247 186.156 293.341 186.564ZM212.793 186.564C213.688 186.808 214.584 187.038 215.488 187.253C216.393 187.037 217.29 186.808 218.183 186.564C217.277 186.156 216.378 185.734 215.488 185.297C214.599 185.734 213.699 186.156 212.793 186.564ZM361.995 182.389C363.476 183.036 364.979 183.644 366.504 184.21C368.038 183.641 369.557 183.027 371.058 182.371C369.524 181.483 368.021 180.554 366.547 179.583C365.056 180.564 363.539 181.5 361.995 182.389ZM341.834 182.351C343.338 183.01 344.865 183.628 346.411 184.204C347.932 183.64 349.435 183.034 350.921 182.385C349.367 181.488 347.844 180.547 346.352 179.564C344.873 180.535 343.369 181.463 341.834 182.351ZM321.697 182.351C323.19 183.005 324.705 183.62 326.24 184.191C327.776 183.62 329.291 183.005 330.784 182.351C329.239 181.457 327.727 180.525 326.241 179.545C324.754 180.525 323.242 181.458 321.697 182.351ZM160.604 182.351C162.097 183.005 163.611 183.62 165.147 184.191C166.683 183.62 168.197 183.005 169.691 182.351C168.145 181.457 166.634 180.525 165.147 179.545C163.66 180.525 162.148 181.458 160.604 182.351ZM241.149 182.351C242.643 183.005 244.158 183.62 245.693 184.191C247.229 183.62 248.744 183.005 250.237 182.351C248.692 181.457 247.18 180.524 245.693 179.545C244.207 180.524 242.695 181.458 241.149 182.351ZM145.01 21.42C111.992 33.713 88.41 65.558 88.41 102.806C88.41 140.054 111.992 171.898 145.01 184.191C146.546 183.62 148.06 183.005 149.553 182.351C122.074 166.469 103.546 136.761 103.546 102.806C103.546 68.85 122.074 39.142 149.553 23.26C148.06 22.605 146.546 21.992 145.01 21.42ZM261.287 182.351C262.781 183.005 264.295 183.62 265.831 184.191C267.366 183.62 268.881 183.005 270.375 182.351C268.829 181.457 267.318 180.524 265.831 179.545C264.344 180.524 262.833 181.458 261.287 182.351ZM180.74 182.351C182.233 183.005 183.748 183.62 185.283 184.191C186.819 183.62 188.334 183.005 189.827 182.35C188.282 181.457 186.77 180.524 185.284 179.545C183.797 180.524 182.285 181.458 180.74 182.351ZM281.424 182.351C282.918 183.005 284.432 183.62 285.968 184.191C287.504 183.62 289.018 183.005 290.512 182.351C288.966 181.457 287.455 180.524 285.968 179.545C284.48 180.524 282.97 181.458 281.424 182.351ZM200.877 182.35C202.37 183.005 203.885 183.62 205.42 184.191C206.956 183.62 208.471 183.005 209.964 182.351C208.419 181.457 206.907 180.524 205.42 179.545C203.934 180.524 202.422 181.458 200.877 182.35ZM301.561 182.351C303.055 183.005 304.569 183.62 306.105 184.191C307.64 183.62 309.155 183.005 310.648 182.351C309.103 181.457 307.591 180.525 306.104 179.545C304.617 180.525 303.106 181.458 301.561 182.351ZM221.014 182.351C222.507 183.005 224.022 183.619 225.557 184.191C227.093 183.619 228.607 183.005 230.101 182.351C228.555 181.457 227.044 180.524 225.557 179.545C224.07 180.524 222.559 181.458 221.014 182.351ZM350.775 176.464C352.622 177.62 354.518 178.71 356.457 179.729C358.385 178.718 360.275 177.633 362.125 176.477C360.171 175.016 358.278 173.48 356.453 171.874C354.623 173.476 352.728 175.009 350.775 176.464ZM370.97 176.484C372.795 177.628 374.668 178.706 376.588 179.714C378.499 178.711 380.377 177.635 382.218 176.485C380.276 175.039 378.399 173.521 376.59 171.938C374.771 173.531 372.896 175.047 370.97 176.484ZM310.526 176.445C312.364 177.595 314.247 178.678 316.172 179.691C318.098 178.678 319.981 177.595 321.818 176.445C319.875 174.997 317.993 173.474 316.172 171.881C314.352 173.474 312.47 174.997 310.526 176.445ZM155.078 25.92C127.436 40.457 108.546 69.466 108.546 102.806C108.546 136.145 127.437 165.154 155.078 179.691C157.004 178.678 158.887 177.595 160.724 176.445C138.257 159.695 123.684 132.922 123.684 102.806C123.684 72.69 138.257 45.917 160.724 29.166C158.887 28.016 157.004 26.933 155.078 25.92ZM169.569 176.445C171.407 177.595 173.289 178.677 175.215 179.69C177.141 178.677 179.024 177.594 180.861 176.445C178.918 174.997 177.036 173.474 175.215 171.881C173.395 173.474 171.513 174.997 169.569 176.445ZM330.664 176.445C332.501 177.595 334.384 178.677 336.31 179.69C338.228 178.681 340.1 177.606 341.93 176.461C339.989 175.012 338.111 173.49 336.292 171.896C334.478 173.483 332.6 175.001 330.664 176.445ZM250.116 176.445C251.953 177.594 253.837 178.677 255.762 179.69C257.688 178.677 259.571 177.594 261.408 176.445C259.465 174.997 257.583 173.474 255.762 171.88C253.941 173.474 252.06 174.996 250.116 176.445ZM229.979 176.445C231.817 177.595 233.699 178.677 235.625 179.69C237.551 178.677 239.434 177.594 241.271 176.445C239.329 174.996 237.447 173.474 235.626 171.881C233.805 173.474 231.923 174.997 229.979 176.445ZM270.254 176.445C272.091 177.594 273.974 178.677 275.9 179.69C277.826 178.677 279.709 177.594 281.546 176.445C279.603 174.997 277.722 173.474 275.9 171.881C274.079 173.474 272.197 174.997 270.254 176.445ZM290.391 176.445C292.228 177.594 294.111 178.677 296.037 179.69C297.963 178.677 299.845 177.595 301.683 176.445C299.74 174.997 297.858 173.475 296.037 171.881C294.215 173.475 292.334 174.997 290.391 176.445ZM209.843 176.445C211.681 177.594 213.564 178.677 215.489 179.69C217.415 178.677 219.298 177.595 221.135 176.445C219.193 174.997 217.311 173.474 215.489 171.881C213.668 173.474 211.786 174.997 209.843 176.445ZM189.706 176.445C191.544 177.594 193.427 178.677 195.352 179.69C197.277 178.677 199.16 177.594 200.998 176.445C199.055 174.997 197.173 173.474 195.352 171.881C193.531 173.474 191.649 174.997 189.706 176.445ZM360.142 168.462C362.192 170.243 364.329 171.931 366.548 173.52C368.735 171.958 370.852 170.292 372.898 168.522C370.641 166.316 368.506 164.003 366.5 161.592C364.497 163.988 362.373 166.283 360.142 168.462ZM339.983 168.483C342.025 170.254 344.148 171.926 346.353 173.503C348.571 171.92 350.713 170.233 352.77 168.454C350.53 166.256 348.407 163.95 346.406 161.541C344.384 163.964 342.24 166.281 339.983 168.483ZM299.727 168.467C301.772 170.236 303.9 171.91 306.104 173.486C308.309 171.911 310.437 170.236 312.482 168.467C310.242 166.279 308.113 163.979 306.105 161.573C304.096 163.979 301.967 166.28 299.727 168.467ZM319.863 168.467C321.908 170.236 324.036 171.91 326.241 173.486C328.439 171.916 330.565 170.242 332.604 168.479C330.365 166.288 328.241 163.987 326.235 161.581C324.229 163.983 322.102 166.282 319.863 168.467ZM165.146 32.125C143.089 47.881 128.683 73.693 128.683 102.806C128.683 131.917 143.089 157.73 165.146 173.486C167.351 171.911 169.479 170.236 171.524 168.466C154.441 151.785 143.82 128.512 143.82 102.806C143.82 77.099 154.441 53.826 171.524 37.144C169.479 35.375 167.352 33.7 165.146 32.125ZM219.18 168.467C221.225 170.236 223.353 171.91 225.557 173.486C227.762 171.911 229.89 170.236 231.935 168.466C229.695 166.278 227.566 163.979 225.557 161.573C223.549 163.979 221.42 166.28 219.18 168.467ZM199.043 168.466C201.088 170.236 203.216 171.91 205.42 173.486C207.625 171.911 209.753 170.236 211.798 168.467C209.558 166.279 207.429 163.979 205.42 161.573C203.412 163.979 201.283 166.279 199.043 168.466ZM178.906 168.466C180.951 170.236 183.079 171.91 185.284 173.486C187.488 171.911 189.616 170.236 191.661 168.466C189.421 166.278 187.292 163.979 185.284 161.573C183.275 163.979 181.146 166.279 178.906 168.466ZM259.453 168.466C261.498 170.235 263.627 171.91 265.831 173.486C268.036 171.911 270.164 170.236 272.209 168.466C269.969 166.278 267.839 163.978 265.83 161.572C263.822 163.978 261.693 166.279 259.453 168.466ZM279.591 168.466C281.636 170.236 283.764 171.91 285.968 173.485C288.172 171.911 290.3 170.236 292.345 168.467C290.105 166.279 287.976 163.979 285.968 161.574C283.959 163.979 281.831 166.279 279.591 168.466ZM239.316 168.466C241.361 170.236 243.489 171.91 245.693 173.485C247.898 171.911 250.026 170.235 252.071 168.466C249.831 166.278 247.703 163.978 245.694 161.573C243.686 163.978 241.557 166.279 239.316 168.466ZM329.403 157.568C331.551 160.21 333.853 162.724 336.296 165.098C338.758 162.71 341.077 160.181 343.245 157.518C340.704 154.094 338.398 150.496 336.349 146.752C334.283 150.527 331.961 154.138 329.403 157.568ZM289.136 157.561C291.287 160.202 293.594 162.715 296.035 165.085C298.477 162.715 300.784 160.2 302.936 157.561C300.398 154.156 298.09 150.57 296.036 146.827C293.981 150.57 291.674 154.157 289.136 157.561ZM309.272 157.561C311.423 160.201 313.73 162.715 316.172 165.085C318.613 162.715 320.918 160.203 323.069 157.563C320.533 154.154 318.225 150.56 316.175 146.818C314.121 150.564 311.812 154.154 309.272 157.561ZM208.588 157.561C210.74 160.201 213.047 162.715 215.488 165.085C217.93 162.715 220.237 160.2 222.388 157.561C219.851 154.156 217.542 150.57 215.489 146.826C213.435 150.57 211.126 154.156 208.588 157.561ZM188.452 157.561C190.603 160.201 192.91 162.715 195.351 165.085C197.793 162.715 200.1 160.2 202.251 157.561C199.714 154.156 197.405 150.57 195.351 146.826C193.298 150.57 190.989 154.156 188.452 157.561ZM268.998 157.56C271.15 160.2 273.458 162.715 275.899 165.085C278.341 162.715 280.647 160.201 282.799 157.561C280.261 154.157 277.952 150.569 275.898 146.825C273.844 150.569 271.536 154.155 268.998 157.56ZM175.216 40.526C158.946 56.312 148.82 78.4 148.82 102.806C148.82 127.211 158.946 149.298 175.216 165.085C177.657 162.715 179.964 160.2 182.115 157.561C170.713 142.263 163.957 123.309 163.957 102.806C163.957 82.303 170.713 63.348 182.115 48.051C179.964 45.411 177.657 42.896 175.216 40.526ZM228.726 157.561C230.877 160.201 233.184 162.715 235.625 165.085C238.067 162.715 240.375 160.2 242.526 157.56C239.988 154.156 237.68 150.569 235.626 146.825C233.571 150.569 231.263 154.156 228.726 157.561ZM248.862 157.56C251.013 160.201 253.32 162.714 255.762 165.084C258.203 162.714 260.51 160.199 262.662 157.56C260.124 154.155 257.816 150.569 255.762 146.825C253.708 150.569 251.4 154.156 248.862 157.56ZM349.572 157.526C351.716 160.169 354.016 162.691 356.459 165.073C358.893 162.71 361.191 160.204 363.337 157.572C360.792 154.145 358.493 150.551 356.452 146.816C354.403 150.55 352.102 154.129 349.572 157.526ZM359.228 141.326C361.321 145.548 363.755 149.599 366.508 153.437C369.244 149.639 371.684 145.609 373.786 141.387C370.283 133.848 367.839 125.878 366.508 117.638C365.15 125.961 362.671 133.909 359.228 141.326ZM318.95 141.333C321.054 145.57 323.494 149.612 326.239 153.431C329 149.598 331.459 145.528 333.575 141.263C330.099 133.775 327.613 125.793 326.253 117.518C324.899 125.888 322.412 133.877 318.95 141.333ZM278.672 141.341C280.779 145.576 283.224 149.619 285.968 153.429C288.711 149.619 291.156 145.578 293.263 141.343C289.81 133.908 287.325 125.934 285.967 117.59C284.609 125.935 282.124 133.907 278.672 141.341ZM298.81 141.343C300.917 145.578 303.361 149.618 306.105 153.428C308.851 149.615 311.296 145.571 313.406 141.33C309.95 133.879 307.465 125.9 306.108 117.578C304.751 125.93 302.265 133.904 298.81 141.343ZM198.126 141.342C200.232 145.577 202.677 149.618 205.42 153.428C208.164 149.618 210.608 145.577 212.715 141.342C209.263 133.907 206.777 125.937 205.421 117.592C204.063 125.938 201.578 133.908 198.126 141.342ZM185.284 52.183C175.013 66.442 168.957 83.931 168.957 102.806C168.957 121.681 175.013 139.169 185.284 153.428C188.027 149.618 190.472 145.577 192.578 141.342C187.134 129.617 184.094 116.561 184.094 102.806C184.094 89.051 187.134 75.994 192.578 64.269C190.472 60.034 188.027 55.993 185.284 52.183ZM218.263 141.342C220.369 145.577 222.814 149.618 225.557 153.428C228.301 149.618 230.745 145.576 232.853 141.341C229.401 133.906 226.915 125.934 225.558 117.59C224.2 125.935 221.715 133.908 218.263 141.342ZM238.399 141.341C240.506 145.576 242.95 149.618 245.694 153.427C248.437 149.618 250.882 145.576 252.989 141.341C249.537 133.906 247.051 125.934 245.694 117.59C244.337 125.935 241.852 133.907 238.399 141.341ZM258.536 141.341C260.643 145.576 263.087 149.617 265.831 153.427C268.574 149.617 271.018 145.576 273.125 141.341C269.673 133.906 267.187 125.937 265.831 117.592C264.474 125.938 261.988 133.907 258.536 141.341ZM339.118 141.265C341.221 145.495 343.662 149.551 346.41 153.383C349.145 149.58 351.582 145.547 353.683 141.321C350.204 133.802 347.734 125.806 346.384 117.548C345.034 125.88 342.559 133.84 339.118 141.265ZM376.563 70.39C372.45 80.591 370.325 91.535 370.325 102.807C370.325 114.079 372.45 125.022 376.563 135.223C380.613 125.202 382.841 114.262 382.841 102.807C382.841 91.352 380.612 80.411 376.563 70.39ZM296.036 70.437C292.001 80.444 289.777 91.372 289.777 102.806C289.777 114.24 292.001 125.168 296.036 135.174C300.071 125.168 302.295 114.24 302.295 102.806C302.295 91.372 300.071 80.444 296.036 70.437ZM195.352 70.438C191.317 80.445 189.094 91.372 189.094 102.806C189.094 114.24 191.317 125.167 195.352 135.173C199.388 125.167 201.611 114.24 201.611 102.806C201.611 91.372 199.388 80.445 195.352 70.438ZM215.489 70.438C211.453 80.445 209.23 91.372 209.23 102.806C209.23 114.24 211.453 125.167 215.489 135.173C219.524 125.167 221.747 114.24 221.747 102.806C221.747 91.372 219.524 80.445 215.489 70.438ZM275.898 70.439C271.863 80.446 269.64 91.372 269.64 102.806C269.64 114.24 271.863 125.166 275.898 135.172C279.933 125.166 282.156 114.24 282.156 102.806C282.156 91.372 279.934 80.446 275.898 70.439ZM255.763 70.439C251.728 80.445 249.505 91.371 249.505 102.806C249.505 114.241 251.728 125.166 255.763 135.172C259.798 125.166 262.021 114.24 262.021 102.806C262.021 91.372 259.798 80.446 255.763 70.439ZM235.626 70.439C231.591 80.446 229.368 91.371 229.368 102.806C229.368 114.241 231.591 125.166 235.626 135.172C239.661 125.166 241.884 114.24 241.884 102.806C241.884 91.372 239.661 80.446 235.626 70.439ZM316.178 70.452C312.133 80.492 309.914 91.425 309.914 102.806C309.914 114.187 312.133 125.121 316.178 135.16C320.209 125.158 322.431 114.235 322.431 102.806C322.431 91.377 320.209 80.455 316.178 70.452ZM356.458 70.467C352.373 80.625 350.187 91.589 350.187 102.806C350.187 114.023 352.373 124.987 356.458 135.145C360.486 125.146 362.705 114.229 362.705 102.806C362.705 91.383 360.486 80.465 356.458 70.467ZM336.343 70.522C332.267 80.62 330.052 91.551 330.052 102.806C330.052 114.061 332.267 124.992 336.343 135.089C340.357 125.106 342.568 114.208 342.568 102.806C342.568 91.404 340.356 80.506 336.343 70.522ZM318.95 64.279C322.412 71.735 324.899 79.724 326.253 88.095C327.613 79.82 330.1 71.838 333.575 64.349C331.459 60.084 329 56.014 326.239 52.181C323.494 56 321.055 60.042 318.95 64.279ZM339.118 64.347C342.558 71.772 345.034 79.732 346.385 88.064C347.735 79.806 350.204 71.809 353.684 64.291C351.583 60.065 349.146 56.032 346.411 52.229C343.662 56.061 341.221 60.116 339.118 64.347ZM298.81 64.269C302.265 71.708 304.751 79.683 306.108 88.034C307.464 79.71 309.948 71.736 313.406 64.282C311.297 60.042 308.851 55.997 306.105 52.184C303.36 55.992 300.917 60.033 298.81 64.269ZM238.399 64.27C241.851 71.705 244.337 79.677 245.694 88.022C247.051 79.677 249.537 71.705 252.989 64.27C250.882 60.035 248.437 55.993 245.694 52.184C242.95 55.993 240.507 60.035 238.399 64.27ZM218.263 64.269C221.715 71.704 224.201 79.677 225.558 88.022C226.915 79.677 229.401 71.705 232.853 64.27C230.746 60.035 228.301 55.993 225.557 52.183C222.813 55.993 220.369 60.034 218.263 64.269ZM278.672 64.27C282.124 71.705 284.61 79.677 285.967 88.022C287.324 79.677 289.81 71.703 293.263 64.269C291.156 60.034 288.711 55.992 285.968 52.183C283.224 55.992 280.779 60.035 278.672 64.27ZM198.126 64.269C201.578 71.704 204.064 79.674 205.421 88.019C206.777 79.674 209.263 71.704 212.715 64.269C210.609 60.034 208.164 55.992 205.42 52.183C202.677 55.992 200.232 60.034 198.126 64.269ZM258.536 64.27C261.988 71.705 264.474 79.674 265.831 88.019C267.187 79.674 269.673 71.705 273.125 64.27C271.018 60.035 268.574 55.994 265.831 52.185C263.087 55.994 260.644 60.035 258.536 64.27ZM359.229 64.286C362.671 71.703 365.151 79.651 366.508 87.974C367.839 79.735 370.283 71.764 373.787 64.224C371.683 60.003 369.244 55.973 366.508 52.175C363.755 56.012 361.32 60.064 359.229 64.286ZM329.404 48.044C331.961 51.474 334.283 55.085 336.348 58.859C338.398 55.116 340.703 51.517 343.244 48.093C341.077 45.43 338.757 42.901 336.295 40.513C333.854 42.887 331.552 45.402 329.404 48.044ZM349.572 48.085C352.101 51.482 354.403 55.062 356.452 58.795C358.493 55.06 360.793 51.465 363.337 48.039C361.191 45.408 358.893 42.901 356.459 40.539C354.017 42.92 351.716 45.443 349.572 48.085ZM309.272 48.051C311.811 51.458 314.121 55.048 316.176 58.794C318.227 55.052 320.533 51.458 323.071 48.048C320.919 45.408 318.614 42.896 316.173 40.526C313.73 42.896 311.424 45.411 309.272 48.051ZM228.725 48.051C231.263 51.456 233.572 55.043 235.626 58.787C237.681 55.043 239.988 51.456 242.526 48.051C240.375 45.411 238.067 42.896 235.625 40.526C233.184 42.896 230.877 45.411 228.725 48.051ZM248.862 48.051C251.4 51.456 253.708 55.043 255.762 58.787C257.817 55.043 260.124 51.456 262.662 48.052C260.51 45.412 258.203 42.897 255.762 40.527C253.32 42.896 251.014 45.411 248.862 48.051ZM268.998 48.052C271.536 51.457 273.844 55.043 275.898 58.787C277.953 55.043 280.261 51.455 282.799 48.051C280.647 45.411 278.341 42.897 275.899 40.527C273.458 42.896 271.15 45.412 268.998 48.052ZM208.588 48.051C211.126 51.456 213.435 55.042 215.489 58.786C217.543 55.042 219.851 51.455 222.388 48.051C220.237 45.411 217.93 42.896 215.488 40.527C213.047 42.896 210.74 45.411 208.588 48.051ZM188.452 48.051C190.989 51.456 193.298 55.042 195.351 58.786C197.406 55.042 199.714 51.455 202.251 48.051C200.1 45.411 197.793 42.896 195.351 40.527C192.91 42.896 190.604 45.411 188.452 48.051ZM289.136 48.05C291.674 51.455 293.982 55.041 296.036 58.785C298.091 55.041 300.398 51.455 302.936 48.051C300.784 45.411 298.477 42.896 296.035 40.526C293.594 42.896 291.287 45.41 289.136 48.05ZM339.983 37.128C342.241 39.331 344.383 41.647 346.406 44.07C348.408 41.662 350.53 39.356 352.77 37.157C350.713 35.377 348.572 33.691 346.353 32.108C344.148 33.685 342.026 35.358 339.983 37.128ZM259.453 37.145C261.693 39.333 263.822 41.633 265.83 44.038C267.839 41.633 269.969 39.332 272.209 37.144C270.164 35.375 268.036 33.7 265.831 32.125C263.627 33.701 261.498 35.376 259.453 37.145ZM239.316 37.145C241.556 39.333 243.685 41.633 245.694 44.038C247.703 41.633 249.831 39.333 252.071 37.145C250.026 35.376 247.898 33.701 245.693 32.126C243.489 33.701 241.361 35.375 239.316 37.145ZM219.18 37.145C221.42 39.333 223.549 41.633 225.557 44.038C227.566 41.634 229.695 39.333 231.935 37.145C229.89 35.376 227.762 33.701 225.557 32.126C223.353 33.7 221.225 35.375 219.18 37.145ZM178.906 37.145C181.146 39.333 183.275 41.633 185.284 44.038C187.292 41.633 189.421 39.333 191.661 37.145C189.616 35.376 187.488 33.701 185.284 32.126C183.079 33.701 180.951 35.375 178.906 37.145ZM199.043 37.145C201.283 39.333 203.412 41.633 205.42 44.038C207.429 41.633 209.558 39.333 211.798 37.145C209.753 35.376 207.625 33.701 205.42 32.126C203.216 33.701 201.088 35.375 199.043 37.145ZM299.727 37.144C301.967 39.332 304.096 41.632 306.105 44.037C308.113 41.632 310.242 39.332 312.482 37.144C310.437 35.375 308.309 33.7 306.104 32.125C303.899 33.7 301.771 35.375 299.727 37.144ZM279.591 37.145C281.83 39.333 283.959 41.632 285.968 44.037C287.976 41.632 290.105 39.332 292.345 37.144C290.3 35.375 288.172 33.701 285.968 32.126C283.764 33.701 281.636 35.375 279.591 37.145ZM319.863 37.145C322.101 39.33 324.228 41.629 326.235 44.031C328.241 41.625 330.365 39.324 332.605 37.133C330.563 35.368 328.441 33.698 326.241 32.126C324.036 33.7 321.908 35.375 319.863 37.145ZM360.142 37.149C362.373 39.329 364.497 41.624 366.499 44.019C368.506 41.608 370.64 39.296 372.897 37.09C370.852 35.32 368.733 33.653 366.546 32.092C364.328 33.68 362.191 35.368 360.142 37.149ZM350.775 29.147C352.728 30.602 354.624 32.134 356.453 33.737C358.278 32.131 360.17 30.595 362.125 29.134C360.275 27.978 358.385 26.894 356.457 25.883C354.519 26.901 352.622 27.991 350.775 29.147ZM250.116 29.167C252.059 30.616 253.941 32.138 255.762 33.732C257.582 32.137 259.464 30.615 261.408 29.166C259.571 28.017 257.688 26.933 255.762 25.92C253.837 26.933 251.953 28.017 250.116 29.167ZM270.254 29.166C272.197 30.615 274.079 32.137 275.9 33.731C277.721 32.136 279.602 30.614 281.546 29.166C279.709 28.017 277.826 26.934 275.9 25.921C273.974 26.934 272.091 28.016 270.254 29.166ZM229.979 29.166C231.922 30.615 233.804 32.137 235.625 33.731C237.445 32.136 239.327 30.615 241.27 29.166C239.433 28.016 237.55 26.933 235.624 25.92C233.699 26.934 231.816 28.016 229.979 29.166ZM169.569 29.166C171.512 30.615 173.394 32.137 175.215 33.731C177.035 32.136 178.917 30.614 180.861 29.166C179.023 28.016 177.14 26.933 175.215 25.92C173.289 26.933 171.406 28.016 169.569 29.166ZM189.706 29.166C191.649 30.615 193.531 32.137 195.352 33.731C197.172 32.137 199.054 30.615 200.998 29.166C199.16 28.016 197.277 26.934 195.352 25.921C193.427 26.934 191.544 28.016 189.706 29.166ZM209.843 29.166C211.786 30.615 213.668 32.137 215.489 33.731C217.31 32.137 219.192 30.615 221.135 29.166C219.298 28.016 217.415 26.934 215.489 25.921C213.563 26.934 211.681 28.016 209.843 29.166ZM310.526 29.166C312.469 30.615 314.351 32.137 316.172 33.731C317.992 32.137 319.874 30.615 321.818 29.166C319.981 28.016 318.097 26.933 316.172 25.92C314.247 26.933 312.364 28.016 310.526 29.166ZM290.391 29.166C292.334 30.615 294.215 32.137 296.037 33.731C297.857 32.137 299.739 30.615 301.683 29.166C299.845 28.016 297.963 26.934 296.037 25.921C294.11 26.934 292.228 28.017 290.391 29.166ZM330.664 29.166C332.6 30.609 334.477 32.128 336.293 33.716C338.11 32.122 339.988 30.6 341.931 29.151C340.1 28.006 338.228 26.93 336.31 25.921C334.384 26.933 332.501 28.016 330.664 29.166ZM370.97 29.128C372.897 30.565 374.772 32.081 376.59 33.674C378.398 32.091 380.276 30.573 382.218 29.127C380.377 27.978 378.499 26.901 376.588 25.898C374.668 26.907 372.795 27.984 370.97 29.128ZM241.149 23.26C242.695 24.153 244.207 25.087 245.693 26.066C247.18 25.087 248.692 24.153 250.237 23.26C248.744 22.605 247.229 21.991 245.693 21.42C244.158 21.992 242.644 22.605 241.149 23.26ZM281.424 23.26C282.97 24.153 284.481 25.087 285.968 26.065C287.455 25.086 288.966 24.153 290.512 23.26C289.018 22.605 287.504 21.991 285.968 21.42C284.432 21.992 282.918 22.605 281.424 23.26ZM261.287 23.26C262.833 24.153 264.344 25.087 265.831 26.065C267.318 25.086 268.829 24.153 270.375 23.26C268.881 22.605 267.366 21.991 265.831 21.42C264.295 21.992 262.781 22.605 261.287 23.26ZM180.74 23.26C182.285 24.153 183.797 25.087 185.284 26.065C186.77 25.086 188.282 24.153 189.827 23.26C188.334 22.605 186.819 21.991 185.283 21.42C183.748 21.992 182.233 22.605 180.74 23.26ZM200.877 23.26C202.422 24.153 203.934 25.087 205.42 26.065C206.907 25.086 208.419 24.153 209.964 23.26C208.471 22.605 206.956 21.991 205.42 21.42C203.885 21.992 202.37 22.605 200.877 23.26ZM221.014 23.26C222.559 24.153 224.071 25.086 225.557 26.065C227.044 25.086 228.555 24.153 230.101 23.26C228.607 22.605 227.093 21.991 225.557 21.42C224.021 21.992 222.507 22.605 221.014 23.26ZM160.604 23.26C162.149 24.153 163.661 25.086 165.147 26.065C166.634 25.086 168.145 24.153 169.691 23.26C168.197 22.605 166.683 21.991 165.147 21.42C163.61 21.992 162.097 22.605 160.604 23.26ZM321.697 23.26C323.242 24.153 324.754 25.086 326.241 26.065C327.727 25.086 329.239 24.153 330.784 23.26C329.291 22.605 327.776 21.991 326.24 21.42C324.705 21.992 323.19 22.605 321.697 23.26ZM301.561 23.26C303.107 24.153 304.618 25.086 306.104 26.065C307.591 25.086 309.103 24.153 310.648 23.26C309.155 22.605 307.64 21.991 306.105 21.42C304.568 21.992 303.055 22.605 301.561 23.26ZM341.834 23.26C343.369 24.147 344.874 25.076 346.352 26.048C347.845 25.065 349.368 24.124 350.921 23.227C349.436 22.578 347.933 21.972 346.411 21.408C344.864 21.982 343.338 22.601 341.834 23.26ZM361.995 23.222C363.539 24.113 365.055 25.047 366.547 26.028C368.02 25.057 369.524 24.128 371.058 23.24C369.557 22.583 368.038 21.97 366.504 21.401C364.979 21.967 363.477 22.575 361.995 23.222ZM192.656 19.046C193.562 19.454 194.462 19.877 195.351 20.314C196.242 19.877 197.141 19.455 198.047 19.046C197.153 18.802 196.256 18.573 195.351 18.357C194.447 18.573 193.55 18.803 192.656 19.046ZM212.793 19.046C213.699 19.454 214.599 19.877 215.488 20.314C216.379 19.877 217.278 19.455 218.184 19.046C217.289 18.802 216.393 18.573 215.488 18.357C214.584 18.573 213.687 18.803 212.793 19.046ZM232.93 19.046C233.836 19.454 234.735 19.877 235.625 20.314C236.516 19.877 237.414 19.455 238.32 19.046C237.426 18.802 236.53 18.573 235.626 18.357C234.721 18.573 233.823 18.803 232.93 19.046ZM293.341 19.046C294.247 19.454 295.146 19.877 296.036 20.314C296.927 19.877 297.825 19.455 298.731 19.046C297.837 18.802 296.94 18.573 296.036 18.357C295.131 18.573 294.234 18.803 293.341 19.046ZM273.204 19.046C274.11 19.454 275.009 19.877 275.899 20.314C276.79 19.877 277.688 19.455 278.594 19.046C277.7 18.802 276.803 18.573 275.899 18.357C274.994 18.573 274.098 18.803 273.204 19.046ZM253.066 19.046C253.972 19.454 254.872 19.877 255.762 20.314C256.652 19.877 257.551 19.455 258.457 19.046C257.563 18.802 256.666 18.573 255.761 18.357C254.857 18.573 253.96 18.802 253.066 19.046ZM172.52 19.046C173.426 19.454 174.325 19.877 175.215 20.313C176.106 19.877 177.004 19.454 177.91 19.046C177.016 18.802 176.12 18.573 175.215 18.357C174.31 18.573 173.413 18.802 172.52 19.046ZM333.613 19.046C334.519 19.454 335.419 19.877 336.309 20.313C337.205 19.874 338.11 19.448 339.022 19.038C338.127 18.795 337.232 18.567 336.329 18.352C335.418 18.57 334.513 18.801 333.613 19.046ZM313.478 19.046C314.384 19.454 315.283 19.877 316.172 20.313C317.063 19.876 317.962 19.454 318.868 19.046C317.973 18.802 317.078 18.573 316.173 18.357C315.268 18.573 314.371 18.803 313.478 19.046ZM152.383 19.046C153.289 19.454 154.188 19.877 155.078 20.313C155.969 19.876 156.867 19.454 157.773 19.046C156.879 18.802 155.983 18.573 155.078 18.357C154.174 18.573 153.276 18.803 152.383 19.046ZM373.898 19.03C374.799 19.435 375.697 19.856 376.586 20.291C377.471 19.857 378.361 19.439 379.264 19.033C378.371 18.79 377.476 18.562 376.576 18.348C375.679 18.562 374.785 18.789 373.898 19.03ZM353.802 19.033C354.695 19.433 355.58 19.849 356.458 20.278C357.335 19.849 358.222 19.433 359.113 19.031C358.232 18.792 357.346 18.566 356.458 18.355C355.569 18.566 354.68 18.793 353.802 19.033Z" fill="#B4B4B4"/>
</g>
</g>
<defs>
<clipPath id="clip0_2312_14146">
<rect width="327" height="205" fill="white"/>
</clipPath>
<clipPath id="clip1_2312_14146">
<rect width="364.841" height="183.611" fill="white" transform="translate(23 11)"/>
</clipPath>
</defs>
</svg>
