<svg width="327" height="205" viewBox="0 0 327 205" fill="none" xmlns="http://www.w3.org/2000/svg">
<g clip-path="url(#clip0_2312_14176)">
<rect width="327" height="205" fill="white"/>
<g clip-path="url(#clip1_2312_14176)">
<path d="M235.193 30.8116C215.97 11.5884 190.413 1.00195 163.228 1.00195C136.043 1.00195 110.485 11.5884 91.2632 30.8116C72.04 50.034 61.4536 75.591 61.4536 102.777C61.4536 129.96 72.04 155.518 91.2632 174.743C110.486 193.965 136.044 204.552 163.228 204.552C190.412 204.552 215.97 193.965 235.193 174.743C254.416 155.518 265.002 129.96 265.002 102.777C265.002 75.591 254.415 50.034 235.193 30.8116ZM231.288 170.838C213.108 189.017 188.938 199.029 163.228 199.029C137.517 199.029 113.347 189.017 95.1664 170.838C76.9869 152.657 66.9747 128.485 66.9747 102.777C66.9747 77.0665 76.9869 52.8957 95.1664 34.7162C113.347 16.5352 137.517 6.52299 163.228 6.52299C188.938 6.52299 213.109 16.5352 231.289 34.7162C249.468 52.8957 259.481 77.0658 259.481 102.777C259.48 128.485 249.468 152.657 231.288 170.838Z" fill="#B4B4B4"/>
<path d="M163.228 64.3691C152.971 64.3691 143.327 68.3646 136.073 75.619C128.819 82.8719 124.824 92.5162 124.824 102.775C124.824 113.033 128.819 122.677 136.073 129.93C143.328 137.185 152.971 141.18 163.228 141.18C173.484 141.18 183.129 137.185 190.382 129.93C197.636 122.676 201.631 113.032 201.631 102.775C201.631 92.5162 197.636 82.8727 190.382 75.619C183.129 68.3646 173.485 64.3691 163.228 64.3691ZM186.479 126.027C180.268 132.238 172.01 135.659 163.228 135.659C154.446 135.659 146.188 132.239 139.976 126.027C133.766 119.816 130.345 111.559 130.345 102.776C130.345 93.9909 133.765 85.7336 139.976 79.5237C146.187 73.3115 154.445 69.8902 163.228 69.8902C172.011 69.8902 180.268 73.3115 186.479 79.5237C192.689 85.7344 196.11 93.9917 196.11 102.776C196.109 111.558 192.689 119.815 186.479 126.027Z" fill="#B4B4B4"/>
</g>
</g>
<defs>
<clipPath id="clip0_2312_14176">
<rect width="327" height="205" fill="white"/>
</clipPath>
<clipPath id="clip1_2312_14176">
<rect width="203.548" height="203.549" fill="white" transform="translate(61.4521 1)"/>
</clipPath>
</defs>
</svg>
