<svg width="327" height="205" viewBox="0 0 327 205" fill="none" xmlns="http://www.w3.org/2000/svg">
<g clip-path="url(#clip0_2312_14187)">
<rect width="327" height="205" fill="white"/>
<g clip-path="url(#clip1_2312_14187)">
<path d="M62.7539 2V203.246H264V2H62.7539ZM260.185 199.431H66.5693V5.81539H260.185V199.431Z" fill="#B4B4B4"/>
<path d="M163.378 171.111C181.67 171.111 198.869 163.986 211.803 151.048C224.738 138.114 231.862 120.916 231.862 102.622C231.862 84.3287 224.738 67.1298 211.803 54.1964C198.869 41.2591 181.671 34.1348 163.378 34.1348C145.086 34.1348 127.887 41.2591 114.953 54.1964C102.018 67.1306 94.894 84.3287 94.894 102.623C94.894 120.918 102.018 138.115 114.953 151.049C127.888 163.986 145.086 171.111 163.378 171.111ZM117.65 56.8931C129.865 44.6764 146.104 37.9493 163.378 37.9493C180.651 37.9493 196.892 44.6772 209.106 56.8939C221.321 69.1073 228.047 85.3479 228.047 102.623C228.047 119.898 221.321 136.138 209.106 148.352C196.891 160.569 180.652 167.296 163.378 167.296C146.106 167.296 129.866 160.568 117.65 148.352C105.435 136.138 98.7086 119.898 98.7086 102.623C98.7086 85.3479 105.436 69.1073 117.65 56.8931Z" fill="#B4B4B4"/>
<path d="M163.38 183.669C185.029 183.669 205.381 175.239 220.688 159.931C235.996 144.623 244.427 124.27 244.427 102.622C244.427 80.9735 235.996 60.6213 220.688 45.3132C205.381 30.0052 185.028 21.5742 163.38 21.5742C141.733 21.5742 121.38 30.006 106.073 45.314C90.7644 60.6221 82.3335 80.9752 82.3335 102.623C82.3335 124.27 90.7644 144.623 106.073 159.932C121.38 175.239 141.732 183.669 163.38 183.669ZM108.77 48.0115C123.357 33.4241 142.751 25.3896 163.38 25.3896C184.009 25.3896 203.403 33.4233 217.991 48.0115C232.579 62.5989 240.613 81.9928 240.613 102.622C240.613 123.251 232.579 142.646 217.991 157.233C203.404 171.82 184.009 179.853 163.38 179.853C142.751 179.853 123.357 171.82 108.77 157.233C94.1825 142.645 86.1481 123.251 86.1481 102.622C86.1481 81.9928 94.1817 62.5997 108.77 48.0115Z" fill="#B4B4B4"/>
<path d="M163.385 119.619C167.925 119.619 172.193 117.851 175.403 114.64C178.614 111.429 180.382 107.161 180.382 102.621C180.382 98.0788 178.614 93.8108 175.403 90.6022C172.194 87.3919 167.926 85.623 163.385 85.623C158.844 85.623 154.576 87.3919 151.366 90.6022C148.156 93.8116 146.388 98.0796 146.388 102.621C146.388 107.16 148.156 111.429 151.366 114.64C154.577 117.851 158.844 119.619 163.385 119.619ZM154.064 93.3012C156.553 90.8108 159.863 89.4392 163.384 89.4392C166.905 89.4392 170.215 90.81 172.704 93.3012C175.195 95.7891 176.565 99.0997 176.565 102.621C176.565 106.142 175.195 109.453 172.704 111.942C170.214 114.432 166.904 115.803 163.384 115.803C159.864 115.803 156.553 114.433 154.064 111.942C151.574 109.452 150.203 106.141 150.203 102.621C150.204 99.0997 151.574 95.7899 154.064 93.3012Z" fill="#B4B4B4"/>
</g>
</g>
<defs>
<clipPath id="clip0_2312_14187">
<rect width="327" height="205" fill="white"/>
</clipPath>
<clipPath id="clip1_2312_14187">
<rect width="201.246" height="201.246" fill="white" transform="translate(62.7539 2)"/>
</clipPath>
</defs>
</svg>
