<svg width="327" height="205" viewBox="0 0 327 205" fill="none" xmlns="http://www.w3.org/2000/svg">
<g clip-path="url(#clip0_2312_13914)">
<rect width="327" height="205" fill="white"/>
<g clip-path="url(#clip1_2312_13914)">
<path d="M190.906 119.259C155.817 129.471 131.491 149.037 126.635 153.156L-109.977 152.246L-110 158.073L127.703 158.987L128.819 158.991L129.651 158.25C129.905 158.025 155.429 135.599 192.736 124.795C214.515 118.487 236.013 117.314 256.636 121.311C282.431 126.31 306.985 139.471 329.618 160.428L333.576 156.151C280.319 106.84 226.597 108.87 190.906 119.259Z" fill="#B4B4B4"/>
<path d="M190.906 130.413C155.817 140.626 131.491 160.192 126.635 164.311L-109.977 163.402L-110 169.229L128.819 170.148L129.652 169.405C129.905 169.182 155.272 146.855 192.535 136.009C214.339 129.664 235.863 128.464 256.513 132.444C282.353 137.424 306.949 150.592 329.619 171.583L333.577 167.306C280.319 117.996 226.597 120.027 190.906 130.413Z" fill="#B4B4B4"/>
<path d="M190.906 108.101C155.817 118.314 131.491 137.88 126.635 141.999L-109.977 141.09L-110 146.917L127.703 147.831L128.819 147.835L129.651 147.095C129.905 146.87 155.429 124.443 192.736 113.639C214.515 107.331 236.013 106.16 256.636 110.156C282.431 115.155 306.985 128.315 329.618 149.272L333.576 144.995C280.319 95.6838 226.597 97.7142 190.906 108.101Z" fill="#B4B4B4"/>
<path d="M128.819 69.7428L129.651 69.0027C129.905 68.7778 155.429 46.3517 192.736 35.5471C214.515 29.2392 236.014 28.0679 256.636 32.0645C282.431 37.0635 306.985 50.2236 329.618 71.18L333.576 66.9036C280.319 17.592 226.597 19.6224 190.906 30.0097C155.817 40.2221 131.491 59.788 126.635 63.907L-109.977 62.9979L-110 68.8256L127.703 69.7393L128.819 69.7428Z" fill="#B4B4B4"/>
<path d="M190.906 141.572C155.817 151.784 131.491 171.35 126.635 175.469L-109.977 174.561L-110 180.389L127.703 181.301L128.819 181.305L129.651 180.565C129.905 180.34 155.429 157.914 192.736 147.109C214.515 140.8 236.014 139.63 256.636 143.626C282.431 148.625 306.985 161.787 329.618 182.743L333.576 178.467C280.319 129.154 226.597 131.185 190.906 141.572Z" fill="#B4B4B4"/>
<path d="M190.906 85.7898C155.817 96.0034 131.491 115.568 126.635 119.687L-109.977 118.777L-110 124.605L127.703 125.519L128.819 125.523L129.652 124.782C129.905 124.558 155.272 102.231 192.535 91.3855C214.339 85.0392 235.863 83.8398 256.513 87.819C282.353 92.8005 306.949 105.969 329.619 126.959L333.577 122.683C280.318 73.3686 226.593 75.4025 190.906 85.7898Z" fill="#B4B4B4"/>
<path d="M190.906 41.1662C155.817 51.3787 131.491 70.9445 126.635 75.0635L-109.977 74.1533L-110 79.981L127.703 80.8947L128.819 80.8982L129.651 80.1581C129.905 79.9332 155.429 57.507 192.736 46.7025C214.515 40.3946 236.014 39.2221 256.636 43.2187C282.431 48.2177 306.985 61.379 329.618 82.3353L333.576 78.059C280.319 28.7474 226.597 30.7789 190.906 41.1662Z" fill="#B4B4B4"/>
<path d="M190.906 52.3244C155.817 62.5369 131.491 82.1039 126.635 86.2218L-109.977 85.3126L-110 91.1403L127.703 92.0541L128.819 92.0576L129.651 91.3175C129.905 91.0925 155.429 68.6664 192.736 57.8619C214.517 51.5528 236.016 50.3826 256.636 54.3781C282.431 59.3771 306.985 72.5372 329.618 93.4935L333.576 89.2172C280.319 39.9056 226.597 41.9371 190.906 52.3244Z" fill="#B4B4B4"/>
<path d="M190.906 74.6341C155.817 84.8466 131.491 104.412 126.635 108.531L-109.977 107.621L-110 113.449L127.703 114.364L128.819 114.367L129.651 113.627C129.905 113.402 155.429 90.9761 192.736 80.1716C214.515 73.8649 236.014 72.6923 256.636 76.689C282.431 81.688 306.985 94.8481 329.618 115.804L333.576 111.528C280.319 62.2165 226.597 64.248 190.906 74.6341Z" fill="#B4B4B4"/>
<path d="M190.906 63.4778C155.817 73.6903 131.491 93.2562 126.635 97.3752L-109.977 96.4672L-110 102.295L127.703 103.208L128.819 103.211L129.651 102.471C129.905 102.246 155.429 79.8199 192.736 69.0153C214.515 62.7074 236.014 61.5361 256.636 65.5327C282.431 70.5317 306.985 83.6929 329.618 104.649L333.576 100.373C280.319 51.0602 226.597 53.0917 190.906 63.4778Z" fill="#B4B4B4"/>
<path d="M190.906 96.9452C155.817 107.158 131.491 126.723 126.635 130.843L-109.977 129.933L-110 135.761L127.703 136.674L128.819 136.677L129.651 135.937C129.905 135.712 155.429 113.286 192.736 102.483C214.515 96.1747 236.014 95.0022 256.636 99C282.431 103.999 306.985 117.16 329.618 138.117L333.576 133.84C280.318 84.5252 226.593 86.559 190.906 96.9452Z" fill="#B4B4B4"/>
</g>
</g>
<defs>
<clipPath id="clip0_2312_13914">
<rect width="327" height="205" fill="white"/>
</clipPath>
<clipPath id="clip1_2312_13914">
<rect width="443.577" height="158.74" fill="white" transform="translate(-110 24)"/>
</clipPath>
</defs>
</svg>
