<svg width="160" height="160" viewBox="0 0 160 160" fill="none" xmlns="http://www.w3.org/2000/svg">
<path d="M93.333 58.6667H66.6663C59.333 58.6667 53.333 64.6667 53.333 72V105.333C53.333 109 56.333 112 59.9997 112H66.6663V152C66.6663 155.667 69.6663 158.667 73.333 158.667H86.6663C90.333 158.667 93.333 155.667 93.333 152V112H99.9997C103.666 112 106.666 109 106.666 105.333V72C106.666 64.6667 100.666 58.6667 93.333 58.6667Z" fill="white"/>
<path d="M80.0003 52C87.3641 52 93.3337 46.0305 93.3337 38.6667C93.3337 31.3029 87.3641 25.3333 80.0003 25.3333C72.6365 25.3333 66.667 31.3029 66.667 38.6667C66.667 46.0305 72.6365 52 80.0003 52Z" fill="white"/>
</svg>
