<?xml version="1.0" encoding="utf-8"?><svg viewBox="0 0 32 32" xmlns="http://www.w3.org/2000/svg" xmlns:xlink="http://www.w3.org/1999/xlink"><style>:root>svg{display:none}:root>svg:target{display:block}</style><svg viewBox="0 0 24 24" id="accordion-arrow" xmlns="http://www.w3.org/2000/svg"><path fill="currentColor" d="m16 8.4-8.9 8.9q-.275.275-.7.275t-.7-.275-.275-.7.275-.7L14.6 7H7q-.425 0-.712-.288T6 6t.288-.712T7 5h10q.425 0 .713.288T18 6v10q0 .425-.288.713T17 17t-.712-.288T16 16z"/></svg><svg viewBox="0 0 24 24" id="arrow-up" xmlns="http://www.w3.org/2000/svg"><path fill="currentColor" d="M12 14.975q-.2 0-.375-.062T11.3 14.7l-4.6-4.6q-.275-.275-.275-.7t.275-.7.7-.275.7.275l3.9 3.9 3.9-3.9q.275-.275.7-.275t.7.275.275.7-.275.7l-4.6 4.6q-.15.15-.325.213t-.375.062"/></svg><svg fill="none" viewBox="0 0 32 32" id="glasses" xmlns="http://www.w3.org/2000/svg"><path d="M7.999 12a4 4 0 1 0 0 8 4 4 0 0 0 0-8Zm-6.667 4a6.666 6.666 0 0 1 10.923-5.13 5.333 5.333 0 0 1 7.488 0 6.666 6.666 0 1 1-1.686 2.104 2.666 2.666 0 0 0-4.117 0 6.665 6.665 0 0 1-10.068 8.26A6.667 6.667 0 0 1 1.332 16Zm22.667-4a3.995 3.995 0 0 0-4 4 4 4 0 1 0 4-4Z" fill="#202020"/></svg><svg fill="none" viewBox="0 0 18 18" id="login" xmlns="http://www.w3.org/2000/svg"><path d="M6.75 2.25h7.5v13.5h-7.5m3-6.75-3-3m3 3-3 3m3-3h-7.5" stroke="#fff" stroke-width="2" stroke-linecap="round" stroke-linejoin="round"/></svg><svg fill="none" viewBox="0 0 24 24" id="right-arr" xmlns="http://www.w3.org/2000/svg"><path d="M3.272 12h18m0 0L11.62 2.182M21.273 12l-9.653 9.818" stroke="#fff" stroke-width="2.5" stroke-linecap="round" stroke-linejoin="round"/></svg></svg>