<svg width="38" height="26" viewBox="0 0 38 26" fill="none" xmlns="http://www.w3.org/2000/svg">
<g clip-path="url(#clip0_2565_14346)">
<path fill-rule="evenodd" clip-rule="evenodd" d="M36.3018 21.7401V20.7997C36.7741 19.9199 37.021 18.9363 37.0203 17.9373V7.6023C37.021 6.60328 36.7741 5.61972 36.3018 4.73995V3.7998C37.0912 4.90987 37.5153 6.23917 37.5148 7.6023V17.9373C37.5154 19.3004 37.0915 20.6297 36.3022 21.7398L36.3018 21.7401Z" fill="#BE965A"/>
<path fill-rule="evenodd" clip-rule="evenodd" d="M36.3018 19.3929C36.4301 18.9185 36.4951 18.4292 36.4948 17.9376V7.60267C36.495 7.11119 36.4301 6.62185 36.3018 6.14746V19.3929Z" fill="#BE965A"/>
<path fill-rule="evenodd" clip-rule="evenodd" d="M36.3018 3.80025V4.7404C35.9107 4.01528 35.3808 3.37453 34.7423 2.85482C34.1039 2.33511 33.3695 1.94663 32.5811 1.7116V1.19141C34.0841 1.60569 35.3984 2.5272 36.3018 3.80025Z" fill="#BE965A"/>
<path fill-rule="evenodd" clip-rule="evenodd" d="M36.3018 6.14727C36.0511 5.23935 35.5802 4.40767 34.931 3.72632C34.2818 3.04497 33.4745 2.53512 32.5811 2.24219V2.771C34.5753 3.49816 36.0006 5.38952 36.0006 7.6024V17.9375C36.0006 20.1503 34.5753 22.0418 32.5811 22.7689V23.2978C33.4745 23.0048 34.2818 22.495 34.931 21.8136C35.5802 21.1323 36.0511 20.3006 36.3018 19.3927V6.14727Z" fill="#BE965A"/>
<path fill-rule="evenodd" clip-rule="evenodd" d="M36.3018 20.7998V21.7402C35.3984 23.0132 34.0841 23.9347 32.5811 24.349V23.8286C33.3694 23.5936 34.1039 23.2051 34.7423 22.6854C35.3807 22.1657 35.9107 21.5249 36.3018 20.7998Z" fill="#BE965A"/>
<path fill-rule="evenodd" clip-rule="evenodd" d="M32.5811 22.2244C33.4329 21.8773 34.1626 21.2846 34.6778 20.5214C35.1931 19.7581 35.4705 18.8588 35.4751 17.9374V7.6024C35.4705 6.68098 35.1931 5.78165 34.6778 5.01844C34.1626 4.25523 33.4329 3.66251 32.5811 3.31543V3.86117C33.2944 4.19188 33.899 4.7194 34.3241 5.38198C34.7491 6.04455 34.9769 6.81475 34.981 7.6024V17.9374C34.977 18.725 34.7491 19.4953 34.3241 20.1579C33.8991 20.8204 33.2945 21.348 32.5811 21.6787V22.2244Z" fill="#BE965A"/>
<path fill-rule="evenodd" clip-rule="evenodd" d="M32.5811 21.1068C33.1469 20.7938 33.6191 20.335 33.9486 19.7778C34.2781 19.2206 34.4531 18.5853 34.4553 17.9376V7.60265C34.4531 6.95498 34.2781 6.31969 33.9486 5.76252C33.6191 5.20535 33.1469 4.74654 32.5811 4.43359V5.01936C33.0045 5.304 33.3517 5.68839 33.5923 6.13882C33.833 6.58926 33.9596 7.09198 33.9612 7.60289V17.9376C33.9597 18.4485 33.833 18.9513 33.5924 19.4017C33.3517 19.8521 33.0045 20.2365 32.5811 20.5212V21.1069V21.1068Z" fill="#BE965A"/>
<path fill-rule="evenodd" clip-rule="evenodd" d="M32.5811 19.868V19.1114C32.8161 18.7638 32.9416 18.3536 32.9414 17.9338V7.58658C32.9416 7.16675 32.8161 6.75652 32.5811 6.40895V5.65234C32.85 5.89733 33.0649 6.19587 33.2121 6.52887C33.3592 6.86187 33.4354 7.22198 33.4357 7.58617V17.9342C33.4354 18.2983 33.3592 18.6585 33.212 18.9915C33.0649 19.3245 32.85 19.623 32.5811 19.868Z" fill="#BE965A"/>
<path fill-rule="evenodd" clip-rule="evenodd" d="M32.581 1.19101V1.7112C32.165 1.58706 31.7373 1.50625 31.3047 1.47006V0.967773C31.7363 1.00133 32.1636 1.07608 32.581 1.19101Z" fill="#BE965A"/>
<path fill-rule="evenodd" clip-rule="evenodd" d="M32.581 2.24235V2.77117C32.1693 2.62116 31.7406 2.52313 31.3047 2.47934V1.97705C31.7388 2.01686 32.167 2.10586 32.581 2.24235Z" fill="#BE965A"/>
<path fill-rule="evenodd" clip-rule="evenodd" d="M32.581 3.31558V3.86131C32.1777 3.67137 31.7469 3.54639 31.3047 3.49098V2.98779C31.7433 3.03686 32.173 3.14728 32.581 3.31582V3.31558Z" fill="#BE965A"/>
<path fill-rule="evenodd" clip-rule="evenodd" d="M32.581 4.43363V5.01939C32.1975 4.75836 31.762 4.58369 31.3047 4.50742V4.00098C31.753 4.06565 32.1856 4.2123 32.581 4.43363Z" fill="#BE965A"/>
<path fill-rule="evenodd" clip-rule="evenodd" d="M32.581 5.6528C32.2226 5.3236 31.7813 5.09858 31.3047 5.00195V5.51547C31.8255 5.6457 32.28 5.964 32.581 6.40933V5.6528Z" fill="#BE965A"/>
<path fill-rule="evenodd" clip-rule="evenodd" d="M32.581 19.1118V19.8684C32.2225 20.1976 31.7813 20.4226 31.3047 20.5193V20.0059C31.8255 19.8756 32.28 19.5573 32.581 19.112V19.1118Z" fill="#BE965A"/>
<path fill-rule="evenodd" clip-rule="evenodd" d="M32.581 20.521V21.1068C32.1856 21.328 31.753 21.4747 31.3047 21.5394V21.0331C31.762 20.9569 32.1975 20.7822 32.581 20.5212V20.521Z" fill="#BE965A"/>
<path fill-rule="evenodd" clip-rule="evenodd" d="M32.581 21.6787V22.2244C32.173 22.393 31.7433 22.5034 31.3047 22.5525V22.0494C31.7469 21.994 32.1777 21.8691 32.581 21.679V21.6787Z" fill="#BE965A"/>
<path fill-rule="evenodd" clip-rule="evenodd" d="M32.581 22.769V23.2979C32.167 23.4343 31.7388 23.5233 31.3047 23.5632V23.0609C31.7406 23.0171 32.1693 22.9191 32.581 22.769Z" fill="#BE965A"/>
<path fill-rule="evenodd" clip-rule="evenodd" d="M32.581 23.8286V24.3488C32.1636 24.4637 31.7363 24.5385 31.3047 24.572V24.0698C31.7373 24.0336 32.165 23.9528 32.581 23.8286Z" fill="#BE965A"/>
<path fill-rule="evenodd" clip-rule="evenodd" d="M31.305 0.96793V1.47022C31.1746 1.45937 31.0434 1.45235 30.9111 1.44915V0.94873C31.0433 0.951497 31.1746 0.957897 31.305 0.96793Z" fill="#BE965A"/>
<path fill-rule="evenodd" clip-rule="evenodd" d="M31.305 1.9768V2.47909C31.1751 2.46597 31.0438 2.45767 30.9111 2.4542V1.95361C31.0436 1.95692 31.1749 1.96465 31.305 1.9768Z" fill="#BE965A"/>
<path fill-rule="evenodd" clip-rule="evenodd" d="M31.305 2.9877V3.49113C31.1755 3.47486 31.0442 3.46461 30.9111 3.46038V2.95947C31.0438 2.96338 31.1751 2.97271 31.305 2.98746V2.9877Z" fill="#BE965A"/>
<path fill-rule="evenodd" clip-rule="evenodd" d="M31.305 4.00088V4.50708C31.1746 4.48553 31.0431 4.47195 30.9111 4.4664V3.96533C31.0429 3.97026 31.1744 3.98213 31.305 4.00088Z" fill="#BE965A"/>
<path fill-rule="evenodd" clip-rule="evenodd" d="M31.305 5.00186V5.51538C31.1758 5.48303 31.044 5.46255 30.9111 5.4542V4.95215C31.0435 4.959 31.1751 4.97561 31.305 5.00186Z" fill="#BE965A"/>
<path fill-rule="evenodd" clip-rule="evenodd" d="M31.305 20.0059V20.5192C31.1751 20.5455 31.0435 20.5621 30.9111 20.5689V20.067C31.044 20.0586 31.1758 20.0381 31.305 20.0059Z" fill="#BE965A"/>
<path fill-rule="evenodd" clip-rule="evenodd" d="M31.305 21.0332V21.5395C31.1744 21.5582 31.0429 21.5701 30.9111 21.575V21.0743C31.0431 21.0686 31.1746 21.0549 31.305 21.0332Z" fill="#BE965A"/>
<path fill-rule="evenodd" clip-rule="evenodd" d="M31.305 22.0493V22.5527C31.1751 22.5673 31.0438 22.5766 30.9111 22.5807V22.08C31.0441 22.0757 31.1753 22.0655 31.305 22.0493Z" fill="#BE965A"/>
<path fill-rule="evenodd" clip-rule="evenodd" d="M31.305 23.0605V23.5628C31.1751 23.5747 31.0436 23.5827 30.9111 23.5859V23.0854C31.0437 23.0818 31.175 23.0736 31.305 23.0605Z" fill="#BE965A"/>
<path fill-rule="evenodd" clip-rule="evenodd" d="M31.305 24.0698V24.5721C31.1746 24.5823 31.0434 24.5887 30.9111 24.5912V24.0909C31.0435 24.0879 31.1747 24.0808 31.305 24.0698Z" fill="#BE965A"/>
<path fill-rule="evenodd" clip-rule="evenodd" d="M30.9113 0.948567V1.44899C30.8642 1.44793 30.8169 1.4472 30.7695 1.4472L28.4268 1.44655V0.946777H30.7695C30.8169 0.946777 30.8642 0.947591 30.9113 0.948567Z" fill="#BE965A"/>
<path fill-rule="evenodd" clip-rule="evenodd" d="M30.9113 1.95394V2.45452C30.8642 2.4533 30.8169 2.45257 30.7695 2.45257L28.4268 2.45192V1.95215H30.7695C30.8169 1.95215 30.8642 1.95288 30.9113 1.95394Z" fill="#BE965A"/>
<path fill-rule="evenodd" clip-rule="evenodd" d="M30.9113 2.95939V3.46006C30.8642 3.45859 30.817 3.45745 30.7695 3.45745L28.4268 3.45794V2.95825L30.7695 2.95703C30.817 2.95703 30.8642 2.95801 30.9113 2.95939Z" fill="#BE965A"/>
<path fill-rule="evenodd" clip-rule="evenodd" d="M30.9113 3.96517V4.46583C30.8643 4.4638 30.8171 4.4625 30.7695 4.4625L28.4268 4.4616V3.96191H30.7695C30.817 3.96191 30.8642 3.96322 30.9113 3.96492V3.96517Z" fill="#BE965A"/>
<path fill-rule="evenodd" clip-rule="evenodd" d="M30.9113 4.9519V5.45395C30.8644 5.45094 30.8172 5.44923 30.7695 5.44923H28.4268V4.94889L30.7695 4.94824C30.8171 4.94824 30.8644 4.94941 30.9113 4.9519Z" fill="#BE965A"/>
<path fill-rule="evenodd" clip-rule="evenodd" d="M30.9113 20.067V20.569C30.8643 20.5714 30.817 20.5727 30.7695 20.5727H29.9629C29.4135 20.5737 28.8772 20.4051 28.4268 20.0899V19.4443C28.8366 19.8476 29.3885 20.073 29.9629 20.0718H30.7695C30.8172 20.0718 30.8644 20.07 30.9113 20.067Z" fill="#BE965A"/>
<path fill-rule="evenodd" clip-rule="evenodd" d="M30.9113 21.0739V21.5746C30.8642 21.5763 30.817 21.5775 30.7695 21.5775H29.9629C29.4331 21.5782 28.9093 21.4652 28.4268 21.246V20.689C28.8985 20.9446 29.4266 21.078 29.9629 21.0772H30.7695C30.8171 21.0772 30.8643 21.0759 30.9113 21.0739Z" fill="#BE965A"/>
<path fill-rule="evenodd" clip-rule="evenodd" d="M30.9113 22.0799V22.5807C30.8642 22.582 30.817 22.583 30.7695 22.583H29.9629C29.4404 22.5835 28.9214 22.4975 28.4268 22.3286V21.7974C28.9168 21.9867 29.4377 22.0835 29.9629 22.0828H30.7695C30.817 22.0828 30.8642 22.0817 30.9113 22.0802V22.0799Z" fill="#BE965A"/>
<path fill-rule="evenodd" clip-rule="evenodd" d="M30.9113 23.0855V23.586C30.8641 23.5872 30.8169 23.5878 30.7695 23.5878H29.9629C29.4439 23.5881 28.9273 23.5186 28.4268 23.381V22.8604C28.9249 23.0111 29.4425 23.0875 29.9629 23.0871H30.7695C30.8169 23.0871 30.8642 23.0864 30.9113 23.0851V23.0855Z" fill="#BE965A"/>
<path fill-rule="evenodd" clip-rule="evenodd" d="M30.9113 24.0908V24.5912C30.8642 24.5922 30.8169 24.593 30.7695 24.593H29.9629C29.4459 24.5933 28.9306 24.5348 28.4268 24.4187V23.9043C28.9292 24.0296 29.4451 24.0928 29.9629 24.0926H30.7695C30.8169 24.0926 30.8642 24.0919 30.9113 24.0908Z" fill="#BE965A"/>
<path fill-rule="evenodd" clip-rule="evenodd" d="M28.4271 0.946777V1.44655L28.0977 1.44647V0.946777H28.4271Z" fill="#BE965A"/>
<path fill-rule="evenodd" clip-rule="evenodd" d="M28.4271 1.95215V2.45192L28.0977 2.45184V1.95215H28.4271Z" fill="#BE965A"/>
<path fill-rule="evenodd" clip-rule="evenodd" d="M28.4271 2.9585V3.45818L28.0977 3.45827V2.95858L28.4271 2.9585Z" fill="#BE965A"/>
<path fill-rule="evenodd" clip-rule="evenodd" d="M28.4271 3.962V4.46168L28.0977 4.46152V3.96191L28.4271 3.962Z" fill="#BE965A"/>
<path fill-rule="evenodd" clip-rule="evenodd" d="M28.4271 4.94873V5.44907L28.0977 5.44899V4.94881L28.4271 4.94873Z" fill="#BE965A"/>
<path fill-rule="evenodd" clip-rule="evenodd" d="M28.4271 19.4441V20.0897C28.3102 20.0079 28.2001 19.9169 28.0977 19.8175V19.0283C28.19 19.18 28.3006 19.3198 28.4271 19.4443V19.4441Z" fill="#BE965A"/>
<path fill-rule="evenodd" clip-rule="evenodd" d="M28.4271 20.6893V21.2464C28.3145 21.1952 28.2045 21.1384 28.0977 21.0762V20.4839C28.2032 20.559 28.3132 20.6276 28.4271 20.6893Z" fill="#BE965A"/>
<path fill-rule="evenodd" clip-rule="evenodd" d="M28.4271 21.7974V22.3289C28.3154 22.2907 28.2056 22.2484 28.0977 22.2022V21.6533C28.2051 21.7058 28.3149 21.7538 28.4271 21.7974Z" fill="#BE965A"/>
<path fill-rule="evenodd" clip-rule="evenodd" d="M28.4271 22.8608V23.3815C28.3159 23.3509 28.2061 23.3171 28.0977 23.28V22.749C28.2059 22.7899 28.3157 22.8272 28.4271 22.861V22.8608Z" fill="#BE965A"/>
<path fill-rule="evenodd" clip-rule="evenodd" d="M28.4271 23.9043V24.4186C28.3162 24.3931 28.2064 24.3648 28.0977 24.3338V23.8125C28.2062 23.846 28.316 23.8766 28.4271 23.9043Z" fill="#BE965A"/>
<path fill-rule="evenodd" clip-rule="evenodd" d="M28.0967 0.946777V1.44647L26.9424 1.44614V0.946777H28.0967Z" fill="#BE965A"/>
<path fill-rule="evenodd" clip-rule="evenodd" d="M28.0967 1.95215V2.45184L26.9424 2.45151V1.95215H28.0967Z" fill="#BE965A"/>
<path fill-rule="evenodd" clip-rule="evenodd" d="M28.0967 2.9585V3.45818L26.9424 3.45843V2.95915L28.0967 2.9585Z" fill="#BE965A"/>
<path fill-rule="evenodd" clip-rule="evenodd" d="M28.0967 3.962V4.4616L26.9424 4.46111V3.96191L28.0967 3.962Z" fill="#BE965A"/>
<path fill-rule="evenodd" clip-rule="evenodd" d="M28.0967 4.94922V5.4494L26.9424 5.44931V4.94954L28.0967 4.94922Z" fill="#BE965A"/>
<path fill-rule="evenodd" clip-rule="evenodd" d="M28.0977 19.0282V19.8174C27.8446 19.5736 27.6432 19.2812 27.5055 18.9576C27.3679 18.634 27.2968 18.2859 27.2966 17.9341V6.96437H26.9434V6.46924H27.7908V17.9342C27.7905 18.3203 27.8968 18.6989 28.0977 19.0282Z" fill="#BE965A"/>
<path fill-rule="evenodd" clip-rule="evenodd" d="M28.0977 20.4837C27.5644 20.1063 27.161 19.5724 26.9434 18.9556V20.0226C27.2489 20.4521 27.6425 20.8112 28.0977 21.0759V20.4837Z" fill="#BE965A"/>
<path fill-rule="evenodd" clip-rule="evenodd" d="M28.0977 21.6529V22.2018C27.6812 22.0236 27.2925 21.7863 26.9434 21.4972V20.8237C27.2788 21.1633 27.669 21.4437 28.0977 21.6529Z" fill="#BE965A"/>
<path fill-rule="evenodd" clip-rule="evenodd" d="M28.0977 22.7492C27.6892 22.5953 27.3015 22.391 26.9434 22.1411V22.7364C27.3068 22.96 27.694 23.1423 28.0977 23.28V22.7492Z" fill="#BE965A"/>
<path fill-rule="evenodd" clip-rule="evenodd" d="M28.0977 23.8127V24.334C27.7001 24.2209 27.3137 24.0715 26.9434 23.8877V23.3252C27.3109 23.5259 27.6976 23.6892 28.0977 23.8127Z" fill="#BE965A"/>
<path fill-rule="evenodd" clip-rule="evenodd" d="M26.9434 0.946777V1.44614L25.4385 1.44573V0.946777H26.9434Z" fill="#BE965A"/>
<path fill-rule="evenodd" clip-rule="evenodd" d="M26.9434 1.95215V2.45151L25.4385 2.4511V1.95215H26.9434Z" fill="#BE965A"/>
<path fill-rule="evenodd" clip-rule="evenodd" d="M26.9434 2.95898V3.45827L25.4385 3.45859V2.95972L26.9434 2.95898Z" fill="#BE965A"/>
<path fill-rule="evenodd" clip-rule="evenodd" d="M26.9434 3.96167V4.46087L25.4385 4.46038V3.96143L26.9434 3.96167Z" fill="#BE965A"/>
<path fill-rule="evenodd" clip-rule="evenodd" d="M26.9434 4.94922V5.44899L25.4385 5.44891V4.94963L26.9434 4.94922Z" fill="#BE965A"/>
<path fill-rule="evenodd" clip-rule="evenodd" d="M26.9431 6.46924V6.96437H26.7708V17.9374C26.7705 18.2841 26.8288 18.6284 26.9431 18.9556V20.0226C26.5094 19.4142 26.2763 18.6851 26.2767 17.9374V6.96437H25.7514V17.9374C25.7523 19.0196 26.1809 20.0573 26.9434 20.8237V21.4971C26.225 20.9049 25.7007 20.1101 25.4385 19.2158V6.46924H26.9431Z" fill="#BE965A"/>
<path fill-rule="evenodd" clip-rule="evenodd" d="M26.9434 22.1406C26.332 21.7143 25.8189 21.1617 25.4385 20.52V21.3957C25.8574 21.9277 26.3669 22.3814 26.9434 22.7359V22.1406Z" fill="#BE965A"/>
<path fill-rule="evenodd" clip-rule="evenodd" d="M26.9434 23.3251V23.888C26.3985 23.6177 25.8923 23.2751 25.4385 22.8696V22.1807C25.8796 22.6361 26.387 23.0221 26.9434 23.3255V23.3251Z" fill="#BE965A"/>
<path fill-rule="evenodd" clip-rule="evenodd" d="M25.4378 0.946777V1.44573L23.9541 1.44533V0.946777H25.4378Z" fill="#BE965A"/>
<path fill-rule="evenodd" clip-rule="evenodd" d="M25.4378 1.95215V2.4511L23.9541 2.4507V1.95215H25.4378Z" fill="#BE965A"/>
<path fill-rule="evenodd" clip-rule="evenodd" d="M25.4378 2.95996V3.45884L23.9541 3.45916V2.96069L25.4378 2.95996Z" fill="#BE965A"/>
<path fill-rule="evenodd" clip-rule="evenodd" d="M25.4378 3.96159V4.46054L23.9541 4.45997V3.96143L25.4378 3.96159Z" fill="#BE965A"/>
<path fill-rule="evenodd" clip-rule="evenodd" d="M25.4378 4.94971V5.44899L23.9541 5.44891V4.95003L25.4378 4.94971Z" fill="#BE965A"/>
<path fill-rule="evenodd" clip-rule="evenodd" d="M25.4378 6.46924V19.2158C25.3172 18.8004 25.2562 18.37 25.2565 17.9374V6.96437H24.731V17.9374C24.7303 18.8464 24.9745 19.7387 25.4378 20.5201V21.3958C24.6598 20.4117 24.2366 19.1929 24.2369 17.9374V6.96437H23.9541V6.46924H25.4378Z" fill="#BE965A"/>
<path fill-rule="evenodd" clip-rule="evenodd" d="M25.4378 22.1804C24.7445 21.4663 24.2353 20.5938 23.9541 19.6382V20.9606C24.3292 21.6817 24.8319 22.3284 25.4378 22.8693V22.1804Z" fill="#BE965A"/>
<path fill-rule="evenodd" clip-rule="evenodd" d="M23.954 0.946777V1.44533L22.4756 1.44492V0.946777H23.954Z" fill="#BE965A"/>
<path fill-rule="evenodd" clip-rule="evenodd" d="M23.954 1.95215V2.4507L22.4756 2.45029V1.95215H23.954Z" fill="#BE965A"/>
<path fill-rule="evenodd" clip-rule="evenodd" d="M23.954 2.96045V3.45892L22.4756 3.45924V2.96118L23.954 2.96045Z" fill="#BE965A"/>
<path fill-rule="evenodd" clip-rule="evenodd" d="M23.954 3.96159V4.46014L22.4756 4.45949V3.96143L23.954 3.96159Z" fill="#BE965A"/>
<path fill-rule="evenodd" clip-rule="evenodd" d="M23.954 4.9502V5.44907L22.4756 5.44891V4.9506L23.954 4.9502Z" fill="#BE965A"/>
<path fill-rule="evenodd" clip-rule="evenodd" d="M23.9537 6.46924V6.96437H23.7109V17.9374C23.7106 18.5129 23.7924 19.0855 23.9537 19.6378V20.9602C23.4687 20.0267 23.2158 18.9896 23.2168 17.9371V6.46924H23.9537Z" fill="#BE965A"/>
<path fill-rule="evenodd" clip-rule="evenodd" d="M22.4756 0.946777V1.44492L18.3281 1.44378V0.946777H22.4756Z" fill="#BE965A"/>
<path fill-rule="evenodd" clip-rule="evenodd" d="M22.4756 1.95215V2.45029L18.3281 2.44923V1.95215H22.4756Z" fill="#BE965A"/>
<path fill-rule="evenodd" clip-rule="evenodd" d="M22.4756 2.96143V3.45949L18.3281 3.46038V2.96346L22.4756 2.96143Z" fill="#BE965A"/>
<path fill-rule="evenodd" clip-rule="evenodd" d="M22.4756 3.96143V4.45949L18.3281 4.45794V3.96094L22.4756 3.96143Z" fill="#BE965A"/>
<path fill-rule="evenodd" clip-rule="evenodd" d="M22.4756 4.95068V5.44899L19.0709 5.44883L19.0704 24.623H18.3281V24.1279H18.5767V5.44883H18.3281V4.9519L22.4756 4.95068Z" fill="#BE965A"/>
<path fill-rule="evenodd" clip-rule="evenodd" d="M18.3284 0.946777V1.44378L17.3369 1.44346V0.946777H18.3284Z" fill="#BE965A"/>
<path fill-rule="evenodd" clip-rule="evenodd" d="M18.3284 1.95215V2.44923L17.3369 2.44891V1.95215H18.3284Z" fill="#BE965A"/>
<path fill-rule="evenodd" clip-rule="evenodd" d="M18.3284 2.96338V3.4603L17.3369 3.46055V2.96379L18.3284 2.96338Z" fill="#BE965A"/>
<path fill-rule="evenodd" clip-rule="evenodd" d="M18.3284 3.96061V4.45762L17.3369 4.45721V3.96045L18.3284 3.96061Z" fill="#BE965A"/>
<path fill-rule="evenodd" clip-rule="evenodd" d="M18.3284 4.95166V5.44858H18.0797V24.1277H18.3284V24.6227H17.3369V24.1277H17.5857V5.44858H17.3369V4.9519L18.3284 4.95166Z" fill="#BE965A"/>
<path fill-rule="evenodd" clip-rule="evenodd" d="M17.3369 0.946777V1.44346L16.6162 1.44321V0.946777H17.3369Z" fill="#BE965A"/>
<path fill-rule="evenodd" clip-rule="evenodd" d="M17.3369 1.95215V2.44891L16.6162 2.44874V1.95215H17.3369Z" fill="#BE965A"/>
<path fill-rule="evenodd" clip-rule="evenodd" d="M17.3369 2.96387V3.46063L16.6162 3.46071V2.96427L17.3369 2.96387Z" fill="#BE965A"/>
<path fill-rule="evenodd" clip-rule="evenodd" d="M17.3369 3.96053V4.45729L16.6162 4.45705V3.96045L17.3369 3.96053Z" fill="#BE965A"/>
<path fill-rule="evenodd" clip-rule="evenodd" d="M17.3369 4.95215V5.44883H17.0882V24.1279H17.3369V24.623H16.6162V4.95239L17.3369 4.95215Z" fill="#BE965A"/>
<path fill-rule="evenodd" clip-rule="evenodd" d="M16.6164 0.946777V1.44321L16.3457 1.44313V0.946777H16.6164Z" fill="#BE965A"/>
<path fill-rule="evenodd" clip-rule="evenodd" d="M16.6164 1.95215V2.44874L16.3457 2.44866V1.95215H16.6164Z" fill="#BE965A"/>
<path fill-rule="evenodd" clip-rule="evenodd" d="M16.6164 2.96436V3.46079L16.3457 3.46087V2.96452L16.6164 2.96436Z" fill="#BE965A"/>
<path fill-rule="evenodd" clip-rule="evenodd" d="M16.6164 3.96053V4.45713L16.3457 4.45696V3.96045L16.6164 3.96053Z" fill="#BE965A"/>
<path fill-rule="evenodd" clip-rule="evenodd" d="M16.6164 4.95215V24.6227H16.3457V24.1277H16.5943V5.44858H16.3457V4.95223L16.6164 4.95215Z" fill="#BE965A"/>
<path fill-rule="evenodd" clip-rule="evenodd" d="M16.3458 0.946777V1.44313L15.3545 1.44289V0.946777H16.3458Z" fill="#BE965A"/>
<path fill-rule="evenodd" clip-rule="evenodd" d="M16.3458 1.95215V2.44866L15.3545 2.44842V1.95215H16.3458Z" fill="#BE965A"/>
<path fill-rule="evenodd" clip-rule="evenodd" d="M16.3458 2.96436V3.46071L15.3545 3.46087V2.96484L16.3458 2.96436Z" fill="#BE965A"/>
<path fill-rule="evenodd" clip-rule="evenodd" d="M16.3458 3.96045V4.45696L15.3545 4.45656V3.96045H16.3458Z" fill="#BE965A"/>
<path fill-rule="evenodd" clip-rule="evenodd" d="M16.3458 4.95215V5.4485H16.0972V24.1276H16.3458V24.6226H15.3545V24.1276H15.6031V5.4485H15.3545V4.95239L16.3458 4.95215Z" fill="#BE965A"/>
<path fill-rule="evenodd" clip-rule="evenodd" d="M15.3539 0.946777V1.44289L14.4902 1.44264V0.946777H15.3539Z" fill="#BE965A"/>
<path fill-rule="evenodd" clip-rule="evenodd" d="M15.3539 1.95215V2.44842L14.4902 2.44818V1.95215H15.3539Z" fill="#BE965A"/>
<path fill-rule="evenodd" clip-rule="evenodd" d="M15.3539 2.96484V3.46087L14.4902 3.46111V2.96525L15.3539 2.96484Z" fill="#BE965A"/>
<path fill-rule="evenodd" clip-rule="evenodd" d="M15.3539 3.96061V4.45672L14.4902 4.4564V3.96045L15.3539 3.96061Z" fill="#BE965A"/>
<path fill-rule="evenodd" clip-rule="evenodd" d="M15.3539 4.95264V5.44875H15.1053V24.1278H15.3539V24.6229H14.6103L14.611 5.44875H14.4902V4.95288L15.3539 4.95264Z" fill="#BE965A"/>
<path fill-rule="evenodd" clip-rule="evenodd" d="M14.4905 0.946777V1.44264L13.8682 1.44248V0.946777H14.4905Z" fill="#BE965A"/>
<path fill-rule="evenodd" clip-rule="evenodd" d="M14.4905 1.95215V2.44818L13.8682 2.44801V1.95215H14.4905Z" fill="#BE965A"/>
<path fill-rule="evenodd" clip-rule="evenodd" d="M14.4905 2.96533V3.4612L13.8682 3.46128V2.96566L14.4905 2.96533Z" fill="#BE965A"/>
<path fill-rule="evenodd" clip-rule="evenodd" d="M14.4905 3.96004V4.45599L13.8682 4.45574V3.95996L14.4905 3.96004Z" fill="#BE965A"/>
<path fill-rule="evenodd" clip-rule="evenodd" d="M14.4905 4.95264V5.4485L13.8682 5.44834V4.9528L14.4905 4.95264Z" fill="#BE965A"/>
<path fill-rule="evenodd" clip-rule="evenodd" d="M13.8682 0.946777V1.44248L11.7731 1.44191L11.7738 1.95185H13.8682V2.44771L11.7744 2.44714L11.775 2.96644L13.8682 2.96538V3.461L11.7757 3.46149L11.7764 3.95979L13.8682 3.96004V4.45582L11.7771 4.45501L11.7776 4.95331L13.8682 4.95274V5.44828L11.2842 5.44779L11.2783 0.946777H13.8682Z" fill="#BE965A"/>
<path fill-rule="evenodd" clip-rule="evenodd" d="M10.2798 5.44779V0.946777H8.52051V1.44313H9.78581V1.94729H8.52051V2.44381H9.78581V2.94797H8.52051V3.4444H9.78581V3.94857H8.52051V4.445H9.78581V4.94916H8.52051V5.44861L10.2798 5.44779Z" fill="#BE965A"/>
<path fill-rule="evenodd" clip-rule="evenodd" d="M8.52125 0.946777H7.77344V1.44313H8.52125V0.946777Z" fill="#BE965A"/>
<path fill-rule="evenodd" clip-rule="evenodd" d="M7.77344 5.44899L8.52125 5.44866V4.94922H7.77344V5.44899Z" fill="#BE965A"/>
<path fill-rule="evenodd" clip-rule="evenodd" d="M8.52125 1.94775V2.44427H7.77344V1.94775H8.52125Z" fill="#BE965A"/>
<path fill-rule="evenodd" clip-rule="evenodd" d="M8.52125 2.94824V3.44468H7.77344V2.94824H8.52125Z" fill="#BE965A"/>
<path fill-rule="evenodd" clip-rule="evenodd" d="M8.52125 3.94873V4.44516H7.77344V3.94873H8.52125Z" fill="#BE965A"/>
<path fill-rule="evenodd" clip-rule="evenodd" d="M7.77303 0.946777H6.87988V1.44313H7.77303V0.946777Z" fill="#BE965A"/>
<path fill-rule="evenodd" clip-rule="evenodd" d="M6.87988 5.44948L7.77303 5.44899V4.94922H6.87988V5.44948Z" fill="#BE965A"/>
<path fill-rule="evenodd" clip-rule="evenodd" d="M7.77303 1.94775V2.44427H6.87988V1.94775H7.77303Z" fill="#BE965A"/>
<path fill-rule="evenodd" clip-rule="evenodd" d="M7.77303 2.94824V3.44468H6.87988V2.94824H7.77303Z" fill="#BE965A"/>
<path fill-rule="evenodd" clip-rule="evenodd" d="M7.77303 3.94873V4.44516H6.87988V3.94873H7.77303Z" fill="#BE965A"/>
<path fill-rule="evenodd" clip-rule="evenodd" d="M6.8797 0.946777H6.28906V1.44313H6.8797V0.946777Z" fill="#BE965A"/>
<path fill-rule="evenodd" clip-rule="evenodd" d="M6.28906 5.44972L6.8797 5.44948V4.94922H6.28906V5.44972Z" fill="#BE965A"/>
<path fill-rule="evenodd" clip-rule="evenodd" d="M6.8797 1.94775V2.44427H6.28906V1.94775H6.8797Z" fill="#BE965A"/>
<path fill-rule="evenodd" clip-rule="evenodd" d="M6.8797 2.94824V3.44468H6.28906V2.94824H6.8797Z" fill="#BE965A"/>
<path fill-rule="evenodd" clip-rule="evenodd" d="M6.8797 3.94873V4.44516H6.28906V3.94873H6.8797Z" fill="#BE965A"/>
<path fill-rule="evenodd" clip-rule="evenodd" d="M6.28949 0.946777H4.8252V1.44313H6.28949V0.946777Z" fill="#BE965A"/>
<path fill-rule="evenodd" clip-rule="evenodd" d="M4.8252 24.5953H5.95687V24.1002H5.9567L5.95256 5.44991L6.28949 5.44983V4.94933H5.46268V24.1002H4.96532V4.44516H6.28949V3.94873H4.8252V24.5953Z" fill="#BE965A"/>
<path fill-rule="evenodd" clip-rule="evenodd" d="M6.28949 1.94775V2.44427H4.8252V1.94775H6.28949Z" fill="#BE965A"/>
<path fill-rule="evenodd" clip-rule="evenodd" d="M6.28949 2.94824V3.44468H4.8252V2.94824H6.28949Z" fill="#BE965A"/>
<path fill-rule="evenodd" clip-rule="evenodd" d="M4.82545 0.946777H4.48828V1.44313H4.82545V0.946777Z" fill="#BE965A"/>
<path fill-rule="evenodd" clip-rule="evenodd" d="M4.48828 24.5953H4.82545V3.94873H4.48828V24.5953Z" fill="#BE965A"/>
<path fill-rule="evenodd" clip-rule="evenodd" d="M4.82545 1.94775V2.44427H4.48828V1.94775H4.82545Z" fill="#BE965A"/>
<path fill-rule="evenodd" clip-rule="evenodd" d="M4.82545 2.94824V3.44468H4.48828V2.94824H4.82545Z" fill="#BE965A"/>
<path fill-rule="evenodd" clip-rule="evenodd" d="M4.48771 0.946777H3.90527V1.44313H4.48771V0.946777Z" fill="#BE965A"/>
<path fill-rule="evenodd" clip-rule="evenodd" d="M3.90527 24.5954H4.48771V3.94884H4.47082V24.1003H3.97355V3.44468H4.48771V2.94824H3.90527V24.5954Z" fill="#BE965A"/>
<path fill-rule="evenodd" clip-rule="evenodd" d="M4.48771 1.94775V2.44427H3.90527V1.94775H4.48771Z" fill="#BE965A"/>
<path fill-rule="evenodd" clip-rule="evenodd" d="M3.90546 0.946777H2.6123V1.44313H3.90546V0.946777Z" fill="#BE965A"/>
<path fill-rule="evenodd" clip-rule="evenodd" d="M2.6123 24.5956H3.90546V2.94843H3.47963V24.1005H2.98244V2.44427H3.90546V1.94775H2.6123V24.5956Z" fill="#BE965A"/>
<path fill-rule="evenodd" clip-rule="evenodd" d="M2.61263 0.946777H2.13086V1.44313H2.61263V0.946777Z" fill="#BE965A"/>
<path fill-rule="evenodd" clip-rule="evenodd" d="M2.13086 24.5956H2.61263V1.94775H2.48865V24.1005H2.13086V24.5956Z" fill="#BE965A"/>
<path fill-rule="evenodd" clip-rule="evenodd" d="M2.13109 0.946777H1.94824V24.5952H2.13109V24.1H1.99156V1.44313H2.13109V0.946777Z" fill="#BE965A"/>
<path fill-rule="evenodd" clip-rule="evenodd" d="M1.94798 0.946777H1.49707V24.5952H1.94798V0.946777Z" fill="#BE965A"/>
</g>
<defs>
<clipPath id="clip0_2565_14346">
<rect width="35.966" height="24" fill="white" transform="translate(1.5166 0.652832)"/>
</clipPath>
</defs>
</svg>
