<svg width="33" height="63" viewBox="0 0 33 63" fill="none" xmlns="http://www.w3.org/2000/svg">
<g clip-path="url(#clip0_2613_1244)">
<path d="M31.2006 10.2089C31.316 10.1444 31.4315 10.1014 31.4777 10.0799C31.6394 9.9939 31.801 9.92945 31.8703 9.88644C32.1244 9.75751 32.1937 9.73602 32.2168 9.62857C32.2398 9.5426 32.1937 9.47811 32.1013 9.43514C31.9396 9.37065 31.4546 9.62857 31.4546 9.62857C31.4315 9.5426 31.3853 9.47811 31.2699 9.47811C31.1313 9.47811 30.9466 9.52112 30.6925 9.60704C30.4616 9.67153 30.2306 9.75751 30.1613 9.75751C30.2999 9.60704 30.323 9.56408 30.323 9.56408C30.323 9.56408 30.4385 9.43514 30.3923 9.34917C30.3692 9.32769 30.323 9.30616 30.2768 9.32769C30.1613 9.37065 29.9534 9.52112 29.6071 9.822C29.5609 9.86496 29.5378 9.88644 29.4685 9.92945C29.3299 9.95093 29.099 9.97241 28.9605 9.95093C28.8681 9.92945 28.7988 9.88644 28.7526 9.86496C28.7526 9.86496 28.8912 9.56408 29.099 9.43514C29.2376 9.34917 29.6071 9.04829 29.6301 9.02681C29.7687 8.89783 29.7456 8.81186 29.7225 8.74741C29.6994 8.66144 29.6532 8.59695 29.6071 8.55394C29.3761 8.40348 29.0066 8.68292 28.9605 8.72593C28.8681 8.79037 28.4754 9.11274 28.3369 9.22023C28.2445 9.28468 27.9904 9.39214 27.8057 9.45663L27.7133 9.49959C27.5055 9.58556 27.2283 9.7145 27.0205 9.88644C26.8819 9.9939 26.7202 10.2733 26.6741 10.3808C26.5586 10.4668 26.0274 10.8751 25.3808 11.2405C24.8958 11.5199 24.3646 11.8208 23.9259 12.0787C23.5794 12.2721 23.3023 12.4441 23.0944 12.5515C23.0482 12.573 22.1014 13.0458 21.3162 13.6262C21.0852 13.7981 20.8543 13.97 20.6233 14.142C20.4386 14.2924 20.2769 14.4214 20.0921 14.5288C19.6303 14.8727 18.591 15.496 18.4755 15.582C18.3139 15.6679 18.1522 15.7539 17.9675 15.8613C17.4825 16.1407 16.4432 16.6566 16.143 16.7855C16.0275 16.8285 15.8197 16.936 15.6118 17.0649C15.6118 17.0649 15.5888 17.0649 15.5888 17.0864C15.5195 17.0219 15.4733 16.936 15.4733 16.893C15.4271 16.6351 15.8197 16.6136 16.2354 16.5061C16.5125 16.4417 16.7204 16.3127 16.7204 16.1622C16.7204 16.0118 16.628 16.0333 16.6049 15.9258C16.5356 15.6894 16.882 15.6679 16.9282 15.5389C16.9513 15.496 16.9282 15.41 16.8358 15.3885C16.7204 15.3455 16.6741 15.367 16.5125 15.41C16.4432 15.4315 16.3739 15.3026 16.4663 15.1951C16.5587 15.1091 16.6049 15.0662 16.5818 14.9587C16.5356 14.8082 16.4432 14.7867 16.397 14.8297C16.3508 14.8727 16.2816 14.9587 16.1661 14.9372C16.0506 14.9157 16.0044 14.8512 15.7042 14.8512C15.5425 14.8512 15.404 15.0017 15.2192 14.8512C15.1268 14.7652 14.9882 14.5073 14.688 14.4428C14.4571 14.3783 14.3416 14.2709 14.3416 14.2709C14.3416 14.2709 14.6188 14.1849 14.7111 14.0989C14.8728 13.9485 14.8728 13.9056 14.8959 13.7981C14.919 13.7551 14.9652 13.4113 14.7573 13.4327C14.7111 13.4327 14.5264 13.6047 14.4109 13.6047C14.2954 13.6047 14.2723 13.5832 14.2954 13.5187C14.3416 13.3897 14.2954 13.3253 14.2031 13.2393C14.0645 13.1533 13.695 13.2393 13.3947 13.2608C13.0945 13.2823 12.8405 13.2608 12.5634 13.4327C12.3093 13.5832 12.1015 13.8626 12.1015 13.8626C12.1015 13.8626 11.8705 13.884 11.755 14.056C11.6858 14.142 11.6858 14.2279 11.6858 14.2279C11.6858 14.2279 11.4779 14.2279 11.3855 14.3999C11.3393 14.4858 11.3393 14.5073 11.3393 14.5073C11.3393 14.5073 10.9467 14.6148 10.8082 14.8297C10.6696 15.0662 10.5542 15.324 10.6927 15.5604C10.8082 15.7539 10.8544 15.7969 10.8544 15.7969C10.8544 15.7969 10.762 15.9903 10.8082 16.1837C10.8775 16.3987 10.9699 16.4846 10.9929 16.5061C10.9699 16.5491 10.8775 16.85 10.9929 17.1724C11.1777 17.6882 11.4548 17.6882 11.4548 17.6882C11.4548 17.6882 11.501 18.29 11.5241 18.6553C11.5472 19.0207 11.5703 19.2786 11.5703 19.2786L10.8544 19.6225C10.8544 19.6225 10.762 19.429 10.6927 19.3216C10.4156 18.9133 10.046 18.5694 9.8844 18.3759C9.72275 18.1825 9.51488 17.9246 9.37631 17.8386C9.35323 17.8171 9.28397 17.7741 9.19158 17.7096C8.96062 17.5592 8.82206 17.2583 8.82206 17.2583L10.3694 17.1724L10.6003 16.5491L10.3232 16.3341L8.93754 15.9258C9.16849 14.4643 11.501 0.623278 11.501 0.623278L11.2701 0L10.7851 0.601787L7.69042 15.9258L5.98145 16.3987L6.02762 17.0219L6.25857 17.1724L6.85904 17.1939C6.81287 17.2153 6.72044 17.2798 6.72044 17.3658C6.72044 17.4518 6.69735 17.6237 6.76661 17.6667C6.83596 17.7096 6.85904 17.7096 6.85904 17.7096C6.85904 17.7096 6.76661 17.8386 6.81287 17.9676C6.85904 18.0966 6.92835 18.1395 6.92835 18.1395C6.92835 18.1395 6.85904 18.2255 6.90526 18.3545C6.95143 18.4834 7.02069 18.5264 7.02069 18.5264C7.02069 18.5264 6.95143 18.7198 7.04382 18.8058C7.13617 18.9132 7.27473 18.9562 7.27473 18.9562L7.22856 19.3001L7.02069 19.3431L6.97452 19.8589L7.22856 19.9449L8.1985 20.0094L8.24468 19.472C8.24468 19.472 8.15229 19.4076 8.15229 19.3861C8.1292 19.3645 8.1292 19.3001 8.15229 19.2571C8.1985 19.2571 8.26776 19.2356 8.36015 19.2141C8.40633 19.2141 8.45259 19.2141 8.45259 19.2786C8.49876 19.429 8.52185 19.7945 8.54493 20.0739C8.59115 20.4177 8.6835 20.7401 8.77589 21.0625C8.77589 21.084 8.93754 21.4923 9.19158 21.6858C9.12227 21.7717 9.02993 21.9007 8.96062 22.0082C8.59115 22.5884 8.77589 23.1043 8.93754 23.4052C8.98371 23.5126 9.05301 23.6201 9.09919 23.749C8.98371 24.1574 8.77589 24.9956 8.72971 25.275C8.59115 25.8983 8.63733 26.5645 8.70663 27.0803C8.72972 27.2738 8.7528 27.4672 8.79897 27.6391C8.82206 27.7896 8.86828 27.8756 8.86828 27.9185C8.86828 28.112 8.93754 29.9818 9.21466 31.1854C9.72275 33.399 10.7389 35.2904 11.8244 37.2892C13.1176 39.6748 14.4571 42.1679 15.0345 45.4347C15.4733 47.9063 14.5726 51.4528 14.5495 51.4743L14.5033 51.6246H14.7804H14.7573C14.7573 51.6246 19.3993 51.6461 23.718 51.6676L30.6233 51.7107C30.6233 51.7107 30.6233 51.7107 30.6463 51.7107C30.8311 51.7107 30.9696 51.7107 31.0158 51.7107C31.0158 51.7107 29.6764 48.5512 30.1151 47.5838C30.2999 47.1972 31.9396 47.2188 31.6162 46.66C31.2699 46.0581 28.0828 42.4259 26.882 40.2766C26.8588 40.2122 23.9259 34.7316 21.7087 32.3245C20.9236 31.4647 19.0067 28.8427 18.4062 27.7466C18.1291 27.3598 18.36 27.2737 18.5449 27.2093C18.7065 27.1448 19.5841 26.7365 19.6534 26.543C19.7226 26.3496 19.4917 25.9842 19.4686 25.7908C19.4224 25.3395 19.9997 25.1675 20.3231 25.4254C20.7619 25.7908 21.3854 26.3711 22.2631 26.6075C23.0251 26.8224 24.942 27.0373 26.1891 26.7579C26.7895 26.629 27.39 26.2851 27.5286 26.1777C27.8288 25.9198 27.8981 25.6618 27.6902 25.4469C27.644 25.3824 26.905 25.7693 26.6048 25.5544C26.0967 25.1675 26.5817 24.8021 26.6279 24.7807C26.9744 24.5872 27.4362 24.5872 28.0366 24.3293C28.6833 24.0284 28.9605 23.6845 29.0528 23.5771C29.3068 23.2332 29.3068 23.1043 29.3761 23.0613C29.4916 22.9753 29.838 23.1258 29.9073 22.8894C29.9534 22.7389 29.9304 22.5239 29.7456 22.309C29.584 22.1371 29.4454 22.1371 29.353 21.9222C29.2145 21.5568 29.6301 21.213 29.7918 21.0409C29.9304 20.8905 29.9534 20.7186 29.9073 20.6326C29.9073 20.6326 29.8842 20.4392 28.7526 20.0094C28.1752 19.7945 27.0436 19.3216 25.7734 19.0207C24.6186 18.7628 23.3484 18.6553 22.494 18.6768C21.1314 18.6983 20.3462 18.9347 20.3462 18.9347L19.9997 18.2685C19.9997 18.2685 21.2931 17.0434 21.524 16.6995C21.7549 16.3772 21.8011 16.2482 21.8011 16.2482C21.8011 16.2482 22.6788 15.6249 23.0482 15.453C23.3946 15.2811 24.4339 14.7652 24.8958 14.3139C25.3346 13.8626 26.2122 12.9813 26.5124 12.6805C26.8357 12.3796 27.1822 12.1002 27.2977 12.0357C27.4131 11.9713 27.621 11.7348 27.7364 11.6703C28.0366 11.5199 28.5909 11.4554 28.9835 11.262C29.3992 11.047 29.8149 10.9611 29.9534 10.9181C30.2999 10.8321 31.2237 10.5742 31.6856 10.4453C32.1013 10.3163 32.2629 10.3593 32.2861 10.2089C32.3092 9.88644 31.3391 10.1659 31.2006 10.2089ZM16.0737 25.2535C16.1199 25.1675 16.2816 24.9096 16.3047 24.6732C16.3277 24.4368 16.3277 24.2219 16.3047 24.0499C16.2816 23.8565 16.2816 23.6201 16.2584 23.5126C16.2123 23.1687 16.5356 22.5669 16.6049 22.5024C16.651 22.61 16.7434 23.6201 16.7434 23.7705C16.6972 25.5114 17.4825 26.6935 17.4825 26.6935C16.628 25.5973 16.0737 25.2964 16.0737 25.2535Z" fill="#F6E4C4"/>
<path d="M11.7089 57.2556H11.4087V55.9232H13.5795V54.6549H9.79205V61.2313H12.1015C12.471 61.2313 12.7713 61.1672 13.0022 61.0595C13.2331 60.9523 13.441 60.8017 13.5795 60.6295C13.7181 60.4366 13.8336 60.2429 13.8797 59.985C13.949 59.7486 13.9721 59.4692 13.9721 59.2114C13.9721 58.588 13.7643 58.1153 13.3717 57.7713C12.9791 57.4274 12.4248 57.2556 11.7089 57.2556ZM12.3324 59.6199C12.3093 59.7271 12.2862 59.8128 12.2631 59.8989C12.2169 59.9635 12.1708 60.028 12.0784 60.0496C12.0091 60.0926 11.8936 60.0926 11.7551 60.0926H11.4087V58.3086H11.7782C11.8936 58.3086 12.0091 58.3301 12.0784 58.3947C12.1477 58.4378 12.2169 58.5234 12.2401 58.588C12.2862 58.6741 12.3093 58.7602 12.3093 58.8674C12.3324 58.975 12.3324 59.0822 12.3324 59.2114C12.3555 59.3831 12.3324 59.5119 12.3324 59.6199ZM16.2354 58.5019H17.9906V57.2341H16.2354V55.9447H18.2216V54.6764H14.6188V61.2533H18.3139V59.985H16.2354V58.5019ZM0.0923775 61.2313H1.70899V55.9232H2.65586V61.2313H4.27247V54.6549H0.0923775V61.2313ZM8.52185 55.0204C8.33711 54.8697 8.10616 54.741 7.85212 54.6764C7.59812 54.5903 7.32091 54.5477 7.02069 54.5477C6.72048 54.5477 6.44335 54.5903 6.18931 54.6764C5.93527 54.7625 5.70432 54.8697 5.51958 55.0204C5.3348 55.1706 5.19624 55.3644 5.08076 55.6222C4.96533 55.8586 4.91911 56.138 4.91911 56.4604V59.4477C4.91911 60.028 5.10389 60.5007 5.47341 60.8447C5.84288 61.1882 6.35101 61.3605 6.99761 61.3605C7.64429 61.3605 8.17546 61.1882 8.54494 60.8447C8.91445 60.5007 9.09919 60.0496 9.09919 59.4477V56.4604C9.09919 56.138 9.05302 55.8586 8.93754 55.6222C8.84515 55.3644 8.70658 55.1706 8.52185 55.0204ZM7.50569 59.5549C7.50569 59.598 7.50569 59.663 7.50569 59.7271C7.50569 59.7917 7.48256 59.8558 7.45947 59.9209C7.43638 59.985 7.39021 60.0496 7.32091 60.0926C7.25165 60.1357 7.15926 60.1568 7.04378 60.1568C6.92835 60.1568 6.83596 60.1357 6.76665 60.0926C6.69739 60.0496 6.65122 59.985 6.62813 59.9209C6.605 59.8558 6.58192 59.7917 6.58192 59.7271C6.58192 59.663 6.58192 59.598 6.58192 59.5549V56.3098C6.58192 56.2456 6.58192 56.2026 6.58192 56.1165C6.58192 56.0519 6.605 55.9873 6.62813 55.9232C6.65122 55.8586 6.69739 55.8155 6.76665 55.7725C6.83596 55.7294 6.92835 55.7079 7.04378 55.7079C7.15926 55.7079 7.25165 55.7294 7.32091 55.7725C7.39021 55.8155 7.43638 55.8586 7.45947 55.9232C7.48256 55.9873 7.50569 56.0519 7.50569 56.1165C7.50569 56.181 7.50569 56.2456 7.50569 56.3098V59.5549ZM23.6487 54.6549H19.7458C19.7227 55.085 19.7227 55.5577 19.7227 56.0519C19.7227 56.5461 19.6996 57.0408 19.6765 57.535C19.6534 58.0292 19.6072 58.4804 19.5379 58.8889C19.4687 59.319 19.3763 59.663 19.2377 59.9419H18.8451V62.4139H20.2077V61.2102H22.7711V62.4139H24.1337V59.9419H23.6718V54.6549H23.6487ZM22.0321 59.9635H20.8081C20.8773 59.7486 20.9466 59.4692 20.9929 59.1468C21.0391 58.8243 21.0853 58.4593 21.1083 58.0938C21.1315 57.7068 21.1776 57.3202 21.1776 56.9331C21.2007 56.525 21.2238 56.1595 21.2238 55.794H22.009V59.9635H22.0321ZM29.9766 61.2313H31.4316V59.7056H29.9766V61.2313ZM29.9766 57.2125L30.2999 59.319H31.0852L31.4085 57.2125V54.6549H29.9766V57.2125ZM25.7965 54.6549L24.4802 61.2313H26.1198L26.2815 60.0707H27.4131L27.5517 61.2313H29.2606L27.9443 54.6549H25.7965ZM26.4432 58.8889L26.8588 55.6868H26.882L27.2745 58.8889H26.4432ZM12.0091 15.2811C11.986 15.4315 12.0784 15.41 12.2169 15.4315C12.1938 15.453 12.1938 15.453 12.1708 15.4745C12.1246 15.4745 12.0553 15.4745 12.0091 15.4745C11.9629 15.496 11.8936 15.496 11.8475 15.5604C11.986 15.5389 12.0784 15.5604 12.0784 15.6679C12.4017 15.4745 12.5634 15.3026 12.4941 14.9587C12.5865 14.8297 12.6558 14.7437 12.6558 14.5718C12.5634 14.6577 12.5171 14.7222 12.3786 14.7222C11.7551 14.5933 11.5703 14.9802 11.5703 14.9802C11.8244 14.8942 12.0322 14.7867 12.2401 14.9372C12.1015 14.9587 11.8013 15.0017 11.6627 15.1521C11.4549 15.367 11.5242 15.6464 11.5472 15.8398C11.5472 15.8613 11.6627 15.7109 11.7551 15.6894C11.732 15.6249 11.732 15.6034 11.7551 15.5175C11.8013 15.41 11.9167 15.324 12.0091 15.2811ZM11.732 15.453C11.7089 15.496 11.7089 15.5175 11.7089 15.5175C11.7089 15.5175 11.6858 15.3455 11.7782 15.2595C11.8705 15.1736 12.0322 15.1091 12.1015 15.1091C12.1477 15.1091 12.1708 15.1091 12.1708 15.1091C12.1708 15.1306 12.1708 15.1521 12.1477 15.1521C12.1477 15.1521 11.9629 15.2166 11.8705 15.3026C11.8013 15.3455 11.7551 15.41 11.732 15.453ZM31.2006 10.2089C31.3161 10.1444 31.4316 10.1014 31.4778 10.0799C31.6394 9.9939 31.8011 9.92945 31.8703 9.88644C32.1244 9.75751 32.1937 9.73602 32.2168 9.62857C32.2399 9.5426 32.1937 9.47811 32.1013 9.43514C31.9396 9.37065 31.4546 9.62857 31.4546 9.62857C31.4316 9.5426 31.3854 9.47811 31.2699 9.47811C31.1313 9.47811 30.9466 9.52107 30.6925 9.60704C30.4616 9.67153 30.2307 9.75751 30.1614 9.75751C30.2999 9.60704 30.323 9.56408 30.323 9.56408C30.323 9.56408 30.4385 9.43514 30.3923 9.34917C30.3692 9.32769 30.323 9.30616 30.2768 9.32769C30.1614 9.37065 29.9535 9.52112 29.6071 9.822C29.5609 9.86496 29.5378 9.88644 29.4685 9.92945C29.33 9.95093 29.099 9.97241 28.9604 9.95093C28.8681 9.92945 28.7988 9.88644 28.7526 9.86496C28.7526 9.86496 28.8912 9.56408 29.099 9.43514C29.2375 9.34917 29.6071 9.04829 29.6302 9.02681C29.7688 8.89783 29.7457 8.81186 29.7226 8.74741C29.6995 8.66144 29.6533 8.59695 29.6071 8.5539C29.3762 8.40348 29.0066 8.68292 28.9604 8.72593C28.8681 8.79037 28.4755 9.11274 28.3369 9.22019C28.2445 9.28468 27.9905 9.39214 27.8057 9.45663L27.7134 9.49959C27.5055 9.58556 27.2283 9.7145 27.0205 9.88644C26.882 9.9939 26.7203 10.2733 26.6741 10.3808C26.5586 10.4668 26.0275 10.8751 25.3808 11.2405C24.8958 11.5199 24.3647 11.8208 23.9258 12.0787C23.5794 12.2721 23.3023 12.444 23.0945 12.5515C23.0483 12.573 22.1014 13.0458 21.3162 13.6262C21.0853 13.7981 20.8543 13.97 20.6233 14.142C20.4386 14.2924 20.2769 14.4214 20.0922 14.5288C19.6303 14.8727 18.591 15.496 18.4755 15.582C18.3139 15.6679 18.1522 15.7539 17.9675 15.8613C17.4825 16.1407 16.4433 16.6566 16.1431 16.7855C16.0276 16.8285 15.8197 16.936 15.6118 17.0649C15.6118 17.0649 15.5888 17.0649 15.5888 17.0864C15.5195 17.0219 15.4733 16.936 15.4733 16.893C15.4271 16.6351 15.8197 16.6136 16.2354 16.5061C16.5125 16.4417 16.7204 16.3126 16.7204 16.1622C16.7204 16.0118 16.628 16.0333 16.6049 15.9258C16.5357 15.6894 16.882 15.6679 16.9282 15.5389C16.9513 15.496 16.9282 15.41 16.8359 15.3885C16.7204 15.3455 16.6742 15.367 16.5125 15.41C16.4433 15.4315 16.374 15.3026 16.4664 15.1951C16.5587 15.1091 16.6049 15.0661 16.5818 14.9587C16.5357 14.8082 16.4433 14.7867 16.3971 14.8297C16.3509 14.8727 16.2816 14.9587 16.1661 14.9372C16.0507 14.9157 16.0045 14.8512 15.7042 14.8512C15.5425 14.8512 15.404 15.0017 15.2192 14.8512C15.1269 14.7652 14.9883 14.5073 14.6881 14.4428C14.4572 14.3783 14.3417 14.2709 14.3417 14.2709C14.3417 14.2709 14.6188 14.1849 14.7112 14.0989C14.8729 13.9485 14.8729 13.9055 14.8959 13.7981C14.919 13.7551 14.9652 13.4113 14.7574 13.4327C14.7112 13.4327 14.5264 13.6046 14.4109 13.6046C14.2955 13.6046 14.2724 13.5832 14.2955 13.5187C14.3417 13.3897 14.2955 13.3253 14.2031 13.2392C14.0645 13.1533 13.695 13.2393 13.3948 13.2608C13.0946 13.2823 12.8405 13.2608 12.5634 13.4327C12.3093 13.5832 12.1015 13.8626 12.1015 13.8626C12.1015 13.8626 11.8705 13.884 11.7551 14.056C11.6858 14.142 11.6858 14.2279 11.6858 14.2279C11.6858 14.2279 11.4779 14.2279 11.3856 14.3998C11.3394 14.4858 11.3394 14.5073 11.3394 14.5073C11.3394 14.5073 10.9468 14.6148 10.8082 14.8297C10.6696 15.0661 10.5541 15.324 10.6927 15.5604C10.8082 15.7539 10.8544 15.7969 10.8544 15.7969C10.8544 15.7969 10.762 15.9903 10.8082 16.1837C10.8775 16.3987 10.9699 16.4846 10.993 16.5061C10.9699 16.5491 10.8775 16.85 10.993 17.1724C11.1777 17.6882 11.4549 17.6882 11.4549 17.6882C11.4549 17.6882 11.501 18.29 11.5242 18.6553C11.5472 19.0207 11.5703 19.2786 11.5703 19.2786L10.8544 19.6225C10.8544 19.6225 10.762 19.429 10.6927 19.3216C10.4156 18.9133 10.0461 18.5694 9.88444 18.3759C9.72279 18.1825 9.51492 17.9245 9.37636 17.8386C9.35327 17.8171 9.28401 17.7741 9.19158 17.7096C8.96063 17.5592 8.82206 17.2583 8.82206 17.2583L10.3694 17.1724L10.6003 16.5491L10.3232 16.3341L8.93754 15.9258C9.16845 14.4643 11.501 0.623278 11.501 0.623278L11.2701 0L10.7851 0.601787L7.69047 15.9258L5.98145 16.3987L6.02766 17.0219L6.25862 17.1724L6.85904 17.1939C6.81287 17.2153 6.72048 17.2798 6.72048 17.3658C6.72048 17.4518 6.69739 17.6237 6.76665 17.6667C6.83596 17.7096 6.85904 17.7096 6.85904 17.7096C6.85904 17.7096 6.76665 17.8386 6.81287 17.9676C6.85904 18.0965 6.92835 18.1395 6.92835 18.1395C6.92835 18.1395 6.85904 18.2255 6.90522 18.3545C6.95143 18.4834 7.02069 18.5264 7.02069 18.5264C7.02069 18.5264 6.95143 18.7198 7.04378 18.8058C7.13617 18.9132 7.27473 18.9562 7.27473 18.9562L7.22856 19.3001L7.02069 19.3431L6.97452 19.8589L7.22856 19.9449L8.19855 20.0094L8.24472 19.472C8.24472 19.472 8.15233 19.4076 8.15233 19.386C8.12924 19.3645 8.12924 19.3001 8.15233 19.2571C8.19855 19.2571 8.26781 19.2356 8.3602 19.2141C8.40637 19.2141 8.45259 19.2141 8.45259 19.2786C8.49876 19.429 8.52185 19.7945 8.54494 20.0739C8.59111 20.4177 8.6835 20.7401 8.77589 21.0625C8.77589 21.084 8.93754 21.4923 9.19158 21.6858C9.12228 21.7717 9.02993 21.9007 8.96063 22.0081C8.59115 22.5884 8.77589 23.1043 8.93754 23.4052C8.98371 23.5126 9.05301 23.6201 9.09919 23.749C8.98371 24.1574 8.77589 24.9956 8.72967 25.275C8.59111 25.8983 8.63733 26.5645 8.70658 27.0803C8.72967 27.2738 8.7528 27.4672 8.79898 27.6391C8.82206 27.7896 8.86824 27.8756 8.86824 27.9185C8.86824 28.112 8.93754 29.9818 9.21467 31.1853C9.72279 33.399 10.7389 35.2904 11.8244 37.2892C12.0091 37.6115 12.1708 37.9554 12.3555 38.2778C11.3394 38.3423 10.5542 38.6432 9.97683 39.159C9.3071 39.7608 8.98371 40.556 8.98371 41.5877V48.422C8.98371 49.4324 9.3071 50.2491 9.97683 50.8509C10.6465 51.4528 11.6165 51.7537 12.8867 51.7537C13.5103 51.7537 14.0645 51.6891 14.5495 51.5385L14.5264 51.6676H14.8036H14.7805C14.7805 51.6676 19.4224 51.6891 23.7411 51.7107L30.6463 51.7537C30.6463 51.7537 30.6463 51.7537 30.6694 51.7537C30.8542 51.7537 30.9928 51.7537 31.039 51.7537C31.039 51.7537 29.6995 48.5942 30.1383 47.6269C30.323 47.2403 31.9627 47.2614 31.6394 46.703C31.293 46.1012 28.1059 42.4688 26.9051 40.3196C26.882 40.2551 23.9489 34.7746 21.7319 32.3675C20.9467 31.5077 19.0298 28.8857 18.4294 27.7896C18.1522 27.4027 18.3832 27.3167 18.5679 27.2522C18.7296 27.1877 19.6072 26.7794 19.6765 26.586C19.7458 26.3926 19.5148 26.0272 19.4918 25.8338C19.4456 25.3824 20.0229 25.2105 20.3462 25.4684C20.785 25.8338 21.4086 26.4141 22.2862 26.6505C23.0483 26.8654 24.9651 27.0803 26.2122 26.8009C26.8127 26.672 27.4131 26.3281 27.5517 26.2207C27.852 25.9627 27.9212 25.7048 27.7134 25.4899C27.6672 25.4254 26.9281 25.8123 26.6279 25.5973C26.1198 25.2105 26.6048 24.8452 26.651 24.8236C26.9974 24.6302 27.4593 24.6302 28.0598 24.3723C28.7064 24.0714 28.9835 23.7275 29.0759 23.6201C29.33 23.2762 29.33 23.1472 29.3993 23.1043C29.5148 23.0183 29.8611 23.1687 29.9304 22.9323C29.9766 22.7819 29.9535 22.5669 29.7688 22.352C29.6071 22.1801 29.4685 22.1801 29.3762 21.9652C29.2375 21.5998 29.6533 21.2559 29.815 21.084C29.9535 20.9335 29.9766 20.7616 29.9304 20.6756C29.9304 20.6756 29.9073 20.4822 28.7757 20.0523C28.1983 19.8374 27.0667 19.3645 25.7965 19.0637C24.6418 18.8058 23.3716 18.6983 22.5171 18.7198C21.1546 18.7413 20.3693 18.9777 20.3693 18.9777L20.0229 18.3115C20.0229 18.3115 21.3162 17.0864 21.5471 16.7426C21.7781 16.4201 21.8242 16.2912 21.8242 16.2912C21.8242 16.2912 22.7019 15.6679 23.0714 15.496C23.4178 15.324 24.457 14.8082 24.9189 14.3569C25.3577 13.9055 26.2353 13.0243 26.5355 12.7234C26.8588 12.4226 27.2053 12.1432 27.3207 12.0787C27.4362 12.0142 27.644 11.7778 27.7596 11.7133C28.0598 11.5628 28.614 11.4984 29.0066 11.305C29.4224 11.0901 29.8381 11.0041 29.9766 10.9611C30.323 10.8751 31.2468 10.6172 31.7087 10.4883C32.1244 10.3593 32.286 10.4023 32.3091 10.2519C32.3091 9.88644 31.3392 10.1659 31.2006 10.2089ZM24.1568 40.4701C24.6649 41.2008 25.2884 42.2109 25.9582 43.3285C26.1891 43.7154 26.8127 44.7042 27.159 45.3486C27.2976 45.6065 27.8981 45.6065 27.9905 45.6065C29.1452 45.4563 29.5378 45.4132 30.4385 45.8433C30.4385 45.8433 29.9997 45.7787 29.7457 45.8003C29.1452 45.8433 29.0066 45.8003 28.1059 46.1868C27.9674 46.2299 27.7365 46.3375 27.4824 46.4447C27.0898 46.5954 26.651 46.4878 26.5124 46.0581C26.3277 45.4132 26.0044 44.4248 25.5194 43.479C24.7572 41.9745 24.8496 42.0605 24.5263 41.3728C24.457 41.2008 24.0644 40.3626 24.1568 40.4701ZM22.3785 42.7912C22.7481 43.436 22.9328 43.6294 23.5564 44.8975C23.9027 45.585 24.3416 46.2729 24.6649 46.6815C24.7804 46.8102 24.8727 46.9178 24.942 46.9824L25.2653 47.3044L24.4802 47.4982C24.457 47.4982 24.434 47.5197 24.4109 47.5197C23.8566 47.6915 23.8566 48.0139 23.8797 48.3148C23.9027 48.5942 23.9951 49.0023 23.1868 50.2276C23.4871 45.5424 22.3323 43.436 21.7088 41.8026C21.7088 41.8026 22.1245 42.3614 22.3785 42.7912ZM6.14314 16.9575C6.14314 16.8715 6.12005 16.5921 6.12005 16.4846C6.18931 16.4632 7.80594 16.0333 7.80594 16.0333L10.8544 0.601787L11.1546 0.214923L11.0161 0.515815L8.0369 16.3772L8.77589 16.0118L10.3001 16.4632L10.0923 17.0219L7.89833 16.8715L6.14314 16.9575ZM6.90522 17.9245C6.83596 17.7096 7.13617 17.6452 7.20543 17.6237C7.25165 17.6237 7.32091 17.6237 7.36712 17.6882C7.39021 17.7096 7.39021 17.7526 7.36712 17.8171C7.34399 17.8601 7.27473 17.8601 7.20543 17.8816C7.09 17.9246 6.99761 17.9891 6.95143 18.0321C6.92835 17.9891 6.90522 17.9461 6.90522 17.9245ZM6.97452 18.333C6.90522 18.0966 7.20543 18.0106 7.25165 18.0106C7.29782 18.0106 7.36712 17.9891 7.4133 18.0536C7.43638 18.0751 7.45947 18.204 7.32091 18.2685C7.18234 18.333 7.13617 18.3545 7.06691 18.3975C7.04378 18.4189 7.04378 18.4404 7.04378 18.4404C7.02069 18.4404 6.99761 18.4189 6.97452 18.333ZM7.11308 18.8058C7.09 18.7843 7.04378 18.7413 7.04378 18.6768C7.02069 18.5264 7.11308 18.4834 7.11308 18.4834C7.11308 18.4834 7.20543 18.3975 7.4133 18.3975C7.55186 18.3975 7.57499 18.4619 7.57499 18.5264C7.57499 18.6124 7.48256 18.6768 7.39021 18.6983C7.29782 18.6983 7.13617 18.7628 7.11308 18.8058ZM7.94451 19.8374C7.94451 19.8589 7.13617 19.773 7.13617 19.773L7.15926 19.429L7.34399 19.4076L7.39021 18.9562C7.43638 18.9347 7.52877 18.9133 7.57499 18.8918C7.82903 18.8273 7.96759 18.9562 7.96759 18.9562L7.94451 19.3645L7.99068 19.4076C7.9676 19.386 7.94451 19.8159 7.94451 19.8374ZM13.6257 48.6373C13.6257 49.0023 13.5564 49.2176 13.3948 49.3248C13.2331 49.4324 13.0715 49.4755 12.8636 49.4755C12.6558 49.4755 12.471 49.4324 12.3324 49.3248C12.1938 49.2176 12.1246 48.9808 12.1246 48.6373V41.3512C12.1246 40.9859 12.1938 40.771 12.3324 40.6635C12.471 40.556 12.6558 40.513 12.8636 40.513C13.0715 40.513 13.2331 40.556 13.3948 40.6635C13.5564 40.771 13.6257 41.0073 13.6257 41.3512V48.6373ZM18.4987 32.0021C18.5449 32.0881 18.591 32.174 18.6603 32.26C19.4455 33.528 20.046 34.7531 20.5079 35.9137C19.9536 35.054 19.2839 34.2588 18.4755 33.657C15.6349 31.5507 14.5033 30.82 13.5333 29.5949C12.9791 28.8857 12.7482 28.2194 12.7482 28.2194C12.702 28.7997 12.9098 29.5305 13.441 30.4331C14.2493 31.8086 15.7273 32.5609 17.1592 34.2373C18.4987 35.7847 18.5679 35.9782 19.307 37.1603C19.561 37.5901 19.7458 38.2133 20.0229 38.2133C20.1846 38.2133 20.0922 36.8378 20.2307 36.8594C20.3 36.8809 20.3462 36.9668 20.3693 37.0313C20.531 37.3321 20.6003 37.676 20.6695 37.9984C20.785 38.4713 20.8773 38.9656 20.9466 39.4599C21.0391 39.9758 21.0853 40.4916 21.1546 41.0073C21.1546 41.0718 21.1776 41.1363 21.1776 41.2008C21.1776 41.2437 21.1776 41.3297 21.2007 41.3728C20.531 40.0402 19.8151 38.8152 19.4456 38.2348C18.7065 37.0958 17.2515 35.5268 16.9975 35.2474C16.0276 34.1513 14.4109 33.0767 13.3717 32.1525C12.6327 31.4862 13.6257 32.8188 14.0876 33.2916C14.7574 33.9579 16.3047 35.3119 17.6211 37.1817C17.9906 37.719 17.9675 37.9124 17.4363 37.3537C16.5125 36.3865 14.0645 34.7531 14.7343 35.4623C14.7343 35.4623 15.1731 35.7847 15.5195 36.1715C18.6141 39.5888 18.7758 43.5649 18.7758 44.876C18.7989 47.025 18.4294 49.9697 16.8127 50.9366C16.0507 51.3882 14.9883 51.3667 14.8036 51.3667C15.15 51.216 15.4733 51.0442 15.7273 50.8079C16.3971 50.206 16.7204 49.4109 16.7204 48.3794V41.5447C16.7204 40.5345 16.3971 39.7178 15.7273 39.116C15.0576 38.5143 14.0876 38.2133 12.8174 38.2133C12.7251 38.2133 12.6558 38.2133 12.5634 38.2133C12.3786 37.848 12.1708 37.4826 11.986 37.1172C10.9237 35.14 9.90753 33.2486 9.39949 31.0779C9.21471 30.2827 9.12228 29.2081 9.0761 28.5203C9.0761 27.9615 9.05301 27.2308 9.26093 26.629C9.33019 26.4571 9.49184 26.0702 9.67657 25.7693C9.86135 25.4684 10.0923 25.275 10.2308 25.146C10.3694 25.0171 10.993 24.5658 12.1015 24.4583C13.2331 24.3723 13.8797 24.7162 14.2262 24.8236C14.5495 24.9311 15.9121 25.5973 17.0899 27.6821C17.367 28.1765 17.5056 28.9287 17.6904 29.7454C15.6118 27.6177 13.7643 26.2636 13.695 26.3711C13.6257 26.4785 15.8197 28.6277 16.0045 28.8212C16.1431 29.0146 17.5286 30.3471 18.4987 32.0021ZM13.926 23.3192C14.4109 23.4696 14.5264 23.6845 14.5264 23.6845C14.5264 23.6845 12.1938 23.3837 11.5472 23.7275C11.5472 23.7275 12.4479 23.8995 13.1638 24.3508C13.1177 24.3508 12.6789 24.2004 11.9398 24.3078C11.2239 24.3938 10.762 24.6087 10.4849 24.7807C10.277 24.9096 10.4618 24.2219 12.5172 22.2446C13.4179 21.3849 14.0645 21.4064 14.0645 21.4064C14.0645 21.4064 13.6257 22.0726 13.5103 22.5239C13.3948 22.8894 13.4872 23.1687 13.926 23.3192ZM16.2816 24.0499C16.2585 23.8565 16.2585 23.6201 16.2354 23.5126C16.1892 23.1687 16.5125 22.5669 16.5818 22.5024C16.628 22.61 16.7204 23.6201 16.7204 23.7705C16.6742 25.5114 17.4594 26.6934 17.4594 26.6934C16.6049 25.6188 16.0507 25.2964 16.0276 25.2535C16.0738 25.1675 16.2354 24.9096 16.2585 24.6732C16.3278 24.4368 16.3047 24.2219 16.2816 24.0499ZM24.6418 19.0637C24.5494 18.9992 24.4109 18.9347 24.226 18.8918C24.9882 18.9777 25.7041 19.1067 26.2584 19.2356C26.8127 19.3645 27.9905 19.7945 29.1452 20.3102C29.2145 20.3532 29.3993 20.4392 29.5378 20.5037C29.2606 20.5252 28.9373 20.7186 28.9373 20.7186C28.9373 20.7186 27.0898 19.7945 25.4732 19.6225C24.1337 19.4936 22.4247 19.601 22.4247 19.601C22.4247 19.601 23.233 19.2571 24.6418 19.0637ZM20.0691 20.7616C20.5079 20.7401 20.9698 20.6971 21.27 20.6971C22.4709 20.6756 22.7481 20.9335 22.7481 20.9335C22.7481 20.9335 20.2077 20.869 18.9836 21.6643C18.8451 21.7502 19.5379 21.6213 20.0691 21.5353C21.3162 21.3419 22.7942 21.6213 23.972 22.0296C25.2422 22.4809 26.0275 22.0941 27.7826 22.2015C29.3531 22.2875 29.2838 22.9538 29.2838 22.9538C29.2838 22.9538 28.614 22.5024 27.644 23.0398C27.0436 23.3621 26.4201 23.878 26.4201 23.878C26.4201 23.878 26.1661 23.663 24.4109 23.3621C23.3023 23.1687 18.5449 22.8034 15.3578 20.1598C15.2885 20.0953 15.2423 20.0523 15.1731 20.0094C14.3648 20.2888 13.4872 21.0195 12.7251 21.6428C12.0322 22.2015 11.4549 22.9108 10.762 23.4911C10.762 23.4911 9.6997 24.3508 9.37636 24.8881C9.3071 25.0171 9.02993 25.5328 8.84515 26.1562C8.84515 25.8768 8.86823 25.5973 8.93754 25.3179C9.0068 25.0171 9.0761 24.7592 9.12228 24.5227C9.19158 24.2434 9.28401 23.9209 9.35327 23.6845C9.53801 23.3407 9.99992 22.4809 9.93061 22.4595C9.76896 22.438 9.49184 22.4165 9.26093 22.4809C9.14536 22.5024 9.05301 22.5454 8.98371 22.5669C9.0068 22.438 9.05302 22.2875 9.14536 22.1156C9.26093 21.9437 9.53801 21.5998 9.53801 21.5998C9.53801 21.5998 9.12227 21.3849 8.98371 20.955C8.86823 20.5682 8.79897 20.0739 8.7528 19.7085C8.70658 19.4076 8.70658 19.2571 8.66041 19.1711C8.59115 19.0422 8.49876 18.9347 8.2909 18.9562C8.26781 18.9562 8.24472 18.9562 8.22164 18.9562C8.24472 18.9347 8.26781 18.9133 8.26781 18.8918C8.26781 18.7413 8.08307 18.6553 8.05999 18.5694C8.0369 18.4834 8.0369 18.3115 8.08307 18.204C8.17546 17.8816 7.78286 17.9676 7.62121 17.6882C7.45947 17.4302 7.50569 17.1724 7.20543 17.3228C7.09 17.3873 6.90522 17.4733 6.81287 17.5377C6.74357 17.3443 6.81287 17.2798 6.97452 17.1509C6.99761 17.1294 7.04378 17.1079 7.06691 17.0864C7.29782 16.9789 7.62121 16.936 7.75977 16.9575C7.99068 17.0004 8.10616 17.2583 8.10616 17.3873C8.10616 17.5162 8.10616 17.6882 8.17546 17.8386C8.24472 17.9891 8.24472 18.1395 8.26781 18.2255C8.29089 18.3115 8.3602 18.333 8.3602 18.333C8.56802 18.0536 8.70658 17.9246 8.96063 17.8816C9.09919 17.8816 9.21471 17.8601 9.49184 18.247C9.53801 18.3115 9.81514 18.6768 10.023 18.9777C10.2308 19.2786 10.4849 19.9234 10.4849 19.9234L11.7089 19.386C11.7089 19.386 11.5703 18.333 11.5703 18.0966C11.5472 17.4518 11.4779 17.1509 11.4779 17.1509C11.4779 17.1509 11.3163 17.1939 11.247 17.1509C11.2239 17.1294 11.1316 17.1079 11.1085 16.9575C11.0161 16.5706 11.2239 16.3772 11.2239 16.3772C11.1085 16.2697 11.0392 16.0763 11.0854 15.7969C11.1085 15.6034 10.9699 15.7324 10.8775 15.9043C10.8544 15.8613 10.8544 15.7969 10.8775 15.7109C11.0392 15.3455 11.247 15.0446 11.3856 14.6792C11.3856 14.6792 11.2932 14.7007 11.2239 14.7222C11.1546 14.7437 11.0623 14.8512 10.9699 14.9802C10.9006 15.0661 10.762 15.1736 10.6696 15.2811C10.6696 15.2811 10.6696 15.0232 10.9468 14.7437C11.0854 14.6148 11.3856 14.5288 11.3856 14.5288C11.3856 14.5288 11.4087 14.3998 11.5242 14.3569C11.6165 14.3139 11.732 14.2924 11.732 14.2924C11.732 14.2924 11.732 14.1205 11.8475 14.056C11.9629 13.9915 12.0091 13.97 12.1015 13.9485C12.3324 13.7121 12.5865 13.3897 12.956 13.3468C13.2331 13.3253 13.4872 13.2823 13.6257 13.2608C13.6488 13.2608 13.9028 13.2177 13.949 13.2823C13.7412 13.2823 13.464 13.2823 13.2101 13.3682C13.0022 13.4327 13.0022 13.5187 12.9329 13.5617C12.8636 13.6046 12.7482 13.6691 12.702 13.6906C12.6558 13.7121 12.5865 13.7551 12.5403 13.7981C12.5171 13.8411 12.5171 13.8626 12.4479 13.9055C12.3786 13.9485 12.2862 14.0989 12.2862 14.0989C12.2862 14.0989 12.6558 13.9915 12.8636 14.013C13.1407 14.013 13.3024 14.1634 13.3024 14.3783C13.3024 14.4858 13.1407 14.6792 12.7944 14.6363C12.7944 14.6363 12.7482 14.7867 12.7944 14.8727C12.8174 14.9587 12.8867 15.1736 12.9329 15.2811C12.9329 15.3026 12.956 15.324 12.956 15.3455V15.367C12.956 15.41 12.9791 15.4315 12.9791 15.4745C13.0022 15.5389 12.8405 15.367 12.702 15.496L12.5634 15.6034C12.4941 15.6679 12.3786 15.7539 12.4017 15.7969C12.4248 15.8398 12.4479 15.8613 12.5172 15.8613C12.5865 15.8613 12.9098 15.8613 13.0253 15.8613C13.0484 15.8613 13.0715 15.8613 13.0946 15.8613C13.0946 15.8613 13.0946 15.9258 13.1177 15.9903C13.0022 15.9258 12.7713 15.9258 12.7713 15.9258C12.702 15.9258 12.6558 15.9473 12.5864 15.9688C12.4941 16.0118 12.3555 16.1622 12.3324 16.3341C12.2631 16.6351 12.3324 16.721 12.6789 16.6995C12.8405 16.6995 12.9329 16.6995 13.0484 16.6995H13.0715C12.9791 16.807 12.8867 16.85 12.8867 16.85C12.8867 16.85 12.8174 16.85 12.7713 16.85C12.5403 16.8715 12.4479 16.8285 12.4479 16.8715C12.3324 17.1939 12.702 16.893 12.7713 17.0434C12.7944 17.1079 12.7482 17.2369 12.702 17.3228C12.6558 17.3873 12.3786 17.3013 12.2862 17.3443C12.1246 17.4518 12.1938 17.4947 12.471 17.6237C12.6558 17.7312 13.2101 17.9246 13.3255 17.9891C13.441 18.0536 14.0183 18.3545 14.0876 18.333C14.2724 18.29 14.7805 17.8386 14.7805 17.8171C15.1038 17.5162 15.9814 17.0004 16.2585 16.893C16.4664 16.7855 17.113 16.4846 17.6442 16.2052C17.5286 16.3772 17.4363 16.6995 17.3901 17.2369C17.3439 17.7312 17.3208 18.1395 17.1592 17.9676C16.7666 17.5377 16.7897 17.0649 16.7204 17.1939C16.5125 17.5162 16.4894 17.6882 16.5357 17.9461C16.628 18.4189 16.9975 18.5694 16.8359 18.5694C16.1892 18.5694 16.0045 18.4404 15.6349 18.0966C15.404 17.8816 14.9883 17.9676 14.9883 17.9676C14.9883 17.9676 15.3347 18.2685 15.8197 18.6339C16.4202 19.1067 17.4594 19.2356 18.1522 19.3431C19.307 19.5151 19.6534 19.9019 19.6534 19.9019C19.6534 19.9019 16.6742 19.7085 16.4433 19.5365L16.6511 19.7945C15.4271 19.773 14.3417 18.4189 14.3417 18.4189C14.3417 18.4189 14.4803 18.9132 14.6881 19.1711C15.0114 19.5365 15.404 19.7945 15.889 20.0523C16.9282 20.6971 18.9605 20.826 20.0691 20.7616ZM28.7988 10.4023C28.5448 10.4238 28.4293 10.4883 28.2907 10.5527C27.9212 10.7247 27.621 10.8966 27.5286 10.9181C27.0436 10.9826 27.0436 11.1545 26.6741 11.4769C26.5124 11.6058 24.2492 13.2393 23.5101 13.6906C22.7943 14.142 21.4317 15.1521 21.2931 15.2381C20.9929 15.4315 20.7157 15.9258 20.2769 16.3772C19.6072 17.0434 18.822 17.6667 18.7527 17.7311C18.6141 17.8601 18.0599 17.8601 17.9444 17.1939C17.8751 16.721 17.8982 16.3341 17.9213 16.1622C18.0137 16.1192 18.083 16.0763 18.1522 16.0333C18.6603 15.7539 18.9836 15.5389 19.4918 15.2381C19.8612 15.0232 20.3 14.6792 20.8081 14.2924C21.0391 14.1205 21.27 13.9485 21.5009 13.7766C22.263 13.2177 23.2099 12.745 23.2331 12.7234C23.4409 12.5945 23.7411 12.4226 24.0875 12.2291C24.5263 11.9713 25.0575 11.6703 25.5425 11.3909C26.2815 10.9826 26.8588 10.5098 26.882 10.4883L26.9281 10.4453C26.9974 10.2733 27.1591 10.0799 27.2053 10.0154C27.3438 9.88644 27.6672 9.73602 27.852 9.65005L27.9443 9.60704C28.1522 9.52107 28.4293 9.41362 28.5448 9.32769C28.6602 9.22019 29.0759 8.91931 29.1683 8.85486C29.2838 8.76889 29.4455 8.68292 29.5148 8.68292C29.5148 8.68292 29.584 8.72593 29.5148 8.79037C29.5148 8.79037 29.1452 9.09126 29.0066 9.17723C28.9373 9.22019 28.8912 9.2632 28.845 9.30616C28.7988 9.34917 28.7526 9.39214 28.7064 9.43514C28.4986 9.69302 28.36 9.73602 28.3831 9.75751C28.5679 9.88644 28.8219 10.0154 28.8219 10.0154C29.0066 10.1229 29.2145 10.1013 29.3531 10.0584C29.1914 10.2519 28.9373 10.3808 28.7988 10.4023ZM29.9304 10.1014C29.9997 10.0369 30.0228 9.9939 30.069 9.90792C30.069 9.90792 30.4847 9.77899 30.6925 9.7145C31.2237 9.56408 31.2699 9.56408 31.293 9.60704C31.3161 9.67153 31.1776 9.7145 31.1083 9.73602C30.9234 9.822 30.0459 10.0799 29.9304 10.1014ZM13.8567 19.0637C13.2793 20.2458 12.2401 19.644 11.3163 20.3747C10.7158 20.8475 10.6234 21.4279 10.6234 21.4279C10.6234 21.4279 10.8775 21.3634 11.1085 21.3204C10.993 21.4064 10.1847 22.8894 10.1616 22.9323C10.1385 22.9753 11.3163 21.7502 13.4872 20.4392C14.2724 19.9664 14.8729 19.7514 14.8729 19.7514C14.4109 19.3216 14.2262 18.6553 14.2262 18.6553C14.2262 18.6553 13.9952 18.8058 13.8567 19.0637ZM3.99534 51.7322C5.26554 51.7322 6.25862 51.4313 6.90522 50.8294C7.57499 50.2276 7.89833 49.4324 7.89833 48.4005V47.3044C7.89833 46.9824 7.87525 46.66 7.85212 46.3806C7.82903 46.1012 7.75977 45.8433 7.6443 45.6065C7.52877 45.3702 7.36712 45.1554 7.15926 44.9836C6.95143 44.8114 6.62813 44.6396 6.23549 44.5104C6.53574 44.4033 6.76665 44.2526 6.97452 44.1023C7.18234 43.9303 7.34399 43.7584 7.45947 43.5865C7.57499 43.393 7.66738 43.2211 7.71355 43.0277C7.75977 42.8342 7.78286 42.6622 7.78286 42.5118V41.6091C7.78286 41.3727 7.75977 41.0718 7.71355 40.7065C7.66738 40.3411 7.52877 39.9758 7.29782 39.6103C7.06691 39.245 6.67431 38.9441 6.16623 38.6862C5.63506 38.4283 4.91911 38.2993 3.94915 38.2993C2.97919 38.2993 2.26326 38.4283 1.73208 38.6862C1.20091 38.9441 0.831403 39.245 0.600453 39.6103C0.369511 39.9758 0.230945 40.3411 0.184755 40.7065C0.138566 41.0718 0.115472 41.3942 0.115472 41.6091V42.5118C0.115472 42.6622 0.138566 42.8557 0.184755 43.0277C0.230945 43.2211 0.323322 43.4145 0.438794 43.6079C0.554267 43.8014 0.715926 43.9732 0.90068 44.1239C1.08544 44.2741 1.33948 44.4248 1.61661 44.532C1.22401 44.6827 0.92378 44.8544 0.692835 45.0908C0.484985 45.306 0.323322 45.5424 0.20785 45.8003C0.115472 46.0581 0.0461885 46.316 0.0230941 46.5739C-3.54521e-07 46.8317 0 47.0896 0 47.326V48.422C0 49.4324 0.323322 50.2491 0.993061 50.8509C1.75518 51.4313 2.72514 51.7322 3.99534 51.7322ZM3.25632 41.3512C3.25632 40.9859 3.3256 40.771 3.46417 40.6635C3.60273 40.556 3.7875 40.513 3.99534 40.513C4.20319 40.513 4.36485 40.556 4.52651 40.6635C4.68816 40.771 4.75746 41.0073 4.75746 41.3512V42.5763C4.75746 42.9416 4.68816 43.1566 4.52651 43.2641C4.36485 43.3715 4.20319 43.4145 3.99534 43.4145C3.7875 43.4145 3.60273 43.3715 3.46417 43.2641C3.3256 43.1566 3.25632 42.9201 3.25632 42.5763V41.3512ZM3.25632 46.5093C3.25632 46.1442 3.3256 45.929 3.46417 45.8218C3.60273 45.7141 3.7875 45.6711 3.99534 45.6711C4.20319 45.6711 4.36485 45.7141 4.52651 45.8218C4.68816 45.929 4.75746 46.1658 4.75746 46.5093V48.6158C4.75746 48.9808 4.68816 49.1961 4.52651 49.3033C4.36485 49.4109 4.20319 49.454 3.99534 49.454C3.7875 49.454 3.60273 49.4109 3.46417 49.3033C3.3256 49.1961 3.25632 48.9593 3.25632 48.6158V46.5093Z" fill="url(#paint0_linear_2613_1244)"/>
<path d="M0.0703125 51.4976V51.6048V51.9918H31.4557V51.6048V51.4976H0.0703125Z" fill="white"/>
<path d="M0.0703125 51.9917V52.0993V52.4644H31.4557V52.0993V51.9917H0.0703125Z" fill="white"/>
<path d="M0.0703125 52.9355V53.0432V53.4298H31.4557V53.0432V52.9355H0.0703125Z" fill="white"/>
<path d="M0.0703125 52.46V52.5676V52.9327H31.4557V52.5676V52.46H0.0703125Z" fill="white"/>
<path d="M0.0703125 53.4331V53.5192V53.9058H31.4557V53.5192V53.4331H0.0703125Z" fill="white"/>
</g>
<defs>
<linearGradient id="paint0_linear_2613_1244" x1="32.3091" y1="31.207" x2="0" y2="31.207" gradientUnits="userSpaceOnUse">
<stop stop-color="#C82A32"/>
<stop offset="1" stop-color="#EA6315"/>
</linearGradient>
<clipPath id="clip0_2613_1244">
<rect width="32.6032" height="62.8207" fill="white"/>
</clipPath>
</defs>
</svg>
