<svg width="48" height="48" viewBox="0 0 48 48" fill="none" xmlns="http://www.w3.org/2000/svg">
<rect width="48" height="48" fill="white"/>
<path d="M21.6809 25.1826H18.451V27.0937H15.6738V25.1826H8.53125L12.9824 19.7469H10.1714L15.1001 13.727H12.173L17.3171 7.44629L21.8577 13.727H19.111L21.7029 17.3108L20.3821 18.2059C20.3584 18.2218 20.3367 18.2381 20.3143 18.2547C20.1772 18.3476 20.0533 18.4588 19.9462 18.5852C19.8757 18.6649 19.8145 18.7522 19.7636 18.8457V18.8473C19.5656 19.1929 19.4886 19.5946 19.545 19.9889C19.6014 20.3832 19.7879 20.7473 20.0749 21.0234C20.3619 21.2995 20.733 21.4718 21.1291 21.5129C21.5253 21.554 21.9238 21.4615 22.2614 21.2502L23.6323 23.1468L21.6809 25.1826ZM35.4848 21.3217H33.3041L28.0002 15.0461C27.775 14.7771 27.4578 14.6015 27.1104 14.5536C26.7629 14.5057 26.41 14.5889 26.1205 14.787L20.5931 18.532C20.4383 18.6369 20.3058 18.7711 20.2029 18.9272C20.1001 19.0833 20.029 19.2581 19.9937 19.4416C19.9584 19.6251 19.9596 19.8138 19.9973 19.9969C20.0349 20.1799 20.1082 20.3538 20.2131 20.5085C20.4248 20.821 20.752 21.0366 21.1226 21.1079C21.3061 21.1432 21.4948 21.142 21.6779 21.1043C21.861 21.0667 22.0348 20.9934 22.1896 20.8885L26.66 17.8581L31.5579 23.6636C31.6918 23.8219 31.8587 23.9489 32.0469 24.0357C32.2351 24.1226 32.4401 24.1671 32.6474 24.1662H35.4889C35.8661 24.1657 36.2277 24.0155 36.4942 23.7484C36.7606 23.4813 36.9101 23.1193 36.9096 22.7421C36.9092 22.3648 36.7589 22.0032 36.4918 21.7368C36.2247 21.4703 35.8627 21.3209 35.4855 21.3213M36.2041 14.9272C36.2041 15.4895 36.0374 16.0391 35.725 16.5066C35.4125 16.9741 34.9685 17.3384 34.449 17.5535C33.9295 17.7686 33.3578 17.8248 32.8064 17.7149C32.2549 17.6051 31.7485 17.3342 31.351 16.9364C30.9536 16.5387 30.683 16.032 30.5736 15.4805C30.4641 14.929 30.5207 14.3574 30.7362 13.838C30.9516 13.3187 31.3162 12.8749 31.784 12.5628C32.2517 12.2507 32.8014 12.0843 33.3637 12.0847C33.7369 12.0848 34.1064 12.1584 34.4511 12.3012C34.7958 12.4441 35.109 12.6535 35.3728 12.9175C35.6366 13.1815 35.8458 13.4948 35.9884 13.8397C36.1311 14.1845 36.2044 14.554 36.2041 14.9272ZM27.8992 21.3342C27.8952 21.3325 27.8952 21.3342 27.8992 21.3342L27.8952 21.3308C27.8613 21.297 27.8152 21.2871 27.7834 21.2584C27.6757 21.1629 27.553 21.0857 27.4204 21.0298C27.2994 20.9924 27.1742 20.9704 27.0478 20.9644C26.9916 20.961 26.9411 20.9332 26.8822 20.9332C26.7401 20.9423 26.6003 20.9737 26.468 21.0264C26.4291 21.0308 26.3907 21.0393 26.3535 21.0518C26.2742 21.0938 26.2 21.1448 26.1324 21.2038C26.0452 21.2507 25.9637 21.3076 25.8896 21.3732L13.9436 33.8363C13.8133 33.9706 13.7109 34.1294 13.6422 34.3035C13.5735 34.4776 13.54 34.6635 13.5435 34.8506C13.547 35.0378 13.5874 35.2223 13.6625 35.3937C13.7376 35.5651 13.8459 35.72 13.9811 35.8494C14.1163 35.9788 14.2758 36.0801 14.4503 36.1477C14.6248 36.2152 14.811 36.2475 14.9981 36.2428C15.1851 36.2381 15.3694 36.1964 15.5404 36.1201C15.7113 36.0439 15.8654 35.9346 15.9939 35.7986L26.9554 24.3606L31.2226 28.4247H25.537C25.1708 28.4407 24.825 28.5974 24.5715 28.8621C24.3181 29.1269 24.1766 29.4792 24.1766 29.8457C24.1766 30.2122 24.3181 30.5646 24.5715 30.8293C24.825 31.0941 25.1708 31.2508 25.537 31.2668H34.7753C35.059 31.2662 35.3361 31.1807 35.5709 31.0214C35.8057 30.862 35.9875 30.6361 36.0929 30.3727C36.1982 30.1092 36.2224 29.8202 36.1623 29.5429C36.1021 29.2656 35.9605 29.0126 35.7554 28.8165L27.8992 21.3342Z" fill="#262424"/>
<path d="M28.4805 41.142C28.8549 41.142 29.1409 41.0692 29.3385 40.9236C29.5413 40.7728 29.6427 40.557 29.6427 40.2762C29.6427 39.9746 29.5257 39.7536 29.2917 39.6132C29.0577 39.4728 28.7249 39.4026 28.2933 39.4026L27.6147 39.4338V36.54H30.5319V37.554H28.5663V38.5212L28.9173 38.49C29.1929 38.5004 29.4425 38.5498 29.6661 38.6382C29.8897 38.7214 30.0795 38.8384 30.2355 38.9892C30.3967 39.14 30.5189 39.322 30.6021 39.5352C30.6905 39.7484 30.7347 39.985 30.7347 40.245C30.7347 40.5518 30.6775 40.8222 30.5631 41.0562C30.4487 41.2902 30.2901 41.4852 30.0873 41.6412C29.8897 41.7972 29.6531 41.9142 29.3775 41.9922C29.1071 42.0702 28.8133 42.1092 28.4961 42.1092C28.2413 42.1092 27.9969 42.0884 27.7629 42.0468C27.5341 42.0052 27.3417 41.9506 27.1857 41.883L27.4821 40.9782C27.6121 41.025 27.7525 41.064 27.9033 41.0952C28.0593 41.1264 28.2517 41.142 28.4805 41.142ZM35.0418 40.2996H34.6596V42H33.5676V37.905H34.6596V39.6756L35.0106 39.5274L36.0558 37.905H37.2336C37.0516 38.1546 36.8722 38.4068 36.6954 38.6616C36.5238 38.9112 36.3496 39.1608 36.1728 39.4104L35.658 39.7536L36.204 40.089C36.4016 40.4114 36.6018 40.7312 36.8046 41.0484C37.0074 41.3604 37.2076 41.6776 37.4052 42H36.1416L35.0418 40.2996ZM41.5973 40.1826L41.6753 39.2934H41.5505L41.1839 39.9954V39.9876L40.3571 41.259H39.9749L39.0623 39.9876V39.9954L38.6957 39.2934H38.5865L38.7035 40.1748V42H37.7363V37.905H38.8829L39.9047 39.4338V39.426L40.1777 39.9486H40.2635L40.5365 39.4104V39.4182L41.4881 37.905H42.6347V42H41.5973V40.1826Z" fill="#202020"/>
</svg>
