<svg width="48" height="48" viewBox="0 0 48 48" fill="none" xmlns="http://www.w3.org/2000/svg">
<rect width="48" height="48" fill="white"/>
<path d="M24.65 12.4769C24.7043 12.4498 24.7483 12.4061 24.7757 12.352C24.8031 12.298 24.8124 12.2365 24.8021 12.1768C25.0461 12.1096 25.2714 11.9873 25.4608 11.8195C26.1341 11.174 25.7592 10.4821 25.1133 9.80947C24.4675 9.13687 23.7925 8.73351 23.1192 9.37902C22.9419 9.56087 22.8088 9.78102 22.7301 10.0225C22.6688 10.0107 22.6054 10.0197 22.5498 10.0481C22.4942 10.0764 22.4497 10.1225 22.4232 10.179C22.1495 10.1939 21.8814 10.2622 21.6338 10.3798C21.4199 10.4784 21.2243 10.6126 21.0554 10.7767C20.8063 11.0154 20.6191 11.3111 20.5097 11.6383C20.4003 11.9654 20.3721 12.3142 20.4275 12.6547C20.4829 12.9952 20.6202 13.3171 20.8276 13.5927C21.0351 13.8684 21.3064 14.0894 21.6182 14.2369C21.93 14.3844 22.273 14.4539 22.6177 14.4394C22.9623 14.4248 23.2983 14.3268 23.5966 14.1536C23.8949 13.9804 24.1467 13.7373 24.3302 13.4452C24.5137 13.1531 24.6235 12.8208 24.65 12.4769ZM24.672 10.2304C25.0232 10.5972 25.2949 10.9115 24.9274 11.2654C24.8224 11.3653 24.7997 11.3369 24.6226 11.4226C24.6022 11.3748 24.5689 11.3337 24.5264 11.3037C24.4839 11.2738 24.434 11.2563 24.3821 11.2532C24.2955 11.0991 24.1896 10.9567 24.0668 10.8296C23.9412 10.6983 23.7994 10.5836 23.6448 10.4882C23.6444 10.4336 23.6282 10.3804 23.5981 10.3349C23.5681 10.2894 23.5255 10.2536 23.4755 10.2318C23.5697 10.0577 23.5432 10.0333 23.6492 9.93241C24.0167 9.5785 24.3202 9.86468 24.6717 10.2308M32.9539 38.9681C32.6285 38.9676 32.3165 38.838 32.0864 38.6078C31.8563 38.3776 31.7269 38.0656 31.7266 37.7401V27.9569H30.423V37.7398C30.4177 38.062 30.2859 38.3692 30.0562 38.5951C29.8264 38.8211 29.5171 38.9477 29.1948 38.9477C28.8726 38.9477 28.5632 38.8211 28.3335 38.5951C28.1037 38.3692 27.972 38.062 27.9666 37.7398V26.992C27.9663 26.8585 27.9879 26.7259 28.0306 26.5995C27.9571 26.3904 27.9205 26.1702 27.9223 25.9486L27.9507 19.3871C27.9696 18.8305 28.2046 18.3032 28.606 17.9171C29.0073 17.531 29.5434 17.3165 30.1003 17.3192H32.4341V17.3412C32.9243 17.3943 33.3781 17.625 33.7098 17.9899C34.0415 18.3547 34.2281 18.8284 34.2344 19.3214L34.2067 25.8805C34.2055 26.1016 34.1671 26.321 34.0932 26.5294C34.1531 26.6765 34.1839 26.8338 34.184 26.9927V37.7398C34.1833 38.0654 34.0536 38.3776 33.8232 38.6078C33.5929 38.838 33.2806 38.9674 32.9549 38.9678M36.0822 27.3676C35.7668 27.3774 35.4603 27.2616 35.23 27.0458C34.9998 26.8299 34.8645 26.5316 34.8539 26.2161V19.0214C34.874 18.7094 35.012 18.4167 35.2401 18.2029C35.4682 17.989 35.7691 17.87 36.0817 17.87C36.3944 17.87 36.6953 17.989 36.9233 18.2029C37.1514 18.4167 37.2895 18.7094 37.3096 19.0214V26.2168C37.2991 26.5321 37.164 26.8303 36.9339 27.0462C36.7038 27.262 36.3976 27.3779 36.0822 27.3683M33.721 14.3077C33.7241 14.8305 33.5722 15.3424 33.2844 15.7789C32.9967 16.2153 32.5859 16.5566 32.1042 16.7597C31.6225 16.9627 31.0913 17.0184 30.578 16.9196C30.0646 16.8209 29.5921 16.5721 29.22 16.2049C28.848 15.8376 28.5932 15.3682 28.4879 14.8562C28.3826 14.3441 28.4315 13.8123 28.6283 13.328C28.8252 12.8437 29.1612 12.4287 29.5939 12.1353C30.0266 11.842 30.5366 11.6835 31.0594 11.68C31.7608 11.6756 32.4351 11.95 32.9342 12.4428C33.4334 12.9355 33.7164 13.6064 33.721 14.3077ZM26.338 19.0627C26.0124 19.0624 25.7002 18.9329 25.47 18.7025C25.2399 18.4722 25.1106 18.1599 25.1106 17.8343V12.3339C25.3081 12.2628 25.4882 12.1508 25.6393 12.0051C26.2387 11.4317 26.1497 10.8197 25.8086 10.2667C25.9958 10.1768 26.2027 10.1358 26.41 10.1477C26.6172 10.1595 26.8181 10.2237 26.9938 10.3344C27.1696 10.445 27.3143 10.5983 27.4146 10.7801C27.5149 10.9619 27.5675 11.1662 27.5673 11.3738V17.8343C27.5673 18.1601 27.4378 18.4725 27.2075 18.7028C26.9771 18.9331 26.6647 19.0626 26.339 19.0627" fill="#262424"/>
<path d="M5.5486 9.88745H6.7186V6.88445L6.8512 6.34625L6.4456 6.81425L5.6812 7.31345L5.2444 6.67385L7.1554 5.24645H7.7716V9.88745H8.9182V10.8H5.5486V9.88745ZM13.472 9.10745C13.472 9.35185 13.4252 9.58325 13.3316 9.80165C13.238 10.0148 13.1054 10.2046 12.9338 10.371C12.7674 10.5374 12.5646 10.67 12.3254 10.7688C12.0914 10.8624 11.8288 10.9092 11.5376 10.9092C11.2464 10.9092 10.9786 10.865 10.7342 10.7766C10.4898 10.6882 10.2766 10.5582 10.0946 10.3866C9.9126 10.2098 9.7696 9.99405 9.6656 9.73925C9.5668 9.47925 9.5174 9.17765 9.5174 8.83445C9.5174 8.33005 9.598 7.86985 9.7592 7.45385C9.9204 7.03265 10.1362 6.66865 10.4066 6.36185C10.6822 6.04985 11.002 5.79765 11.366 5.60525C11.73 5.41285 12.1174 5.28805 12.5282 5.23085L12.7544 6.08105C12.4736 6.12265 12.2136 6.20325 11.9744 6.32285C11.7404 6.43725 11.5298 6.57765 11.3426 6.74405C11.1606 6.90525 11.0072 7.08725 10.8824 7.29005C10.7576 7.48765 10.6692 7.69045 10.6172 7.89845C10.7368 7.76845 10.8824 7.65665 11.054 7.56305C11.2256 7.46425 11.4492 7.41485 11.7248 7.41485C11.9848 7.41485 12.2214 7.45385 12.4346 7.53185C12.653 7.60985 12.8376 7.72165 12.9884 7.86725C13.1444 8.01285 13.264 8.18965 13.3472 8.39765C13.4304 8.60565 13.472 8.84225 13.472 9.10745ZM12.4112 9.15425C12.4112 8.60305 12.1018 8.32745 11.483 8.32745C11.2542 8.32745 11.0618 8.37425 10.9058 8.46785C10.7498 8.55625 10.6406 8.66285 10.5782 8.78765C10.5678 8.84485 10.5626 8.88905 10.5626 8.92025C10.5626 8.94625 10.5626 8.97745 10.5626 9.01385C10.5626 9.13345 10.5808 9.25305 10.6172 9.37265C10.6588 9.48705 10.7186 9.59105 10.7966 9.68465C10.8746 9.77825 10.9734 9.85365 11.093 9.91085C11.2126 9.96805 11.353 9.99665 11.5142 9.99665C11.6442 9.99665 11.7638 9.97585 11.873 9.93425C11.9822 9.88745 12.0758 9.82505 12.1538 9.74705C12.237 9.66905 12.2994 9.58065 12.341 9.48185C12.3878 9.37785 12.4112 9.26865 12.4112 9.15425ZM6.8356 16.0996H6.4534V17.8H5.3614V13.705H6.4534V15.4756L6.8044 15.3274L7.84961 13.705H9.02741C8.84541 13.9546 8.666 14.2068 8.4892 14.4616C8.3176 14.7112 8.1434 14.9608 7.9666 15.2104L7.4518 15.5536L7.9978 15.889C8.1954 16.2114 8.3956 16.5312 8.5984 16.8484C8.8012 17.1604 9.0014 17.4776 9.199 17.8H7.9354L6.8356 16.0996ZM12.3849 14.6722H10.6845V17.8H9.53014V13.705H12.3849V14.6722Z" fill="#202020"/>
</svg>
