<svg width="48" height="48" viewBox="0 0 48 48" fill="none" xmlns="http://www.w3.org/2000/svg">
<rect width="48" height="48" fill="white"/>
<path d="M20.8145 38.2489C20.7296 38.4084 20.6135 38.5491 20.473 38.6627C20.3325 38.7762 20.1706 38.8603 19.9969 38.9099C19.8232 38.9594 19.6412 38.9734 19.462 38.951C19.2827 38.9287 19.1098 38.8704 18.9536 38.7796C18.7974 38.6889 18.6611 38.5676 18.5528 38.423C18.4446 38.2784 18.3666 38.1134 18.3236 37.938C18.2805 37.7625 18.2733 37.5802 18.3023 37.4019C18.3314 37.2236 18.3961 37.053 18.4925 36.9003L22.9102 30.2474L22.9142 30.2407C22.9988 30.0806 23.1148 29.9392 23.2554 29.8251C23.3959 29.7109 23.5581 29.6264 23.7321 29.5765C23.9062 29.5266 24.0885 29.5124 24.2682 29.5347C24.4479 29.557 24.6212 29.6154 24.7777 29.7064C24.9343 29.7973 25.0708 29.919 25.1792 30.064C25.2875 30.2091 25.3654 30.3745 25.4083 30.5505C25.4511 30.7264 25.4579 30.9091 25.4283 31.0878C25.3988 31.2664 25.3334 31.4372 25.2362 31.5899L20.8185 38.2414L20.8145 38.2489ZM21.2768 14.4118C21.4182 14.2986 21.581 14.2152 21.7555 14.1665C21.93 14.1179 22.1125 14.105 22.292 14.1288C22.4716 14.1525 22.6445 14.2123 22.8004 14.3045C22.9563 14.3968 23.0919 14.5196 23.199 14.6657C23.3062 14.8117 23.3827 14.9779 23.424 15.1542C23.4653 15.3306 23.4705 15.5135 23.4392 15.6919C23.408 15.8703 23.341 16.0406 23.2423 16.1924C23.1436 16.3443 23.0152 16.4746 22.8648 16.5756L17.2635 21.782L17.2567 21.7871C17.1149 21.8982 16.9522 21.9796 16.7783 22.0266C16.6043 22.0735 16.4227 22.085 16.2443 22.0604C16.0658 22.0358 15.8941 21.9756 15.7393 21.8833C15.5846 21.791 15.45 21.6686 15.3435 21.5233C15.2371 21.3779 15.1609 21.2127 15.1195 21.0373C15.0782 20.862 15.0725 20.6801 15.1028 20.5025C15.1332 20.325 15.1989 20.1553 15.2961 20.0036C15.3933 19.8519 15.52 19.7213 15.6687 19.6196L21.2707 14.4159L21.2768 14.4118ZM27.9523 13.9485C28.1332 13.9432 28.3132 13.9745 28.4817 14.0405C28.6501 14.1066 28.8035 14.2059 28.9325 14.3327C29.0616 14.4595 29.1638 14.611 29.2328 14.7782C29.3019 14.9455 29.3364 15.1249 29.3344 15.3058C29.3323 15.4867 29.2938 15.6654 29.221 15.831C29.1482 15.9966 29.0427 16.1459 28.9108 16.2697C28.7789 16.3935 28.6233 16.4894 28.4535 16.5517C28.2836 16.6139 28.1029 16.6411 27.9222 16.6318L22.4411 16.6823H22.4327C22.2521 16.6869 22.0724 16.655 21.9045 16.5886C21.7365 16.5222 21.5836 16.4226 21.455 16.2958C21.3264 16.1689 21.2247 16.0175 21.1559 15.8504C21.0872 15.6834 21.0529 15.5042 21.055 15.3236C21.057 15.143 21.0955 14.9646 21.1681 14.7992C21.2407 14.6338 21.3459 14.4848 21.4775 14.361C21.609 14.2371 21.7641 14.1411 21.9336 14.0786C22.1031 14.0161 22.2834 13.9885 22.4638 13.9973L27.9439 13.9478L27.9523 13.9485ZM26.6772 14.5168C26.9634 14.1809 27.3706 13.9715 27.8103 13.9343C28.25 13.897 28.6866 14.0347 29.0252 14.3176C29.7331 14.9144 30.3383 16.4066 29.7446 17.1137L22.4604 25.3597L21.4911 25.8305C20.8991 26.5264 19.8655 25.4193 19.1624 24.8266C18.8227 24.5417 18.61 24.1336 18.5711 23.6919C18.5322 23.2502 18.6702 22.8111 18.9548 22.4712L26.6711 14.5253L26.6772 14.5168ZM38.6273 39.123H38.6584C38.8205 39.123 38.976 39.0586 39.0906 38.944C39.2052 38.8294 39.2696 38.674 39.2696 38.5119C39.2696 38.3498 39.2052 38.1943 39.0906 38.0797C38.976 37.9651 38.8205 37.9007 38.6584 37.9007H38.6273C38.4652 37.9007 38.3098 37.9651 38.1951 38.0797C38.0805 38.1943 38.0161 38.3498 38.0161 38.5119C38.0161 38.674 38.0805 38.8294 38.1951 38.944C38.3098 39.0586 38.4652 39.123 38.6273 39.123ZM36.6762 39.123H36.707C36.7873 39.123 36.8667 39.1072 36.9409 39.0765C37.015 39.0458 37.0824 39.0008 37.1391 38.944C37.1959 38.8873 37.2409 38.8199 37.2716 38.7457C37.3023 38.6716 37.3181 38.5921 37.3181 38.5119C37.3181 38.4316 37.3023 38.3522 37.2716 38.278C37.2409 38.2039 37.1959 38.1365 37.1391 38.0797C37.0824 38.023 37.015 37.978 36.9409 37.9473C36.8667 37.9165 36.7873 37.9007 36.707 37.9007H36.6762C36.5141 37.9007 36.3587 37.9651 36.2441 38.0797C36.1294 38.1943 36.0651 38.3498 36.0651 38.5119C36.0651 38.674 36.1294 38.8294 36.2441 38.944C36.3587 39.0586 36.5141 39.123 36.6762 39.123ZM34.7248 39.123H34.7559C34.8362 39.123 34.9156 39.1072 34.9898 39.0765C35.0639 39.0458 35.1313 39.0008 35.1881 38.944C35.2448 38.8873 35.2898 38.8199 35.3205 38.7457C35.3512 38.6716 35.3671 38.5921 35.3671 38.5119C35.3671 38.4316 35.3512 38.3522 35.3205 38.278C35.2898 38.2039 35.2448 38.1365 35.1881 38.0797C35.1313 38.023 35.0639 37.978 34.9898 37.9473C34.9156 37.9165 34.8362 37.9007 34.7559 37.9007H34.7248C34.5627 37.9007 34.4072 37.9651 34.2926 38.0797C34.178 38.1943 34.1136 38.3498 34.1136 38.5119C34.1136 38.674 34.178 38.8294 34.2926 38.944C34.4072 39.0586 34.5627 39.123 34.7248 39.123ZM32.7727 39.123H32.8048C32.9669 39.123 33.1224 39.0586 33.237 38.944C33.3516 38.8294 33.416 38.674 33.416 38.5119C33.416 38.3498 33.3516 38.1943 33.237 38.0797C33.1224 37.9651 32.9669 37.9007 32.8048 37.9007H32.7727C32.6106 37.9007 32.4551 37.9651 32.3405 38.0797C32.2259 38.1943 32.1615 38.3498 32.1615 38.5119C32.1615 38.674 32.2259 38.8294 32.3405 38.944C32.4551 39.0586 32.6106 39.123 32.7727 39.123ZM41.0024 38.5134V37.5787C41.0165 37.5042 41.014 37.4276 40.995 37.3542C40.9761 37.2809 40.9412 37.2126 40.8929 37.1543C40.8446 37.0959 40.784 37.049 40.7154 37.0167C40.6468 36.9845 40.572 36.9678 40.4962 36.9678C40.4205 36.9678 40.3457 36.9845 40.2771 37.0167C40.2085 37.049 40.1479 37.0959 40.0996 37.1543C40.0513 37.2126 40.0164 37.2809 39.9975 37.3542C39.9785 37.4276 39.976 37.5042 39.9901 37.5787V38.5134C39.9763 38.5877 39.9791 38.6641 39.9981 38.7372C40.0172 38.8103 40.0521 38.8783 40.1004 38.9364C40.1487 38.9945 40.2092 39.0413 40.2776 39.0734C40.3461 39.1054 40.4207 39.1221 40.4962 39.1221C40.5718 39.1221 40.6464 39.1054 40.7148 39.0734C40.7832 39.0413 40.8437 38.9945 40.8921 38.9364C40.9404 38.8783 40.9753 38.8103 40.9944 38.7372C41.0134 38.6641 41.0162 38.5877 41.0024 38.5134ZM28.7536 39.123H28.7848C28.865 39.123 28.9445 39.1072 29.0187 39.0765C29.0928 39.0458 29.1602 39.0008 29.2169 38.944C29.2737 38.8873 29.3187 38.8199 29.3494 38.7457C29.3801 38.6716 29.3959 38.5921 29.3959 38.5119C29.3959 38.4316 29.3801 38.3522 29.3494 38.278C29.3187 38.2039 29.2737 38.1365 29.2169 38.0797C29.1602 38.023 29.0928 37.978 29.0187 37.9473C28.9445 37.9165 28.865 37.9007 28.7848 37.9007H28.7533C28.5912 37.9007 28.4358 37.9651 28.3212 38.0797C28.2065 38.1943 28.1422 38.3498 28.1422 38.5119C28.1422 38.674 28.2065 38.8294 28.3212 38.944C28.4358 39.0586 28.5915 39.123 28.7536 39.123ZM26.8015 39.123H26.8334C26.9954 39.123 27.1509 39.0586 27.2655 38.944C27.3801 38.8294 27.4445 38.674 27.4445 38.5119C27.4445 38.3498 27.3801 38.1943 27.2655 38.0797C27.1509 37.9651 26.9954 37.9007 26.8334 37.9007H26.8015C26.6394 37.9007 26.484 37.9651 26.3694 38.0797C26.2548 38.1943 26.1904 38.3498 26.1904 38.5119C26.1904 38.674 26.2548 38.8294 26.3694 38.944C26.484 39.0586 26.6394 39.123 26.8015 39.123ZM24.8501 39.123H24.8823C25.0444 39.123 25.1998 39.0586 25.3144 38.944C25.429 38.8294 25.4934 38.674 25.4934 38.5119C25.4934 38.3498 25.429 38.1943 25.3144 38.0797C25.1998 37.9651 25.0444 37.9007 24.8823 37.9007H24.8501C24.688 37.9007 24.5326 37.9651 24.418 38.0797C24.3034 38.1943 24.239 38.3498 24.239 38.5119C24.239 38.674 24.3034 38.8294 24.418 38.944C24.5326 39.0586 24.688 39.123 24.8501 39.123ZM22.899 39.123H22.9308C23.0929 39.123 23.2484 39.0586 23.363 38.944C23.4776 38.8294 23.542 38.674 23.542 38.5119C23.542 38.3498 23.4776 38.1943 23.363 38.0797C23.2484 37.9651 23.0929 37.9007 22.9308 37.9007H22.899C22.7369 37.9007 22.5815 37.9651 22.4669 38.0797C22.3523 38.1943 22.2879 38.3498 22.2879 38.5119C22.2879 38.674 22.3523 38.8294 22.4669 38.944C22.5815 39.0586 22.7369 39.123 22.899 39.123ZM31.1267 38.5134V37.5787C31.1409 37.5042 31.1385 37.4276 31.1197 37.3541C31.1009 37.2807 31.0661 37.2124 31.0178 37.154C30.9695 37.0956 30.9089 37.0486 30.8403 37.0163C30.7717 36.984 30.6969 36.9673 30.6211 36.9673C30.5453 36.9673 30.4704 36.984 30.4019 37.0163C30.3333 37.0486 30.2727 37.0956 30.2244 37.154C30.1761 37.2124 30.1413 37.2807 30.1224 37.3541C30.1036 37.4276 30.1012 37.5042 30.1154 37.5787V38.5134C30.1015 38.5877 30.1041 38.6641 30.1231 38.7373C30.1421 38.8105 30.1769 38.8786 30.2252 38.9367C30.2735 38.9949 30.334 39.0417 30.4024 39.0738C30.4708 39.106 30.5455 39.1226 30.6211 39.1226C30.6967 39.1226 30.7713 39.106 30.8397 39.0738C30.9082 39.0417 30.9687 38.9949 31.0169 38.9367C31.0652 38.8786 31.1001 38.8105 31.119 38.7373C31.138 38.6641 31.1406 38.5877 31.1267 38.5134ZM25.2067 29.8739C25.3139 30.0199 25.3904 30.186 25.4317 30.3623C25.4731 30.5386 25.4783 30.7214 25.4472 30.8998C25.416 31.0782 25.3492 31.2485 25.2506 31.4004C25.152 31.5523 25.0237 31.6826 24.8734 31.7837C24.7232 31.8848 24.554 31.9544 24.3762 31.9884C24.1983 32.0225 24.0154 32.0202 23.8385 31.9818C23.6615 31.9433 23.4941 31.8695 23.3464 31.7647C23.1987 31.66 23.0737 31.5265 22.9789 31.3722L18.9277 24.4886L18.9237 24.4822C18.8166 24.3361 18.7402 24.1699 18.699 23.9935C18.6578 23.8171 18.6526 23.6343 18.6839 23.4559C18.7151 23.2774 18.7821 23.1072 18.8808 22.9553C18.9795 22.8034 19.1078 22.6731 19.2582 22.572C19.4085 22.471 19.5777 22.4014 19.7556 22.3674C19.9335 22.3334 20.1164 22.3357 20.2934 22.3742C20.4704 22.4127 20.6378 22.4865 20.7855 22.5913C20.9333 22.6961 21.0583 22.8296 21.1532 22.9839L25.2016 29.8664L25.2067 29.8739ZM32.836 15.0817C32.3473 15.2665 31.8149 15.3023 31.3059 15.1845C30.7969 15.0667 30.3343 14.8007 29.9765 14.42C29.6187 14.0393 29.3819 13.5611 29.2958 13.0458C29.2098 12.5306 29.2785 12.0013 29.4933 11.5251C29.708 11.0488 30.0591 10.6469 30.5022 10.3702C30.9454 10.0935 31.4606 9.95441 31.9828 9.97049C32.5049 9.98657 33.0106 10.1571 33.4359 10.4606C33.8611 10.764 34.1868 11.1868 34.3719 11.6753C34.4948 11.9998 34.5525 12.3454 34.5418 12.6922C34.5311 13.039 34.4522 13.3804 34.3096 13.6967C34.167 14.013 33.9634 14.2981 33.7106 14.5358C33.4577 14.7734 33.1605 14.9589 32.836 15.0817ZM17.1433 37.8151H9.05578C8.89491 37.8151 8.74063 37.879 8.62688 37.9927C8.51312 38.1065 8.44922 38.2607 8.44922 38.4216C8.44922 38.5825 8.51312 38.7368 8.62688 38.8505C8.74063 38.9643 8.89491 39.0282 9.05578 39.0282H17.1433C17.3041 39.0282 17.4584 38.9643 17.5722 38.8505C17.6859 38.7368 17.7498 38.5825 17.7498 38.4216C17.7498 38.2607 17.6859 38.1065 17.5722 37.9927C17.4584 37.879 17.3041 37.8151 17.1433 37.8151Z" fill="#262424"/>
</svg>
