<svg width="48" height="48" viewBox="0 0 48 48" fill="none" xmlns="http://www.w3.org/2000/svg">
<rect width="48" height="48" fill="white"/>
<path d="M32.4218 23.4313C32.8508 23.328 33.3032 23.3985 33.6804 23.6275C34.0576 23.8565 34.3289 24.2253 34.4353 24.6535C34.5416 25.0818 34.4742 25.5347 34.2479 25.9135C34.0216 26.2922 33.6547 26.5662 33.2272 26.6755L25.7601 27.638L25.75 27.6403C25.3211 27.742 24.8696 27.6703 24.4933 27.4409C24.117 27.2114 23.8464 26.8428 23.7404 26.4151C23.6343 25.9873 23.7013 25.535 23.9267 25.1564C24.1522 24.7777 24.518 24.5033 24.9446 24.3928L32.412 23.4337L32.4218 23.4313ZM9.94482 33.5942C9.57032 33.6949 9.17121 33.6442 8.8338 33.453C8.49638 33.2619 8.24778 32.9455 8.14174 32.5725C8.0357 32.1995 8.08074 31.7997 8.26713 31.4596C8.45351 31.1195 8.76627 30.8664 9.13777 30.7551L18.1217 29.0089L18.1295 29.0066C18.504 28.9061 18.903 28.957 19.2403 29.1483C19.5776 29.3395 19.8261 29.6558 19.9321 30.0288C20.0381 30.4018 19.9931 30.8015 19.8068 31.1416C19.6205 31.4817 19.3079 31.7348 18.9366 31.8463L9.95295 33.5915L9.94482 33.5942ZM19.8002 31.3983C19.5112 31.6622 19.1292 31.8006 18.7382 31.783C18.3473 31.7653 17.9793 31.5931 17.7153 31.3041C17.4513 31.0151 17.3129 30.6332 17.3306 30.2422C17.3483 29.8512 17.5205 29.4832 17.8095 29.2192L24.0387 24.8436L24.0437 24.8378C24.3335 24.5782 24.714 24.4434 25.1026 24.4628C25.4912 24.4822 25.8564 24.6543 26.1189 24.9415C26.3813 25.2288 26.5197 25.608 26.504 25.9967C26.4884 26.3855 26.3198 26.7524 26.0351 27.0175L19.8073 31.3915L19.8002 31.3983ZM34.0417 32.2835C34.0309 32.4639 33.9838 32.6402 33.9032 32.8019C33.8226 32.9636 33.7103 33.1074 33.5728 33.2247C33.4354 33.342 33.2757 33.4303 33.1033 33.4844C32.9309 33.5385 32.7494 33.5572 32.5696 33.5395C32.3898 33.5218 32.2154 33.468 32.0569 33.3813C31.8984 33.2946 31.759 33.1768 31.6471 33.0349C31.5352 32.8931 31.453 32.7302 31.4056 32.5558C31.3581 32.3815 31.3463 32.1994 31.3709 32.0204L31.9467 24.8226V24.8141C31.9573 24.6334 32.0043 24.4568 32.0849 24.2947C32.1655 24.1326 32.278 23.9885 32.4157 23.871C32.5533 23.7535 32.7133 23.665 32.886 23.6108C33.0587 23.5566 33.2406 23.5379 33.4207 23.5558C33.6008 23.5736 33.7755 23.6277 33.9342 23.7147C34.0929 23.8017 34.2324 23.9199 34.3443 24.0621C34.4563 24.2044 34.5383 24.3678 34.5855 24.5425C34.6327 24.7172 34.6442 24.8997 34.6191 25.079L34.04 32.2758L34.0417 32.2835ZM38.0146 25.632C37.5129 25.7791 36.9789 25.7742 36.48 25.6177C35.9811 25.4613 35.5398 25.1605 35.2119 24.7532C34.8841 24.346 34.6843 23.8507 34.6379 23.3299C34.5916 22.8091 34.7007 22.2863 34.9515 21.8275C35.2023 21.3688 35.5835 20.9947 36.0469 20.7526C36.5103 20.5105 37.0351 20.4113 37.5549 20.4675C38.0747 20.5236 38.5661 20.7327 38.9671 21.0682C39.3681 21.4037 39.6606 21.8506 39.8076 22.3523C39.9052 22.6853 39.9363 23.0342 39.899 23.3791C39.8618 23.7241 39.757 24.0583 39.5905 24.3627C39.4241 24.6672 39.1993 24.9358 38.929 25.1534C38.6588 25.3709 38.3483 25.5331 38.0153 25.6307M7.79053 34.4145H38.6337V35.4159H7.79053V34.4145Z" fill="#262424"/>
</svg>
