<svg width="48" height="49" viewBox="0 0 48 49" fill="none" xmlns="http://www.w3.org/2000/svg">
<rect width="48" height="48" transform="translate(0 0.5)" fill="white"/>
<path d="M16.237 22.4697C15.9888 22.5888 15.7123 22.6361 15.4387 22.6062C15.165 22.5763 14.9052 22.4705 14.6886 22.3007C14.472 22.1308 14.3072 21.9038 14.2128 21.6452C14.1185 21.3866 14.0984 21.1067 14.1548 20.8373L15.794 16.7878V16.7804C15.8342 16.5907 15.9114 16.4108 16.0212 16.251C16.1309 16.0912 16.2711 15.9545 16.4336 15.8488C16.5962 15.7432 16.778 15.6706 16.9686 15.6351C17.1592 15.5997 17.355 15.6022 17.5446 15.6424C17.7343 15.6827 17.9142 15.7598 18.074 15.8696C18.2338 15.9793 18.3705 16.1195 18.4761 16.2821C18.5818 16.4446 18.6544 16.6264 18.6898 16.817C18.7253 17.0076 18.7228 17.2034 18.6826 17.393L18.3679 18.1699L21.6913 16.5321L21.6961 16.527C22.0151 16.3124 22.4053 16.2307 22.7837 16.2993C23.1621 16.3678 23.4988 16.5812 23.7223 16.8942C23.9458 17.2071 24.0384 17.5949 23.9805 17.975C23.9226 18.3552 23.7187 18.6978 23.4121 18.9299L23.4219 18.9844V22.9625C23.4356 22.9127 23.4519 22.8636 23.4707 22.8155L25.3232 19.1507L25.3259 19.1443C25.4748 18.7874 25.7578 18.5031 26.114 18.3525C26.4702 18.2019 26.8713 18.1971 27.231 18.339C27.5908 18.4809 27.8805 18.7583 28.038 19.1115C28.1955 19.4647 28.2082 19.8656 28.0733 20.2281L26.2187 23.8891L26.2153 23.8976C26.101 24.185 25.8992 24.4293 25.6385 24.5958C25.3778 24.7623 25.0713 24.8426 24.7624 24.8253C24.4535 24.8081 24.1579 24.6941 23.9173 24.4996C23.6768 24.3051 23.5035 24.0399 23.4219 23.7414V24.8804L23.4236 24.8912C23.4717 25.2211 23.4149 25.5578 23.2614 25.8537L26.9661 37.2876C27.0423 37.6685 26.9653 38.0641 26.7517 38.3885C26.5381 38.7129 26.2052 38.9401 25.8252 39.0206C25.4452 39.1012 25.0488 39.0286 24.722 38.8188C24.3951 38.6089 24.1642 38.2787 24.0793 37.8996V37.8905L21.3198 29.3888L18.564 37.8895L18.5617 37.8986C18.4767 38.2776 18.2458 38.6079 17.919 38.8178C17.5921 39.0276 17.1957 39.1001 16.8157 39.0196C16.4357 38.939 16.1029 38.7119 15.8893 38.3875C15.6757 38.0631 15.5986 37.6675 15.6748 37.2866L19.4002 25.7958C19.3344 25.6562 19.2888 25.508 19.2647 25.3555V20.9853L16.6505 22.2723L16.6437 22.278C16.5188 22.3622 16.3818 22.4269 16.2373 22.4697M19.5143 16.272L19.3084 15.3942H36.3975L36.1428 16.3475H30.3552L30.0687 17.4222L24.8572 18.0555C24.8291 17.854 24.7783 17.6563 24.7058 17.4662C24.5436 17.0367 24.2759 16.6549 23.9274 16.356C23.5789 16.057 23.1608 15.8506 22.7116 15.7556C22.2624 15.6607 21.7965 15.6803 21.3569 15.8126C20.9172 15.9449 20.5179 16.1857 20.1957 16.5128L19.5143 16.272ZM23.1571 15.1002C22.6685 15.285 22.1361 15.3208 21.6271 15.2031C21.1181 15.0854 20.6555 14.8194 20.2977 14.4388C19.9399 14.0581 19.703 13.58 19.6169 13.0647C19.5309 12.5495 19.5995 12.0203 19.8141 11.544C20.0288 11.0677 20.3798 10.6658 20.8229 10.389C21.2659 10.1123 21.7811 9.97306 22.3032 9.98903C22.8254 10.005 23.331 10.1754 23.7564 10.4787C24.1817 10.7821 24.5075 11.2047 24.6926 11.6932C24.9405 12.3486 24.9179 13.0756 24.6299 13.7145C24.3419 14.3533 23.812 14.8516 23.1568 15.0999" fill="#262424"/>
</svg>
