<svg width="48" height="48" viewBox="0 0 48 48" fill="none" xmlns="http://www.w3.org/2000/svg">
<rect width="48" height="48" fill="white"/>
<path d="M30.3341 21.1721C30.3307 21.1721 30.3307 21.1704 30.3341 21.1721L30.3307 21.1687H30.3283C30.2965 21.1348 30.2494 21.125 30.2173 21.0962C30.1093 21.0008 29.9867 20.9234 29.8542 20.8669C29.7326 20.83 29.6069 20.8083 29.48 20.8022C29.4244 20.7989 29.3733 20.7718 29.3154 20.7718C29.1731 20.7809 29.033 20.8118 28.9002 20.8635C28.8615 20.8684 28.8235 20.8768 28.7864 20.8886C28.7075 20.9312 28.6336 20.9826 28.5662 21.0417C28.479 21.0883 28.3978 21.1451 28.3241 21.211L16.3757 33.6752C16.2443 33.8094 16.1409 33.9684 16.0714 34.1429C16.0019 34.3174 15.9677 34.5039 15.9708 34.6917C15.9739 34.8795 16.0142 35.0648 16.0895 35.2369C16.1647 35.4091 16.2733 35.5645 16.4091 35.6943C16.5449 35.8241 16.705 35.9257 16.8803 35.9932C17.0556 36.0607 17.2425 36.0927 17.4303 36.0874C17.6181 36.0821 17.8029 36.0396 17.9741 35.9624C18.1453 35.8851 18.2995 35.7747 18.4277 35.6374L29.3909 24.1974L33.6582 28.2615H27.9719C27.6057 28.2775 27.2598 28.4342 27.0064 28.6989C26.753 28.9637 26.6115 29.3161 26.6115 29.6826C26.6115 30.0491 26.753 30.4014 27.0064 30.6662C27.2598 30.9309 27.6057 31.0876 27.9719 31.1036H37.2102C37.4939 31.103 37.771 31.0175 38.0058 30.8582C38.2406 30.6989 38.4223 30.4729 38.5277 30.2095C38.6331 29.946 38.6573 29.6571 38.5971 29.3798C38.537 29.1025 38.3953 28.8495 38.1903 28.6533L30.3341 21.1721ZM10.0757 24.0024H20.8665C21.2327 23.9864 21.5785 23.8297 21.832 23.5649C22.0854 23.3001 22.2269 22.9478 22.2269 22.5813C22.2269 22.2148 22.0854 21.8624 21.832 21.5977C21.5785 21.3329 21.2327 21.1762 20.8665 21.1602H10.0757C9.70959 21.1762 9.36374 21.3329 9.11029 21.5977C8.85685 21.8624 8.71539 22.2148 8.71539 22.5813C8.71539 22.9478 8.85685 23.3001 9.11029 23.5649C9.36374 23.8297 9.70959 23.9864 10.0757 24.0024ZM10.0757 28.2656H18.0261C18.4028 28.2656 18.7641 28.1159 19.0304 27.8495C19.2968 27.5832 19.4465 27.2219 19.4465 26.8452C19.4465 26.4685 19.2968 26.1072 19.0304 25.8408C18.7641 25.5744 18.4028 25.4248 18.0261 25.4248H10.0757C9.69903 25.4248 9.33775 25.5744 9.07138 25.8408C8.805 26.1072 8.65535 26.4685 8.65535 26.8452C8.65535 27.2219 8.805 27.5832 9.07138 27.8495C9.33775 28.1159 9.69903 28.2656 10.0757 28.2656ZM16.6036 31.1104C16.6036 30.7334 16.454 30.3719 16.1876 30.1052C15.9212 29.8385 15.5599 29.6884 15.1829 29.688H10.0757C9.69849 29.688 9.33669 29.8378 9.06994 30.1046C8.80318 30.3714 8.65332 30.7332 8.65332 31.1104C8.65332 31.4877 8.80318 31.8495 9.06994 32.1162C9.33669 32.383 9.69849 32.5328 10.0757 32.5328H15.1829C15.5602 32.5328 15.922 32.383 16.1887 32.1162C16.4555 31.8495 16.6053 31.4877 16.6053 31.1104M38.4426 14.7661C38.4426 15.289 38.2875 15.8002 37.997 16.235C37.7065 16.6698 37.2935 17.0087 36.8104 17.2088C36.3273 17.409 35.7956 17.4613 35.2828 17.3593C34.7699 17.2573 34.2987 17.0055 33.929 16.6357C33.5592 16.2659 33.3074 15.7948 33.2054 15.2819C33.1033 14.769 33.1557 14.2374 33.3558 13.7543C33.5559 13.2711 33.8948 12.8582 34.3296 12.5677C34.7644 12.2771 35.2756 12.1221 35.7986 12.1221C36.4997 12.1222 37.1722 12.4009 37.668 12.8967C38.1638 13.3925 38.4424 14.0649 38.4426 14.7661ZM37.9214 21.1599H35.7413L30.4367 14.8829C30.211 14.614 29.8932 14.4386 29.5453 14.3909C29.1974 14.3432 28.8442 14.4266 28.5544 14.6249L23.0303 18.3699C22.8755 18.4747 22.743 18.609 22.6401 18.7651C22.5372 18.9211 22.4661 19.0959 22.4308 19.2795C22.3955 19.463 22.3967 19.6517 22.4344 19.8348C22.472 20.0179 22.5453 20.1918 22.6501 20.3466C22.755 20.5013 22.8892 20.6339 23.0453 20.7367C23.2014 20.8396 23.3762 20.9107 23.5597 20.946C23.7433 20.9813 23.932 20.9801 24.1151 20.9425C24.2982 20.9049 24.472 20.8315 24.6268 20.7267L29.0925 17.6949L33.9951 23.5015C34.1283 23.6597 34.2946 23.7867 34.4823 23.8735C34.67 23.9604 34.8745 24.0049 35.0813 24.004H37.9244C38.3017 24.0037 38.6633 23.8536 38.9299 23.5866C39.1964 23.3196 39.346 22.9577 39.3457 22.5804C39.3453 22.2032 39.1952 21.8415 38.9282 21.575C38.6612 21.3084 38.2993 21.1589 37.922 21.1592" fill="#262424"/>
<path d="M5.5486 9.8872H6.7186V6.8842L6.8512 6.346L6.4456 6.814L5.6812 7.3132L5.2444 6.6736L7.1554 5.2462H7.7716V9.8872H8.9182V10.7998H5.5486V9.8872ZM9.4082 8.062C9.4082 7.1312 9.585 6.4266 9.9386 5.9482C10.2974 5.4698 10.8096 5.2306 11.4752 5.2306C12.1876 5.2306 12.7102 5.4672 13.043 5.9404C13.381 6.4084 13.55 7.1156 13.55 8.062C13.55 8.9876 13.3706 9.6948 13.0118 10.1836C12.653 10.6672 12.1408 10.909 11.4752 10.909C11.1216 10.909 10.8148 10.844 10.5548 10.714C10.2948 10.5788 10.079 10.389 9.9074 10.1446C9.741 9.895 9.6162 9.596 9.533 9.2476C9.4498 8.894 9.4082 8.4988 9.4082 8.062ZM10.5314 8.062C10.5314 8.66 10.6042 9.1332 10.7498 9.4816C10.8954 9.8248 11.1372 9.9964 11.4752 9.9964C11.8184 9.9964 12.0628 9.8404 12.2084 9.5284C12.354 9.2164 12.4268 8.7276 12.4268 8.062C12.4268 7.7656 12.4086 7.5004 12.3722 7.2664C12.341 7.0272 12.289 6.8244 12.2162 6.658C12.1434 6.4916 12.0446 6.3642 11.9198 6.2758C11.8002 6.1874 11.652 6.1432 11.4752 6.1432C11.1372 6.1432 10.8954 6.307 10.7498 6.6346C10.6042 6.957 10.5314 7.4328 10.5314 8.062ZM13.7826 8.062C13.7826 7.1312 13.9594 6.4266 14.313 5.9482C14.6718 5.4698 15.184 5.2306 15.8496 5.2306C16.562 5.2306 17.0846 5.4672 17.4174 5.9404C17.7554 6.4084 17.9244 7.1156 17.9244 8.062C17.9244 8.9876 17.745 9.6948 17.3862 10.1836C17.0274 10.6672 16.5152 10.909 15.8496 10.909C15.496 10.909 15.1892 10.844 14.9292 10.714C14.6692 10.5788 14.4534 10.389 14.2818 10.1446C14.1154 9.895 13.9906 9.596 13.9074 9.2476C13.8242 8.894 13.7826 8.4988 13.7826 8.062ZM14.9058 8.062C14.9058 8.66 14.9786 9.1332 15.1242 9.4816C15.2698 9.8248 15.5116 9.9964 15.8496 9.9964C16.1928 9.9964 16.4372 9.8404 16.5828 9.5284C16.7284 9.2164 16.8012 8.7276 16.8012 8.062C16.8012 7.7656 16.783 7.5004 16.7466 7.2664C16.7154 7.0272 16.6634 6.8244 16.5906 6.658C16.5178 6.4916 16.419 6.3642 16.2942 6.2758C16.1746 6.1874 16.0264 6.1432 15.8496 6.1432C15.5116 6.1432 15.2698 6.307 15.1242 6.6346C14.9786 6.957 14.9058 7.4328 14.9058 8.062ZM24.2673 8.9824L24.3453 8.0932H24.2205L23.8539 8.7952V8.7874L23.0271 10.0588H22.6449L21.7323 8.7874V8.7952L21.3657 8.0932H21.2565L21.3735 8.9746V10.7998H20.4063V6.7048H21.5529L22.5747 8.2336V8.2258L22.8477 8.7484H22.9335L23.2065 8.2102V8.218L24.1581 6.7048H25.3047V10.7998H24.2673V8.9824Z" fill="#202020"/>
</svg>
