<svg width="48" height="48" viewBox="0 0 48 48" fill="none" xmlns="http://www.w3.org/2000/svg">
<rect width="48" height="48" fill="white"/>
<path d="M34.2584 21.1589H32.0777L26.7737 14.8837C26.5486 14.6147 26.2314 14.4391 25.8839 14.3912C25.5364 14.3433 25.1836 14.4265 24.8941 14.6246L19.3666 18.3696C19.0541 18.5814 18.8385 18.9086 18.7672 19.2793C18.6959 19.6501 18.7749 20.0339 18.9866 20.3465C19.1984 20.659 19.5256 20.8746 19.8963 20.9459C20.2671 21.0171 20.6509 20.9382 20.9634 20.7264L25.4339 17.6957L30.3325 23.5012C30.466 23.6594 30.6326 23.7865 30.8205 23.8733C31.0085 23.9602 31.2132 24.0047 31.4203 24.0038H34.2617C34.639 24.0033 35.0006 23.853 35.2671 23.586C35.5335 23.3189 35.6829 22.9569 35.6825 22.5797C35.682 22.2024 35.5317 21.8408 35.2647 21.5744C34.9976 21.3079 34.6356 21.1585 34.2584 21.1589ZM34.977 14.7658C34.977 15.3281 34.8103 15.8777 34.4978 16.3452C34.1854 16.8127 33.7414 17.177 33.2218 17.3921C32.7023 17.6072 32.1307 17.6634 31.5793 17.5535C31.0278 17.4437 30.5213 17.1728 30.1239 16.775C29.7264 16.3773 29.4559 15.8706 29.3464 15.3191C29.237 14.7676 29.2936 14.196 29.509 13.6766C29.7245 13.1573 30.0891 12.7135 30.5568 12.4014C31.0245 12.0893 31.5743 11.9229 32.1366 11.9233C32.5097 11.9234 32.8793 11.997 33.224 12.1398C33.5687 12.2827 33.8819 12.4921 34.1457 12.7561C34.4095 13.0201 34.6187 13.3334 34.7613 13.6783C34.9039 14.0231 34.9772 14.3926 34.977 14.7658ZM26.6731 21.1718C26.6697 21.1718 26.6697 21.1701 26.6731 21.1718L26.6697 21.1684H26.667C26.6332 21.1345 26.5871 21.1247 26.5553 21.0959C26.4477 21.0003 26.325 20.923 26.1922 20.8673C26.0713 20.8299 25.9461 20.8079 25.8197 20.802C25.7641 20.7986 25.7126 20.7708 25.6547 20.7708C25.5123 20.7797 25.3721 20.8112 25.2395 20.8639C25.2006 20.8683 25.1622 20.8768 25.1251 20.8893C25.046 20.9313 24.9721 20.9823 24.9049 21.0414C24.8173 21.0881 24.7354 21.1449 24.6611 21.2107L12.7151 33.6739C12.5862 33.8085 12.4852 33.9672 12.4177 34.1409C12.3502 34.3146 12.3175 34.5 12.3216 34.6863C12.3257 34.8726 12.3665 35.0563 12.4416 35.2268C12.5167 35.3974 12.6246 35.5515 12.7593 35.6803C12.8939 35.8092 13.0526 35.9103 13.2263 35.9778C13.4 36.0453 13.5854 36.0779 13.7717 36.0738C13.958 36.0697 14.1417 36.0289 14.3122 35.9538C14.4828 35.8787 14.6369 35.7708 14.7657 35.6361L25.7286 24.1972L29.9958 28.2612H24.3105C23.9444 28.2772 23.5985 28.4339 23.3451 28.6987C23.0917 28.9634 22.9502 29.3158 22.9502 29.6823C22.9502 30.0488 23.0917 30.4012 23.3451 30.6659C23.5985 30.9307 23.9444 31.0874 24.3105 31.1034H33.5495C33.8332 31.1026 34.1102 31.017 34.3449 30.8576C34.5796 30.6983 34.7612 30.4723 34.8665 30.2089C34.9718 29.9455 34.996 29.6566 34.9358 29.3793C34.8756 29.1021 34.734 28.8492 34.529 28.6531L26.6731 21.1718Z" fill="#262424"/>
<path d="M6.7576 9.9964C6.9344 9.9964 7.0878 9.9756 7.2178 9.934C7.353 9.8872 7.4648 9.8248 7.5532 9.7468C7.6416 9.6688 7.7092 9.5804 7.756 9.4816C7.8028 9.3776 7.8262 9.271 7.8262 9.1618C7.8262 8.881 7.73 8.673 7.5376 8.5378C7.3504 8.4026 7.0462 8.335 6.625 8.335H6.0088V7.7578L7.015 6.5254L7.5064 6.1666L6.8356 6.2524H5.4238V5.3398H8.6686V5.9248L7.4986 7.36L7.1164 7.5706V7.6096L7.4752 7.5628C7.6676 7.5784 7.8496 7.6226 8.0212 7.6954C8.198 7.7682 8.3514 7.867 8.48141 7.9918C8.6166 8.1166 8.7232 8.2726 8.8012 8.4598C8.8792 8.6418 8.9182 8.855 8.9182 9.0994C8.9182 9.4062 8.861 9.674 8.74661 9.9028C8.6374 10.1264 8.4866 10.3136 8.2942 10.4644C8.1018 10.6152 7.8756 10.727 7.6156 10.7998C7.3556 10.8726 7.0748 10.909 6.7732 10.909C6.6484 10.909 6.521 10.9038 6.391 10.8934C6.261 10.883 6.1336 10.8648 6.0088 10.8388C5.884 10.818 5.7644 10.7946 5.65 10.7686C5.5408 10.7374 5.4446 10.701 5.3614 10.6594L5.6578 9.7546C5.8034 9.8222 5.9672 9.8794 6.1492 9.9262C6.3312 9.973 6.534 9.9964 6.7576 9.9964ZM13.1317 9.0994H12.7495V10.7998H11.6575V6.7048H12.7495V8.4754L13.1005 8.3272L14.1457 6.7048H15.3235C15.1415 6.9544 14.9621 7.2066 14.7853 7.4614C14.6137 7.711 14.4395 7.9606 14.2627 8.2102L13.7479 8.5534L14.2939 8.8888C14.4915 9.2112 14.6917 9.531 14.8945 9.8482C15.0973 10.1602 15.2975 10.4774 15.4951 10.7998H14.2315L13.1317 9.0994ZM19.6872 8.9824L19.7652 8.0932H19.6404L19.2738 8.7952V8.7874L18.447 10.0588H18.0648L17.1522 8.7874V8.7952L16.7856 8.0932H16.6764L16.7934 8.9746V10.7998H15.8262V6.7048H16.9728L17.9946 8.2336V8.2258L18.2676 8.7484H18.3534L18.6264 8.2102V8.218L19.578 6.7048H20.7246V10.7998H19.6872V8.9824Z" fill="#202020"/>
</svg>
