<svg width="48" height="48" viewBox="0 0 48 48" fill="none" xmlns="http://www.w3.org/2000/svg">
<rect width="48" height="48" fill="white"/>
<path d="M24.624 21.1527C24.1668 20.5607 23.6978 19.9555 23.2859 19.4316C23.0635 19.1436 22.7436 18.9468 22.3863 18.8782C22.029 18.8096 21.6589 18.8739 21.3457 19.0591L16.8969 21.7309C16.653 21.8771 16.3609 21.9205 16.085 21.8515C15.8091 21.7824 15.572 21.6066 15.4257 21.3627C15.2794 21.1188 15.236 20.8268 15.3051 20.5509C15.3741 20.275 15.5499 20.0378 15.7938 19.8915L20.2579 17.2116C20.2696 17.2067 20.2809 17.2008 20.2917 17.194C21.0532 16.7495 21.951 16.5991 22.8157 16.7709C23.6805 16.9428 24.4525 17.4252 24.9861 18.127C25.4494 18.7163 25.9889 19.4106 26.5003 20.0741L26.5531 20.0446L30.3784 24.639C23.2324 24.639 22.7224 27.1902 19.5328 27.1902C17.3653 27.1902 16.3435 25.9141 16.3435 25.9141L24.624 21.1527ZM30.9132 16.7114C31.4362 16.7113 31.9475 16.8664 32.3824 17.1569C32.8173 17.4474 33.1563 17.8604 33.3565 18.3436C33.5567 18.8268 33.6091 19.3586 33.5071 19.8715C33.405 20.3845 33.1532 20.8557 32.7833 21.2256C32.4135 21.5954 31.9423 21.8473 31.4293 21.9493C30.9163 22.0513 30.3846 21.9989 29.9014 21.7987C29.4182 21.5986 29.0052 21.2596 28.7147 20.8247C28.4241 20.3897 28.2691 19.8784 28.2692 19.3554C28.2695 18.6543 28.5482 17.982 29.044 17.4862C29.5397 16.9904 30.212 16.7117 30.9132 16.7114ZM36.7576 28.9767C34.9718 28.2113 32.0379 27.1913 29.7414 27.1913C27.5715 27.1913 25.7843 27.8266 24.1272 28.5934C22.5957 29.2307 21.1916 29.7418 19.5331 29.7418C16.9816 29.7418 12.8985 28.2117 11.2407 27.5713V30.2529C13.4082 31.1432 16.8539 32.2923 19.5331 32.2923C21.7026 32.2923 23.3601 31.656 25.0196 30.8885C26.5507 30.2529 27.9545 29.7418 29.741 29.7418C32.0359 29.7418 35.3532 31.1432 36.7573 31.782L36.7576 28.9767Z" fill="#262424"/>
<path d="M6.5704 9.94205C6.9448 9.94205 7.2308 9.86925 7.4284 9.72365C7.6312 9.57285 7.7326 9.35705 7.7326 9.07625C7.7326 8.77465 7.6156 8.55365 7.3816 8.41325C7.1476 8.27285 6.8148 8.20265 6.3832 8.20265L5.7046 8.23385V5.34005H8.6218V6.35405H6.6562V7.32125L7.0072 7.29005C7.2828 7.30045 7.5324 7.34985 7.756 7.43825C7.9796 7.52145 8.1694 7.63845 8.3254 7.78925C8.4866 7.94005 8.6088 8.12205 8.692 8.33525C8.7804 8.54845 8.82461 8.78505 8.82461 9.04505C8.82461 9.35185 8.7674 9.62225 8.653 9.85625C8.5386 10.0902 8.38001 10.2852 8.1772 10.4412C7.9796 10.5972 7.743 10.7142 7.4674 10.7922C7.197 10.8702 6.9032 10.9092 6.586 10.9092C6.3312 10.9092 6.0868 10.8884 5.8528 10.8468C5.624 10.8052 5.4316 10.7506 5.2756 10.683L5.572 9.77825C5.702 9.82505 5.8424 9.86405 5.9932 9.89525C6.1492 9.92645 6.3416 9.94205 6.5704 9.94205ZM9.4082 8.06225C9.4082 7.13145 9.585 6.42685 9.9386 5.94845C10.2974 5.47005 10.8096 5.23085 11.4752 5.23085C12.1876 5.23085 12.7102 5.46745 13.043 5.94065C13.381 6.40865 13.55 7.11585 13.55 8.06225C13.55 8.98785 13.3706 9.69505 13.0118 10.1838C12.653 10.6674 12.1408 10.9092 11.4752 10.9092C11.1216 10.9092 10.8148 10.8442 10.5548 10.7142C10.2948 10.579 10.079 10.3892 9.9074 10.1448C9.741 9.89525 9.6162 9.59625 9.533 9.24785C9.4498 8.89425 9.4082 8.49905 9.4082 8.06225ZM10.5314 8.06225C10.5314 8.66025 10.6042 9.13345 10.7498 9.48185C10.8954 9.82505 11.1372 9.99665 11.4752 9.99665C11.8184 9.99665 12.0628 9.84065 12.2084 9.52865C12.354 9.21665 12.4268 8.72785 12.4268 8.06225C12.4268 7.76585 12.4086 7.50065 12.3722 7.26665C12.341 7.02745 12.289 6.82465 12.2162 6.65825C12.1434 6.49185 12.0446 6.36445 11.9198 6.27605C11.8002 6.18765 11.652 6.14345 11.4752 6.14345C11.1372 6.14345 10.8954 6.30725 10.7498 6.63485C10.6042 6.95725 10.5314 7.43305 10.5314 8.06225ZM19.8929 8.98265L19.9709 8.09345H19.8461L19.4795 8.79545V8.78765L18.6527 10.059H18.2705L17.3579 8.78765V8.79545L16.9913 8.09345H16.8821L16.9991 8.97485V10.8H16.0319V6.70505H17.1785L18.2003 8.23385V8.22605L18.4733 8.74865H18.5591L18.8321 8.21045V8.21825L19.7837 6.70505H20.9303V10.8H19.8929V8.98265Z" fill="#202020"/>
</svg>
