<svg width="48" height="48" viewBox="0 0 48 48" fill="none" xmlns="http://www.w3.org/2000/svg">
<rect width="48" height="48" fill="white"/>
<path d="M27.1065 10.7798C27.0773 11.2957 26.8957 11.7912 26.5847 12.2039C26.2737 12.6165 25.8473 12.9276 25.3595 13.0978C24.8717 13.2681 24.3443 13.2898 23.8441 13.1603C23.3439 13.0308 22.8934 12.7558 22.5495 12.3701C22.2056 11.9845 21.9839 11.5056 21.9123 10.9939C21.8406 10.4822 21.9224 9.96071 22.1472 9.49549C22.372 9.03027 22.7297 8.64218 23.1752 8.38032C23.6206 8.11845 24.1336 7.99458 24.6495 8.02436C25.3406 8.06427 25.9875 8.37691 26.4483 8.89357C26.909 9.41024 27.1457 10.0887 27.1065 10.7798ZM17.2566 12.5605L19.9998 13.4946C20.1718 13.5535 20.3134 13.6781 20.3936 13.8412C20.4737 14.0043 20.486 14.1925 20.4276 14.3646L18.2956 20.625C18.2362 20.7968 18.1114 20.9383 17.9483 21.0185C17.7852 21.0988 17.597 21.1115 17.4246 21.0538L14.6834 20.1197C14.5114 20.0604 14.3699 19.9356 14.2896 19.7725C14.2093 19.6093 14.1967 19.421 14.2546 19.2486L16.3882 12.9873C16.4474 12.8155 16.5721 12.6742 16.7351 12.594C16.8981 12.5139 17.0862 12.5015 17.2583 12.5595M20.5908 16.2256L20.6369 15.7322C20.7793 15.0667 21.1754 14.483 21.7413 14.1049C22.3071 13.7268 22.998 13.5842 23.6673 13.7073C24.154 13.7777 24.61 13.9868 24.9809 14.3095C25.3519 14.6323 25.622 15.0551 25.759 15.5273L28.2787 18.2204L31.3528 18.7508H31.3619C31.7557 18.808 32.1106 19.0192 32.3486 19.338C32.5865 19.6569 32.6881 20.0572 32.631 20.4509C32.5738 20.8447 32.3625 21.1995 32.0437 21.4375C31.7249 21.6755 31.3246 21.7771 30.9308 21.7199L27.6725 21.1601L27.6633 21.1584C27.4124 21.1219 27.175 21.0217 26.9738 20.8675C26.6971 20.7976 26.446 20.6503 26.25 20.4428L24.8974 18.9994L23.2254 23.4966L28.4819 36.3431C28.6618 36.6977 28.6936 37.1093 28.5701 37.4873C28.4466 37.8654 28.1781 38.1789 27.8235 38.3589L27.7917 38.3748C27.4376 38.5445 27.031 38.5682 26.6597 38.4409C26.2883 38.3135 25.9818 38.0453 25.8064 37.6941L20.8303 25.5357L20.794 25.5385L17.1614 37.0533C17.0594 37.4321 16.8126 37.7557 16.4742 37.9543C16.1359 38.1529 15.7331 38.2106 15.3526 38.115L15.3187 38.1066C14.9351 38.0005 14.6093 37.7465 14.4129 37.4003C14.2165 37.0542 14.1655 36.6442 14.2712 36.2605L20.5908 16.2256ZM33.8387 13.9904C33.9703 13.9909 34.0964 14.0433 34.1895 14.1364C34.2826 14.2295 34.335 14.3556 34.3355 14.4872V38.6539C34.3355 38.7856 34.2831 38.912 34.19 39.0052C34.0968 39.0984 33.9704 39.1507 33.8387 39.1507C33.7069 39.1507 33.5805 39.0984 33.4873 39.0052C33.3942 38.912 33.3418 38.7856 33.3418 38.6539V14.4872C33.3423 14.3556 33.3948 14.2295 33.4878 14.1364C33.5809 14.0433 33.707 13.9909 33.8387 13.9904ZM21.1574 16.1637L22.1734 24.0937Z" fill="#262424"/>
</svg>
