<svg width="48" height="48" viewBox="0 0 48 48" fill="none" xmlns="http://www.w3.org/2000/svg">
<rect width="48" height="48" fill="white"/>
<path d="M33.9962 40.0711H34.809C34.8734 40.0595 34.9397 40.0621 35.003 40.0789C35.0663 40.0957 35.1251 40.1261 35.1753 40.1681C35.2256 40.2101 35.266 40.2626 35.2937 40.3219C35.3215 40.3812 35.3358 40.4459 35.3358 40.5114C35.3358 40.5769 35.3215 40.6416 35.2937 40.7009C35.266 40.7602 35.2256 40.8127 35.1753 40.8547C35.1251 40.8967 35.0663 40.9271 35.003 40.9439C34.9397 40.9606 34.8734 40.9633 34.809 40.9517H33.9962C33.9318 40.9633 33.8655 40.9606 33.8022 40.9439C33.7389 40.9271 33.6801 40.8967 33.6299 40.8547C33.5796 40.8127 33.5392 40.7602 33.5115 40.7009C33.4837 40.6416 33.4694 40.5769 33.4694 40.5114C33.4694 40.4459 33.4837 40.3812 33.5115 40.3219C33.5392 40.2626 33.5796 40.2101 33.6299 40.1681C33.6801 40.1261 33.7389 40.0957 33.8022 40.0789C33.8655 40.0621 33.9318 40.0595 33.9962 40.0711ZM33.4655 33.8375V33.8101C33.469 33.6716 33.5265 33.54 33.6256 33.4433C33.7248 33.3466 33.8578 33.2925 33.9964 33.2925C34.1349 33.2925 34.2679 33.3466 34.3671 33.4433C34.4663 33.54 34.5237 33.6716 34.5272 33.8101V33.8375C34.5237 33.976 34.4663 34.1076 34.3671 34.2043C34.2679 34.301 34.1349 34.3551 33.9964 34.3551C33.8578 34.3551 33.7248 34.301 33.6256 34.2043C33.5265 34.1076 33.469 33.976 33.4655 33.8375ZM33.4655 35.5326V35.5055C33.4637 35.4346 33.4761 35.3641 33.502 35.2982C33.5279 35.2322 33.5667 35.1721 33.6161 35.1213C33.6656 35.0706 33.7248 35.0303 33.7901 35.0027C33.8553 34.9752 33.9255 34.961 33.9964 34.961C34.0672 34.961 34.1374 34.9752 34.2027 35.0027C34.268 35.0303 34.3271 35.0706 34.3766 35.1213C34.426 35.1721 34.4649 35.2322 34.4907 35.2982C34.5166 35.3641 34.529 35.4346 34.5272 35.5055V35.5326C34.5237 35.671 34.4663 35.8027 34.3671 35.8994C34.2679 35.9961 34.1349 36.0502 33.9964 36.0502C33.8578 36.0502 33.7248 35.9961 33.6256 35.8994C33.5265 35.8027 33.469 35.671 33.4655 35.5326ZM33.4655 37.2259V37.1988C33.469 37.0604 33.5265 36.9287 33.6256 36.832C33.7248 36.7353 33.8578 36.6812 33.9964 36.6812C34.1349 36.6812 34.2679 36.7353 34.3671 36.832C34.4663 36.9287 34.5237 37.0604 34.5272 37.1988V37.2259C34.5237 37.3644 34.4663 37.496 34.3671 37.5927C34.2679 37.6894 34.1349 37.7436 33.9964 37.7436C33.8578 37.7436 33.7248 37.6894 33.6256 37.5927C33.5265 37.496 33.469 37.3644 33.4655 37.2259ZM33.4655 38.9193V38.8925C33.469 38.7541 33.5265 38.6224 33.6256 38.5257C33.7248 38.429 33.8578 38.3749 33.9964 38.3749C34.1349 38.3749 34.2679 38.429 34.3671 38.5257C34.4663 38.6224 34.5237 38.7541 34.5272 38.8925V38.9193C34.5237 39.0578 34.4663 39.1894 34.3671 39.2861C34.2679 39.3828 34.1349 39.4369 33.9964 39.4369C33.8578 39.4369 33.7248 39.3828 33.6256 39.2861C33.5265 39.1894 33.469 39.0578 33.4655 38.9193ZM33.9962 31.7733H34.809C34.8737 31.7609 34.9402 31.763 35.004 31.7794C35.0678 31.7957 35.1271 31.8259 35.1779 31.8679C35.2286 31.9098 35.2694 31.9624 35.2975 32.022C35.3255 32.0816 35.34 32.1466 35.34 32.2124C35.34 32.2782 35.3255 32.3432 35.2975 32.4028C35.2694 32.4623 35.2286 32.515 35.1779 32.5569C35.1271 32.5989 35.0678 32.6291 35.004 32.6454C34.9402 32.6618 34.8737 32.6639 34.809 32.6515H33.9962C33.9317 32.6636 33.8653 32.6613 33.8018 32.6448C33.7383 32.6283 33.6792 32.598 33.6287 32.5561C33.5782 32.5142 33.5376 32.4616 33.5097 32.4022C33.4818 32.3428 33.4673 32.278 33.4673 32.2124C33.4673 32.1468 33.4818 32.082 33.5097 32.0226C33.5376 31.9632 33.5782 31.9106 33.6287 31.8687C33.6792 31.8268 33.7383 31.7965 33.8018 31.78C33.8653 31.7635 33.9317 31.7612 33.9962 31.7733ZM12.7852 36.701H20.6488V40.9473H12.7852V36.701ZM16.3388 39.9468H32.2476V40.9483H16.3388V39.9468ZM25.6185 27.4217C25.1881 27.4217 24.7749 27.2527 24.4679 26.9512C24.1608 26.6496 23.9844 26.2396 23.9766 25.8093L23.6528 16.4091C23.6434 15.9731 23.8076 15.5513 24.1093 15.2363C24.4109 14.9214 24.8253 14.7392 25.2613 14.7298C25.6973 14.7204 26.1192 14.8846 26.4341 15.1863C26.749 15.4879 26.9312 15.9023 26.9406 16.3383L27.2641 25.7412C27.2741 26.1775 27.1103 26.5999 26.8089 26.9155C26.5075 27.2311 26.093 27.414 25.6567 27.4241L25.6185 27.4217ZM16.2626 36.0816C15.8323 36.0817 15.4191 35.9128 15.1121 35.6112C14.8051 35.3096 14.6289 34.8994 14.6214 34.4691L14.297 21.3253C14.2876 20.8893 14.4519 20.4674 14.7536 20.1525C15.0553 19.8376 15.4697 19.6555 15.9057 19.6461C16.3417 19.6368 16.7635 19.801 17.0784 20.1027C17.3933 20.4044 17.5755 20.8188 17.5848 21.2548L17.9069 34.3987C17.917 34.8349 17.7534 35.2573 17.4521 35.5729C17.1508 35.8884 16.7364 36.0714 16.3002 36.0816H16.2626ZM14.8893 23.019C14.6491 22.7435 14.4664 22.4226 14.3523 22.0754C14.2381 21.7281 14.1947 21.3615 14.2246 20.9972C14.2546 20.6329 14.3572 20.2783 14.5265 19.9543C14.6958 19.6303 14.9284 19.3436 15.2104 19.111L22.1125 13.6767C22.7122 13.2319 23.4617 13.0385 24.2017 13.1377C24.9417 13.237 25.6137 13.621 26.075 14.2081C26.3155 14.4832 26.4983 14.8038 26.6127 15.1508C26.7271 15.4979 26.7707 15.8643 26.7409 16.2285C26.7111 16.5927 26.6086 16.9473 26.4393 17.2711C26.2701 17.595 26.0376 17.8816 25.7556 18.114L24.5063 19.0982H24.2993L18.8525 23.3898C18.3737 23.7511 17.7922 23.9501 17.1925 23.958C16.5928 23.9658 16.0063 23.7821 15.5182 23.4335V23.5957C15.2827 23.4342 15.071 23.2404 14.8893 23.02M22.695 14.6362L16.9877 21.2931L22.695 14.6362ZM30.3653 13.9415C29.958 14.2697 29.4625 14.4697 28.9415 14.5162C28.4205 14.5626 27.8975 14.4535 27.4385 14.2026C26.9796 13.9517 26.6054 13.5703 26.3632 13.1067C26.1211 12.643 26.022 12.118 26.0784 11.598C26.1347 11.078 26.3441 10.5864 26.68 10.1854C27.0158 9.7844 27.4631 9.49207 27.9652 9.34537C28.4672 9.19867 29.0015 9.20419 29.5004 9.36125C29.9994 9.5183 30.4405 9.81983 30.768 10.2277C31.2067 10.7739 31.4108 11.4719 31.3353 12.1684C31.2598 12.865 30.9109 13.5031 30.3653 13.9426" fill="#262424"/>
</svg>
