<svg width="48" height="48" viewBox="0 0 48 48" fill="none" xmlns="http://www.w3.org/2000/svg">
<rect width="48" height="48" fill="white"/>
<path d="M26.1272 15.4096C26.1299 15.8306 26.0077 16.2429 25.776 16.5944C25.5444 16.9459 25.2138 17.2208 24.8259 17.3844C24.438 17.548 24.0104 17.5929 23.597 17.5134C23.1836 17.434 22.803 17.2337 22.5034 16.938C22.2038 16.6423 21.9987 16.2644 21.9138 15.8521C21.829 15.4398 21.8683 15.0116 22.0268 14.6216C22.1854 14.2316 22.4559 13.8974 22.8044 13.6612C23.1528 13.425 23.5635 13.2975 23.9844 13.2946C24.5489 13.2915 25.0915 13.5124 25.4933 13.9089C25.895 14.3055 26.123 14.8452 26.1272 15.4096ZM25.8675 39.2586C25.5435 39.2584 25.2329 39.1297 25.0037 38.9008C24.7746 38.6718 24.6456 38.3613 24.6452 38.0373V28.5464H23.3471V38.036C23.3471 38.3601 23.2183 38.6709 22.9892 38.9C22.76 39.1292 22.4492 39.2579 22.1251 39.2579C21.8011 39.2579 21.4902 39.1292 21.2611 38.9C21.0319 38.6709 20.9032 38.3601 20.9032 38.036V27.3417C20.9031 27.2544 20.9124 27.1673 20.931 27.082C20.8818 26.9086 20.8575 26.7291 20.8588 26.5489L20.8873 20.0196C20.906 19.4654 21.1402 18.9404 21.54 18.5562C21.9399 18.1721 22.4739 17.9591 23.0284 17.9625H25.35V17.9835C25.8376 18.0368 26.2889 18.2665 26.6189 18.6295C26.9489 18.9924 27.1348 19.4635 27.1415 19.9539L27.1138 26.4802C27.1135 26.6549 27.0892 26.8288 27.0416 26.997C27.0748 27.1089 27.0915 27.225 27.0911 27.3417V38.036C27.0906 38.3599 26.9617 38.6704 26.7325 38.8994C26.5034 39.1284 26.1927 39.2571 25.8688 39.2572M27.7579 10.4627V10.4417C27.7579 10.1176 27.8867 9.80678 28.1158 9.57762C28.345 9.34847 28.6558 9.21973 28.9799 9.21973C29.3039 9.21973 29.6147 9.34847 29.8439 9.57762C30.073 9.80678 30.2018 10.1176 30.2018 10.4417V10.7024H27.7566L27.7579 10.4627ZM17.9808 10.4627V10.4417C17.9808 10.1177 18.1095 9.80695 18.3386 9.57786C18.5677 9.34877 18.8784 9.22007 19.2024 9.22007C19.5264 9.22007 19.8371 9.34877 20.0662 9.57786C20.2953 9.80695 20.424 10.1177 20.424 10.4417V10.7024H17.9794L17.9808 10.4627ZM27.7566 12.5208H30.2004V20.064C30.2004 20.3881 30.0717 20.6989 29.8425 20.928C29.6134 21.1572 29.3026 21.2859 28.9785 21.2859C28.6544 21.2859 28.3436 21.1572 28.1145 20.928C27.8853 20.6989 27.7566 20.3881 27.7566 20.064V12.5208ZM19.2014 21.2863C18.8777 21.2856 18.5675 21.1565 18.339 20.9273C18.1104 20.6982 17.9821 20.3877 17.9822 20.064V12.5208H20.4253V20.064C20.4252 20.3882 20.2963 20.699 20.067 20.9282C19.8378 21.1574 19.5269 21.2862 19.2027 21.2863M32.0472 12.135H16.3023C16.1877 12.1105 16.085 12.0474 16.0113 11.9563C15.9377 11.8651 15.8975 11.7515 15.8975 11.6343C15.8975 11.5171 15.9377 11.4035 16.0113 11.3123C16.085 11.2212 16.1877 11.1581 16.3023 11.1336H32.0472C32.1618 11.1581 32.2645 11.2212 32.3382 11.3123C32.4119 11.4035 32.4521 11.5171 32.4521 11.6343C32.4521 11.7515 32.4119 11.8651 32.3382 11.9563C32.2645 12.0474 32.1618 12.1105 32.0472 12.135Z" fill="#262424"/>
</svg>
