<svg width="48" height="48" viewBox="0 0 48 48" fill="none" xmlns="http://www.w3.org/2000/svg">
<rect width="48" height="48" fill="white"/>
<path d="M9.48272 40.2187C9.37712 40.3471 9.24638 40.4526 9.09852 40.5286C8.95066 40.6047 8.78881 40.6496 8.62293 40.6608C8.45705 40.672 8.29063 40.6491 8.13392 40.5936C7.9772 40.5381 7.83349 40.4511 7.71162 40.338C7.58976 40.2249 7.49231 40.0881 7.42528 39.936C7.35824 39.7838 7.32303 39.6196 7.32181 39.4533C7.32059 39.2871 7.35339 39.1223 7.41818 38.9692C7.48298 38.8161 7.5784 38.6778 7.69859 38.563L12.9314 33.5625L12.9365 33.5574C13.0423 33.4296 13.1731 33.3247 13.3208 33.2493C13.4686 33.1738 13.6302 33.1292 13.7957 33.1183C13.9613 33.1075 14.1273 33.1305 14.2837 33.186C14.44 33.2416 14.5834 33.3284 14.705 33.4413C14.8266 33.5541 14.9239 33.6906 14.9909 33.8424C15.0579 33.9942 15.0933 34.158 15.0948 34.3239C15.0963 34.4899 15.0639 34.6543 14.9996 34.8073C14.9353 34.9602 14.8405 35.0985 14.721 35.2135L9.48577 40.2133L9.48272 40.2187Z" fill="#262424"/>
<path d="M19.8497 38.5007C19.8892 38.6623 19.8952 38.8303 19.8674 38.9942C19.8395 39.1582 19.7784 39.3148 19.6878 39.4543C19.5972 39.5938 19.479 39.7133 19.3405 39.8054C19.2019 39.8975 19.046 39.9603 18.8823 39.9899C18.7187 40.0195 18.5506 40.0153 18.3886 39.9775C18.2266 39.9398 18.0741 39.8692 17.9403 39.7703C17.8066 39.6714 17.6945 39.5462 17.611 39.4023C17.5275 39.2585 17.4743 39.099 17.4547 38.9339L16.5971 31.7452V31.7381C16.5584 31.5767 16.553 31.4092 16.5813 31.2456C16.6097 31.0821 16.671 30.9261 16.7618 30.7871C16.8525 30.6482 16.9706 30.5292 17.1089 30.4375C17.2472 30.3458 17.4028 30.2832 17.5661 30.2538C17.7294 30.2243 17.897 30.2285 18.0587 30.266C18.2203 30.3036 18.3726 30.3738 18.5062 30.4722C18.6397 30.5707 18.7518 30.6954 18.8355 30.8387C18.9192 30.982 18.9728 31.1409 18.9929 31.3056L19.8467 38.4939L19.8497 38.5007Z" fill="#262424"/>
<path d="M16.8805 25.0618C16.7933 24.9238 16.7348 24.7696 16.7084 24.6084C16.682 24.4472 16.6883 24.2824 16.7269 24.1238C16.7655 23.9651 16.8356 23.8158 16.9331 23.6848C17.0306 23.5538 17.1535 23.4437 17.2944 23.3612C17.4353 23.2786 17.5913 23.2252 17.7533 23.2042C17.9152 23.1832 18.0797 23.195 18.237 23.2389C18.3943 23.2827 18.5412 23.3578 18.6689 23.4596C18.7966 23.5614 18.9025 23.6879 18.9803 23.8314L23.1531 29.367L23.1568 29.3738C23.2498 29.5119 23.3135 29.6677 23.344 29.8313C23.3744 29.995 23.3711 30.1632 23.334 30.3256C23.297 30.4879 23.2272 30.641 23.1287 30.7753C23.0303 30.9096 22.9054 31.0223 22.7617 31.1065C22.6181 31.1907 22.4587 31.2445 22.2934 31.2647C22.1281 31.285 21.9605 31.2711 21.8007 31.2241C21.641 31.177 21.4926 31.0977 21.3647 30.9911C21.2368 30.8845 21.1321 30.7528 21.057 30.6042L16.8843 25.0679L16.8805 25.0618Z" fill="#262424"/>
<path d="M19.9784 24.4055C19.874 24.2792 19.7962 24.1332 19.7496 23.9761C19.7029 23.8191 19.6885 23.6542 19.7071 23.4915C19.7257 23.3287 19.7769 23.1713 19.8578 23.0289C19.9386 22.8864 20.0474 22.7616 20.1776 22.6622C20.3077 22.5627 20.4566 22.4905 20.6154 22.45C20.7741 22.4094 20.9394 22.4013 21.1013 22.4262C21.2633 22.451 21.4185 22.5083 21.5578 22.5945C21.6971 22.6808 21.8175 22.7943 21.9119 22.9282L26.1284 27.2872L26.1328 27.2933C26.2403 27.4193 26.3211 27.5659 26.3701 27.7241C26.4191 27.8824 26.4354 28.0489 26.4179 28.2137C26.4004 28.3784 26.3495 28.5378 26.2684 28.6822C26.1872 28.8266 26.0775 28.953 25.9459 29.0536C25.8143 29.1542 25.6636 29.2269 25.5029 29.2673C25.3423 29.3077 25.1751 29.315 25.0115 29.2886C24.848 29.2623 24.6915 29.2029 24.5517 29.114C24.4119 29.0252 24.2916 28.9088 24.1983 28.772L19.9815 24.4112L19.9784 24.4055Z" fill="#262424"/>
<path d="M17.0822 18.9995C17.094 18.8358 17.1388 18.6761 17.2139 18.53C17.289 18.384 17.3929 18.2547 17.5193 18.1498C17.6456 18.045 17.7919 17.9668 17.9493 17.92C18.1067 17.8731 18.2719 17.8586 18.4351 17.8773C18.5982 17.896 18.7559 17.9474 18.8986 18.0286C19.0413 18.1098 19.1662 18.2191 19.2656 18.3498C19.365 18.4804 19.437 18.6299 19.4771 18.7891C19.5173 18.9483 19.5248 19.114 19.4993 19.2762L19.035 24.2232V24.2307C19.0253 24.3962 18.982 24.5581 18.9076 24.7063C18.8332 24.8545 18.7294 24.986 18.6025 25.0927C18.4755 25.1994 18.3282 25.2791 18.1694 25.327C18.0106 25.3748 17.8437 25.3897 17.679 25.3708C17.5142 25.3519 17.355 25.2996 17.2112 25.2171C17.0673 25.1346 16.9418 25.0236 16.8424 24.8909C16.7429 24.7582 16.6715 24.6066 16.6326 24.4454C16.5937 24.2842 16.5881 24.1168 16.6162 23.9533L17.0809 19.0063L17.0822 18.9995Z" fill="#262424"/>
<path d="M17.7198 19.7287C17.6405 19.5819 17.5921 19.4204 17.5778 19.2542C17.5634 19.088 17.5833 18.9206 17.6362 18.7624C17.6891 18.6042 17.774 18.4585 17.8855 18.3344C17.997 18.2103 18.1327 18.1104 18.2844 18.0408C18.436 17.9713 18.6003 17.9337 18.7671 17.9302C18.9339 17.9267 19.0997 17.9575 19.2541 18.0207C19.4085 18.0839 19.5483 18.178 19.6648 18.2974C19.7814 18.4168 19.8722 18.5588 19.9316 18.7147L22.0947 23.1879L22.0978 23.195C22.1743 23.3415 22.2202 23.5021 22.2327 23.667C22.2453 23.8318 22.2241 23.9975 22.1706 24.1539C22.1171 24.3103 22.0323 24.4542 21.9215 24.5769C21.8106 24.6995 21.6759 24.7983 21.5257 24.8673C21.3754 24.9363 21.2127 24.974 21.0475 24.9781C20.8822 24.9822 20.7178 24.9527 20.5643 24.8913C20.4108 24.8299 20.2714 24.738 20.1545 24.621C20.0377 24.5041 19.9458 24.3646 19.8846 24.211L17.7225 19.7371L17.7198 19.7287Z" fill="#262424"/>
<path d="M17.1845 18.4124C17.4229 18.091 17.7785 17.8768 18.174 17.8165C18.5695 17.7561 18.9728 17.8544 19.2962 18.09C19.9735 18.5871 20.6102 19.9005 20.1168 20.5761L14.0247 28.475L13.178 28.9586C12.6846 29.6248 11.6835 28.6856 11.0105 28.1919C10.6863 27.9543 10.4695 27.5978 10.4077 27.2006C10.3459 26.8034 10.4442 26.398 10.681 26.0731L17.1811 18.4191L17.1845 18.4124Z" fill="#262424"/>
<path d="M15.0373 33.6894C15.1067 33.8406 15.1445 34.0043 15.1483 34.1706C15.1521 34.3369 15.1219 34.5022 15.0594 34.6564C14.997 34.8105 14.9036 34.9503 14.7852 35.067C14.6667 35.1837 14.5256 35.275 14.3705 35.3352C14.2155 35.3953 14.0497 35.4232 13.8835 35.4169C13.7173 35.4106 13.5541 35.3704 13.404 35.2987C13.2539 35.2271 13.1201 35.1254 13.0108 35.0001C12.9014 34.8748 12.8188 34.7284 12.7682 34.57L10.56 27.6743L10.5577 27.6675C10.4882 27.5164 10.4504 27.3526 10.4466 27.1864C10.4428 27.0201 10.4731 26.8548 10.5355 26.7006C10.598 26.5465 10.6913 26.4067 10.8098 26.29C10.9283 26.1732 11.0694 26.082 11.2244 26.0218C11.3795 25.9616 11.5452 25.9338 11.7114 25.9401C11.8776 25.9463 12.0408 25.9865 12.1909 26.0582C12.341 26.1299 12.4748 26.2315 12.5842 26.3568C12.6935 26.4822 12.7761 26.6285 12.8268 26.787L15.0329 33.6817L15.0373 33.6894Z" fill="#262424"/>
<path d="M18.2893 30.2662C18.437 30.3431 18.5675 30.4494 18.6725 30.5785C18.7776 30.7077 18.8551 30.857 18.9003 31.0173C18.9454 31.1776 18.9573 31.3454 18.9351 31.5105C18.9129 31.6755 18.8571 31.8342 18.7712 31.9769C18.6853 32.1195 18.5711 32.2431 18.4356 32.3399C18.3001 32.4367 18.1463 32.5047 17.9835 32.5398C17.8207 32.5749 17.6525 32.5762 17.4891 32.5438C17.3258 32.5113 17.1709 32.4457 17.0338 32.3511L11.0661 28.2515L11.0597 28.2474C10.9139 28.1694 10.7855 28.0626 10.6822 27.9334C10.579 27.8042 10.5032 27.6554 10.4593 27.496C10.4154 27.3366 10.4044 27.1699 10.4269 27.0061C10.4495 26.8423 10.5051 26.6847 10.5904 26.5431C10.6758 26.4015 10.789 26.2787 10.9233 26.1822C11.0576 26.0857 11.2101 26.0176 11.3716 25.9819C11.533 25.9462 11.7 25.9437 11.8625 25.9746C12.0249 26.0055 12.1794 26.0691 12.3165 26.1615L18.2819 30.2625L18.2893 30.2662Z" fill="#262424"/>
<path d="M23.1207 18.4959C22.6896 18.6931 22.2097 18.758 21.7417 18.6824C21.2736 18.6067 20.8386 18.394 20.4915 18.071C20.1444 17.7481 19.901 17.3294 19.7919 16.8681C19.6828 16.4067 19.713 15.9234 19.8786 15.4792C20.0443 15.035 20.338 14.6499 20.7225 14.3727C21.1071 14.0954 21.5653 13.9385 22.0391 13.9217C22.5128 13.9049 22.981 14.029 23.3842 14.2783C23.7874 14.5276 24.1077 14.8909 24.3044 15.3222C24.5679 15.9001 24.5913 16.559 24.3693 17.154C24.1474 17.7491 23.6983 18.2318 23.1207 18.4959Z" fill="#262424"/>
<path d="M37.5918 7.65381C37.7052 7.53223 37.8422 7.43512 37.9945 7.36845C38.1468 7.30178 38.3111 7.26696 38.4774 7.26613C38.6436 7.2653 38.8083 7.29847 38.9612 7.36362C39.1142 7.42876 39.2522 7.5245 39.3668 7.64494C39.4814 7.76538 39.5701 7.90799 39.6276 8.06399C39.685 8.21999 39.71 8.3861 39.7009 8.55209C39.6918 8.71809 39.6488 8.88047 39.5746 9.02925C39.5005 9.17804 39.3967 9.31008 39.2696 9.41727L33.7309 14.0811L33.7259 14.0862C33.6122 14.2068 33.4751 14.3029 33.323 14.3687C33.171 14.4345 33.0071 14.4686 32.8414 14.4689C32.6757 14.4693 32.5116 14.4358 32.3593 14.3707C32.2069 14.3055 32.0695 14.2099 31.9553 14.0899C31.8411 13.9698 31.7526 13.8277 31.6952 13.6723C31.6378 13.5168 31.6126 13.3513 31.6213 13.1858C31.63 13.0204 31.6723 12.8584 31.7457 12.7098C31.8191 12.5613 31.922 12.4292 32.0481 12.3217L37.5847 7.65787L37.5918 7.65381Z" fill="#262424"/>
<path d="M26.0989 9.85994C26.0673 9.69691 26.0694 9.52913 26.1049 9.36691C26.1405 9.20469 26.2088 9.05144 26.3057 8.91657C26.4026 8.78169 26.526 8.66803 26.6684 8.58256C26.8108 8.49709 26.9691 8.44161 27.1337 8.41952C27.2983 8.39744 27.4657 8.40921 27.6256 8.45411C27.7855 8.49902 27.9345 8.57612 28.0635 8.68068C28.1925 8.78524 28.2988 8.91505 28.3759 9.06216C28.453 9.20927 28.4991 9.37057 28.5116 9.53617L29.041 16.7567V16.7638C29.0722 16.9267 29.0699 17.0943 29.0341 17.2563C28.9983 17.4183 28.9299 17.5712 28.8329 17.7059C28.736 17.8405 28.6126 17.9539 28.4703 18.0392C28.328 18.1244 28.1698 18.1798 28.0054 18.2018C27.841 18.2238 27.6738 18.212 27.5141 18.1672C27.3543 18.1224 27.2055 18.0454 27.0765 17.941C26.9476 17.8367 26.8413 17.7071 26.7641 17.5602C26.687 17.4133 26.6407 17.2523 26.6279 17.0869L26.0996 9.86706L26.0989 9.85994Z" fill="#262424"/>
<path d="M36.6551 31.129C36.5406 31.2503 36.4024 31.3468 36.2491 31.4126C36.0958 31.4783 35.9306 31.5119 35.7638 31.5112C35.597 31.5106 35.4322 31.4757 35.2794 31.4088C35.1266 31.3419 34.9892 31.2443 34.8756 31.1222C34.762 31 34.6747 30.8559 34.6191 30.6986C34.5635 30.5414 34.5407 30.3744 34.5522 30.208C34.5637 30.0416 34.6092 29.8793 34.686 29.7312C34.7627 29.5831 34.869 29.4523 34.9983 29.3469L39.4965 24.0714L39.5023 24.0664C39.6174 23.9474 39.7556 23.8531 39.9084 23.7893C40.0612 23.7255 40.2253 23.6934 40.3909 23.6951C40.5565 23.6968 40.7199 23.7322 40.8714 23.7992C41.0228 23.8661 41.159 23.9632 41.2717 24.0845C41.3844 24.2059 41.4712 24.3489 41.5268 24.5048C41.5824 24.6608 41.6056 24.8264 41.5951 24.9917C41.5846 25.1569 41.5406 25.3183 41.4657 25.4659C41.3907 25.6136 41.2865 25.7444 41.1594 25.8505L36.6601 31.124L36.6551 31.129Z" fill="#262424"/>
<path d="M27.5734 24.9745C27.7125 24.8823 27.8691 24.8197 28.0334 24.7905C28.1977 24.7613 28.3662 24.7662 28.5286 24.8048C28.6909 24.8434 28.8436 24.9149 28.9772 25.0149C29.1108 25.1149 29.2225 25.2412 29.3053 25.3861C29.3881 25.531 29.4402 25.6914 29.4585 25.8572C29.4768 26.0231 29.4609 26.191 29.4117 26.3504C29.3625 26.5099 29.2811 26.6576 29.1725 26.7843C29.0639 26.911 28.9304 27.0141 28.7804 27.0871L23.1981 31.1993L23.1913 31.203C23.0521 31.2928 22.896 31.3532 22.7327 31.3806C22.5693 31.4081 22.4021 31.4019 22.2412 31.3626C22.0803 31.3232 21.9291 31.2515 21.7968 31.1518C21.6645 31.0521 21.554 30.9265 21.4719 30.7826C21.3898 30.6388 21.3378 30.4797 21.3192 30.3151C21.3006 30.1505 21.3158 29.9839 21.3637 29.8253C21.4117 29.6668 21.4914 29.5196 21.5981 29.3929C21.7048 29.2662 21.8362 29.1626 21.9843 29.0883L27.5669 24.9779L27.5734 24.9745Z" fill="#262424"/>
<path d="M30.693 32.2463C30.5285 32.2746 30.36 32.2689 30.1978 32.2295C30.0356 32.1901 29.8833 32.1178 29.7502 32.0171C29.6171 31.9163 29.5061 31.7894 29.424 31.644C29.342 31.4987 29.2907 31.3381 29.2733 31.1721C29.2558 31.0061 29.2727 30.8383 29.3227 30.6791C29.3728 30.5199 29.455 30.3726 29.5643 30.2465C29.6736 30.1203 29.8076 30.018 29.9581 29.9457C30.1085 29.8735 30.2722 29.8329 30.439 29.8265L35.369 29.2064H35.3768C35.5406 29.1796 35.7082 29.1866 35.8692 29.2269C36.0303 29.2672 36.1814 29.34 36.3133 29.4407C36.4452 29.5415 36.5552 29.6682 36.6364 29.8129C36.7177 29.9577 36.7685 30.1175 36.7858 30.2826C36.8031 30.4477 36.7865 30.6146 36.737 30.7731C36.6876 30.9315 36.6062 31.0782 36.4981 31.2041C36.3899 31.33 36.2571 31.4325 36.108 31.5054C35.9588 31.5782 35.7963 31.6197 35.6305 31.6275L30.7004 32.2456L30.693 32.2463Z" fill="#262424"/>
<path d="M31.3354 30.4467C31.4025 30.5995 31.4375 30.7645 31.4383 30.9314C31.439 31.0983 31.4054 31.2636 31.3397 31.417C31.274 31.5704 31.1774 31.7087 31.0561 31.8233C30.9347 31.9379 30.7911 32.0263 30.6342 32.0831C30.4772 32.14 30.3103 32.164 30.1437 32.1536C29.9771 32.1433 29.8144 32.0989 29.6657 32.0232C29.517 31.9474 29.3854 31.8419 29.2791 31.7132C29.1728 31.5846 29.094 31.4354 29.0477 31.2751L27.2599 26.6397L27.2575 26.6322C27.1922 26.4796 27.1588 26.3153 27.1592 26.1494C27.1596 25.9834 27.1939 25.8193 27.26 25.6671C27.3261 25.5148 27.4226 25.3777 27.5435 25.2641C27.6644 25.1504 27.8073 25.0627 27.9634 25.0062C28.1194 24.9497 28.2853 24.9256 28.451 24.9355C28.6167 24.9454 28.7786 24.989 28.9268 25.0636C29.075 25.1383 29.2064 25.2424 29.313 25.3696C29.4196 25.4968 29.4991 25.6445 29.5466 25.8035L31.3331 30.4402L31.3354 30.4467Z" fill="#262424"/>
<path d="M32.4097 30.4806C32.2993 30.8648 32.0417 31.19 31.6929 31.3854C31.3441 31.5808 30.9323 31.6306 30.547 31.524C29.7389 31.2964 28.6805 30.2902 28.9058 29.4842L31.8356 19.9496L32.4598 19.1987C32.6884 18.4018 33.9554 18.9278 34.7587 19.1557C35.1457 19.2642 35.4739 19.5218 35.6713 19.8719C35.8686 20.2221 35.919 20.6362 35.8113 21.0235L32.412 30.4731L32.4097 30.4806Z" fill="#262424"/>
<path d="M31.7057 13.8557C31.6458 13.7005 31.6184 13.5347 31.625 13.3685C31.6316 13.2022 31.6722 13.0391 31.7442 12.8892C31.8162 12.7392 31.9181 12.6056 32.0437 12.4965C32.1693 12.3874 32.3159 12.3052 32.4744 12.2549C32.633 12.2046 32.8002 12.1872 32.9657 12.2039C33.1312 12.2206 33.2915 12.271 33.4368 12.352C33.5821 12.433 33.7093 12.5428 33.8106 12.6748C33.9118 12.8068 33.985 12.9581 34.0256 13.1194L35.7989 20.1381L35.8009 20.1452C35.8593 20.3001 35.8855 20.4653 35.878 20.6307C35.8704 20.796 35.8293 20.9582 35.757 21.1071C35.6848 21.2561 35.583 21.3888 35.4578 21.4971C35.3326 21.6054 35.1866 21.6871 35.0288 21.7372C34.871 21.7873 34.7047 21.8047 34.5399 21.7884C34.3752 21.7721 34.2155 21.7224 34.0706 21.6424C33.9256 21.5623 33.7985 21.4536 33.697 21.3228C33.5955 21.1921 33.5216 21.042 33.48 20.8818L31.7081 13.8628L31.7057 13.8557Z" fill="#262424"/>
<path d="M27.5172 18.2708C27.3602 18.2167 27.2159 18.1311 27.0932 18.0192C26.9704 17.9073 26.8719 17.7715 26.8035 17.6202C26.7351 17.4689 26.6983 17.3051 26.6955 17.1391C26.6926 16.973 26.7237 16.8082 26.7869 16.6546C26.85 16.501 26.9439 16.3619 27.0627 16.2459C27.1815 16.1298 27.3228 16.0393 27.4778 15.9798C27.6329 15.9203 27.7985 15.8932 27.9644 15.8999C28.1303 15.9067 28.2931 15.9474 28.4428 16.0193L34.9616 19.169L34.968 19.172C35.1244 19.2267 35.268 19.3126 35.39 19.4246C35.512 19.5366 35.61 19.6723 35.6778 19.8234C35.7457 19.9745 35.7821 20.1379 35.7847 20.3035C35.7873 20.4691 35.7562 20.6335 35.6932 20.7867C35.6302 20.9399 35.5366 21.0787 35.4182 21.1945C35.2998 21.3103 35.159 21.4008 35.0045 21.4604C34.8499 21.5201 34.6849 21.5476 34.5193 21.5413C34.3538 21.535 34.1913 21.495 34.0417 21.4238L27.5243 18.2742L27.5172 18.2708Z" fill="#262424"/>
<path d="M26.3162 31.9622C26.7245 31.7216 27.1951 31.6074 27.6683 31.6342C28.1416 31.661 28.5962 31.8276 28.9748 32.1128C29.3534 32.3981 29.6388 32.7892 29.795 33.2367C29.9513 33.6842 29.9713 34.168 29.8525 34.6269C29.7337 35.0858 29.4815 35.4991 29.1278 35.8146C28.7741 36.1301 28.3347 36.3336 27.8653 36.3994C27.3959 36.4652 26.9175 36.3902 26.4907 36.1841C26.0639 35.9779 25.7078 35.6498 25.4675 35.2413C25.1455 34.6938 25.054 34.0409 25.2132 33.4261C25.3723 32.8112 25.769 32.2847 26.3162 31.9622Z" fill="#262424"/>
</svg>
