<svg width="48" height="48" viewBox="0 0 48 48" fill="none" xmlns="http://www.w3.org/2000/svg">
<rect width="48" height="48" fill="white"/>
<path d="M8.41133 20.7343H19.1682C19.3561 20.7372 19.5427 20.7027 19.7171 20.6329C19.8915 20.563 20.0502 20.4591 20.1841 20.3273C20.318 20.1955 20.4243 20.0383 20.4969 19.865C20.5694 19.6917 20.6068 19.5057 20.6068 19.3178C20.6068 19.1299 20.5694 18.9439 20.4969 18.7706C20.4243 18.5973 20.318 18.4402 20.1841 18.3084C20.0502 18.1766 19.8915 18.0727 19.7171 18.0028C19.5427 17.9329 19.3561 17.8984 19.1682 17.9013H8.41133C8.03945 17.9071 7.68474 18.0589 7.42379 18.3239C7.16284 18.5889 7.01657 18.9459 7.01657 19.3178C7.01657 19.6898 7.16284 20.0468 7.42379 20.3118C7.68474 20.5768 8.03945 20.7286 8.41133 20.7343ZM8.41133 24.9847H16.3363C16.7081 24.9789 17.0627 24.8272 17.3236 24.5622C17.5845 24.2973 17.7307 23.9403 17.7307 23.5685C17.7307 23.1967 17.5845 22.8397 17.3236 22.5748C17.0627 22.3098 16.7081 22.1581 16.3363 22.1523H8.41133C8.03954 22.1581 7.68492 22.3098 7.42403 22.5748C7.16314 22.8397 7.01691 23.1967 7.01691 23.5685C7.01691 23.9403 7.16314 24.2973 7.42403 24.5622C7.68492 24.8272 8.03954 24.9789 8.41133 24.9847ZM14.9182 27.8187C14.9183 27.6327 14.8818 27.4485 14.8107 27.2767C14.7396 27.1048 14.6353 26.9486 14.5039 26.8171C14.3724 26.6855 14.2163 26.5812 14.0445 26.51C13.8727 26.4387 13.6886 26.402 13.5026 26.402H8.41066C8.03484 26.402 7.67442 26.5513 7.40868 26.817C7.14294 27.0828 6.99365 27.4432 6.99365 27.819C6.99365 28.1948 7.14294 28.5552 7.40868 28.821C7.67442 29.0867 8.03484 29.236 8.41066 29.236H13.5026C13.8782 29.2355 14.2382 29.0859 14.5036 28.8202C14.769 28.5544 14.9182 28.1942 14.9182 27.8187ZM17.7915 27.589L17.9152 27.6883C17.9564 27.72 17.9909 27.7597 18.0165 27.8051C18.042 27.8504 18.0581 27.9005 18.0639 27.9523C18.0696 28.004 18.0648 28.0564 18.0498 28.1062C18.0348 28.1561 18.0098 28.2024 17.9765 28.2423L10.1105 36.828L10.3861 37.0827C10.4552 37.1426 10.4988 37.2267 10.5079 37.3177C10.5169 37.4087 10.4908 37.4997 10.4349 37.5721L10.3475 37.6794C10.3192 37.7156 10.2839 37.7457 10.2437 37.7679C10.2035 37.7901 10.1592 37.8039 10.1136 37.8086C10.0679 37.8134 10.0217 37.8088 9.97783 37.7953C9.93395 37.7818 9.89324 37.7595 9.85814 37.7299L9.55876 37.4536L9.32507 37.7184C9.25791 37.7975 9.16303 37.8479 9.05989 37.8593C8.95674 37.8707 8.85314 37.8422 8.77033 37.7797L8.64671 37.6811C8.60564 37.6492 8.57137 37.6094 8.54594 37.564C8.5205 37.5186 8.5044 37.4686 8.49859 37.4169C8.49279 37.3652 8.49739 37.3129 8.51212 37.263C8.52686 37.2131 8.55143 37.1666 8.5844 37.1264L8.86346 36.8104L8.49092 36.465C8.42132 36.4055 8.37721 36.3215 8.36769 36.2305C8.35817 36.1394 8.38398 36.0482 8.43978 35.9756L8.52885 35.8672C8.55711 35.8311 8.59234 35.8011 8.63245 35.779C8.67257 35.7568 8.71673 35.7429 8.76232 35.7382C8.8079 35.7335 8.85396 35.7381 8.89776 35.7515C8.94156 35.765 8.98218 35.7872 9.01722 35.8168L9.41584 36.1856L17.2392 27.651C17.3056 27.5712 17.4004 27.5201 17.5037 27.5085C17.6069 27.4969 17.7107 27.5256 17.7932 27.5887M24.3377 36.5198H21.5525V37.5585H24.336L24.3377 36.5198ZM24.9843 37.3733V37.9311C24.9898 38.0012 24.9797 38.0718 24.9546 38.1375C24.9295 38.2033 24.8901 38.2627 24.8393 38.3113C24.7884 38.36 24.7273 38.3967 24.6605 38.4188C24.5936 38.4409 24.5227 38.4478 24.4529 38.4391H6.99975V39.4758H24.8363C26.2563 39.2949 26.0182 37.3716 26.0182 37.3716L24.9843 37.3733ZM15.6545 38.202C15.9346 38.4748 16.3106 38.6267 16.7016 38.6251C17.0925 38.6235 17.4672 38.4686 17.7451 38.1936L24.1569 31.8973C24.4233 31.6373 24.5823 31.2868 24.6026 30.9151L29.6488 18.411C29.7225 18.2291 29.7595 18.0344 29.7577 17.8381C29.756 17.6418 29.7154 17.4478 29.6384 17.2672C29.5615 17.0867 29.4496 16.9231 29.3092 16.7859C29.1688 16.6487 29.0027 16.5405 28.8204 16.4677C28.6809 16.413 28.5342 16.3788 28.3849 16.3661C28.1241 16.2572 27.8378 16.2246 27.5593 16.2722C27.2807 16.3198 27.0215 16.4457 26.8117 16.635L18.7229 24.9728C18.4284 25.2385 18.2513 25.6101 18.2305 26.0062C18.2098 26.4023 18.347 26.7904 18.6121 27.0854L18.6355 27.1115C18.904 27.3961 19.2735 27.5639 19.6645 27.5788C20.0554 27.5938 20.4367 27.4547 20.7261 27.1914L24.4177 23.3865L21.8173 29.8321C21.7851 29.9124 21.7598 29.9953 21.7418 30.08L15.6511 36.0623C15.368 36.34 15.2067 36.7187 15.2027 37.1153C15.1986 37.5119 15.3521 37.8938 15.6295 38.1773L15.6545 38.202ZM39.7588 35.4537V36.0122C39.7644 36.0824 39.7543 36.153 39.7292 36.2188C39.704 36.2846 39.6646 36.344 39.6136 36.3927C39.5627 36.4413 39.5015 36.478 39.4346 36.5001C39.3677 36.5221 39.2967 36.529 39.2268 36.5202H34.5602L36.24 20.3449C36.2418 20.2927 36.2329 20.2407 36.2139 20.1921C36.1949 20.1435 36.1662 20.0993 36.1295 20.0622C36.0928 20.0251 36.0489 19.9958 36.0006 19.9762C35.9522 19.9566 35.9004 19.9471 35.8482 19.9483H35.6893C35.5853 19.95 35.4859 19.9918 35.412 20.065C35.338 20.1382 35.2952 20.2371 35.2924 20.3411L33.6096 36.5212H31.5247C31.6861 36.3436 31.8024 36.1296 31.8635 35.8975C31.9246 35.6654 31.9289 35.4219 31.8759 35.1878L31.1102 31.7293C31.0734 31.5622 31.0083 31.4027 30.9178 31.2575C30.8996 30.9828 30.8058 30.7184 30.6469 30.4935L28.6172 27.5914C28.3888 27.269 28.0421 27.05 27.6528 26.9825C27.2635 26.9149 26.8633 27.0042 26.5397 27.2308C26.216 27.4575 25.9953 27.8031 25.9257 28.192C25.8561 28.581 25.9433 28.9816 26.1683 29.3065L28.159 32.1496C28.1646 32.2263 28.1759 32.3025 28.1928 32.3775L28.9596 35.835C29.0156 36.0907 29.138 36.327 29.3145 36.5202H27.207V37.5585H33.5012L33.3532 38.9854L32.8113 38.9434C32.7655 38.9421 32.7199 38.95 32.6773 38.9667C32.6346 38.9833 32.5957 39.0083 32.5628 39.0402C32.5299 39.0721 32.5038 39.1103 32.4859 39.1525C32.4681 39.1946 32.4588 39.24 32.4588 39.2858V39.4256C32.4597 39.5171 32.4957 39.6047 32.5594 39.6703C32.623 39.736 32.7094 39.7747 32.8008 39.7785L33.3088 39.8182L33.2861 40.2385C33.2852 40.2904 33.2947 40.3419 33.314 40.3901C33.3333 40.4383 33.362 40.4821 33.3985 40.5191C33.4349 40.556 33.4784 40.5853 33.5264 40.6052C33.5743 40.6251 33.6257 40.6353 33.6776 40.635H33.8365C33.9404 40.6327 34.0394 40.5906 34.1132 40.5175C34.187 40.4443 34.23 40.3457 34.2334 40.2418L34.252 39.8896L34.6584 39.9215C34.7043 39.9228 34.75 39.9148 34.7928 39.8981C34.8356 39.8814 34.8745 39.8563 34.9074 39.8242C34.9403 39.7922 34.9663 39.7538 34.9841 39.7115C35.0018 39.6691 35.0108 39.6236 35.0106 39.5777L35.013 39.4389C35.0117 39.3475 34.9756 39.2601 34.912 39.1945C34.8484 39.1289 34.7622 39.0901 34.671 39.086L34.2967 39.0572L34.4522 37.5565H39.6122C41.0316 37.375 40.7935 35.4523 40.7935 35.4523L39.7588 35.4537ZM27.0437 17.4177C26.8969 17.7804 26.8983 18.1862 27.0477 18.5478C27.1972 18.9095 27.4826 19.198 27.8426 19.3512L30.6421 20.5572C31.0051 20.7072 31.4126 20.7083 31.7764 20.5603C32.1402 20.4123 32.4312 20.1271 32.5865 19.7663C32.7417 19.4055 32.7488 18.9981 32.6061 18.6322C32.4635 18.2662 32.1826 17.9711 31.8241 17.8106L29.0236 16.6066C28.6594 16.4492 28.2476 16.4428 27.8787 16.5889C27.5098 16.735 27.214 17.0215 27.0563 17.3855L27.0437 17.4177ZM30.4704 20.3056C30.6567 20.6497 30.9706 20.9069 31.3447 21.0218C31.7187 21.1367 32.1229 21.1001 32.4703 20.9199L37.3153 18.4341C37.6679 18.2529 37.9341 17.9391 38.0553 17.5616C38.1765 17.1842 38.1428 16.7741 37.9617 16.4215C37.7805 16.0689 37.4667 15.8027 37.0892 15.6815C36.7118 15.5603 36.3017 15.594 35.9491 15.7751L31.1061 18.2617C30.753 18.4424 30.4862 18.756 30.3642 19.1334C30.2422 19.5108 30.275 19.9212 30.4555 20.2744L30.4704 20.3056ZM31.7912 14.6125C31.5547 15.0702 31.1878 15.4474 30.7368 15.6965C30.2858 15.9456 29.7711 16.0553 29.2578 16.0118C28.7445 15.9683 28.2556 15.7734 27.853 15.452C27.4504 15.1305 27.1522 14.6969 26.9961 14.2059C26.84 13.715 26.8331 13.1887 26.9762 12.6938C27.1193 12.1989 27.4059 11.7575 27.7999 11.4256C28.1939 11.0937 28.6775 10.886 29.1895 10.829C29.7015 10.772 30.2189 10.8681 30.6763 11.1052C31.2893 11.4224 31.7512 11.9701 31.9604 12.6278C32.1696 13.2856 32.109 13.9994 31.7919 14.6125" fill="#262424"/>
<path d="M6.5704 9.9418C6.9448 9.9418 7.2308 9.869 7.4284 9.7234C7.6312 9.5726 7.7326 9.3568 7.7326 9.076C7.7326 8.7744 7.6156 8.5534 7.3816 8.413C7.1476 8.2726 6.8148 8.2024 6.3832 8.2024L5.7046 8.2336V5.3398H8.6218V6.3538H6.6562V7.321L7.0072 7.2898C7.2828 7.3002 7.5324 7.3496 7.756 7.438C7.9796 7.5212 8.1694 7.6382 8.3254 7.789C8.4866 7.9398 8.6088 8.1218 8.692 8.335C8.7804 8.5482 8.82461 8.7848 8.82461 9.0448C8.82461 9.3516 8.7674 9.622 8.653 9.856C8.5386 10.09 8.38001 10.285 8.1772 10.441C7.9796 10.597 7.743 10.714 7.4674 10.792C7.197 10.87 6.9032 10.909 6.586 10.909C6.3312 10.909 6.0868 10.8882 5.8528 10.8466C5.624 10.805 5.4316 10.7504 5.2756 10.6828L5.572 9.778C5.702 9.8248 5.8424 9.8638 5.9932 9.895C6.1492 9.9262 6.3416 9.9418 6.5704 9.9418ZM13.1317 9.0994H12.7495V10.7998H11.6575V6.7048H12.7495V8.4754L13.1005 8.3272L14.1457 6.7048H15.3235C15.1415 6.9544 14.9621 7.2066 14.7853 7.4614C14.6137 7.711 14.4395 7.9606 14.2627 8.2102L13.7479 8.5534L14.2939 8.8888C14.4915 9.2112 14.6917 9.531 14.8945 9.8482C15.0973 10.1602 15.2975 10.4774 15.4951 10.7998H14.2315L13.1317 9.0994ZM19.6872 8.9824L19.7652 8.0932H19.6404L19.2738 8.7952V8.7874L18.447 10.0588H18.0648L17.1522 8.7874V8.7952L16.7856 8.0932H16.6764L16.7934 8.9746V10.7998H15.8262V6.7048H16.9728L17.9946 8.2336V8.2258L18.2676 8.7484H18.3534L18.6264 8.2102V8.218L19.578 6.7048H20.7246V10.7998H19.6872V8.9824Z" fill="#202020"/>
</svg>
