<svg width="48" height="48" viewBox="0 0 48 48" fill="none" xmlns="http://www.w3.org/2000/svg">
<rect width="48" height="48" fill="white"/>
<path d="M14.6432 19.3721C14.9712 19.7794 15.171 20.2749 15.2174 20.7959C15.2638 21.3168 15.1546 21.8398 14.9037 22.2986C14.6528 22.7575 14.2714 23.1317 13.8078 23.3737C13.3442 23.6158 12.8192 23.7149 12.2993 23.6586C11.7793 23.6022 11.2878 23.3929 10.8868 23.0571C10.4858 22.7213 10.1935 22.2741 10.0467 21.7722C9.89995 21.2702 9.90537 20.736 10.0623 20.2371C10.2192 19.7382 10.5206 19.297 10.9283 18.9694C11.4745 18.5307 12.1725 18.3266 12.869 18.4021C13.5656 18.4776 14.2037 18.8265 14.6432 19.3721ZM8.03906 34.3191H38.8823V35.3202H8.03906V34.3191ZM35.5328 33.4246C35.2187 33.719 34.8015 33.8782 34.3712 33.868C33.9408 33.8578 33.5317 33.679 33.2319 33.3701L29.3564 29.4334L25.5129 33.3366C25.36 33.4941 25.1771 33.6194 24.9749 33.7051C24.7728 33.7907 24.5555 33.8349 24.336 33.8351C23.9142 33.9378 23.4736 33.9344 23.0534 33.8253C22.6333 33.7161 22.2468 33.5046 21.9283 33.2096L15.5119 27.209C15.1026 26.7865 14.83 26.2505 14.7297 25.6709C14.6294 25.0913 14.706 24.4949 14.9495 23.9595C15.193 23.424 15.5921 22.9743 16.0949 22.6689C16.5976 22.3636 17.1807 22.2167 17.7681 22.2474L19.2196 21.6074L15.9301 20.4254L16.0405 20.4647C15.8576 20.4074 15.6881 20.3137 15.5423 20.1893C15.3965 20.0648 15.2773 19.9122 15.1919 19.7406C15.1066 19.5689 15.0568 19.3818 15.0456 19.1904C15.0344 18.999 15.062 18.8074 15.1267 18.6269C15.1914 18.4465 15.292 18.281 15.4223 18.1404C15.5526 17.9998 15.7099 17.887 15.885 17.8087C16.06 17.7305 16.249 17.6884 16.4406 17.685C16.6323 17.6817 16.8227 17.7171 17.0003 17.7892L23.5248 20.1314C23.7913 20.2285 24.0227 20.4029 24.1894 20.6323C24.3561 20.8617 24.4506 21.1356 24.4607 21.419C24.4708 21.7024 24.3961 21.9824 24.2462 22.2231C24.0962 22.4637 23.8778 22.6542 23.619 22.77L20.5269 24.1345L20.5411 24.228L25.3987 28.7662L27.0491 27.0891L27.1473 26.9875L28.3553 25.7625C28.6079 25.5096 28.9466 25.3613 29.3037 25.3471C29.6608 25.3329 30.0102 25.4539 30.282 25.686L31.655 27.0806L31.6625 27.0874L35.5809 31.0688C35.7327 31.223 35.8525 31.4055 35.9337 31.6061C36.0148 31.8066 36.0557 32.0211 36.0539 32.2374C36.052 32.4537 36.0076 32.6676 35.9231 32.8667C35.8385 33.0658 35.7156 33.2463 35.5613 33.3979L35.5328 33.4246Z" fill="#262424"/>
</svg>
