<svg width="48" height="48" viewBox="0 0 48 48" fill="none" xmlns="http://www.w3.org/2000/svg">
<rect width="48" height="48" fill="white"/>
<path d="M12.3235 16.3118C12.0508 16.4153 11.7535 16.4356 11.4693 16.3702C11.185 16.3047 10.9266 16.1564 10.7267 15.944C10.5268 15.7316 10.3944 15.4647 10.3462 15.177C10.298 14.8893 10.3363 14.5938 10.4561 14.3279C10.5759 14.062 10.772 13.8376 11.0194 13.6831C11.2668 13.5286 11.5545 13.451 11.846 13.46C12.1375 13.4691 12.4198 13.5644 12.6572 13.734C12.8945 13.9035 13.0762 14.1397 13.1793 14.4125C13.3173 14.7779 13.3047 15.1831 13.1443 15.5392C12.9838 15.8953 12.6886 16.1732 12.3235 16.3118ZM22.0847 32.2138C22.2564 32.1561 22.4381 32.1336 22.6187 32.1479C22.7993 32.1622 22.9752 32.2128 23.1357 32.2968C23.2962 32.3808 23.4381 32.4964 23.5528 32.6366C23.6675 32.7769 23.7527 32.9389 23.8032 33.1129C23.8537 33.2869 23.8685 33.4693 23.8466 33.6491C23.8248 33.829 23.7668 34.0026 23.6762 34.1595C23.5855 34.3163 23.4641 34.4532 23.3191 34.562C23.1742 34.6707 23.0088 34.749 22.8328 34.7921L15.7207 39.6385L15.7132 39.6402C15.5415 39.698 15.3599 39.7204 15.1793 39.7061C14.9986 39.6919 14.8228 39.6412 14.6622 39.5572C14.5017 39.4732 14.3598 39.3576 14.2451 39.2174C14.1304 39.0772 14.0452 38.9152 13.9947 38.7412C13.9442 38.5672 13.9295 38.3847 13.9513 38.2049C13.9731 38.025 14.0311 37.8514 14.1218 37.6946C14.2124 37.5377 14.3339 37.4008 14.4788 37.2921C14.6237 37.1833 14.7891 37.105 14.9651 37.0619L22.0772 32.2162L22.0847 32.2138ZM21.26 29.162C21.2898 28.9833 21.3554 28.8124 21.453 28.6596C21.5506 28.5069 21.678 28.3755 21.8277 28.2733C21.9774 28.1712 22.1463 28.1003 22.324 28.0651C22.5018 28.0299 22.6849 28.0311 22.8622 28.0685C23.0396 28.1059 23.2075 28.1788 23.3559 28.2829C23.5043 28.3869 23.6301 28.5199 23.7258 28.6738C23.8214 28.8277 23.885 28.9994 23.9125 29.1786C23.94 29.3577 23.9311 29.5405 23.8861 29.7161L23.9382 33.6738L23.9365 33.6823C23.9061 33.8606 23.8399 34.0309 23.7421 34.183C23.6442 34.3351 23.5167 34.4659 23.3671 34.5676C23.2175 34.6692 23.0489 34.7396 22.8714 34.7745C22.694 34.8095 22.5113 34.8082 22.3343 34.7709C22.1573 34.7335 21.9897 34.6608 21.8415 34.5571C21.6933 34.4534 21.5676 34.3209 21.4718 34.1674C21.3761 34.014 21.3123 33.8428 21.2842 33.6641C21.2562 33.4854 21.2646 33.3029 21.3088 33.1276L21.2583 29.1698L21.26 29.162ZM31.3958 31.0613C31.3871 30.8804 31.4151 30.6997 31.478 30.5299C31.5409 30.3601 31.6376 30.2048 31.7621 30.0733C31.8866 29.9418 32.0364 29.8369 32.2025 29.7647C32.3686 29.6926 32.5475 29.6548 32.7286 29.6536C32.9097 29.6524 33.0891 29.6879 33.2562 29.7578C33.4232 29.8278 33.5744 29.9307 33.7006 30.0606C33.8268 30.1904 33.9254 30.3445 33.9906 30.5134C34.0558 30.6824 34.0861 30.8627 34.0798 31.0437L35.1727 38.5575V38.5659C35.1808 38.7465 35.1524 38.9269 35.0891 39.0962C35.0259 39.2656 34.9291 39.4204 34.8046 39.5515C34.6801 39.6826 34.5305 39.7872 34.3646 39.859C34.1987 39.9309 34.0201 39.9685 33.8393 39.9697C33.6586 39.9709 33.4794 39.9356 33.3126 39.8659C33.1458 39.7962 32.9948 39.6936 32.8686 39.5642C32.7424 39.4348 32.6436 39.2812 32.5782 39.1127C32.5127 38.9442 32.4819 38.7642 32.4877 38.5836L31.3958 31.0688V31.0613ZM33.1643 29.2301C33.322 29.315 33.4611 29.4305 33.5735 29.5699C33.6858 29.7093 33.7692 29.8698 33.8186 30.0419C33.8681 30.214 33.8826 30.3942 33.8614 30.572C33.8402 30.7498 33.7836 30.9215 33.6951 31.0771C33.6065 31.2328 33.4877 31.3691 33.3457 31.4781C33.2037 31.5872 33.0413 31.6667 32.8681 31.7121C32.6949 31.7575 32.5144 31.7678 32.3372 31.7424C32.1599 31.717 31.9896 31.6564 31.8361 31.5642L22.0552 27.1781L22.0484 27.174C21.8874 27.0911 21.7448 26.9764 21.6291 26.837C21.5135 26.6975 21.4273 26.5361 21.3756 26.3625C21.324 26.1888 21.3079 26.0065 21.3285 25.8265C21.3491 25.6465 21.4059 25.4726 21.4954 25.3151C21.585 25.1576 21.7054 25.0198 21.8496 24.9101C21.9937 24.8003 22.1586 24.7209 22.3342 24.6764C22.5098 24.632 22.6926 24.6236 22.8716 24.6516C23.0506 24.6796 23.2221 24.7436 23.3757 24.8396L33.1569 29.2274L33.1643 29.2301ZM34.0449 12.8028C34.2009 12.7116 34.3738 12.6528 34.5531 12.63C34.7324 12.6072 34.9144 12.6208 35.0883 12.67C35.2623 12.7192 35.4244 12.803 35.5652 12.9164C35.706 13.0298 35.8224 13.1704 35.9075 13.3299C35.9926 13.4893 36.0447 13.6643 36.0606 13.8443C36.0765 14.0244 36.0559 14.2058 36 14.3776C35.9442 14.5495 35.8542 14.7084 35.7355 14.8447C35.6168 14.981 35.4718 15.0919 35.3092 15.1708L30.308 17.3356L30.3012 17.339C30.1452 17.428 29.9729 17.4849 29.7945 17.5062C29.6161 17.5276 29.4353 17.5129 29.2627 17.4631C29.0901 17.4134 28.9292 17.3295 28.7896 17.2165C28.6499 17.1034 28.5344 16.9636 28.4497 16.8051C28.3651 16.6467 28.313 16.4728 28.2967 16.2939C28.2804 16.115 28.3001 15.9347 28.3547 15.7635C28.4093 15.5924 28.4977 15.4339 28.6145 15.2975C28.7314 15.1611 28.8745 15.0495 29.0353 14.9693L34.0374 12.8069L34.0449 12.8028ZM25.9862 16.8892C25.8078 16.8571 25.6378 16.7893 25.4863 16.6897C25.3349 16.5902 25.2052 16.461 25.105 16.31C25.0048 16.159 24.9361 15.9892 24.9033 15.811C24.8704 15.6328 24.8739 15.4497 24.9136 15.2729C24.9534 15.0961 25.0285 14.9291 25.1344 14.7821C25.2404 14.635 25.375 14.511 25.5301 14.4173C25.6853 14.3237 25.8578 14.2624 26.0373 14.2372C26.2168 14.212 26.3995 14.2234 26.5745 14.2706L29.4748 14.991H29.4833C29.6613 15.0236 29.8308 15.0919 29.9818 15.1917C30.1327 15.2914 30.262 15.4207 30.3618 15.5716C30.4616 15.7225 30.5299 15.8921 30.5626 16.07C30.5952 16.248 30.5916 16.4308 30.552 16.6073C30.5123 16.7838 30.4374 16.9506 30.3318 17.0975C30.2261 17.2444 30.0919 17.3684 29.9371 17.4622C29.7823 17.5559 29.6102 17.6174 29.4311 17.6431C29.252 17.6687 29.0695 17.6579 28.8947 17.6113L25.9947 16.8899L25.9862 16.8892ZM17.54 17.8904C17.6188 17.7274 17.7297 17.582 17.8661 17.463C18.0024 17.344 18.1614 17.2537 18.3335 17.1977C18.5056 17.1416 18.6873 17.1209 18.8676 17.1368C19.0479 17.1527 19.2231 17.2049 19.3828 17.2902C19.5424 17.3755 19.6832 17.4922 19.7966 17.6332C19.91 17.7743 19.9938 17.9368 20.0428 18.111C20.0919 18.2852 20.1052 18.4676 20.0821 18.6471C20.0589 18.8266 19.9997 18.9996 19.908 19.1556L18.4396 21.7593L18.4352 21.7668C18.356 21.9292 18.2449 22.0739 18.1085 22.1924C17.9721 22.3108 17.8132 22.4006 17.6413 22.4562C17.4695 22.5119 17.2881 22.5323 17.1082 22.5162C16.9283 22.5002 16.7534 22.448 16.5941 22.3628C16.4348 22.2777 16.2943 22.1613 16.181 22.0205C16.0677 21.8798 15.984 21.7177 15.9348 21.5439C15.8856 21.37 15.872 21.1881 15.8947 21.0089C15.9174 20.8296 15.9761 20.6569 16.0672 20.5008L17.5356 17.8981L17.54 17.8904ZM25.2052 14.3421C25.374 14.2776 25.554 14.2479 25.7345 14.2546C25.915 14.2613 26.0924 14.3044 26.2558 14.3813C26.4193 14.4581 26.5656 14.5672 26.686 14.7019C26.8064 14.8366 26.8983 14.9942 26.9564 15.1652C27.0144 15.3363 27.0374 15.5173 27.0238 15.6975C27.0103 15.8776 26.9606 16.0532 26.8776 16.2137C26.7947 16.3741 26.6802 16.5162 26.541 16.6314C26.4019 16.7466 26.2409 16.8326 26.0678 16.8842L19.2456 19.5383L19.2375 19.5414C19.0684 19.6067 18.8879 19.6371 18.7067 19.6309C18.5256 19.6246 18.3476 19.5818 18.1835 19.505C18.0193 19.4282 17.8724 19.319 17.7515 19.1839C17.6306 19.0489 17.5383 18.8908 17.4801 18.7192C17.4219 18.5475 17.399 18.3659 17.4128 18.1852C17.4266 18.0045 17.4768 17.8284 17.5604 17.6676C17.644 17.5068 17.7592 17.3645 17.8992 17.2494C18.0391 17.1342 18.201 17.0486 18.3749 16.9976L25.1981 14.3445L25.2052 14.3421ZM21.4727 14.9087C20.9841 15.0939 20.4516 15.13 19.9425 15.0125C19.4333 14.895 18.9705 14.6292 18.6125 14.2487C18.2544 13.8681 18.0173 13.3899 17.931 12.8746C17.8448 12.3593 17.9133 11.8299 18.1279 11.3535C18.3425 10.8771 18.6936 10.4751 19.1367 10.1982C19.5798 9.92135 20.0951 9.78211 20.6173 9.79811C21.1396 9.81411 21.6454 9.98463 22.0707 10.2881C22.4961 10.5916 22.8218 11.0144 23.0069 11.503C23.255 12.1581 23.2327 12.8848 22.945 13.5235C22.6573 14.1622 22.1277 14.6604 21.4727 14.9087ZM20.1519 19.4096C19.9888 18.9997 19.9942 18.542 20.1669 18.1361C20.3396 17.7301 20.6657 17.4089 21.0741 17.2421C21.9323 16.8957 25.0345 16.1208 25.3817 16.9766C25.4155 18.1115 27.5732 29.2426 24.2302 27.573C23.3777 27.9194 21.8168 27.3132 21.4669 26.4584L20.1563 19.4195L20.1519 19.4096ZM17.8794 20.5252C18.0207 20.6387 18.1375 20.7795 18.2229 20.9393C18.3083 21.0991 18.3605 21.2745 18.3763 21.455C18.3922 21.6355 18.3713 21.8173 18.315 21.9895C18.2587 22.1617 18.1682 22.3207 18.0488 22.457C17.9294 22.5933 17.7837 22.704 17.6204 22.7825C17.4571 22.861 17.2797 22.9057 17.0987 22.9138C16.9177 22.9219 16.7369 22.8933 16.5673 22.8297C16.3976 22.7661 16.2426 22.6688 16.1115 22.5437L10.3981 17.9686L10.3914 17.9635C10.124 17.7368 9.95309 17.4167 9.91357 17.0684C9.87405 16.7201 9.96886 16.3698 10.1787 16.089C10.4834 16.5161 10.9442 16.8059 11.4612 16.8954C11.9782 16.9849 12.5096 16.867 12.9402 16.5672L17.8736 20.5191L17.8794 20.5252Z" fill="#262424"/>
</svg>
