<svg width="64" height="64" viewBox="0 0 64 64" fill="none" xmlns="http://www.w3.org/2000/svg">
<rect width="64" height="64" fill="white"/>
<path d="M20.5842 43.3764C21.0708 43.3471 21.5276 43.1316 21.8595 42.7745C22.1914 42.4173 22.3731 41.9461 22.3668 41.4586C22.3604 40.9711 22.1666 40.5047 21.8255 40.1563C21.4844 39.808 21.0222 39.6044 20.5349 39.5878H18.4605C17.9738 39.617 17.517 39.8326 17.1851 40.1897C16.8532 40.5468 16.6715 41.018 16.6778 41.5055C16.6842 41.9931 16.878 42.4594 17.2191 42.8078C17.5602 43.1562 18.0224 43.3598 18.5097 43.3764H20.5842ZM13.3433 39.5878C13.7184 39.5878 14.0851 39.699 14.397 39.9074C14.7089 40.1158 14.952 40.412 15.0955 40.7585C15.2391 41.1051 15.2766 41.4864 15.2035 41.8543C15.1303 42.2222 14.9497 42.5602 14.6844 42.8254C14.4192 43.0906 14.0812 43.2713 13.7133 43.3444C13.3454 43.4176 12.9641 43.3801 12.6176 43.2365C12.271 43.093 11.9748 42.8499 11.7664 42.538C11.558 42.2261 11.4468 41.8594 11.4468 41.4843C11.4464 41.2352 11.4952 40.9884 11.5904 40.7581C11.6856 40.5279 11.8253 40.3186 12.0015 40.1425C12.1777 39.9663 12.3869 39.8266 12.6171 39.7314C12.8474 39.6362 13.0942 39.5874 13.3433 39.5878ZM23.9894 33.8981C24.3645 33.8981 24.7312 34.0093 25.0431 34.2177C25.355 34.4261 25.598 34.7223 25.7416 35.0688C25.8851 35.4154 25.9227 35.7967 25.8495 36.1646C25.7763 36.5325 25.5957 36.8705 25.3305 37.1357C25.0652 37.4009 24.7273 37.5816 24.3594 37.6548C23.9915 37.7279 23.6102 37.6904 23.2636 37.5468C22.9171 37.4033 22.6209 37.1602 22.4125 36.8483C22.2041 36.5364 22.0928 36.1697 22.0928 35.7946C22.0928 35.2916 22.2926 34.8092 22.6483 34.4536C23.004 34.0979 23.4864 33.8981 23.9894 33.8981ZM27.8701 32.0015C28.3587 31.9748 28.8181 31.7602 29.1522 31.4027C29.4863 31.0452 29.6693 30.5724 29.6629 30.0831C29.6566 29.5939 29.4613 29.126 29.1181 28.7773C28.7748 28.4286 28.31 28.226 27.8209 28.212H25.746C25.2574 28.2387 24.798 28.4533 24.4639 28.8108C24.1298 29.1683 23.9468 29.6411 23.9532 30.1304C23.9595 30.6196 24.1547 31.0875 24.498 31.4362C24.8413 31.7849 25.3061 31.9875 25.7952 32.0015H27.8701ZM13.4341 32.0015H15.4892C15.9774 31.9772 16.4374 31.7654 16.7732 31.4101C17.109 31.0549 17.2947 30.5837 17.2915 30.0949C17.2883 29.606 17.0964 29.1373 16.756 28.7865C16.4156 28.4357 15.9528 28.2299 15.4643 28.212H13.4093C12.921 28.2363 12.461 28.4481 12.1252 28.8034C11.7894 29.1586 11.6038 29.6298 11.607 30.1186C11.6102 30.6075 11.802 31.0762 12.1424 31.427C12.4829 31.7778 12.9456 31.9836 13.4341 32.0015ZM13.4341 37.6858H18.8894C19.3742 37.657 19.8294 37.4434 20.1613 37.089C20.4932 36.7346 20.6766 36.2664 20.6736 35.7808C20.6706 35.2952 20.4814 34.8293 20.1451 34.479C19.8088 34.1288 19.351 33.9208 18.866 33.8981H13.4341C12.9318 33.8981 12.4501 34.0976 12.095 34.4528C11.7398 34.8079 11.5403 35.2896 11.5403 35.7919C11.5403 36.2942 11.7398 36.7759 12.095 37.1311C12.4501 37.4862 12.9318 37.6858 13.4341 37.6858ZM20.6293 28.212C21.0044 28.212 21.3711 28.3232 21.683 28.5316C21.9949 28.74 22.238 29.0362 22.3815 29.3828C22.5251 29.7293 22.5626 30.1107 22.4894 30.4786C22.4163 30.8465 22.2356 31.1844 21.9704 31.4496C21.7051 31.7149 21.3672 31.8955 20.9993 31.9687C20.6314 32.0419 20.2501 32.0043 19.9035 31.8608C19.557 31.7172 19.2608 31.4741 19.0524 31.1622C18.844 30.8503 18.7327 30.4837 18.7327 30.1086C18.7327 29.6056 18.9326 29.1232 19.2882 28.7675C19.6439 28.4118 20.1263 28.212 20.6293 28.212ZM40.4452 28.2273C40.4407 28.2273 40.4407 28.2273 40.4452 28.2273L40.4407 28.2233H40.4376C40.3951 28.1781 40.3324 28.1646 40.2886 28.1266C40.1447 27.999 39.981 27.8956 39.804 27.8205C39.6424 27.7722 39.4757 27.7432 39.3073 27.7342C39.2332 27.7297 39.1651 27.694 39.0878 27.694C38.8982 27.7067 38.7116 27.7478 38.5342 27.816C38.4828 27.8232 38.432 27.8348 38.3825 27.8507C38.2769 27.9069 38.1784 27.9754 38.089 28.0548C37.9727 28.1158 37.8643 28.1907 37.7661 28.2779L21.8341 44.8995C21.6621 45.0791 21.5272 45.2909 21.4371 45.5227C21.3469 45.7545 21.3034 46.0017 21.3088 46.2504C21.3142 46.499 21.3686 46.7441 21.4687 46.9718C21.5689 47.1994 21.7129 47.4051 21.8926 47.577C22.0722 47.749 22.284 47.8839 22.5158 47.974C22.7475 48.0642 22.9948 48.1078 23.2434 48.1023C23.4921 48.0969 23.7372 48.0426 23.9648 47.9424C24.1925 47.8422 24.3981 47.6982 24.5701 47.5186L39.1876 32.2639L44.8773 37.6826H37.2956C37.0398 37.6714 36.7844 37.7122 36.5448 37.8024C36.3052 37.8925 36.0863 38.0303 35.9014 38.2074C35.7164 38.3844 35.5692 38.5971 35.4687 38.8325C35.3681 39.068 35.3163 39.3214 35.3163 39.5774C35.3163 39.8334 35.3681 40.0868 35.4687 40.3222C35.5692 40.5577 35.7164 40.7703 35.9014 40.9474C36.0863 41.1244 36.3052 41.2622 36.5448 41.3524C36.7844 41.4426 37.0398 41.4833 37.2956 41.4721H49.6133C49.9918 41.4714 50.3613 41.3575 50.6745 41.145C50.9876 40.9325 51.2301 40.6312 51.3706 40.2799C51.5111 39.9285 51.5433 39.5431 51.463 39.1733C51.3828 38.8035 51.1937 38.4661 50.9201 38.2046L40.4452 28.2273ZM51.2552 19.6878C51.2549 20.3851 51.0479 21.0666 50.6604 21.6461C50.2728 22.2257 49.722 22.6774 49.0778 22.944C48.4336 23.2105 47.7247 23.2801 47.0409 23.1439C46.3571 23.0076 45.7291 22.6717 45.2363 22.1785C44.7434 21.6853 44.4079 21.0571 44.272 20.3732C44.1362 19.6893 44.2062 18.9805 44.4732 18.3365C44.7402 17.6924 45.1922 17.1419 45.7721 16.7547C46.3519 16.3675 47.0335 16.161 47.7308 16.1611C48.6657 16.1611 49.5623 16.5325 50.2234 17.1935C50.8845 17.8546 51.256 18.7511 51.2561 19.686M50.5625 28.2115H47.6558L40.5812 19.8441C40.2804 19.4854 39.857 19.2514 39.3933 19.1876C38.9295 19.1238 38.4587 19.2349 38.0723 19.4991L30.7068 24.4925C30.2901 24.7747 30.0025 25.211 29.9074 25.7053C29.8123 26.1996 29.9175 26.7115 30.1997 27.1282C30.482 27.545 30.9183 27.8326 31.4126 27.9277C31.9069 28.0228 32.4187 27.9176 32.8355 27.6353L38.7898 23.5934L45.3271 31.3345C45.5047 31.5455 45.7264 31.7149 45.9766 31.8307C46.2269 31.9465 46.4995 32.0059 46.7753 32.0047H50.5661C51.0691 32.0042 51.5514 31.804 51.9067 31.4481C52.2621 31.0921 52.4615 30.6095 52.4611 30.1065C52.4607 29.6035 52.2605 29.1213 51.9045 28.7659C51.5485 28.4105 51.0655 28.2111 50.5625 28.2115Z" fill="#B4B4B4"/>
</svg>
