<svg width="64" height="64" viewBox="0 0 64 64" fill="none" xmlns="http://www.w3.org/2000/svg">
<rect width="64" height="64" fill="white"/>
<path d="M34.8365 20.5472C34.84 21.1084 34.6771 21.6581 34.3682 22.1268C34.0594 22.5955 33.6185 22.962 33.1014 23.1802C32.5842 23.3983 32.014 23.4582 31.4628 23.3522C30.9116 23.2463 30.4042 22.9793 30.0047 22.585C29.6053 22.1907 29.3317 21.6869 29.2186 21.1371C29.1055 20.5873 29.1579 20.0164 29.3693 19.4964C29.5806 18.9765 29.9414 18.5309 30.406 18.2159C30.8706 17.901 31.4182 17.7309 31.9794 17.7272C32.732 17.7229 33.4556 18.0175 33.9912 18.5462C34.5269 19.0749 34.8308 19.7946 34.8365 20.5472ZM34.4901 52.3458C34.0582 52.3455 33.644 52.1739 33.3385 51.8687C33.0329 51.5634 32.861 51.1493 32.8604 50.7174V38.0628H31.1296V50.7156C31.1296 51.1477 30.9579 51.5621 30.6524 51.8677C30.3468 52.1732 29.9324 52.3449 29.5003 52.3449C29.0682 52.3449 28.6538 52.1732 28.3483 51.8677C28.0427 51.5621 27.8711 51.1477 27.8711 50.7156V36.4566C27.8709 36.3402 27.8834 36.2241 27.9081 36.1103C27.8425 35.8791 27.8101 35.6398 27.8119 35.3995L27.8499 26.6938C27.8748 25.9549 28.187 25.2549 28.7202 24.7426C29.2533 24.2304 29.9653 23.9464 30.7047 23.951H33.8001V23.979C34.4503 24.0501 35.052 24.3564 35.492 24.8403C35.932 25.3242 36.1799 25.9523 36.1889 26.6062L36.1519 35.3078C36.1514 35.5409 36.1191 35.7727 36.0557 35.9969C36.0999 36.1461 36.1222 36.301 36.1216 36.4566V50.7156C36.121 51.1475 35.9491 51.5616 35.6435 51.8668C35.338 52.1721 34.9238 52.3437 34.4919 52.344M37.0107 13.9512V13.9232C37.0107 13.4911 37.1824 13.0767 37.4879 12.7711C37.7935 12.4656 38.2079 12.2939 38.64 12.2939C39.0721 12.2939 39.4865 12.4656 39.792 12.7711C40.0976 13.0767 40.2692 13.4911 40.2692 13.9232V14.2709H37.0089L37.0107 13.9512ZM23.9746 13.9512V13.9232C23.9746 13.4912 24.1462 13.0769 24.4516 12.7715C24.7571 12.466 25.1714 12.2944 25.6033 12.2944C26.0353 12.2944 26.4496 12.466 26.7551 12.7715C27.0605 13.0769 27.2321 13.4912 27.2321 13.9232V14.2709H23.9728L23.9746 13.9512ZM37.0089 16.6953H40.2674V26.753C40.2674 27.1851 40.0957 27.5995 39.7902 27.905C39.4847 28.2106 39.0703 28.3822 38.6382 28.3822C38.2061 28.3822 37.7917 28.2106 37.4861 27.905C37.1806 27.5995 37.0089 27.1851 37.0089 26.753V16.6953ZM25.602 28.3827C25.1704 28.3817 24.7569 28.2096 24.4521 27.9041C24.1473 27.5985 23.9762 27.1845 23.9764 26.753V16.6953H27.2339V26.753C27.2337 27.1852 27.0619 27.5997 26.7562 27.9052C26.4505 28.2108 26.036 28.3826 25.6038 28.3827M42.7298 16.181H21.7366C21.5838 16.1483 21.4469 16.0642 21.3486 15.9427C21.2504 15.8211 21.1968 15.6696 21.1968 15.5134C21.1968 15.3571 21.2504 15.2056 21.3486 15.0841C21.4469 14.9626 21.5838 14.8784 21.7366 14.8457H42.7298C42.8826 14.8784 43.0195 14.9626 43.1178 15.0841C43.216 15.2056 43.2696 15.3571 43.2696 15.5134C43.2696 15.6696 43.216 15.8211 43.1178 15.9427C43.0195 16.0642 42.8826 16.1483 42.7298 16.181Z" fill="#B4B4B4"/>
</svg>
