<svg width="64" height="64" viewBox="0 0 64 64" fill="none" xmlns="http://www.w3.org/2000/svg">
<rect width="64" height="64" fill="white"/>
<path d="M45.3283 53.4275H46.412C46.4979 53.412 46.5862 53.4155 46.6706 53.4379C46.755 53.4602 46.8335 53.5008 46.9005 53.5568C46.9675 53.6128 47.0213 53.6828 47.0583 53.7619C47.0953 53.841 47.1145 53.9272 47.1145 54.0145C47.1145 54.1018 47.0953 54.1881 47.0583 54.2672C47.0213 54.3463 46.9675 54.4163 46.9005 54.4723C46.8335 54.5282 46.755 54.5688 46.6706 54.5912C46.5862 54.6135 46.4979 54.6171 46.412 54.6016H45.3283C45.2423 54.6171 45.1541 54.6135 45.0697 54.5912C44.9853 54.5688 44.9068 54.5282 44.8398 54.4723C44.7728 54.4163 44.7189 54.3463 44.6819 54.2672C44.645 54.1881 44.6258 54.1018 44.6258 54.0145C44.6258 53.9272 44.645 53.841 44.6819 53.7619C44.7189 53.6828 44.7728 53.6128 44.8398 53.5568C44.9068 53.5008 44.9853 53.4602 45.0697 53.4379C45.1541 53.4155 45.2423 53.412 45.3283 53.4275ZM44.6207 45.116V45.0795C44.6253 44.8948 44.7019 44.7193 44.8342 44.5904C44.9664 44.4615 45.1438 44.3893 45.3285 44.3893C45.5132 44.3893 45.6906 44.4615 45.8228 44.5904C45.955 44.7193 46.0316 44.8948 46.0363 45.0795V45.116C46.0316 45.3007 45.955 45.4762 45.8228 45.6051C45.6906 45.734 45.5132 45.8062 45.3285 45.8062C45.1438 45.8062 44.9664 45.734 44.8342 45.6051C44.7019 45.4762 44.6253 45.3007 44.6207 45.116ZM44.6207 47.3761V47.34C44.6183 47.2455 44.6348 47.1515 44.6693 47.0636C44.7038 46.9756 44.7556 46.8954 44.8215 46.8278C44.8875 46.7601 44.9663 46.7064 45.0534 46.6697C45.1405 46.633 45.234 46.6141 45.3285 46.6141C45.423 46.6141 45.5165 46.633 45.6036 46.6697C45.6906 46.7064 45.7695 46.7601 45.8354 46.8278C45.9014 46.8954 45.9532 46.9756 45.9877 47.0636C46.0221 47.1515 46.0387 47.2455 46.0363 47.34V47.3761C46.0316 47.5607 45.955 47.7362 45.8228 47.8652C45.6906 47.9941 45.5132 48.0663 45.3285 48.0663C45.1438 48.0663 44.9664 47.9941 44.8342 47.8652C44.7019 47.7362 44.6253 47.5607 44.6207 47.3761ZM44.6207 49.6339V49.5978C44.6253 49.4132 44.7019 49.2377 44.8342 49.1087C44.9664 48.9798 45.1438 48.9076 45.3285 48.9076C45.5132 48.9076 45.6906 48.9798 45.8228 49.1087C45.955 49.2377 46.0316 49.4132 46.0363 49.5978V49.6339C46.0316 49.8186 45.955 49.9941 45.8228 50.123C45.6906 50.2519 45.5132 50.3241 45.3285 50.3241C45.1438 50.3241 44.9664 50.2519 44.8342 50.123C44.7019 49.9941 44.6253 49.8186 44.6207 49.6339ZM44.6207 51.8917V51.8561C44.6253 51.6714 44.7019 51.4959 44.8342 51.367C44.9664 51.2381 45.1438 51.1659 45.3285 51.1659C45.5132 51.1659 45.6906 51.2381 45.8228 51.367C45.955 51.4959 46.0316 51.6714 46.0363 51.8561V51.8917C46.0316 52.0764 45.955 52.2519 45.8228 52.3808C45.6906 52.5097 45.5132 52.5819 45.3285 52.5819C45.1438 52.5819 44.9664 52.5097 44.8342 52.3808C44.7019 52.2519 44.6253 52.0764 44.6207 51.8917ZM45.3283 42.3638H46.412C46.4982 42.3473 46.587 42.35 46.672 42.3718C46.757 42.3936 46.8362 42.4339 46.9038 42.4898C46.9715 42.5458 47.0259 42.6159 47.0633 42.6954C47.1007 42.7748 47.12 42.8614 47.12 42.9492C47.12 43.037 47.1007 43.1237 47.0633 43.2031C47.0259 43.2825 46.9715 43.3527 46.9038 43.4086C46.8362 43.4645 46.757 43.5048 46.672 43.5266C46.587 43.5484 46.4982 43.5512 46.412 43.5347H45.3283C45.2422 43.5508 45.1538 43.5477 45.0691 43.5257C44.9844 43.5037 44.9056 43.4634 44.8382 43.4075C44.7709 43.3516 44.7167 43.2815 44.6796 43.2023C44.6424 43.1231 44.6231 43.0367 44.6231 42.9492C44.6231 42.8617 44.6424 42.7753 44.6796 42.6961C44.7167 42.6169 44.7709 42.5468 44.8382 42.491C44.9056 42.4351 44.9844 42.3947 45.0691 42.3727C45.1538 42.3507 45.2422 42.3477 45.3283 42.3638ZM17.0469 48.934H27.5317V54.5957H17.0469V48.934ZM21.7851 53.2618H42.9968V54.597H21.7851V53.2618ZM34.1579 36.5616C33.5841 36.5616 33.0332 36.3363 32.6238 35.9343C32.2144 35.5322 31.9792 34.9855 31.9688 34.4117L31.5371 21.8782C31.5246 21.2968 31.7435 20.7344 32.1457 20.3144C32.5479 19.8945 33.1004 19.6516 33.6818 19.6391C34.2631 19.6266 34.8256 19.8455 35.2455 20.2477C35.6654 20.6499 35.9083 21.2025 35.9208 21.7838L36.3521 34.321C36.3654 34.9027 36.1471 35.4659 35.7452 35.8867C35.3433 36.3075 34.7907 36.5514 34.209 36.5648L34.1579 36.5616ZM21.6835 48.1081C21.1097 48.1083 20.5588 47.8831 20.1495 47.4809C19.7401 47.0788 19.5052 46.5319 19.4952 45.9582L19.0627 28.433C19.0502 27.8517 19.2692 27.2893 19.6714 26.8694C20.0737 26.4495 20.6263 26.2067 21.2076 26.1942C21.7889 26.1817 22.3514 26.4007 22.7712 26.803C23.1911 27.2052 23.434 27.7578 23.4464 28.3391L23.8759 45.8643C23.8893 46.4459 23.6712 47.009 23.2694 47.4298C22.8677 47.8506 22.3153 48.0946 21.7336 48.1081H21.6835ZM19.8524 30.6913C19.5321 30.324 19.2886 29.8962 19.1364 29.4332C18.9841 28.9702 18.9263 28.4814 18.9662 27.9956C19.0061 27.5099 19.143 27.0371 19.3687 26.6051C19.5945 26.1731 19.9045 25.7908 20.2805 25.4807L29.4834 18.235C30.2829 17.6418 31.2822 17.384 32.2689 17.5163C33.2555 17.6486 34.1517 18.1606 34.7667 18.9435C35.0873 19.3103 35.3311 19.7377 35.4836 20.2004C35.6361 20.6632 35.6942 21.1518 35.6545 21.6374C35.6148 22.123 35.4781 22.5957 35.2525 23.0275C35.0268 23.4593 34.7168 23.8415 34.3408 24.1513L32.675 25.4636H32.3991L25.1366 31.1858C24.4983 31.6674 23.7229 31.9328 22.9233 31.9433C22.1238 31.9538 21.3417 31.7088 20.691 31.244V31.4603C20.3769 31.245 20.0946 30.9865 19.8524 30.6927M30.2601 19.5142L22.6503 28.3901ZM40.487 18.5881C39.944 19.0256 39.2833 19.2923 38.5887 19.3542C37.894 19.4162 37.1966 19.2707 36.5847 18.9362C35.9727 18.6016 35.4738 18.0931 35.151 17.4749C34.8282 16.8567 34.696 16.1566 34.7712 15.4633C34.8463 14.77 35.1255 14.1145 35.5733 13.5799C36.0211 13.0452 36.6175 12.6554 37.2869 12.4598C37.9563 12.2642 38.6687 12.2716 39.3339 12.481C39.9991 12.6904 40.5873 13.0925 41.024 13.6362C41.609 14.3645 41.881 15.2952 41.7804 16.2239C41.6797 17.1526 41.2145 18.0034 40.487 18.5894" fill="#B4B4B4"/>
</svg>
