<svg width="64" height="64" viewBox="0 0 64 64" fill="none" xmlns="http://www.w3.org/2000/svg">
<rect width="64" height="64" fill="white"/>
<path d="M16.431 21.7491C16.0674 21.8871 15.671 21.9142 15.292 21.8269C14.9131 21.7396 14.5685 21.5418 14.3019 21.2587C14.0354 20.9755 13.8588 20.6196 13.7946 20.236C13.7304 19.8524 13.7814 19.4584 13.9412 19.1039C14.1009 18.7493 14.3623 18.4501 14.6922 18.2441C15.022 18.0381 15.4056 17.9346 15.7943 17.9467C16.183 17.9588 16.5594 18.0859 16.8759 18.312C17.1923 18.538 17.4346 18.8529 17.5721 19.2167C17.7561 19.7039 17.7393 20.2441 17.5254 20.7189C17.3114 21.1937 16.9178 21.5642 16.431 21.7491ZM29.4459 42.9517C29.6749 42.8748 29.9171 42.8449 30.1579 42.8639C30.3987 42.8829 30.6332 42.9504 30.8473 43.0624C31.0613 43.1744 31.2505 43.3285 31.4035 43.5155C31.5564 43.7025 31.67 43.9185 31.7373 44.1505C31.8046 44.3825 31.8243 44.6257 31.7952 44.8655C31.7661 45.1053 31.6888 45.3368 31.5679 45.5459C31.447 45.7551 31.2851 45.9377 31.0919 46.0826C30.8986 46.2276 30.678 46.332 30.4434 46.3895L20.9606 52.8514L20.9507 52.8536C20.7217 52.9306 20.4795 52.9605 20.2387 52.9415C19.9979 52.9225 19.7634 52.8549 19.5493 52.743C19.3353 52.631 19.1461 52.4769 18.9931 52.2899C18.8402 52.1029 18.7266 51.8869 18.6593 51.6549C18.592 51.4229 18.5723 51.1797 18.6014 50.9398C18.6305 50.7 18.7078 50.4686 18.8287 50.2594C18.9496 50.0503 19.1115 49.8677 19.3047 49.7227C19.498 49.5778 19.7185 49.4734 19.9532 49.4159L29.436 42.9549L29.4459 42.9517ZM28.3464 38.8827C28.3861 38.6444 28.4736 38.4165 28.6037 38.2128C28.7338 38.0092 28.9037 37.834 29.1033 37.6978C29.3029 37.5616 29.528 37.4671 29.7651 37.4202C30.0021 37.3733 30.2462 37.3748 30.4826 37.4247C30.7191 37.4745 30.943 37.5718 31.1409 37.7105C31.3387 37.8492 31.5065 38.0265 31.634 38.2317C31.7616 38.437 31.8463 38.6659 31.883 38.9047C31.9197 39.1436 31.9078 39.3874 31.8478 39.6215L31.9173 44.8984L31.9151 44.9097C31.8745 45.1474 31.7863 45.3745 31.6558 45.5773C31.5253 45.7802 31.3553 45.9546 31.1558 46.0901C30.9563 46.2256 30.7315 46.3195 30.4949 46.366C30.2583 46.4126 30.0147 46.4109 29.7787 46.3611C29.5428 46.3113 29.3193 46.2144 29.1217 46.0761C28.9241 45.9379 28.7564 45.7612 28.6288 45.5566C28.5011 45.352 28.416 45.1238 28.3787 44.8855C28.3413 44.6473 28.3524 44.4039 28.4114 44.1701L28.3441 38.8931L28.3464 38.8827ZM41.8607 41.4151C41.8491 41.1739 41.8864 40.9329 41.9703 40.7065C42.0543 40.4801 42.1831 40.2731 42.3491 40.0977C42.5151 39.9224 42.7148 39.7825 42.9363 39.6863C43.1578 39.5902 43.3964 39.5398 43.6378 39.5382C43.8792 39.5366 44.1185 39.5838 44.3412 39.6771C44.5639 39.7703 44.7655 39.9076 44.9338 40.0808C45.102 40.2539 45.2336 40.4593 45.3205 40.6845C45.4074 40.9098 45.4478 41.1503 45.4394 41.3916L46.8966 51.41V51.4213C46.9074 51.662 46.8695 51.9025 46.7852 52.1283C46.7009 52.3541 46.5718 52.5606 46.4059 52.7353C46.2399 52.9101 46.0403 53.0495 45.8192 53.1454C45.598 53.2412 45.3598 53.2914 45.1188 53.293C44.8778 53.2946 44.6389 53.2475 44.4165 53.1546C44.1941 53.0617 43.9927 52.9248 43.8245 52.7523C43.6562 52.5797 43.5245 52.375 43.4372 52.1503C43.35 51.9256 43.3089 51.6856 43.3166 51.4447L41.8607 41.425V41.4151ZM44.2188 38.9735C44.429 39.0866 44.6145 39.2407 44.7643 39.4266C44.9141 39.6124 45.0252 39.8264 45.0912 40.0558C45.1571 40.2853 45.1765 40.5256 45.1482 40.7626C45.1199 40.9997 45.0445 41.2287 44.9264 41.4362C44.8084 41.6437 44.65 41.8255 44.4607 41.9709C44.2713 42.1163 44.0548 42.2223 43.8239 42.2828C43.5929 42.3433 43.3522 42.3571 43.1159 42.3232C42.8796 42.2893 42.6524 42.2086 42.4478 42.0857L29.4066 36.2375L29.3976 36.232C29.1828 36.1215 28.9927 35.9686 28.8385 35.7826C28.6843 35.5967 28.5694 35.3815 28.5005 35.1499C28.4316 34.9184 28.4103 34.6754 28.4377 34.4354C28.4652 34.1954 28.5409 33.9634 28.6603 33.7534C28.7796 33.5435 28.9403 33.3598 29.1324 33.2134C29.3246 33.0671 29.5444 32.9612 29.7786 32.9019C30.0128 32.8427 30.2565 32.8314 30.4951 32.8688C30.7338 32.9062 30.9624 32.9914 31.1673 33.1194L44.2089 38.9699L44.2188 38.9735ZM45.3929 17.0704C45.6009 16.9488 45.8314 16.8705 46.0704 16.84C46.3095 16.8096 46.5522 16.8278 46.7841 16.8934C47.016 16.959 47.2323 17.0707 47.42 17.2219C47.6076 17.3731 47.7629 17.5606 47.8764 17.7731C47.9899 17.9857 48.0593 18.219 48.0805 18.4591C48.1017 18.6991 48.0742 18.941 47.9997 19.1702C47.9252 19.3994 47.8052 19.6112 47.647 19.7929C47.4887 19.9746 47.2953 20.1225 47.0785 20.2278L40.4103 23.1141L40.4013 23.1187C40.1933 23.2374 39.9635 23.3132 39.7257 23.3417C39.4879 23.3701 39.2467 23.3505 39.0166 23.2842C38.7864 23.2178 38.5719 23.106 38.3858 22.9553C38.1996 22.8046 38.0455 22.6181 37.9326 22.4068C37.8198 22.1956 37.7504 21.9638 37.7286 21.7253C37.7069 21.4867 37.7332 21.2462 37.806 21.018C37.8787 20.7898 37.9965 20.5785 38.1524 20.3967C38.3083 20.2148 38.499 20.066 38.7133 19.9591L45.3829 17.0758L45.3929 17.0704ZM34.6479 22.519C34.4101 22.4762 34.1834 22.3857 33.9815 22.2529C33.7795 22.1202 33.6066 21.948 33.473 21.7466C33.3393 21.5453 33.2479 21.319 33.204 21.0813C33.1602 20.8437 33.1649 20.5996 33.2178 20.3639C33.2708 20.1281 33.3709 19.9055 33.5122 19.7094C33.6535 19.5134 33.833 19.3479 34.0399 19.2231C34.2468 19.0982 34.4768 19.0165 34.7161 18.9829C34.9554 18.9493 35.199 18.9645 35.4323 19.0275L39.2995 19.988H39.3108C39.5481 20.0315 39.7741 20.1225 39.9754 20.2556C40.1767 20.3886 40.349 20.5609 40.4821 20.7621C40.6151 20.9634 40.7062 21.1894 40.7497 21.4267C40.7933 21.664 40.7885 21.9077 40.7356 22.1431C40.6828 22.3785 40.5829 22.6008 40.442 22.7966C40.3011 22.9925 40.1222 23.1579 39.9158 23.2829C39.7095 23.4079 39.48 23.4899 39.2412 23.5241C39.0023 23.5583 38.7591 23.5438 38.5259 23.4817L34.6592 22.5199L34.6479 22.519ZM23.3864 23.8538C23.4914 23.6365 23.6393 23.4427 23.8211 23.284C24.0029 23.1253 24.2149 23.005 24.4444 22.9302C24.6739 22.8555 24.9161 22.8279 25.1565 22.8491C25.3969 22.8703 25.6305 22.9399 25.8433 23.0536C26.0562 23.1673 26.2439 23.3229 26.3951 23.511C26.5463 23.699 26.658 23.9157 26.7234 24.148C26.7888 24.3803 26.8066 24.6234 26.7758 24.8628C26.7449 25.1021 26.666 25.3328 26.5437 25.5408L24.5857 29.0125L24.5799 29.0224C24.4743 29.2389 24.3262 29.4319 24.1443 29.5898C23.9625 29.7478 23.7506 29.8674 23.5215 29.9416C23.2923 30.0158 23.0505 30.043 22.8106 30.0216C22.5707 30.0002 22.3376 29.9307 22.1251 29.8171C21.9127 29.7036 21.7254 29.5483 21.5743 29.3607C21.4233 29.1731 21.3116 28.9569 21.246 28.7252C21.1805 28.4934 21.1623 28.2508 21.1926 28.0118C21.2229 27.7729 21.3011 27.5425 21.4225 27.3344L23.3805 23.8642L23.3864 23.8538ZM33.6066 19.1228C33.8316 19.0368 34.0717 18.9972 34.3124 19.0061C34.5531 19.0151 34.7895 19.0726 35.0075 19.175C35.2254 19.2775 35.4205 19.4229 35.581 19.6025C35.7415 19.7821 35.8641 19.9922 35.9415 20.2203C36.0189 20.4484 36.0495 20.6898 36.0315 20.93C36.0134 21.1702 35.9471 21.4042 35.8365 21.6182C35.7259 21.8322 35.5733 22.0216 35.3877 22.1752C35.2022 22.3289 34.9876 22.4435 34.7568 22.5122L25.6605 26.0511L25.6496 26.0552C25.4242 26.1422 25.1835 26.1828 24.942 26.1745C24.7005 26.1662 24.4632 26.1091 24.2443 26.0067C24.0254 25.9043 23.8295 25.7587 23.6683 25.5786C23.5072 25.3985 23.3841 25.1877 23.3065 24.9589C23.2289 24.73 23.1984 24.4879 23.2168 24.2469C23.2351 24.0059 23.3021 23.7712 23.4135 23.5568C23.525 23.3424 23.6786 23.1527 23.8652 22.9992C24.0519 22.8457 24.2676 22.7315 24.4995 22.6635L33.5971 19.1259L33.6066 19.1228ZM28.6299 19.8782C27.9785 20.1252 27.2685 20.1733 26.5896 20.0167C25.9108 19.86 25.2937 19.5056 24.8163 18.9982C24.3389 18.4908 24.0227 17.8532 23.9077 17.1661C23.7927 16.479 23.8841 15.7732 24.1702 15.138C24.4564 14.5028 24.9244 13.9668 25.5153 13.5976C26.1061 13.2285 26.7931 13.0428 27.4895 13.0642C28.1858 13.0855 28.8602 13.3128 29.4273 13.7175C29.9944 14.1221 30.4288 14.6858 30.6755 15.3373C31.0063 16.2108 30.9766 17.1798 30.593 18.0313C30.2094 18.8829 29.5033 19.5472 28.6299 19.8782ZM26.8688 25.8795C26.6514 25.333 26.6586 24.7227 26.8889 24.1814C27.1191 23.6402 27.5539 23.2118 28.0985 22.9895C29.2427 22.5276 33.379 21.4944 33.8419 22.6355C33.887 24.1487 36.7639 38.9902 32.3066 36.764C31.17 37.2259 29.0887 36.4176 28.6223 35.2779L26.8747 25.8926L26.8688 25.8795ZM23.8389 27.367C24.0272 27.5182 24.183 27.706 24.2969 27.9191C24.4108 28.1321 24.4804 28.366 24.5015 28.6066C24.5226 28.8473 24.4948 29.0897 24.4197 29.3193C24.3446 29.5489 24.2239 29.761 24.0647 29.9427C23.9056 30.1244 23.7113 30.2721 23.4936 30.3767C23.2759 30.4814 23.0392 30.5409 22.7979 30.5517C22.5566 30.5625 22.3155 30.5243 22.0893 30.4396C21.8632 30.3548 21.6565 30.2251 21.4817 30.0583L13.8638 23.9581L13.8548 23.9513C13.4983 23.6491 13.2705 23.2222 13.2178 22.7578C13.1651 22.2934 13.2915 21.8264 13.5712 21.4519C13.9775 22.0215 14.5919 22.4078 15.2813 22.5272C15.9706 22.6466 16.6792 22.4893 17.2533 22.0895L23.8312 27.3588L23.8389 27.367Z" fill="#B4B4B4"/>
</svg>
