<svg width="64" height="64" viewBox="0 0 64 64" fill="none" xmlns="http://www.w3.org/2000/svg">
<rect width="64" height="64"/>
<path d="M36.142 14.3731C36.1029 15.0609 35.8608 15.7217 35.4462 16.2718C35.0315 16.822 34.463 17.2368 33.8126 17.4638C33.1621 17.6908 32.459 17.7198 31.7921 17.5471C31.1251 17.3743 30.5244 17.0077 30.0659 16.4935C29.6074 15.9794 29.3117 15.3407 29.2163 14.6585C29.1208 13.9762 29.2298 13.2809 29.5295 12.6607C29.8293 12.0404 30.3062 11.5229 30.9001 11.1738C31.494 10.8246 32.1781 10.6594 32.8659 10.6992C33.7873 10.7524 34.65 11.1692 35.2643 11.8581C35.8786 12.547 36.1942 13.4516 36.142 14.3731ZM23.0087 16.7474L26.6664 17.9928C26.8956 18.0713 27.0844 18.2375 27.1913 18.4549C27.2982 18.6724 27.3146 18.9234 27.2367 19.1529L24.3941 27.5C24.3149 27.7291 24.1485 27.9177 23.931 28.0247C23.7135 28.1318 23.4625 28.1486 23.2327 28.0717L19.5777 26.8263C19.3485 26.7473 19.1598 26.5809 19.0527 26.3633C18.9456 26.1458 18.9288 25.8947 19.0061 25.6648L21.8509 17.3164C21.9298 17.0874 22.096 16.8989 22.3134 16.7921C22.5307 16.6852 22.7815 16.6687 23.011 16.746M27.4543 21.6342L27.5158 20.9763C27.7056 20.089 28.2338 19.3106 28.9883 18.8065C29.7427 18.3024 30.6639 18.1122 31.5563 18.2764C32.2052 18.3702 32.8133 18.649 33.3078 19.0794C33.8024 19.5097 34.1626 20.0734 34.3452 20.7031L37.7048 24.2939L41.8037 25.0011H41.8159C42.3408 25.0773 42.814 25.3589 43.1313 25.784C43.4486 26.2092 43.5841 26.7429 43.5079 27.2679C43.4316 27.7929 43.15 28.2661 42.7249 28.5834C42.2997 28.9007 41.766 29.0361 41.241 28.9599L36.8965 28.2135L36.8843 28.2112C36.5498 28.1625 36.2333 28.029 35.965 27.8233C35.596 27.7302 35.2612 27.5337 35 27.2571L33.1964 25.3325L30.9671 31.3288L37.9758 48.4575C38.2157 48.9303 38.258 49.4791 38.0934 49.9831C37.9288 50.4871 37.5707 50.9051 37.0979 51.1452L37.0555 51.1664C36.5834 51.3927 36.0413 51.4243 35.5461 51.2545C35.0509 51.0847 34.6423 50.7271 34.4084 50.2588L27.7736 34.0477L27.7253 34.0513L22.8818 49.4044C22.7458 49.9095 22.4167 50.3409 21.9656 50.6057C21.5145 50.8705 20.9774 50.9475 20.47 50.8201L20.4249 50.8088C19.9134 50.6673 19.479 50.3286 19.2171 49.8671C18.9552 49.4055 18.8873 48.8589 19.0282 48.3473L27.4543 21.6342ZM45.1181 18.6539C45.2936 18.6545 45.4618 18.7245 45.5859 18.8486C45.71 18.9727 45.78 19.1408 45.7806 19.3163V51.5385C45.7806 51.7142 45.7108 51.8827 45.5865 52.0069C45.4623 52.1311 45.2938 52.2009 45.1181 52.2009C44.9424 52.2009 44.7739 52.1311 44.6497 52.0069C44.5255 51.8827 44.4557 51.7142 44.4557 51.5385V19.3163C44.4563 19.1408 44.5263 18.9727 44.6504 18.8486C44.7745 18.7245 44.9426 18.6545 45.1181 18.6539ZM28.2098 21.5516L29.5645 32.1249L28.2098 21.5516Z" fill="#B4B4B4"/>
</svg>
