<svg width="160" height="160" viewBox="0 0 160 160" fill="none" xmlns="http://www.w3.org/2000/svg">
<path fill-rule="evenodd" clip-rule="evenodd" d="M9.35449 89C9.35449 70.2637 16.7975 52.2948 30.046 39.0462C43.2946 25.7976 61.2635 18.3547 79.9998 18.3547C98.7361 18.3547 116.705 25.7976 129.954 39.0462C143.202 52.2948 150.645 70.2637 150.645 89C150.645 107.736 143.202 125.705 129.954 138.954C116.705 152.202 98.7361 159.645 79.9998 159.645C61.2635 159.645 43.2946 152.202 30.046 138.954C16.7975 125.705 9.35449 107.736 9.35449 89ZM79.9998 28.488C63.951 28.488 48.5596 34.8634 37.2114 46.2116C25.8632 57.5598 19.4878 72.9512 19.4878 89C19.4878 105.049 25.8632 120.44 37.2114 131.788C48.5596 143.137 63.951 149.512 79.9998 149.512C96.0486 149.512 111.44 143.137 122.788 131.788C134.136 120.44 140.512 105.049 140.512 89C140.512 72.9512 134.136 57.5598 122.788 46.2116C111.44 34.8634 96.0486 28.488 79.9998 28.488ZM75.9998 105C75.4132 106.355 67.5412 136.573 67.5412 136.573C67.3591 137.25 67.0455 137.884 66.6183 138.439C66.1912 138.995 65.6588 139.461 65.0516 139.81C63.8254 140.516 62.3689 140.706 61.0025 140.339C60.3259 140.157 59.6918 139.843 59.1365 139.416C58.5811 138.989 58.1153 138.456 57.7656 137.849C57.0595 136.623 56.8694 135.166 57.2372 133.8C57.2372 133.8 66.6238 103.645 66.6238 97.2133V81.544L45.7385 75.944C45.0516 75.7728 44.4057 75.4666 43.8384 75.0432C43.271 74.6198 42.7937 74.0877 42.4341 73.4779C42.0746 72.8681 41.84 72.1929 41.7441 71.4915C41.6482 70.7901 41.6929 70.0767 41.8755 69.3928C42.0582 68.7089 42.3752 68.0681 42.808 67.508C43.2409 66.9478 43.7809 66.4795 44.3966 66.1302C45.0123 65.7809 45.6914 65.5576 46.3943 65.4735C47.0971 65.3893 47.8097 65.4459 48.4905 65.64C48.4905 65.64 66.1332 71.6453 73.0238 71.6453H86.9865C93.8665 71.6453 111.498 65.64 111.498 65.64C112.865 65.2722 114.321 65.4623 115.548 66.1685C116.774 66.8746 117.669 68.0389 118.037 69.4053C118.405 70.7717 118.215 72.2283 117.509 73.4545C116.803 74.6807 115.638 75.5762 114.272 75.944L93.3012 81.5653V97.2133C93.3012 103.645 102.688 133.768 102.688 133.768C103.054 135.134 102.863 136.59 102.156 137.816C101.448 139.041 100.284 139.935 98.9172 140.301C97.5508 140.668 96.0948 140.476 94.8696 139.769C93.6443 139.062 92.7502 137.897 92.3838 136.531C92.3838 136.531 84.4798 106.355 83.9358 105C83.4025 103.645 81.5998 103.645 81.5998 103.645H78.3252C78.3252 103.645 76.4798 103.645 75.9998 105ZM79.9998 63.6133C83.1824 63.6133 86.2347 62.3491 88.4851 60.0986C90.7355 57.8482 91.9998 54.7959 91.9998 51.6133C91.9998 48.4307 90.7355 45.3785 88.4851 43.1281C86.2347 40.8776 83.1824 39.6133 79.9998 39.6133C76.8172 39.6133 73.765 40.8776 71.5145 43.1281C69.2641 45.3785 67.9998 48.4307 67.9998 51.6133C67.9998 54.7959 69.2641 57.8482 71.5145 60.0986C73.765 62.3491 76.8172 63.6133 79.9998 63.6133Z" fill="white"/>
</svg>
