<svg width="160" height="160" viewBox="0 0 160 160" fill="none" xmlns="http://www.w3.org/2000/svg">
<path d="M92.9335 67.4C91.6762 64.2303 89.2951 61.635 86.2452 60.11C83.1952 58.585 79.6903 58.2373 76.4002 59.1333C72.0002 60.2667 68.5335 63.8 66.8668 68.0667L50.3335 109.533C48.5335 113.933 51.8002 118.667 56.4668 118.667H70.0002V152C70.0002 155.667 73.0002 158.667 76.6668 158.667H83.3335C87.0002 158.667 90.0002 155.667 90.0002 152V118.667H103.533C108.267 118.667 111.467 113.933 109.733 109.533L92.9335 67.4Z" fill="white"/>
<path d="M80.0003 52C87.3641 52 93.3337 46.0304 93.3337 38.6666C93.3337 31.3028 87.3641 25.3333 80.0003 25.3333C72.6365 25.3333 66.667 31.3028 66.667 38.6666C66.667 46.0304 72.6365 52 80.0003 52Z" fill="white"/>
</svg>
