<svg width="468" height="312" viewBox="0 0 468 312" fill="none" xmlns="http://www.w3.org/2000/svg">
<g clip-path="url(#clip0_3130_19401)">
<path fill-rule="evenodd" clip-rule="evenodd" d="M452.64 274.137V261.912C458.787 250.474 461.999 237.688 461.99 224.7V90.3455C461.999 77.3583 458.787 64.572 452.64 53.135V40.9131C462.913 55.344 468.431 72.6249 468.425 90.3455V224.7C468.433 242.421 462.917 259.702 452.646 274.134L452.64 274.137Z" fill="white"/>
<path fill-rule="evenodd" clip-rule="evenodd" d="M452.64 243.619C454.309 237.452 455.153 231.09 455.15 224.7V90.3455C455.153 83.9562 454.309 77.5948 452.64 71.4277V243.619Z" fill="white"/>
<path fill-rule="evenodd" clip-rule="evenodd" d="M452.637 40.9135V53.1354C447.548 43.7088 440.652 35.3792 432.345 28.623C424.037 21.8667 414.481 16.8165 404.222 13.761V6.99854C423.78 12.3842 440.881 24.3639 452.637 40.9135Z" fill="white"/>
<path fill-rule="evenodd" clip-rule="evenodd" d="M452.637 71.4277C449.375 59.6247 443.247 48.8128 434.8 39.9553C426.353 31.0978 415.848 24.4697 404.222 20.6616V27.5362C430.172 36.9893 448.718 61.577 448.718 90.3444V224.7C448.718 253.468 430.172 278.056 404.222 287.509V294.384C415.848 290.576 426.353 283.948 434.8 275.09C443.247 266.233 449.375 255.421 452.637 243.618V71.4277Z" fill="white"/>
<path fill-rule="evenodd" clip-rule="evenodd" d="M452.637 261.912V274.137C440.881 290.687 423.78 302.666 404.222 308.052V301.287C414.48 298.231 424.037 293.181 432.344 286.424C440.652 279.668 447.548 271.339 452.637 261.912Z" fill="white"/>
<path fill-rule="evenodd" clip-rule="evenodd" d="M404.222 280.432C415.306 275.92 424.801 268.214 431.506 258.292C438.21 248.37 441.82 236.679 441.879 224.7V90.3459C441.82 78.3673 438.21 66.6761 431.506 56.7544C424.802 46.8326 415.306 39.1273 404.222 34.6152V41.7098C413.504 46.009 421.372 52.8669 426.902 61.4804C432.433 70.0938 435.398 80.1065 435.45 90.3459V224.7C435.398 234.94 432.433 244.953 426.903 253.567C421.372 262.18 413.505 269.038 404.222 273.338V280.432Z" fill="white"/>
<path fill-rule="evenodd" clip-rule="evenodd" d="M404.222 265.899C411.585 261.831 417.729 255.866 422.017 248.623C426.305 241.379 428.581 233.12 428.611 224.7V90.3457C428.581 81.926 426.304 73.6672 422.016 66.424C417.728 59.1807 411.585 53.2163 404.222 49.1479V56.7629C409.731 60.4632 414.25 65.4603 417.381 71.3159C420.512 77.1716 422.16 83.707 422.181 90.3489V224.7C422.161 231.342 420.512 237.878 417.381 243.733C414.25 249.589 409.731 254.586 404.222 258.286V265.901V265.899Z" fill="white"/>
<path fill-rule="evenodd" clip-rule="evenodd" d="M404.222 249.799V239.963C407.28 235.445 408.913 230.112 408.911 224.654V90.1407C408.913 84.6828 407.28 79.3498 404.222 74.8315V64.9956C407.721 68.1804 410.517 72.0615 412.432 76.3905C414.347 80.7194 415.339 85.4009 415.343 90.1354V224.659C415.339 229.394 414.347 234.075 412.432 238.404C410.517 242.733 407.721 246.614 404.222 249.799Z" fill="white"/>
<path fill-rule="evenodd" clip-rule="evenodd" d="M404.224 6.99832V13.7608C398.811 12.1469 393.245 11.0964 387.616 10.626V4.09619C393.232 4.53243 398.793 5.50421 404.224 6.99832Z" fill="white"/>
<path fill-rule="evenodd" clip-rule="evenodd" d="M404.224 20.6628V27.5374C398.867 25.5872 393.288 24.3128 387.616 23.7437V17.2139C393.265 17.7314 398.836 18.8884 404.224 20.6628Z" fill="white"/>
<path fill-rule="evenodd" clip-rule="evenodd" d="M404.224 34.6152V41.7097C398.976 39.2405 393.371 37.6158 387.616 36.8954V30.354C393.324 30.9919 398.914 32.4273 404.224 34.6184V34.6152Z" fill="white"/>
<path fill-rule="evenodd" clip-rule="evenodd" d="M404.224 49.1479V56.7628C399.234 53.3694 393.567 51.0988 387.616 50.1072V43.5234C393.45 44.3642 399.079 46.2707 404.224 49.1479Z" fill="white"/>
<path fill-rule="evenodd" clip-rule="evenodd" d="M404.224 65.0006C399.56 60.7209 393.818 57.7957 387.616 56.5396V63.2153C394.393 64.9083 400.307 69.0461 404.224 74.8354V65.0006Z" fill="white"/>
<path fill-rule="evenodd" clip-rule="evenodd" d="M404.224 239.968V249.804C399.559 254.083 393.818 257.009 387.616 258.265V251.592C394.393 249.897 400.307 245.759 404.224 239.97V239.968Z" fill="white"/>
<path fill-rule="evenodd" clip-rule="evenodd" d="M404.224 258.286V265.901C399.079 268.778 393.449 270.684 387.616 271.525V264.944C393.567 263.952 399.234 261.682 404.224 258.288V258.286Z" fill="white"/>
<path fill-rule="evenodd" clip-rule="evenodd" d="M404.224 273.337V280.432C398.914 282.623 393.324 284.058 387.616 284.696V278.156C393.371 277.437 398.976 275.812 404.224 273.342V273.337Z" fill="white"/>
<path fill-rule="evenodd" clip-rule="evenodd" d="M404.224 287.51V294.384C398.836 296.159 393.265 297.316 387.616 297.833V291.303C393.288 290.734 398.867 289.46 404.224 287.51Z" fill="white"/>
<path fill-rule="evenodd" clip-rule="evenodd" d="M404.224 301.286V308.049C398.793 309.543 393.232 310.514 387.616 310.951V304.421C393.245 303.951 398.811 302.9 404.224 301.286Z" fill="white"/>
<path fill-rule="evenodd" clip-rule="evenodd" d="M387.616 4.09628V10.6261C385.92 10.4851 384.212 10.3937 382.491 10.3521V3.84668C384.211 3.88264 385.919 3.96584 387.616 4.09628Z" fill="white"/>
<path fill-rule="evenodd" clip-rule="evenodd" d="M387.616 17.214V23.7438C385.926 23.5732 384.217 23.4653 382.491 23.4202V16.9126C384.215 16.9556 385.924 17.0561 387.616 17.214Z" fill="white"/>
<path fill-rule="evenodd" clip-rule="evenodd" d="M387.616 30.3538V36.8984C385.931 36.6869 384.223 36.5536 382.491 36.4986V29.9868C384.217 30.0376 385.926 30.1589 387.616 30.3506V30.3538Z" fill="white"/>
<path fill-rule="evenodd" clip-rule="evenodd" d="M387.616 43.5237V50.1043C385.92 49.8241 384.209 49.6475 382.491 49.5755V43.0615C384.206 43.1256 385.917 43.2798 387.616 43.5237Z" fill="white"/>
<path fill-rule="evenodd" clip-rule="evenodd" d="M387.616 56.5354V63.2111C385.935 62.7906 384.22 62.5244 382.491 62.4158V55.8892C384.213 55.9782 385.926 56.1942 387.616 56.5354Z" fill="white"/>
<path fill-rule="evenodd" clip-rule="evenodd" d="M387.616 251.589V258.263C385.926 258.604 384.213 258.82 382.491 258.909V252.384C384.22 252.275 385.935 252.009 387.616 251.589Z" fill="white"/>
<path fill-rule="evenodd" clip-rule="evenodd" d="M387.616 264.942V271.523C385.917 271.767 384.206 271.922 382.491 271.986V265.476C384.209 265.402 385.92 265.224 387.616 264.942Z" fill="white"/>
<path fill-rule="evenodd" clip-rule="evenodd" d="M387.616 278.156V284.7C385.926 284.889 384.217 285.011 382.491 285.064V278.555C384.221 278.499 385.929 278.366 387.616 278.156Z" fill="white"/>
<path fill-rule="evenodd" clip-rule="evenodd" d="M387.616 291.303V297.833C385.926 297.987 384.215 298.091 382.491 298.133V291.626C384.216 291.58 385.924 291.472 387.616 291.303Z" fill="white"/>
<path fill-rule="evenodd" clip-rule="evenodd" d="M387.616 304.421V310.951C385.92 311.083 384.212 311.166 382.491 311.199V304.695C384.213 304.655 385.921 304.564 387.616 304.421Z" fill="white"/>
<path fill-rule="evenodd" clip-rule="evenodd" d="M382.488 3.84651V10.352C381.874 10.3382 381.26 10.3287 380.643 10.3287L350.158 10.3202V3.82324H380.643C381.26 3.82324 381.874 3.83382 382.488 3.84651Z" fill="white"/>
<path fill-rule="evenodd" clip-rule="evenodd" d="M382.488 16.9124V23.42C381.876 23.4041 381.26 23.3946 380.643 23.3946L350.158 23.3862V16.8892H380.643C381.26 16.8892 381.874 16.8987 382.488 16.9124Z" fill="white"/>
<path fill-rule="evenodd" clip-rule="evenodd" d="M382.488 29.9867V36.4954C381.876 36.4763 381.261 36.4615 380.643 36.4615L350.158 36.4679V29.9719L380.643 29.9561C381.261 29.9561 381.876 29.9687 382.488 29.9867Z" fill="white"/>
<path fill-rule="evenodd" clip-rule="evenodd" d="M382.488 43.0613V49.57C381.877 49.5435 381.262 49.5266 380.643 49.5266L350.158 49.515V43.019H380.643C381.261 43.019 381.876 43.036 382.488 43.0582V43.0613Z" fill="white"/>
<path fill-rule="evenodd" clip-rule="evenodd" d="M382.488 55.8894V62.416C381.878 62.3769 381.263 62.3547 380.643 62.3547H350.158V55.8503L380.643 55.8418C381.262 55.8418 381.877 55.857 382.488 55.8894Z" fill="white"/>
<path fill-rule="evenodd" clip-rule="evenodd" d="M382.488 252.384V258.909C381.876 258.941 381.261 258.957 380.643 258.958H370.147C362.998 258.97 356.019 256.778 350.158 252.681V244.289C355.492 249.531 362.672 252.461 370.147 252.445H380.643C381.263 252.445 381.878 252.423 382.488 252.384Z" fill="white"/>
<path fill-rule="evenodd" clip-rule="evenodd" d="M382.488 265.476V271.986C381.876 272.008 381.261 272.024 380.643 272.024H370.147C363.253 272.033 356.437 270.564 350.158 267.714V260.473C356.297 263.796 363.168 265.531 370.147 265.52H380.643C381.262 265.52 381.877 265.503 382.488 265.476Z" fill="white"/>
<path fill-rule="evenodd" clip-rule="evenodd" d="M382.488 278.551V285.06C381.876 285.078 381.261 285.091 380.643 285.091H370.147C363.348 285.097 356.594 283.979 350.158 281.784V274.877C356.535 277.339 363.312 278.597 370.147 278.589H380.643C381.261 278.589 381.876 278.574 382.488 278.554V278.551Z" fill="white"/>
<path fill-rule="evenodd" clip-rule="evenodd" d="M382.488 291.626V298.133C381.874 298.148 381.259 298.156 380.643 298.157H370.147C363.394 298.161 356.671 297.256 350.158 295.468V288.699C356.64 290.659 363.376 291.652 370.147 291.647H380.643C381.26 291.647 381.875 291.638 382.488 291.62V291.626Z" fill="white"/>
<path fill-rule="evenodd" clip-rule="evenodd" d="M382.488 304.695V311.2C381.874 311.213 381.26 311.223 380.643 311.223H370.147C363.42 311.227 356.714 310.467 350.158 308.957V302.27C356.696 303.899 363.409 304.721 370.147 304.717H380.643C381.26 304.717 381.874 304.709 382.488 304.695Z" fill="white"/>
<path fill-rule="evenodd" clip-rule="evenodd" d="M350.162 3.82324V10.3202L345.875 10.3192V3.82324H350.162Z" fill="white"/>
<path fill-rule="evenodd" clip-rule="evenodd" d="M350.162 16.8892V23.3862L345.875 23.3851V16.8892H350.162Z" fill="white"/>
<path fill-rule="evenodd" clip-rule="evenodd" d="M350.162 29.9722V36.4681L345.875 36.4692V29.9732L350.162 29.9722Z" fill="white"/>
<path fill-rule="evenodd" clip-rule="evenodd" d="M350.162 43.0191V49.5151L345.875 49.513V43.0181L350.162 43.0191Z" fill="white"/>
<path fill-rule="evenodd" clip-rule="evenodd" d="M350.162 55.8491V62.3535L345.875 62.3525V55.8502L350.162 55.8491Z" fill="white"/>
<path fill-rule="evenodd" clip-rule="evenodd" d="M350.162 244.288V252.681C348.641 251.617 347.207 250.434 345.875 249.142V238.883C347.076 240.855 348.516 242.672 350.162 244.29V244.288Z" fill="white"/>
<path fill-rule="evenodd" clip-rule="evenodd" d="M350.162 260.472V267.714C348.697 267.049 347.266 266.311 345.875 265.501V257.802C347.249 258.778 348.68 259.67 350.162 260.472Z" fill="white"/>
<path fill-rule="evenodd" clip-rule="evenodd" d="M350.162 274.877V281.787C348.708 281.29 347.279 280.741 345.875 280.14V273.004C347.273 273.687 348.702 274.311 350.162 274.877Z" fill="white"/>
<path fill-rule="evenodd" clip-rule="evenodd" d="M350.162 288.705V295.473C348.715 295.076 347.286 294.636 345.875 294.155V287.251C347.284 287.782 348.713 288.268 350.162 288.708V288.705Z" fill="white"/>
<path fill-rule="evenodd" clip-rule="evenodd" d="M350.162 302.27V308.956C348.719 308.624 347.29 308.257 345.875 307.854V301.077C347.287 301.512 348.716 301.91 350.162 302.27Z" fill="white"/>
<path fill-rule="evenodd" clip-rule="evenodd" d="M345.874 3.82324V10.3192L330.854 10.315V3.82324H345.874Z" fill="white"/>
<path fill-rule="evenodd" clip-rule="evenodd" d="M345.874 16.8892V23.3851L330.854 23.3809V16.8892H345.874Z" fill="white"/>
<path fill-rule="evenodd" clip-rule="evenodd" d="M345.874 29.9731V36.4691L330.854 36.4723V29.9816L345.874 29.9731Z" fill="white"/>
<path fill-rule="evenodd" clip-rule="evenodd" d="M345.874 43.0182V49.513L330.854 49.5067V43.0171L345.874 43.0182Z" fill="white"/>
<path fill-rule="evenodd" clip-rule="evenodd" d="M345.874 55.8501V62.3524L330.854 62.3513V55.8543L345.874 55.8501Z" fill="white"/>
<path fill-rule="evenodd" clip-rule="evenodd" d="M345.878 238.881V249.14C342.584 245.971 339.964 242.17 338.172 237.963C336.381 233.756 335.457 229.23 335.454 224.657V82.051H330.857V75.6143H341.884V224.659C341.881 229.678 343.263 234.599 345.878 238.881Z" fill="white"/>
<path fill-rule="evenodd" clip-rule="evenodd" d="M345.878 257.802C338.938 252.896 333.69 245.955 330.858 237.937V251.808C334.834 257.391 339.955 262.059 345.878 265.501V257.802Z" fill="white"/>
<path fill-rule="evenodd" clip-rule="evenodd" d="M345.878 273.001V280.137C340.459 277.82 335.4 274.735 330.858 270.977V262.222C335.222 266.636 340.3 270.281 345.878 273.001Z" fill="white"/>
<path fill-rule="evenodd" clip-rule="evenodd" d="M345.878 287.251C340.563 285.251 335.517 282.595 330.858 279.347V287.085C335.587 289.992 340.625 292.362 345.878 294.152V287.251Z" fill="white"/>
<path fill-rule="evenodd" clip-rule="evenodd" d="M345.878 301.078V307.855C340.705 306.385 335.677 304.442 330.858 302.053V294.741C335.641 297.35 340.673 299.473 345.878 301.078Z" fill="white"/>
<path fill-rule="evenodd" clip-rule="evenodd" d="M330.854 3.82324V10.315L311.272 10.3097V3.82324H330.854Z" fill="white"/>
<path fill-rule="evenodd" clip-rule="evenodd" d="M330.854 16.8892V23.3809L311.272 23.3756V16.8892H330.854Z" fill="white"/>
<path fill-rule="evenodd" clip-rule="evenodd" d="M330.854 29.9814V36.4721L311.272 36.4763V29.991L330.854 29.9814Z" fill="white"/>
<path fill-rule="evenodd" clip-rule="evenodd" d="M330.854 43.0168V49.5064L311.272 49.5001V43.0137L330.854 43.0168Z" fill="white"/>
<path fill-rule="evenodd" clip-rule="evenodd" d="M330.854 55.8545V62.3515L311.272 62.3504V55.8598L330.854 55.8545Z" fill="white"/>
<path fill-rule="evenodd" clip-rule="evenodd" d="M330.851 75.6143V82.051H328.609V224.701C328.605 229.208 329.364 233.683 330.851 237.937V251.809C325.207 243.899 322.175 234.421 322.179 224.701V82.051H315.344V224.701C315.357 238.769 320.933 252.259 330.855 262.222V270.977C321.507 263.278 314.684 252.946 311.272 241.319V75.6143H330.851Z" fill="white"/>
<path fill-rule="evenodd" clip-rule="evenodd" d="M330.854 279.344C322.899 273.802 316.222 266.618 311.272 258.276V269.659C316.724 276.576 323.353 282.474 330.854 287.082V279.344Z" fill="white"/>
<path fill-rule="evenodd" clip-rule="evenodd" d="M330.854 294.74V302.058C323.764 298.544 317.177 294.091 311.272 288.819V279.863C317.013 285.784 323.615 290.802 330.854 294.746V294.74Z" fill="white"/>
<path fill-rule="evenodd" clip-rule="evenodd" d="M311.27 3.82324V10.3097L291.964 10.3044V3.82324H311.27Z" fill="white"/>
<path fill-rule="evenodd" clip-rule="evenodd" d="M311.27 16.8892V23.3756L291.964 23.3703V16.8892H311.27Z" fill="white"/>
<path fill-rule="evenodd" clip-rule="evenodd" d="M311.27 29.9912V36.4766L291.964 36.4808V30.0007L311.27 29.9912Z" fill="white"/>
<path fill-rule="evenodd" clip-rule="evenodd" d="M311.27 43.0138V49.5003L291.964 49.4929V43.0117L311.27 43.0138Z" fill="white"/>
<path fill-rule="evenodd" clip-rule="evenodd" d="M311.27 55.8599V62.3505L291.964 62.3495V55.8641L311.27 55.8599Z" fill="white"/>
<path fill-rule="evenodd" clip-rule="evenodd" d="M311.27 75.6143V241.319C309.701 235.919 308.907 230.324 308.911 224.701V82.051H302.073V224.701C302.064 236.517 305.242 248.117 311.27 258.276V269.659C301.147 256.866 295.64 241.022 295.643 224.701V82.051H291.964V75.6143H311.27Z" fill="white"/>
<path fill-rule="evenodd" clip-rule="evenodd" d="M311.27 279.858C302.249 270.575 295.622 259.232 291.964 246.809V264.001C296.844 273.375 303.386 281.782 311.27 288.814V279.858Z" fill="white"/>
<path fill-rule="evenodd" clip-rule="evenodd" d="M291.962 3.82324V10.3044L272.725 10.2991V3.82324H291.962Z" fill="white"/>
<path fill-rule="evenodd" clip-rule="evenodd" d="M291.962 16.8892V23.3703L272.725 23.365V16.8892H291.962Z" fill="white"/>
<path fill-rule="evenodd" clip-rule="evenodd" d="M291.962 30.0005V36.4806L272.725 36.4848V30.01L291.962 30.0005Z" fill="white"/>
<path fill-rule="evenodd" clip-rule="evenodd" d="M291.962 43.0114V49.4925L272.725 49.4841V43.0093L291.962 43.0114Z" fill="white"/>
<path fill-rule="evenodd" clip-rule="evenodd" d="M291.962 55.8638V62.3491L272.725 62.347V55.8691L291.962 55.8638Z" fill="white"/>
<path fill-rule="evenodd" clip-rule="evenodd" d="M291.962 75.6143V82.051H288.803V224.701C288.799 232.182 289.863 239.625 291.962 246.805V263.997C285.65 251.861 282.361 238.378 282.373 224.696V75.6143H291.962Z" fill="white"/>
<path fill-rule="evenodd" clip-rule="evenodd" d="M272.728 3.82324V10.2991L218.76 10.2843V3.82324H272.728Z" fill="white"/>
<path fill-rule="evenodd" clip-rule="evenodd" d="M272.728 16.8892V23.365L218.76 23.3513V16.8892H272.728Z" fill="white"/>
<path fill-rule="evenodd" clip-rule="evenodd" d="M272.728 30.0103V36.485L218.76 36.4967V30.0367L272.728 30.0103Z" fill="white"/>
<path fill-rule="evenodd" clip-rule="evenodd" d="M272.728 43.0093V49.4841L218.76 49.464V43.0029L272.728 43.0093Z" fill="white"/>
<path fill-rule="evenodd" clip-rule="evenodd" d="M272.728 55.8691V62.3471L228.425 62.345L228.419 311.609H218.76V305.173H221.995V62.345H218.76V55.885L272.728 55.8691Z" fill="white"/>
<path fill-rule="evenodd" clip-rule="evenodd" d="M218.757 3.82324V10.2843L205.855 10.2801V3.82324H218.757Z" fill="white"/>
<path fill-rule="evenodd" clip-rule="evenodd" d="M218.757 16.8892V23.3513L205.855 23.347V16.8892H218.757Z" fill="white"/>
<path fill-rule="evenodd" clip-rule="evenodd" d="M218.757 30.0366V36.4966L205.855 36.4998V30.0419L218.757 30.0366Z" fill="white"/>
<path fill-rule="evenodd" clip-rule="evenodd" d="M218.757 43.0031V49.4641L205.855 49.4589V43.001L218.757 43.0031Z" fill="white"/>
<path fill-rule="evenodd" clip-rule="evenodd" d="M218.757 55.8848V62.3448H215.521V305.173H218.757V311.608H205.855V305.173H209.092V62.3448H205.855V55.8879L218.757 55.8848Z" fill="white"/>
<path fill-rule="evenodd" clip-rule="evenodd" d="M205.858 3.82324V10.2801L196.48 10.2769V3.82324H205.858Z" fill="white"/>
<path fill-rule="evenodd" clip-rule="evenodd" d="M205.858 16.8892V23.347L196.48 23.3449V16.8892H205.858Z" fill="white"/>
<path fill-rule="evenodd" clip-rule="evenodd" d="M205.858 30.042V36.4999L196.48 36.5009V30.0473L205.858 30.042Z" fill="white"/>
<path fill-rule="evenodd" clip-rule="evenodd" d="M205.858 43.0011V49.4589L196.48 49.4558V43L205.858 43.0011Z" fill="white"/>
<path fill-rule="evenodd" clip-rule="evenodd" d="M205.858 55.8882V62.345H202.623V305.173H205.858V311.609H196.48V55.8914L205.858 55.8882Z" fill="white"/>
<path fill-rule="evenodd" clip-rule="evenodd" d="M196.478 3.82324V10.2769L192.956 10.2758V3.82324H196.478Z" fill="white"/>
<path fill-rule="evenodd" clip-rule="evenodd" d="M196.478 16.8892V23.3449L192.956 23.3439V16.8892H196.478Z" fill="white"/>
<path fill-rule="evenodd" clip-rule="evenodd" d="M196.478 30.0474V36.501L192.956 36.5021V30.0495L196.478 30.0474Z" fill="white"/>
<path fill-rule="evenodd" clip-rule="evenodd" d="M196.478 43.0001V49.4558L192.956 49.4537V42.999L196.478 43.0001Z" fill="white"/>
<path fill-rule="evenodd" clip-rule="evenodd" d="M196.478 55.8916V311.609H192.956V305.173H196.191V62.3452H192.956V55.8927L196.478 55.8916Z" fill="white"/>
<path fill-rule="evenodd" clip-rule="evenodd" d="M192.959 3.82324V10.2758L180.06 10.2727V3.82324H192.959Z" fill="white"/>
<path fill-rule="evenodd" clip-rule="evenodd" d="M192.959 16.8892V23.3439L180.06 23.3407V16.8892H192.959Z" fill="white"/>
<path fill-rule="evenodd" clip-rule="evenodd" d="M192.959 30.0493V36.5019L180.06 36.504V30.0557L192.959 30.0493Z" fill="white"/>
<path fill-rule="evenodd" clip-rule="evenodd" d="M192.959 42.999V49.4537L180.06 49.4484V42.999H192.959Z" fill="white"/>
<path fill-rule="evenodd" clip-rule="evenodd" d="M192.959 55.8926V62.3452H189.724V305.173H192.959V311.609H180.06V305.173H183.294V62.3452H180.06V55.8957L192.959 55.8926Z" fill="white"/>
<path fill-rule="evenodd" clip-rule="evenodd" d="M180.058 3.82324V10.2727L168.819 10.2695V3.82324H180.058Z" fill="white"/>
<path fill-rule="evenodd" clip-rule="evenodd" d="M180.058 16.8892V23.3407L168.819 23.3375V16.8892H180.058Z" fill="white"/>
<path fill-rule="evenodd" clip-rule="evenodd" d="M180.058 30.0557V36.504L168.819 36.5072V30.0609L180.058 30.0557Z" fill="white"/>
<path fill-rule="evenodd" clip-rule="evenodd" d="M180.058 42.9987V49.4481L168.819 49.4439V42.9966L180.058 42.9987Z" fill="white"/>
<path fill-rule="evenodd" clip-rule="evenodd" d="M180.058 55.8955V62.3449H176.823V305.173H180.058V311.609H170.382L170.391 62.3449H168.819V55.8987L180.058 55.8955Z" fill="white"/>
<path fill-rule="evenodd" clip-rule="evenodd" d="M168.82 3.82324V10.2695L160.723 10.2674V3.82324H168.82Z" fill="white"/>
<path fill-rule="evenodd" clip-rule="evenodd" d="M168.82 16.8892V23.3375L160.723 23.3354V16.8892H168.82Z" fill="white"/>
<path fill-rule="evenodd" clip-rule="evenodd" d="M168.82 30.061V36.5073L160.723 36.5083V30.0653L168.82 30.061Z" fill="white"/>
<path fill-rule="evenodd" clip-rule="evenodd" d="M168.82 42.9967V49.444L160.723 49.4408V42.9956L168.82 42.9967Z" fill="white"/>
<path fill-rule="evenodd" clip-rule="evenodd" d="M168.82 55.8989V62.3452L160.723 62.3431V55.901L168.82 55.8989Z" fill="white"/>
<path fill-rule="evenodd" clip-rule="evenodd" d="M160.724 3.82324V10.2674L133.461 10.26L133.471 16.8892H160.724V23.3354L133.478 23.328L133.487 30.0788L160.724 30.0651V36.5081L133.495 36.5145L133.505 42.9925L160.724 42.9956V49.4408L133.513 49.4302L133.52 55.9082L160.724 55.9008V62.3428L127.101 62.3365L127.023 3.82324H160.724Z" fill="white"/>
<path fill-rule="evenodd" clip-rule="evenodd" d="M114.035 62.3374V3.82422H91.1426V10.2768H107.607V16.8309H91.1426V23.2856H107.607V29.8397H91.1426V36.2934H107.607V42.8475H91.1426V49.3011H107.607V55.8552H91.1426V62.348L114.035 62.3374Z" fill="white"/>
<path fill-rule="evenodd" clip-rule="evenodd" d="M91.1419 3.82422H81.4111V10.2768H91.1419V3.82422Z" fill="white"/>
<path fill-rule="evenodd" clip-rule="evenodd" d="M81.4111 62.3525L91.1419 62.3482V55.8555H81.4111V62.3525Z" fill="white"/>
<path fill-rule="evenodd" clip-rule="evenodd" d="M91.1419 16.8311V23.2857H81.4111V16.8311H91.1419Z" fill="white"/>
<path fill-rule="evenodd" clip-rule="evenodd" d="M91.1419 29.8398V36.2935H81.4111V29.8398H91.1419Z" fill="white"/>
<path fill-rule="evenodd" clip-rule="evenodd" d="M91.1419 42.8477V49.3013H81.4111V42.8477H91.1419Z" fill="white"/>
<path fill-rule="evenodd" clip-rule="evenodd" d="M81.4128 3.82422H69.791V10.2768H81.4128V3.82422Z" fill="white"/>
<path fill-rule="evenodd" clip-rule="evenodd" d="M69.791 62.3588L81.4128 62.3525V55.8555H69.791V62.3588Z" fill="white"/>
<path fill-rule="evenodd" clip-rule="evenodd" d="M81.4128 16.8311V23.2857H69.791V16.8311H81.4128Z" fill="white"/>
<path fill-rule="evenodd" clip-rule="evenodd" d="M81.4128 29.8398V36.2935H69.791V29.8398H81.4128Z" fill="white"/>
<path fill-rule="evenodd" clip-rule="evenodd" d="M81.4128 42.8477V49.3013H69.791V42.8477H81.4128Z" fill="white"/>
<path fill-rule="evenodd" clip-rule="evenodd" d="M69.7882 3.82422H62.1027V10.2768H69.7882V3.82422Z" fill="white"/>
<path fill-rule="evenodd" clip-rule="evenodd" d="M62.1027 62.362L69.7882 62.3588V55.8555H62.1027V62.362Z" fill="white"/>
<path fill-rule="evenodd" clip-rule="evenodd" d="M69.7882 16.8311V23.2857H62.1027V16.8311H69.7882Z" fill="white"/>
<path fill-rule="evenodd" clip-rule="evenodd" d="M69.7882 29.8398V36.2935H62.1027V29.8398H69.7882Z" fill="white"/>
<path fill-rule="evenodd" clip-rule="evenodd" d="M69.7882 42.8477V49.3013H62.1027V42.8477H69.7882Z" fill="white"/>
<path fill-rule="evenodd" clip-rule="evenodd" d="M62.1035 3.82422H43.0497V10.2768H62.1035V3.82422Z" fill="white"/>
<path fill-rule="evenodd" clip-rule="evenodd" d="M43.0497 311.253H57.7753V304.817H57.7732L57.7193 62.363L62.1035 62.3619V55.8554H51.3448V304.817H44.8731V49.3013H62.1035V42.8477H43.0497V311.253Z" fill="white"/>
<path fill-rule="evenodd" clip-rule="evenodd" d="M62.1035 16.8311V23.2857H43.0497V16.8311H62.1035Z" fill="white"/>
<path fill-rule="evenodd" clip-rule="evenodd" d="M62.1035 29.8398V36.2935H43.0497V29.8398H62.1035Z" fill="white"/>
<path fill-rule="evenodd" clip-rule="evenodd" d="M43.0503 3.82422H38.663V10.2768H43.0503V3.82422Z" fill="white"/>
<path fill-rule="evenodd" clip-rule="evenodd" d="M38.663 311.253H43.0503V42.8477H38.663V311.253Z" fill="white"/>
<path fill-rule="evenodd" clip-rule="evenodd" d="M43.0503 16.8311V23.2857H38.663V16.8311H43.0503Z" fill="white"/>
<path fill-rule="evenodd" clip-rule="evenodd" d="M43.0503 29.8398V36.2935H38.663V29.8398H43.0503Z" fill="white"/>
<path fill-rule="evenodd" clip-rule="evenodd" d="M38.6648 3.82422H31.0859V10.2768H38.6648V3.82422Z" fill="white"/>
<path fill-rule="evenodd" clip-rule="evenodd" d="M31.0859 311.253H38.6648V42.8476H38.445V304.817H31.9744V36.2935H38.6648V29.8398H31.0859V311.253Z" fill="white"/>
<path fill-rule="evenodd" clip-rule="evenodd" d="M38.6648 16.8311V23.2857H31.0859V16.8311H38.6648Z" fill="white"/>
<path fill-rule="evenodd" clip-rule="evenodd" d="M31.0846 3.82422H14.2577V10.2768H31.0846V3.82422Z" fill="white"/>
<path fill-rule="evenodd" clip-rule="evenodd" d="M14.2577 311.253H31.0846V29.8399H25.5436V304.817H19.074V23.2857H31.0846V16.8311H14.2577V311.253Z" fill="white"/>
<path fill-rule="evenodd" clip-rule="evenodd" d="M14.2581 3.82422H7.98926V10.2768H14.2581V3.82422Z" fill="white"/>
<path fill-rule="evenodd" clip-rule="evenodd" d="M7.98926 311.253H14.2581V16.8311H12.645V304.817H7.98926V311.253Z" fill="white"/>
<path fill-rule="evenodd" clip-rule="evenodd" d="M7.98928 3.82422H5.6123V311.253H7.98928V304.816H6.17539V10.2768H7.98928V3.82422Z" fill="white"/>
<path fill-rule="evenodd" clip-rule="evenodd" d="M5.61157 3.82422H-0.255859V311.253H5.61157V3.82422Z" fill="white"/>
</g>
<defs>
<clipPath id="clip0_3130_19401">
<rect width="468" height="312" fill="white"/>
</clipPath>
</defs>
</svg>
