<svg width="84" height="56" viewBox="0 0 84 56" fill="none" xmlns="http://www.w3.org/2000/svg">
<g clip-path="url(#clip0_2613_1094)">
<path fill-rule="evenodd" clip-rule="evenodd" d="M81.167 48.9088V46.7277C82.2636 44.6871 82.8367 42.4059 82.835 40.0888V16.1186C82.8367 13.8015 82.2636 11.5203 81.167 9.47983V7.29932C82.9998 9.87393 83.9842 12.957 83.983 16.1186V40.0888C83.9845 43.2503 83.0004 46.3334 81.1679 48.9082L81.167 48.9088Z" fill="#BE965A"/>
<path fill-rule="evenodd" clip-rule="evenodd" d="M81.167 43.4643C81.4647 42.364 81.6153 41.229 81.6148 40.089V16.1188C81.6153 14.9789 81.4647 13.8439 81.167 12.7437V43.4643Z" fill="#BE965A"/>
<path fill-rule="evenodd" clip-rule="evenodd" d="M81.1661 7.2993V9.47981C80.2581 7.79802 79.0279 6.31193 77.5457 5.10655C76.0636 3.90117 74.3586 3.00015 72.5283 2.45503V1.24854C76.0177 2.20939 79.0688 4.34668 81.1661 7.2993Z" fill="#BE965A"/>
<path fill-rule="evenodd" clip-rule="evenodd" d="M81.1661 12.7437C80.5841 10.6379 79.4909 8.70898 77.9838 7.12871C76.4767 5.54844 74.6025 4.36592 72.5283 3.68652V4.91302C77.1581 6.59954 80.4668 10.9862 80.4668 16.1186V40.089C80.4668 45.2214 77.1581 49.6083 72.5283 51.2948V52.5213C74.6025 51.8419 76.4767 50.6594 77.9838 49.0791C79.4909 47.4989 80.5841 45.5699 81.1661 43.4641V12.7437Z" fill="#BE965A"/>
<path fill-rule="evenodd" clip-rule="evenodd" d="M81.1661 46.7275V48.9086C79.0687 51.8612 76.0177 53.9985 72.5283 54.9594V53.7523C74.3586 53.2072 76.0636 52.3061 77.5457 51.1008C79.0279 49.8954 80.2581 48.4093 81.1661 46.7275Z" fill="#BE965A"/>
<path fill-rule="evenodd" clip-rule="evenodd" d="M72.5283 50.032C74.5058 49.2269 76.2 47.8522 77.3961 46.082C78.5921 44.3118 79.2363 42.226 79.2468 40.0889V16.1187C79.2363 13.9816 78.5922 11.8958 77.3961 10.1256C76.2 8.35549 74.5058 6.98078 72.5283 6.17578V7.44152C74.1845 8.20855 75.588 9.43206 76.5747 10.9688C77.5615 12.5055 78.0904 14.2919 78.0997 16.1187V40.0889C78.0905 41.9157 77.5616 43.7021 76.5749 45.2389C75.5881 46.7757 74.1845 47.9992 72.5283 48.7662V50.032Z" fill="#BE965A"/>
<path fill-rule="evenodd" clip-rule="evenodd" d="M72.5283 47.4391C73.842 46.7133 74.9381 45.6491 75.7031 44.3568C76.4681 43.0645 76.8743 41.591 76.8795 40.0889V16.1186C76.8743 14.6165 76.4681 13.143 75.7031 11.8508C74.9381 10.5585 73.842 9.49439 72.5283 8.76855V10.1271C73.5113 10.7873 74.3174 11.6788 74.876 12.7235C75.4347 13.7683 75.7287 14.9342 75.7325 16.1192V40.0889C75.7288 41.2738 75.4347 42.4398 74.8761 43.4846C74.3175 44.5293 73.5113 45.4208 72.5283 46.0809V47.4395V47.4391Z" fill="#BE965A"/>
<path fill-rule="evenodd" clip-rule="evenodd" d="M72.5283 44.567V42.8121C73.0739 42.006 73.3654 41.0546 73.365 40.0808V16.0823C73.3654 15.1086 73.0739 14.1571 72.5283 13.351V11.5962C73.1526 12.1644 73.6516 12.8568 73.9932 13.6291C74.3349 14.4015 74.5117 15.2367 74.5124 16.0814V40.0818C74.5117 40.9265 74.3348 41.7617 73.9932 42.534C73.6515 43.3063 73.1526 43.9987 72.5283 44.567Z" fill="#BE965A"/>
<path fill-rule="evenodd" clip-rule="evenodd" d="M72.5295 1.24873V2.45522C71.5636 2.16728 70.5707 1.97987 69.5664 1.89594V0.730957C70.5683 0.808786 71.5605 0.982162 72.5295 1.24873Z" fill="#BE965A"/>
<path fill-rule="evenodd" clip-rule="evenodd" d="M72.5295 3.68661V4.9131C71.5737 4.56518 70.5783 4.33782 69.5664 4.23627V3.07129C70.5742 3.16362 71.5682 3.37005 72.5295 3.68661Z" fill="#BE965A"/>
<path fill-rule="evenodd" clip-rule="evenodd" d="M72.5295 6.17576V7.44151C71.5931 7.00097 70.5931 6.7111 69.5664 6.58258V5.41553C70.5847 5.52934 71.5821 5.78543 72.5295 6.17633V6.17576Z" fill="#BE965A"/>
<path fill-rule="evenodd" clip-rule="evenodd" d="M72.5295 8.76811V10.1267C71.639 9.52127 70.6282 9.11616 69.5664 8.93925V7.76465C70.6071 7.91465 71.6115 8.25478 72.5295 8.76811Z" fill="#BE965A"/>
<path fill-rule="evenodd" clip-rule="evenodd" d="M72.5295 11.5969C71.6973 10.8334 70.6728 10.3115 69.5664 10.0874V11.2784C70.7755 11.5805 71.8306 12.3187 72.5295 13.3516V11.5969Z" fill="#BE965A"/>
<path fill-rule="evenodd" clip-rule="evenodd" d="M72.5295 42.813V44.5678C71.6972 45.3313 70.6728 45.8532 69.5664 46.0773V44.8867C70.7754 44.5845 71.8305 43.8462 72.5295 42.8134V42.813Z" fill="#BE965A"/>
<path fill-rule="evenodd" clip-rule="evenodd" d="M72.5295 46.0806V47.4391C71.6115 47.9524 70.6071 48.2925 69.5664 48.4426V47.2684C70.6282 47.0915 71.639 46.6864 72.5295 46.0809V46.0806Z" fill="#BE965A"/>
<path fill-rule="evenodd" clip-rule="evenodd" d="M72.5295 48.7661V50.0319C71.5821 50.4227 70.5847 50.6788 69.5664 50.7927V49.6258C70.5931 49.4975 71.5931 49.2076 72.5295 48.7669V48.7661Z" fill="#BE965A"/>
<path fill-rule="evenodd" clip-rule="evenodd" d="M72.5295 51.2944V52.5209C71.5682 52.8375 70.5742 53.0439 69.5664 53.1363V51.9713C70.5783 51.8697 71.5737 51.6424 72.5295 51.2944Z" fill="#BE965A"/>
<path fill-rule="evenodd" clip-rule="evenodd" d="M72.5295 53.7524V54.9589C71.5605 55.2255 70.5683 55.3989 69.5664 55.4767V54.3117C70.5707 54.2278 71.5636 54.0404 72.5295 53.7524Z" fill="#BE965A"/>
<path fill-rule="evenodd" clip-rule="evenodd" d="M69.5657 0.730566V1.89555C69.2631 1.87039 68.9583 1.8541 68.6514 1.84667V0.686035C68.9582 0.692451 69.263 0.707294 69.5657 0.730566Z" fill="#BE965A"/>
<path fill-rule="evenodd" clip-rule="evenodd" d="M69.5657 3.07136V4.23633C69.2641 4.20589 68.9593 4.18665 68.6514 4.1786V3.01758C68.959 3.02525 69.2637 3.04318 69.5657 3.07136Z" fill="#BE965A"/>
<path fill-rule="evenodd" clip-rule="evenodd" d="M69.5657 5.41606V6.58368C69.2651 6.54595 68.9603 6.52217 68.6514 6.51236V5.35059C68.9593 5.35964 69.2641 5.38128 69.5657 5.4155V5.41606Z" fill="#BE965A"/>
<path fill-rule="evenodd" clip-rule="evenodd" d="M69.5657 7.76508V8.93911C69.2631 8.88913 68.9578 8.85762 68.6514 8.84477V7.68262C68.9574 7.69404 69.2626 7.72157 69.5657 7.76508Z" fill="#BE965A"/>
<path fill-rule="evenodd" clip-rule="evenodd" d="M69.5657 10.0865V11.2775C69.2658 11.2025 68.9598 11.155 68.6514 11.1356V9.97119C68.9586 9.98707 69.2641 10.0256 69.5657 10.0865Z" fill="#BE965A"/>
<path fill-rule="evenodd" clip-rule="evenodd" d="M69.5657 44.8862V46.0769C69.2641 46.1377 68.9586 46.1763 68.6514 46.1922V45.0279C68.9598 45.0085 69.2658 44.9611 69.5657 44.8862Z" fill="#BE965A"/>
<path fill-rule="evenodd" clip-rule="evenodd" d="M69.5657 47.2681V48.4423C69.2626 48.4858 68.9574 48.5133 68.6514 48.5247V47.3634C68.9578 47.3502 69.2631 47.3184 69.5657 47.2681Z" fill="#BE965A"/>
<path fill-rule="evenodd" clip-rule="evenodd" d="M69.5657 49.6255V50.7931C69.2641 50.8268 68.9593 50.8485 68.6514 50.858V49.6966C68.96 49.6867 69.2647 49.663 69.5657 49.6255Z" fill="#BE965A"/>
<path fill-rule="evenodd" clip-rule="evenodd" d="M69.5657 51.9717V53.1367C69.2641 53.1642 68.959 53.1827 68.6514 53.1902V52.0292C68.9591 52.0211 69.2639 52.0019 69.5657 51.9717Z" fill="#BE965A"/>
<path fill-rule="evenodd" clip-rule="evenodd" d="M69.5657 54.312V55.477C69.2631 55.5006 68.9583 55.5154 68.6514 55.5213V54.3609C68.9586 54.3538 69.2634 54.3375 69.5657 54.312Z" fill="#BE965A"/>
<path fill-rule="evenodd" clip-rule="evenodd" d="M68.6518 0.68628V1.84692C68.5423 1.84447 68.4326 1.84277 68.3225 1.84277L62.8838 1.84126V0.682129H68.3225C68.4326 0.682129 68.5423 0.684016 68.6518 0.68628Z" fill="#BE965A"/>
<path fill-rule="evenodd" clip-rule="evenodd" d="M68.6518 3.01733V4.17835C68.5425 4.17552 68.4326 4.17382 68.3225 4.17382L62.8838 4.17231V3.01318H68.3225C68.4326 3.01318 68.5423 3.01488 68.6518 3.01733Z" fill="#BE965A"/>
<path fill-rule="evenodd" clip-rule="evenodd" d="M68.6518 5.3502V6.51141C68.5425 6.50801 68.4328 6.50537 68.3225 6.50537L62.8838 6.5065V5.34756L68.3225 5.34473C68.4328 5.34473 68.5425 5.34699 68.6518 5.3502Z" fill="#BE965A"/>
<path fill-rule="evenodd" clip-rule="evenodd" d="M68.6518 7.68284V8.84405C68.5427 8.83933 68.433 8.83631 68.3225 8.83631L62.8838 8.83423V7.67529H68.3225C68.4328 7.67529 68.5425 7.67831 68.6518 7.68227V7.68284Z" fill="#BE965A"/>
<path fill-rule="evenodd" clip-rule="evenodd" d="M68.6518 9.97138V11.1358C68.5429 11.1288 68.4332 11.1249 68.3225 11.1249H62.8838V9.9644L68.3225 9.96289C68.433 9.96289 68.5427 9.96559 68.6518 9.97138Z" fill="#BE965A"/>
<path fill-rule="evenodd" clip-rule="evenodd" d="M68.6518 45.0277V46.192C68.5426 46.1976 68.4328 46.2005 68.3225 46.2006H66.45C65.1746 46.2028 63.9295 45.8118 62.8838 45.0808V43.5835C63.8354 44.5188 65.1164 45.0416 66.45 45.0387H68.3225C68.4332 45.0387 68.5429 45.0347 68.6518 45.0277Z" fill="#BE965A"/>
<path fill-rule="evenodd" clip-rule="evenodd" d="M68.6518 47.3634V48.5248C68.5425 48.5288 68.4328 48.5316 68.3225 48.5316H66.45C65.22 48.5332 64.004 48.271 62.8838 47.7627V46.4707C63.979 47.0636 65.2049 47.3731 66.45 47.3711H68.3225C68.433 47.3711 68.5427 47.3681 68.6518 47.3634Z" fill="#BE965A"/>
<path fill-rule="evenodd" clip-rule="evenodd" d="M68.6518 49.6968V50.8582C68.5425 50.8614 68.4328 50.8637 68.3225 50.8637H66.45C65.2369 50.8648 64.032 50.6654 62.8838 50.2737V49.0415C64.0215 49.4806 65.2306 49.7051 66.45 49.7036H68.3225C68.4328 49.7036 68.5425 49.701 68.6518 49.6974V49.6968Z" fill="#BE965A"/>
<path fill-rule="evenodd" clip-rule="evenodd" d="M68.6518 52.0294V53.1905C68.5422 53.1931 68.4325 53.1945 68.3225 53.1946H66.45C65.2452 53.1953 64.0457 53.034 62.8838 52.7149V51.5073C64.0403 51.8569 65.2419 52.0341 66.45 52.0332H68.3225C68.4326 52.0332 68.5424 52.0316 68.6518 52.0285V52.0294Z" fill="#BE965A"/>
<path fill-rule="evenodd" clip-rule="evenodd" d="M68.6518 54.3604V55.5209C68.5423 55.5233 68.4326 55.525 68.3225 55.525H66.45C65.2498 55.5257 64.0534 55.3901 62.8838 55.1208V53.9277C64.0503 54.2184 65.2479 54.365 66.45 54.3644H68.3225C68.4326 54.3644 68.5423 54.3629 68.6518 54.3604Z" fill="#BE965A"/>
<path fill-rule="evenodd" clip-rule="evenodd" d="M62.883 0.682129V1.84126L62.1182 1.84107V0.682129H62.883Z" fill="#BE965A"/>
<path fill-rule="evenodd" clip-rule="evenodd" d="M62.883 3.01318V4.17231L62.1182 4.17212V3.01318H62.883Z" fill="#BE965A"/>
<path fill-rule="evenodd" clip-rule="evenodd" d="M62.883 5.34717V6.50611L62.1182 6.5063V5.34736L62.883 5.34717Z" fill="#BE965A"/>
<path fill-rule="evenodd" clip-rule="evenodd" d="M62.883 7.67499V8.83393L62.1182 8.83356V7.6748L62.883 7.67499Z" fill="#BE965A"/>
<path fill-rule="evenodd" clip-rule="evenodd" d="M62.883 9.96436V11.1248L62.1182 11.1246V9.96454L62.883 9.96436Z" fill="#BE965A"/>
<path fill-rule="evenodd" clip-rule="evenodd" d="M62.883 43.584V45.0813C62.6116 44.8916 62.3559 44.6805 62.1182 44.4499V42.6196C62.3324 42.9715 62.5893 43.2956 62.883 43.5844V43.584Z" fill="#BE965A"/>
<path fill-rule="evenodd" clip-rule="evenodd" d="M62.883 46.4711V47.763C62.6216 47.6444 62.3663 47.5127 62.1182 47.3683V45.9946C62.3633 46.1688 62.6187 46.3279 62.883 46.4711Z" fill="#BE965A"/>
<path fill-rule="evenodd" clip-rule="evenodd" d="M62.883 49.0412V50.2739C62.6237 50.1852 62.3687 50.0873 62.1182 49.9801V48.707C62.3676 48.8288 62.6225 48.9402 62.883 49.0412Z" fill="#BE965A"/>
<path fill-rule="evenodd" clip-rule="evenodd" d="M62.883 51.5078V52.7154C62.6248 52.6445 62.3698 52.566 62.1182 52.4801V51.2485C62.3695 51.3433 62.6244 51.4299 62.883 51.5084V51.5078Z" fill="#BE965A"/>
<path fill-rule="evenodd" clip-rule="evenodd" d="M62.883 53.9277V55.1206C62.6255 55.0613 62.3706 54.9958 62.1182 54.924V53.7148C62.3701 53.7926 62.625 53.8635 62.883 53.9277Z" fill="#BE965A"/>
<path fill-rule="evenodd" clip-rule="evenodd" d="M62.1183 0.682129V1.84107L59.4385 1.84032V0.682129H62.1183Z" fill="#BE965A"/>
<path fill-rule="evenodd" clip-rule="evenodd" d="M62.1183 3.01318V4.17212L59.4385 4.17137V3.01318H62.1183Z" fill="#BE965A"/>
<path fill-rule="evenodd" clip-rule="evenodd" d="M62.1183 5.34717V6.50611L59.4385 6.50668V5.34868L62.1183 5.34717Z" fill="#BE965A"/>
<path fill-rule="evenodd" clip-rule="evenodd" d="M62.1183 7.67499V8.83375L59.4385 8.83261V7.6748L62.1183 7.67499Z" fill="#BE965A"/>
<path fill-rule="evenodd" clip-rule="evenodd" d="M62.1183 9.96436V11.1244L59.4385 11.1242V9.96511L62.1183 9.96436Z" fill="#BE965A"/>
<path fill-rule="evenodd" clip-rule="evenodd" d="M62.1192 42.6187V44.449C61.5316 43.8836 61.0641 43.2054 60.7445 42.4548C60.425 41.7043 60.26 40.8969 60.2595 40.081V14.6386H59.4395V13.4902H61.4068V40.0814C61.4062 40.9767 61.6528 41.8548 62.1192 42.6187Z" fill="#BE965A"/>
<path fill-rule="evenodd" clip-rule="evenodd" d="M62.1192 45.9944C60.8811 45.1191 59.9448 43.8808 59.4395 42.4502V44.9251C60.1488 45.9211 61.0625 46.754 62.1192 47.3681V45.9944Z" fill="#BE965A"/>
<path fill-rule="evenodd" clip-rule="evenodd" d="M62.1192 48.7063V49.9794C61.1524 49.566 60.2499 49.0157 59.4395 48.3452V46.7832C60.2181 47.5708 61.1241 48.221 62.1192 48.7063Z" fill="#BE965A"/>
<path fill-rule="evenodd" clip-rule="evenodd" d="M62.1192 51.2487C61.171 50.8917 60.2708 50.418 59.4395 49.8384V51.219C60.2832 51.7376 61.182 52.1605 62.1192 52.4799V51.2487Z" fill="#BE965A"/>
<path fill-rule="evenodd" clip-rule="evenodd" d="M62.1192 53.7156V54.9247C61.1963 54.6623 60.2993 54.3158 59.4395 53.8896V52.585C60.2928 53.0504 61.1905 53.4292 62.1192 53.7156Z" fill="#BE965A"/>
<path fill-rule="evenodd" clip-rule="evenodd" d="M59.4389 0.682129V1.84032L55.9453 1.83937V0.682129H59.4389Z" fill="#BE965A"/>
<path fill-rule="evenodd" clip-rule="evenodd" d="M59.4389 3.01318V4.17137L55.9453 4.17043V3.01318H59.4389Z" fill="#BE965A"/>
<path fill-rule="evenodd" clip-rule="evenodd" d="M59.4389 5.34912V6.50712L55.9453 6.50787V5.35082L59.4389 5.34912Z" fill="#BE965A"/>
<path fill-rule="evenodd" clip-rule="evenodd" d="M59.4389 7.67488V8.83269L55.9453 8.83156V7.67432L59.4389 7.67488Z" fill="#BE965A"/>
<path fill-rule="evenodd" clip-rule="evenodd" d="M59.4389 9.96484V11.124L55.9453 11.1238V9.96579L59.4389 9.96484Z" fill="#BE965A"/>
<path fill-rule="evenodd" clip-rule="evenodd" d="M59.4384 13.4902V14.6386H59.0382V40.0887C59.0377 40.8928 59.1729 41.6912 59.4384 42.4502V44.9251C58.4314 43.514 57.8904 41.8229 57.8912 40.0887V14.6386H56.6717V40.0887C56.674 42.5986 57.6689 45.0054 59.4389 46.7829V48.3449C57.7712 46.9714 56.554 45.128 55.9453 43.0536V13.4902H59.4384Z" fill="#BE965A"/>
<path fill-rule="evenodd" clip-rule="evenodd" d="M59.4389 49.8378C58.0197 48.849 56.8284 47.5674 55.9453 46.0791V48.11C56.9179 49.344 58.1006 50.3964 59.4389 51.2185V49.8378Z" fill="#BE965A"/>
<path fill-rule="evenodd" clip-rule="evenodd" d="M59.4389 52.5845V53.89C58.1739 53.263 56.9988 52.4686 55.9453 51.528V49.9302C56.9694 50.9866 58.1473 51.8818 59.4389 52.5854V52.5845Z" fill="#BE965A"/>
<path fill-rule="evenodd" clip-rule="evenodd" d="M55.9454 0.682129V1.83937L52.501 1.83843V0.682129H55.9454Z" fill="#BE965A"/>
<path fill-rule="evenodd" clip-rule="evenodd" d="M55.9454 3.01318V4.17043L52.501 4.16948V3.01318H55.9454Z" fill="#BE965A"/>
<path fill-rule="evenodd" clip-rule="evenodd" d="M55.9454 5.35059V6.50764L52.501 6.50839V5.35228L55.9454 5.35059Z" fill="#BE965A"/>
<path fill-rule="evenodd" clip-rule="evenodd" d="M55.9454 7.67421V8.83145L52.501 8.83013V7.67383L55.9454 7.67421Z" fill="#BE965A"/>
<path fill-rule="evenodd" clip-rule="evenodd" d="M55.9454 9.96631V11.1243L52.501 11.1241V9.96706L55.9454 9.96631Z" fill="#BE965A"/>
<path fill-rule="evenodd" clip-rule="evenodd" d="M55.9454 13.4902V43.0536C55.6655 42.0903 55.5238 41.092 55.5245 40.0887V14.6386H54.3045V40.0887C54.303 42.1969 54.8699 44.2664 55.9454 46.0789V48.1098C54.1393 45.8273 53.1568 43.0006 53.1574 40.0887V14.6386H52.501V13.4902H55.9454Z" fill="#BE965A"/>
<path fill-rule="evenodd" clip-rule="evenodd" d="M55.9454 49.9299C54.3359 48.2738 53.1537 46.25 52.501 44.0337V47.1009C53.3717 48.7733 54.5388 50.2733 55.9454 51.5278V49.9299Z" fill="#BE965A"/>
<path fill-rule="evenodd" clip-rule="evenodd" d="M52.5006 0.682129V1.83843L49.0684 1.83749V0.682129H52.5006Z" fill="#BE965A"/>
<path fill-rule="evenodd" clip-rule="evenodd" d="M52.5006 3.01318V4.16948L49.0684 4.16854V3.01318H52.5006Z" fill="#BE965A"/>
<path fill-rule="evenodd" clip-rule="evenodd" d="M52.5006 5.35254V6.50865L49.0684 6.50941V5.35424L52.5006 5.35254Z" fill="#BE965A"/>
<path fill-rule="evenodd" clip-rule="evenodd" d="M52.5006 7.67372V8.83002L49.0684 8.82851V7.67334L52.5006 7.67372Z" fill="#BE965A"/>
<path fill-rule="evenodd" clip-rule="evenodd" d="M52.5006 9.9668V11.1239L49.0684 11.1235V9.96774L52.5006 9.9668Z" fill="#BE965A"/>
<path fill-rule="evenodd" clip-rule="evenodd" d="M52.5009 13.4902V14.6386H51.9371V40.0887C51.9365 41.4234 52.1263 42.7514 52.5009 44.0324V47.0995C51.3748 44.9344 50.7878 42.529 50.79 40.088V13.4902H52.5009Z" fill="#BE965A"/>
<path fill-rule="evenodd" clip-rule="evenodd" d="M49.0688 0.682129V1.83749L39.4404 1.83484V0.682129H49.0688Z" fill="#BE965A"/>
<path fill-rule="evenodd" clip-rule="evenodd" d="M49.0688 3.01318V4.16854L39.4404 4.16609V3.01318H49.0688Z" fill="#BE965A"/>
<path fill-rule="evenodd" clip-rule="evenodd" d="M49.0688 5.354V6.50917L39.4404 6.51125V5.35872L49.0688 5.354Z" fill="#BE965A"/>
<path fill-rule="evenodd" clip-rule="evenodd" d="M49.0688 7.67349V8.82866L39.4404 8.82508V7.67236L49.0688 7.67349Z" fill="#BE965A"/>
<path fill-rule="evenodd" clip-rule="evenodd" d="M49.0688 9.96777V11.1235L41.1648 11.1231L41.1637 55.5943H39.4404V54.4461H40.0176V11.1231H39.4404V9.9706L49.0688 9.96777Z" fill="#BE965A"/>
<path fill-rule="evenodd" clip-rule="evenodd" d="M39.4394 0.682129V1.83484L37.1377 1.83409V0.682129H39.4394Z" fill="#BE965A"/>
<path fill-rule="evenodd" clip-rule="evenodd" d="M39.4394 3.01318V4.16609L37.1377 4.16533V3.01318H39.4394Z" fill="#BE965A"/>
<path fill-rule="evenodd" clip-rule="evenodd" d="M39.4394 5.35889V6.51141L37.1377 6.51198V5.35983L39.4394 5.35889Z" fill="#BE965A"/>
<path fill-rule="evenodd" clip-rule="evenodd" d="M39.4394 7.67225V8.82497L37.1377 8.82402V7.67188L39.4394 7.67225Z" fill="#BE965A"/>
<path fill-rule="evenodd" clip-rule="evenodd" d="M39.4394 9.9707V11.1232H38.8621V54.4462H39.4394V55.5944H37.1377V54.4462H37.7152V11.1232H37.1377V9.97127L39.4394 9.9707Z" fill="#BE965A"/>
<path fill-rule="evenodd" clip-rule="evenodd" d="M37.1389 0.682129V1.83409L35.4658 1.83352V0.682129H37.1389Z" fill="#BE965A"/>
<path fill-rule="evenodd" clip-rule="evenodd" d="M37.1389 3.01318V4.16533L35.4658 4.16495V3.01318H37.1389Z" fill="#BE965A"/>
<path fill-rule="evenodd" clip-rule="evenodd" d="M37.1389 5.35986V6.51201L35.4658 6.5122V5.36081L37.1389 5.35986Z" fill="#BE965A"/>
<path fill-rule="evenodd" clip-rule="evenodd" d="M37.1389 7.67206V8.82421L35.4658 8.82365V7.67188L37.1389 7.67206Z" fill="#BE965A"/>
<path fill-rule="evenodd" clip-rule="evenodd" d="M37.1389 9.97119V11.1232H36.5616V54.4461H37.1389V55.5943H35.4658V9.97176L37.1389 9.97119Z" fill="#BE965A"/>
<path fill-rule="evenodd" clip-rule="evenodd" d="M35.4653 0.682129V1.83352L34.8369 1.83333V0.682129H35.4653Z" fill="#BE965A"/>
<path fill-rule="evenodd" clip-rule="evenodd" d="M35.4653 3.01318V4.16495L34.8369 4.16477V3.01318H35.4653Z" fill="#BE965A"/>
<path fill-rule="evenodd" clip-rule="evenodd" d="M35.4653 5.36035V6.51175L34.8369 6.51193V5.36073L35.4653 5.36035Z" fill="#BE965A"/>
<path fill-rule="evenodd" clip-rule="evenodd" d="M35.4653 7.67158V8.82335L34.8369 8.82297V7.67139L35.4653 7.67158Z" fill="#BE965A"/>
<path fill-rule="evenodd" clip-rule="evenodd" d="M35.4653 9.97119V55.5937H34.8369V54.4455H35.414V11.1226H34.8369V9.97138L35.4653 9.97119Z" fill="#BE965A"/>
<path fill-rule="evenodd" clip-rule="evenodd" d="M34.8375 0.682129V1.83333L32.5361 1.83277V0.682129H34.8375Z" fill="#BE965A"/>
<path fill-rule="evenodd" clip-rule="evenodd" d="M34.8375 3.01318V4.16477L32.5361 4.1642V3.01318H34.8375Z" fill="#BE965A"/>
<path fill-rule="evenodd" clip-rule="evenodd" d="M34.8375 5.36084V6.51204L32.5361 6.51242V5.36197L34.8375 5.36084Z" fill="#BE965A"/>
<path fill-rule="evenodd" clip-rule="evenodd" d="M34.8375 7.67139V8.82297L32.5361 8.82203V7.67139H34.8375Z" fill="#BE965A"/>
<path fill-rule="evenodd" clip-rule="evenodd" d="M34.8375 9.97168V11.1229H34.2603V54.4458H34.8375V55.594H32.5361V54.4458H33.1133V11.1229H32.5361V9.97225L34.8375 9.97168Z" fill="#BE965A"/>
<path fill-rule="evenodd" clip-rule="evenodd" d="M32.5353 0.682129V1.83277L30.5303 1.8322V0.682129H32.5353Z" fill="#BE965A"/>
<path fill-rule="evenodd" clip-rule="evenodd" d="M32.5353 3.01318V4.1642L30.5303 4.16363V3.01318H32.5353Z" fill="#BE965A"/>
<path fill-rule="evenodd" clip-rule="evenodd" d="M32.5353 5.3623V6.51276L30.5303 6.51332V5.36325L32.5353 5.3623Z" fill="#BE965A"/>
<path fill-rule="evenodd" clip-rule="evenodd" d="M32.5353 7.67128V8.82191L30.5303 8.82116V7.6709L32.5353 7.67128Z" fill="#BE965A"/>
<path fill-rule="evenodd" clip-rule="evenodd" d="M32.5353 9.97217V11.1228H31.9582V54.4458H32.5353V55.5939H30.809L30.8107 11.1228H30.5303V9.97273L32.5353 9.97217Z" fill="#BE965A"/>
<path fill-rule="evenodd" clip-rule="evenodd" d="M30.5306 0.682129V1.8322L29.0859 1.83182V0.682129H30.5306Z" fill="#BE965A"/>
<path fill-rule="evenodd" clip-rule="evenodd" d="M30.5306 3.01318V4.16363L29.0859 4.16326V3.01318H30.5306Z" fill="#BE965A"/>
<path fill-rule="evenodd" clip-rule="evenodd" d="M30.5306 5.36377V6.51384L29.0859 6.51403V5.36453L30.5306 5.36377Z" fill="#BE965A"/>
<path fill-rule="evenodd" clip-rule="evenodd" d="M30.5306 7.67109V8.82135L29.0859 8.82078V7.6709L30.5306 7.67109Z" fill="#BE965A"/>
<path fill-rule="evenodd" clip-rule="evenodd" d="M30.5306 9.97314V11.1232L29.0859 11.1228V9.97352L30.5306 9.97314Z" fill="#BE965A"/>
<path fill-rule="evenodd" clip-rule="evenodd" d="M29.0857 0.682129V1.83182L24.2218 1.8305L24.2235 3.01322H29.0857V4.16329L24.2248 4.16197L24.2264 5.36639L29.0857 5.36394V6.51344L24.2279 6.51458L24.2296 7.67031L29.0857 7.67088V8.82076L24.2311 8.81887L24.2324 9.97461L29.0857 9.97329V11.1226L23.087 11.1215L23.0732 0.682129H29.0857Z" fill="#BE965A"/>
<path fill-rule="evenodd" clip-rule="evenodd" d="M20.7562 11.1215V0.682129H16.6719V1.83333H19.6093V3.00265H16.6719V4.15424H19.6093V5.32356H16.6719V6.47495H19.6093V7.64427H16.6719V8.79566H19.6093V9.96498H16.6719V11.1234L20.7562 11.1215Z" fill="#BE965A"/>
<path fill-rule="evenodd" clip-rule="evenodd" d="M16.6726 0.682129H14.9365V1.83333H16.6726V0.682129Z" fill="#BE965A"/>
<path fill-rule="evenodd" clip-rule="evenodd" d="M14.9365 11.1245L16.6726 11.1237V9.96533H14.9365V11.1245Z" fill="#BE965A"/>
<path fill-rule="evenodd" clip-rule="evenodd" d="M16.6726 3.00293V4.15451H14.9365V3.00293H16.6726Z" fill="#BE965A"/>
<path fill-rule="evenodd" clip-rule="evenodd" d="M16.6726 5.32422V6.47561H14.9365V5.32422H16.6726Z" fill="#BE965A"/>
<path fill-rule="evenodd" clip-rule="evenodd" d="M16.6726 7.64453V8.79592H14.9365V7.64453H16.6726Z" fill="#BE965A"/>
<path fill-rule="evenodd" clip-rule="evenodd" d="M14.9358 0.682129H12.8623V1.83333H14.9358V0.682129Z" fill="#BE965A"/>
<path fill-rule="evenodd" clip-rule="evenodd" d="M12.8623 11.1256L14.9358 11.1245V9.96533H12.8623V11.1256Z" fill="#BE965A"/>
<path fill-rule="evenodd" clip-rule="evenodd" d="M14.9358 3.00293V4.15451H12.8623V3.00293H14.9358Z" fill="#BE965A"/>
<path fill-rule="evenodd" clip-rule="evenodd" d="M14.9358 5.32422V6.47561H12.8623V5.32422H14.9358Z" fill="#BE965A"/>
<path fill-rule="evenodd" clip-rule="evenodd" d="M14.9358 7.64453V8.79592H12.8623V7.64453H14.9358Z" fill="#BE965A"/>
<path fill-rule="evenodd" clip-rule="evenodd" d="M12.8624 0.682129H11.4912V1.83333H12.8624V0.682129Z" fill="#BE965A"/>
<path fill-rule="evenodd" clip-rule="evenodd" d="M11.4912 11.1262L12.8624 11.1256V9.96533H11.4912V11.1262Z" fill="#BE965A"/>
<path fill-rule="evenodd" clip-rule="evenodd" d="M12.8624 3.00293V4.15451H11.4912V3.00293H12.8624Z" fill="#BE965A"/>
<path fill-rule="evenodd" clip-rule="evenodd" d="M12.8624 5.32422V6.47561H11.4912V5.32422H12.8624Z" fill="#BE965A"/>
<path fill-rule="evenodd" clip-rule="evenodd" d="M12.8624 7.64453V8.79592H11.4912V7.64453H12.8624Z" fill="#BE965A"/>
<path fill-rule="evenodd" clip-rule="evenodd" d="M11.4912 0.682129H8.0918V1.83333H11.4912V0.682129Z" fill="#BE965A"/>
<path fill-rule="evenodd" clip-rule="evenodd" d="M8.0918 55.5308H10.719V54.3824H10.7186L10.709 11.1263L11.4912 11.1261V9.96524H9.57173V54.3824H8.41711V8.79592H11.4912V7.64453H8.0918V55.5308Z" fill="#BE965A"/>
<path fill-rule="evenodd" clip-rule="evenodd" d="M11.4912 3.00293V4.15451H8.0918V3.00293H11.4912Z" fill="#BE965A"/>
<path fill-rule="evenodd" clip-rule="evenodd" d="M11.4912 5.32422V6.47561H8.0918V5.32422H11.4912Z" fill="#BE965A"/>
<path fill-rule="evenodd" clip-rule="evenodd" d="M8.09232 0.682129H7.30957V1.83333H8.09232V0.682129Z" fill="#BE965A"/>
<path fill-rule="evenodd" clip-rule="evenodd" d="M7.30957 55.5308H8.09232V7.64453H7.30957V55.5308Z" fill="#BE965A"/>
<path fill-rule="evenodd" clip-rule="evenodd" d="M8.09232 3.00293V4.15451H7.30957V3.00293H8.09232Z" fill="#BE965A"/>
<path fill-rule="evenodd" clip-rule="evenodd" d="M8.09232 5.32422V6.47561H7.30957V5.32422H8.09232Z" fill="#BE965A"/>
<path fill-rule="evenodd" clip-rule="evenodd" d="M7.31015 0.682129H5.95801V1.83333H7.31015V0.682129Z" fill="#BE965A"/>
<path fill-rule="evenodd" clip-rule="evenodd" d="M5.95801 55.5312H7.31015V7.64493H7.27095V54.3828H6.11652V6.47561H7.31015V5.32422H5.95801V55.5312Z" fill="#BE965A"/>
<path fill-rule="evenodd" clip-rule="evenodd" d="M7.31015 3.00293V4.15451H5.95801V3.00293H7.31015Z" fill="#BE965A"/>
<path fill-rule="evenodd" clip-rule="evenodd" d="M5.95814 0.682129H2.95605V1.83333H5.95814V0.682129Z" fill="#BE965A"/>
<path fill-rule="evenodd" clip-rule="evenodd" d="M2.95605 55.5308H5.95814V5.32383H4.96957V54.3824H3.81533V4.15451H5.95814V3.00293H2.95605V55.5308Z" fill="#BE965A"/>
<path fill-rule="evenodd" clip-rule="evenodd" d="M2.95437 0.682129H1.83594V1.83333H2.95437V0.682129Z" fill="#BE965A"/>
<path fill-rule="evenodd" clip-rule="evenodd" d="M1.83594 55.5308H2.95437V3.00293H2.66656V54.3824H1.83594V55.5308Z" fill="#BE965A"/>
<path fill-rule="evenodd" clip-rule="evenodd" d="M1.83619 0.682129H1.41211V55.5305H1.83619V54.3822H1.51257V1.83333H1.83619V0.682129Z" fill="#BE965A"/>
<path fill-rule="evenodd" clip-rule="evenodd" d="M1.41302 0.682129H0.366211V55.5305H1.41302V0.682129Z" fill="#BE965A"/>
</g>
<defs>
<clipPath id="clip0_2613_1094">
<rect width="83.4565" height="55.6902" fill="white" transform="translate(0.412109)"/>
</clipPath>
</defs>
</svg>
