<svg width="327" height="205" viewBox="0 0 327 205" fill="none" xmlns="http://www.w3.org/2000/svg">
<g clip-path="url(#clip0_2312_13966)">
<rect width="327" height="205" fill="white"/>
<path d="M189.555 116.307C137.977 116.307 89.48 136.271 53 172.527L56.525 176.074C92.099 140.719 139.416 121.271 189.703 121.307C240.012 121.346 287.362 140.869 323.03 176.281L326.553 172.732C289.942 136.385 241.342 116.347 189.706 116.308C189.653 116.307 189.608 116.307 189.555 116.307Z" fill="#B4B4B4"/>
<path d="M189.555 105.385C137.977 105.385 89.48 125.349 53 161.604L56.525 165.151C92.064 129.831 139.302 110.385 189.554 110.385C189.604 110.385 189.653 110.385 189.702 110.385C240.011 110.424 287.361 129.946 323.029 165.357L326.552 161.808C289.941 125.462 241.341 105.424 189.705 105.385C189.653 105.385 189.608 105.385 189.555 105.385Z" fill="#B4B4B4"/>
<path d="M189.554 94.4609C137.976 94.4609 89.48 114.425 53 150.679L56.525 154.226C92.064 118.907 139.302 99.4609 189.554 99.4609C189.603 99.4609 189.653 99.4609 189.702 99.4609C240.011 99.4999 287.361 119.022 323.029 154.432L326.552 150.884C289.941 114.539 241.341 94.5009 189.705 94.4609C189.653 94.4609 189.607 94.4609 189.554 94.4609Z" fill="#B4B4B4"/>
<path d="M189.555 127.23C137.977 127.23 89.48 147.194 53 183.45L56.525 186.997C92.064 151.677 139.302 132.23 189.554 132.23C189.604 132.23 189.653 132.23 189.702 132.23C240.011 132.268 287.361 151.791 323.029 187.203L326.552 183.654C289.941 147.307 241.341 127.269 189.705 127.23C189.653 127.23 189.608 127.23 189.555 127.23Z" fill="#B4B4B4"/>
<path d="M189.555 23C189.604 23 189.654 23 189.703 23C240.012 23.038 287.362 42.561 323.03 77.972L326.553 74.424C289.942 38.078 241.343 18.039 189.707 18C189.653 18 189.608 18 189.555 18C137.977 18 89.48 37.964 53 74.218L56.525 77.765C92.064 42.445 139.303 23 189.555 23Z" fill="#B4B4B4"/>
<path d="M189.554 39.8457C137.976 39.8457 89.48 59.8097 53 96.0637L56.525 99.6107C92.1 64.2557 139.416 44.8317 189.703 44.8457C240.012 44.8837 287.362 64.4067 323.03 99.8177L326.553 96.2697C289.942 59.9237 241.342 39.8857 189.706 39.8467C189.653 39.8457 189.607 39.8457 189.554 39.8457Z" fill="#B4B4B4"/>
<path d="M189.555 50.7695C137.977 50.7695 89.48 70.7335 53 106.988L56.525 110.535C92.064 75.2155 139.302 55.7695 189.554 55.7695C189.603 55.7695 189.653 55.7695 189.702 55.7695C240.011 55.8085 287.361 75.3305 323.029 110.742L326.552 107.194C289.941 70.8475 241.341 50.8095 189.705 50.7695C189.653 50.7695 189.608 50.7695 189.555 50.7695Z" fill="#B4B4B4"/>
<path d="M189.554 28.9238C137.976 28.9238 89.48 48.8878 53 85.1428L56.525 88.6898C92.064 53.3698 139.301 33.9248 189.553 33.9248C189.603 33.9248 189.653 33.9248 189.702 33.9248C240.011 33.9638 287.361 53.4858 323.029 88.8968L326.552 85.3488C289.941 49.0028 241.341 28.9648 189.705 28.9248C189.653 28.9238 189.607 28.9238 189.554 28.9238Z" fill="#B4B4B4"/>
<path d="M189.555 83.5371C137.977 83.5371 89.48 103.501 53 139.755L56.525 143.302C92.064 107.983 139.302 88.5371 189.554 88.5371C189.603 88.5371 189.653 88.5371 189.702 88.5371C240.011 88.5761 287.361 108.098 323.029 143.509L326.552 139.961C289.941 103.615 241.341 83.5771 189.705 83.5371C189.653 83.5371 189.608 83.5371 189.555 83.5371Z" fill="#B4B4B4"/>
<path d="M189.555 61.6914C137.977 61.6914 89.48 81.6554 53 117.91L56.525 121.457C92.064 86.1374 139.302 66.6924 189.554 66.6924C189.603 66.6924 189.653 66.6924 189.702 66.6924C240.011 66.7314 287.361 86.2534 323.029 121.663L326.552 118.115C289.941 81.7704 241.341 61.7324 189.705 61.6924C189.653 61.6914 189.607 61.6914 189.555 61.6914Z" fill="#B4B4B4"/>
<path d="M189.555 72.6152C137.977 72.6152 89.48 92.5792 53 128.833L56.525 132.38C92.064 97.0612 139.302 77.6152 189.554 77.6152C189.603 77.6152 189.653 77.6152 189.702 77.6152C240.011 77.6542 287.361 97.1762 323.029 132.587L326.552 129.039C289.941 92.6932 241.341 72.6552 189.705 72.6162C189.653 72.6152 189.607 72.6152 189.555 72.6152Z" fill="#B4B4B4"/>
</g>
<defs>
<clipPath id="clip0_2312_13966">
<rect width="327" height="205" fill="white"/>
</clipPath>
</defs>
</svg>
