<svg width="327" height="205" viewBox="0 0 327 205" fill="none" xmlns="http://www.w3.org/2000/svg">
<g clip-path="url(#clip0_2312_14127)">
<rect width="327" height="205" fill="white"/>
<path d="M367.41 165.658L347.96 140.111L328.511 165.658L309.06 140.111L289.607 165.658L270.157 140.111L250.707 165.658L231.255 140.111L211.806 165.658L192.353 140.111L172.903 165.658L153.454 140.111L134.006 165.658L114.557 140.111L95.1076 165.658L75.657 140.111L56.2085 165.658L36.7609 140.111L17.3143 165.658L-2.13528 140.111L-21.5819 165.658L-39.0638 142.694L-42.998 145.69L-21.5819 173.82L-2.13528 148.272L17.3143 173.82L36.7609 148.272L56.2085 173.82L75.657 148.272L95.1076 173.82L114.557 148.272L134.006 173.82L153.454 148.272L172.903 173.82L192.353 148.272L211.806 173.82L231.255 148.272L250.707 173.82L270.157 148.272L289.607 173.82L309.06 148.272L328.511 173.82L347.96 148.272L367.41 173.82L381.998 154.658L378.065 151.663L367.41 165.658Z" fill="#B4B4B4"/>
<path d="M367.41 150.145L347.96 124.598L328.511 150.145L309.06 124.598L289.607 150.145L270.157 124.598L250.707 150.145L231.255 124.598L211.806 150.145L192.353 124.598L172.903 150.145L153.454 124.598L134.006 150.145L114.557 124.598L95.1076 150.145L75.657 124.598L56.2085 150.145L36.7609 124.598L17.3143 150.145L-2.13528 124.598L-21.5819 150.145L-39.0638 127.181L-42.998 130.176L-21.5819 158.306L-2.13528 132.759L17.3143 158.306L36.7609 132.759L56.2085 158.306L75.657 132.759L95.1076 158.306L114.557 132.759L134.006 158.306L153.454 132.759L172.903 158.306L192.353 132.759L211.806 158.306L231.255 132.759L250.707 158.306L270.157 132.759L289.607 158.306L309.06 132.759L328.511 158.306L347.96 132.759L367.41 158.306L381.998 139.144L378.065 136.149L367.41 150.145Z" fill="#B4B4B4"/>
<path d="M367.41 181.171L347.96 155.625L328.511 181.171L309.06 155.625L289.607 181.171L270.157 155.625L250.707 181.171L231.255 155.625L211.806 181.171L192.353 155.625L172.903 181.171L153.454 155.625L134.006 181.171L114.557 155.625L95.1076 181.171L75.657 155.625L56.2085 181.171L36.7609 155.625L17.3143 181.171L-2.13528 155.625L-21.5819 181.171L-39.0638 158.209L-42.998 161.203L-21.5819 189.332L-2.13528 163.786L17.3143 189.332L36.7609 163.786L56.2085 189.332L75.657 163.786L95.1076 189.332L114.557 163.786L134.006 189.332L153.454 163.786L172.903 189.332L192.353 163.786L211.806 189.332L231.255 163.786L250.707 189.332L270.157 163.786L289.607 189.332L309.06 163.786L328.511 189.332L347.96 163.786L367.41 189.332L381.998 170.172L378.065 167.177L367.41 181.171Z" fill="#B4B4B4"/>
<path d="M-2.13528 24.1621L17.3143 49.7082L36.7609 24.1621L56.2085 49.7082L75.657 24.1611L95.1076 49.7072L114.557 24.1611L134.006 49.7072L153.454 24.1611L172.903 49.7072L192.353 24.1611L211.806 49.7072L231.255 24.1611L250.707 49.7072L270.157 24.1611L289.607 49.7072L309.06 24.1611L328.511 49.7072L347.96 24.1611L367.41 49.7072L381.998 30.5464L378.065 27.5515L367.41 41.5461L347.96 16L328.511 41.5461L309.06 16.001L289.607 41.5461L270.157 16L250.707 41.5461L231.255 16L211.806 41.5461L192.353 16L172.903 41.5461L153.454 16L134.006 41.5461L114.557 16L95.1076 41.5461L75.657 16L56.2085 41.5461L36.7609 16L17.3143 41.5461L-2.13528 16L-21.5819 41.5461L-39.0638 18.5836L-42.998 21.5785L-21.5819 49.7082L-2.13528 24.1621Z" fill="#B4B4B4"/>
<path d="M367.41 196.687L347.96 171.141L328.511 196.687L309.06 171.141L289.607 196.687L270.157 171.141L250.707 196.687L231.255 171.141L211.806 196.687L192.353 171.141L172.903 196.687L153.454 171.141L134.006 196.687L114.557 171.141L95.1076 196.687L75.657 171.141L56.2085 196.687L36.7609 171.141L17.3143 196.687L-2.13528 171.141L-21.5819 196.687L-39.0638 173.723L-42.998 176.718L-21.5819 204.848L-2.13528 179.302L17.3143 204.848L36.7609 179.302L56.2085 204.848L75.657 179.302L95.1076 204.848L114.557 179.302L134.006 204.848L153.454 179.302L172.903 204.848L192.353 179.302L211.806 204.848L231.255 179.302L250.707 204.848L270.157 179.302L289.607 204.848L309.06 179.302L328.511 204.848L347.96 179.302L367.41 204.848L381.998 185.686L378.065 182.69L367.41 196.687Z" fill="#B4B4B4"/>
<path d="M367.41 134.631L347.96 109.083L328.511 134.631L309.06 109.083L289.607 134.631L270.157 109.083L250.707 134.631L231.255 109.083L211.806 134.631L192.353 109.083L172.903 134.631L153.454 109.083L134.006 134.631L114.557 109.083L95.1076 134.631L75.657 109.083L56.2085 134.631L36.7609 109.082L17.3143 134.631L-2.13528 109.082L-21.5819 134.631L-39.0638 111.666L-42.998 114.662L-21.5819 142.792L-2.13528 117.245L17.3143 142.792L36.7609 117.245L56.2085 142.792L75.657 117.244L95.1076 142.792L114.557 117.244L134.006 142.792L153.454 117.244L172.903 142.792L192.353 117.244L211.806 142.792L231.255 117.244L250.707 142.792L270.157 117.244L289.607 142.792L309.06 117.244L328.511 142.792L347.96 117.244L367.41 142.792L381.998 123.63L378.065 120.635L367.41 134.631Z" fill="#B4B4B4"/>
<path d="M367.41 57.0598L347.96 31.5137L328.511 57.0598L309.06 31.5147L289.607 57.0598L270.157 31.5137L250.707 57.0598L231.255 31.5137L211.806 57.0598L192.353 31.5137L172.903 57.0598L153.454 31.5137L134.006 57.0598L114.557 31.5137L95.1076 57.0598L75.657 31.5137L56.2085 57.0598L36.7609 31.5137L17.3143 57.0598L-2.13528 31.5137L-21.5819 57.0598L-39.0638 34.0973L-42.998 37.0922L-21.5819 65.2219L-2.13528 39.6757L17.3143 65.2219L36.7609 39.6757L56.2085 65.2219L75.657 39.6748L95.1076 65.2209L114.557 39.6748L134.006 65.2209L153.454 39.6748L172.903 65.2209L192.353 39.6748L211.806 65.2209L231.255 39.6748L250.707 65.2209L270.157 39.6748L289.607 65.2209L309.06 39.6748L328.511 65.2209L347.96 39.6748L367.41 65.2209L381.998 46.061L378.065 43.0661L367.41 57.0598Z" fill="#B4B4B4"/>
<path d="M367.41 72.5745L347.96 47.0273L328.511 72.5745L309.06 47.0273L289.607 72.5745L270.157 47.0273L250.707 72.5745L231.255 47.0273L211.806 72.5745L192.353 47.0273L172.903 72.5745L153.454 47.0273L134.006 72.5745L114.557 47.0273L95.1076 72.5745L75.657 47.0273L56.2085 72.5745L36.7609 47.0273L17.3143 72.5745L-2.13528 47.0273L-21.5819 72.5745L-39.0638 49.6109L-42.998 52.6048L-21.5819 80.7366L-2.13528 55.1894L17.3143 80.7366L36.7609 55.1894L56.2085 80.7366L75.657 55.1884L95.1076 80.7356L114.557 55.1884L134.006 80.7366L153.454 55.1894L172.903 80.7356L192.353 55.1884L211.806 80.7356L231.255 55.1884L250.707 80.7356L270.157 55.1884L289.607 80.7356L309.06 55.1884L328.511 80.7356L347.96 55.1884L367.41 80.7356L381.998 61.5747L378.065 58.5798L367.41 72.5745Z" fill="#B4B4B4"/>
<path d="M367.41 88.0881L347.96 62.541L328.511 88.0881L309.06 62.541L289.607 88.0881L270.157 62.541L250.707 88.0881L231.255 62.541L211.806 88.0881L192.353 62.541L172.903 88.0881L153.454 62.541L134.006 88.0872L114.557 62.541L95.1076 88.0881L75.657 62.541L56.2085 88.0872L36.7609 62.541L17.3143 88.0872L-2.13528 62.541L-21.5819 88.0872L-39.0638 65.1246L-42.998 68.1185L-21.5819 96.2492L-2.13528 70.7031L17.3143 96.2492L36.7609 70.7031L56.2085 96.2492L75.657 70.7021L95.1076 96.2492L114.557 70.7021L134.006 96.2492L153.454 70.7031L172.903 96.2492L192.353 70.7021L211.806 96.2492L231.255 70.7021L250.707 96.2492L270.157 70.7021L289.607 96.2492L309.06 70.7021L328.511 96.2492L347.96 70.7021L367.41 96.2492L381.998 77.0874L378.065 74.0925L367.41 88.0881Z" fill="#B4B4B4"/>
<path d="M367.41 119.117L347.96 93.5713L328.511 119.117L309.06 93.5713L289.607 119.117L270.157 93.5713L250.707 119.117L231.255 93.5713L211.806 119.117L192.353 93.5713L172.903 119.117L153.454 93.5713L134.006 119.117L114.557 93.5713L95.1076 119.117L75.657 93.5713L56.2085 119.117L36.7609 93.5703L17.3143 119.117L-2.13528 93.5703L-21.5819 119.117L-39.0638 96.1539L-42.998 99.1488L-21.5819 127.278L-2.13528 101.732L17.3143 127.278L36.7609 101.732L56.2085 127.278L75.657 101.732L95.1076 127.278L114.557 101.732L134.006 127.278L153.454 101.732L172.903 127.278L192.353 101.732L211.806 127.278L231.255 101.732L250.707 127.278L270.157 101.732L289.607 127.278L309.06 101.732L328.511 127.278L347.96 101.732L367.41 127.278L381.998 108.118L378.065 105.122L367.41 119.117Z" fill="#B4B4B4"/>
<path d="M367.41 103.601L347.96 78.0557L328.511 103.601L309.06 78.0557L289.607 103.601L270.157 78.0557L250.707 103.601L231.255 78.0557L211.806 103.601L192.353 78.0557L172.903 103.601L153.454 78.0557L134.006 103.601L114.557 78.0557L95.1076 103.601L75.657 78.0557L56.2085 103.601L36.7609 78.0547L17.3143 103.601L-2.13528 78.0557L-21.5819 103.601L-39.0638 80.6383L-42.998 83.6332L-21.5819 111.762L-2.13528 86.2168L17.3143 111.762L36.7609 86.2168L56.2085 111.762L75.657 86.2168L95.1076 111.762L114.557 86.2168L134.006 111.762L153.454 86.2168L172.903 111.762L192.353 86.2168L211.806 111.762L231.255 86.2168L250.707 111.762L270.157 86.2168L289.607 111.762L309.06 86.2158L328.511 111.762L347.96 86.2168L367.41 111.762L381.998 92.6011L378.065 89.6062L367.41 103.601Z" fill="#B4B4B4"/>
</g>
<defs>
<clipPath id="clip0_2312_14127">
<rect width="327" height="205" fill="white"/>
</clipPath>
</defs>
</svg>
