<svg width="327" height="205" viewBox="0 0 327 205" fill="none" xmlns="http://www.w3.org/2000/svg">
<g clip-path="url(#clip0_2312_14156)">
<rect width="327" height="205" fill="white"/>
<g clip-path="url(#clip1_2312_14156)">
<path d="M226.979 -93.8848H221.979V92.5332H29.1162V97.5332H226.979V-93.8848Z" fill="#B4B4B4"/>
<path d="M238.536 -82.3262H233.536V104.092H40.6748V109.092H238.536V-82.3262Z" fill="#B4B4B4"/>
<path d="M215.42 -105.443H210.42V80.9766H17.5581V85.9766H215.42V-105.443Z" fill="#B4B4B4"/>
<path d="M250.095 -70.7676H245.095V115.65H52.2319V120.65H250.095V-70.7676Z" fill="#B4B4B4"/>
<path d="M203.862 -117H198.862V69.418H6V74.418H203.862V-117Z" fill="#B4B4B4"/>
<path d="M307.884 -12.9785H302.884V173.44H110.022V178.44H307.884V-12.9785Z" fill="#B4B4B4"/>
<path d="M314.442 -1.42188V184.998H121.58V189.998H319.442V-1.42188H314.442Z" fill="#B4B4B4"/>
<path d="M296.326 -24.5371H291.326V161.882H98.4639V166.882H296.326V-24.5371Z" fill="#B4B4B4"/>
<path d="M261.653 -59.2109H256.653V127.208H63.791V132.208H261.653V-59.2109Z" fill="#B4B4B4"/>
<path d="M284.769 -36.0938H279.769V150.324H86.9058V155.324H284.769V-36.0938Z" fill="#B4B4B4"/>
<path d="M273.21 -47.6523H268.21V138.766H75.3481V143.766H273.21V-47.6523Z" fill="#B4B4B4"/>
</g>
</g>
<defs>
<clipPath id="clip0_2312_14156">
<rect width="327" height="205" fill="white"/>
</clipPath>
<clipPath id="clip1_2312_14156">
<rect width="313.442" height="306.999" fill="white" transform="translate(6 -117)"/>
</clipPath>
</defs>
</svg>
