<svg width="327" height="205" viewBox="0 0 327 205" fill="none" xmlns="http://www.w3.org/2000/svg">
<g clip-path="url(#clip0_2312_13871)">
<rect width="327" height="205" fill="white"/>
<g clip-path="url(#clip1_2312_13871)">
<path d="M141.658 45.842L241.619 111.839V45.842L341.582 111.838V45.842L436.543 108.538L440.095 103.157L335.135 33.8594V99.8563L235.172 33.8607V99.8563L135.211 33.8594V99.8563L35.248 33.8607V105.847H41.6952V45.842L141.658 111.838V45.842Z" fill="#B4B4B4"/>
<path d="M150.901 65.6956L250.864 131.694V65.6956L350.826 131.694V65.6956L445.79 128.391L449.34 123.012L344.379 53.7129V119.711L244.417 53.7129V119.711L144.454 53.7129V119.711L44.4922 53.7129V125.702H50.9393V65.6956L150.901 131.694V65.6956Z" fill="#B4B4B4"/>
<path d="M132.408 25.9814L232.372 91.9796V25.9827L332.334 91.9796V25.9827L427.295 88.6786L430.849 83.2978L325.887 14V79.9969L225.925 14V79.9982L125.96 14V79.9969L26 14V85.9889H32.4471V25.9827L132.408 91.9796V25.9814Z" fill="#B4B4B4"/>
<path d="M160.067 85.551L260.029 151.549V85.551L359.991 151.549V85.551L454.955 148.248L458.507 142.869L353.544 73.5684V139.567L253.582 73.5684V139.567L153.62 73.5684V139.567L53.6572 73.5684V145.559H60.1044V85.551L160.067 151.549V85.551Z" fill="#B4B4B4"/>
<path d="M169.312 105.411L269.275 171.407V105.411L369.236 171.407V105.411L464.2 168.104L467.751 162.725L362.789 93.4297V159.424L262.828 93.4297V159.424L162.865 93.4297V159.424L62.9033 93.4297V165.415H69.3505V105.411L169.312 171.407V105.411Z" fill="#B4B4B4"/>
<path d="M372.037 113.283V179.28L272.074 113.283V179.28L172.111 113.283V179.28L72.1494 113.283V185.272H78.5966V125.266L178.558 191.263V125.266L278.521 191.263V125.266L378.484 191.263V125.266L473.447 187.962L476.999 182.582L372.037 113.283Z" fill="#B4B4B4"/>
</g>
</g>
<defs>
<clipPath id="clip0_2312_13871">
<rect width="327" height="205" fill="white"/>
</clipPath>
<clipPath id="clip1_2312_13871">
<rect width="451" height="177.264" fill="white" transform="translate(26 14)"/>
</clipPath>
</defs>
</svg>
