<svg width="62" height="72" viewBox="0 0 62 72" fill="none" xmlns="http://www.w3.org/2000/svg">
<path d="M5.75445 16.0609C5.11818 16.3024 4.42455 16.3498 3.76133 16.1971C3.09811 16.0443 2.49511 15.6982 2.02864 15.2026C1.56217 14.7071 1.25319 14.0842 1.14081 13.413C1.02842 12.7418 1.11767 12.0523 1.39727 11.4318C1.67687 10.8113 2.13426 10.2876 2.71154 9.92718C3.28882 9.56671 3.96006 9.38558 4.64032 9.40672C5.32058 9.42786 5.97928 9.65032 6.53307 10.0459C7.08685 10.4416 7.51084 10.9926 7.75137 11.6292C8.07346 12.4818 8.04408 13.4273 7.66967 14.2581C7.29527 15.089 6.60645 15.7374 5.75445 16.0609ZM28.5306 53.1656C28.9313 53.0308 29.3551 52.9785 29.7766 53.0118C30.198 53.0451 30.6084 53.1632 30.983 53.3592C31.3575 53.5552 31.6886 53.8249 31.9563 54.1521C32.2239 54.4793 32.4227 54.8573 32.5405 55.2633C32.6583 55.6693 32.6927 56.095 32.6418 56.5147C32.5909 56.9343 32.4556 57.3394 32.244 57.7054C32.0325 58.0714 31.7492 58.3909 31.411 58.6446C31.0728 58.8983 30.6868 59.081 30.2762 59.1816L13.6813 70.4899L13.6639 70.4938C13.2632 70.6286 12.8394 70.6809 12.4179 70.6476C11.9965 70.6143 11.5861 70.4961 11.2116 70.3002C10.837 70.1042 10.5059 69.8345 10.2382 69.5073C9.97056 69.18 9.77185 68.8021 9.65404 68.396C9.53623 67.99 9.50176 67.5644 9.5527 67.1447C9.60364 66.7251 9.73894 66.32 9.95046 65.954C10.162 65.588 10.4453 65.2685 10.7835 65.0148C11.1217 64.7611 11.5077 64.5784 11.9183 64.4778L28.5132 53.1711L28.5306 53.1656ZM26.6064 46.0448C26.6759 45.6276 26.829 45.2289 27.0567 44.8725C27.2844 44.5161 27.5818 44.2095 27.9311 43.9711C28.2803 43.7327 28.6743 43.5675 29.0891 43.4853C29.5039 43.4032 29.9311 43.4059 30.3449 43.4932C30.7586 43.5805 31.1505 43.7506 31.4967 43.9933C31.843 44.236 32.1366 44.5463 32.3598 44.9055C32.583 45.2647 32.7312 45.6653 32.7955 46.0833C32.8598 46.5013 32.8388 46.9279 32.7339 47.3376L32.8556 56.5723L32.8516 56.592C32.7805 57.008 32.6262 57.4054 32.3979 57.7603C32.1696 58.1153 31.872 58.4205 31.5229 58.6576C31.1738 58.8948 30.7804 59.0591 30.3663 59.1406C29.9523 59.2221 29.526 59.2192 29.113 59.132C28.7001 59.0448 28.309 58.8752 27.9632 58.6333C27.6174 58.3913 27.324 58.0821 27.1006 57.724C26.8771 57.366 26.7283 56.9666 26.6629 56.5496C26.5976 56.1327 26.617 55.7068 26.7202 55.2976L26.6024 46.0629L26.6064 46.0448ZM50.2565 50.4764C50.2362 50.0544 50.3015 49.6326 50.4483 49.2364C50.5952 48.8402 50.8207 48.4779 51.1112 48.171C51.4017 47.8642 51.7512 47.6193 52.1388 47.451C52.5263 47.2828 52.9439 47.1946 53.3664 47.1918C53.7889 47.189 54.2076 47.2717 54.5974 47.4349C54.9871 47.5981 55.3398 47.8384 55.6343 48.1414C55.9288 48.4443 56.159 48.8037 56.3111 49.1979C56.4631 49.5921 56.5339 50.013 56.5191 50.4353L59.0692 67.9674V67.9872C59.0882 68.4086 59.0219 68.8294 58.8743 69.2246C58.7268 69.6197 58.501 69.981 58.2105 70.2868C57.92 70.5926 57.5708 70.8367 57.1838 71.0044C56.7967 71.1721 56.3799 71.2599 55.9581 71.2627C55.5363 71.2655 55.1183 71.1831 54.7291 71.0205C54.3399 70.8579 53.9875 70.6184 53.6931 70.3165C53.3986 70.0145 53.1681 69.6562 53.0154 69.263C52.8627 68.8698 52.7908 68.4499 52.8042 68.0283L50.2565 50.4938V50.4764ZM54.3831 46.2036C54.751 46.4016 55.0756 46.6712 55.3377 46.9965C55.5999 47.3217 55.7944 47.6962 55.9098 48.0977C56.0252 48.4992 56.0591 48.9198 56.0096 49.3346C55.9601 49.7495 55.8282 50.1502 55.6215 50.5133C55.4149 50.8764 55.1377 51.1945 54.8064 51.449C54.475 51.7034 54.0961 51.8891 53.692 51.995C53.2879 52.1009 52.8666 52.1249 52.4531 52.0656C52.0395 52.0064 51.642 51.865 51.2838 51.6499L28.4618 41.4156L28.446 41.4061C28.0702 41.2125 27.7374 40.945 27.4676 40.6196C27.1978 40.2942 26.9966 39.9176 26.8761 39.5124C26.7556 39.1072 26.7182 38.6819 26.7663 38.2619C26.8143 37.8419 26.9468 37.436 27.1557 37.0685C27.3646 36.701 27.6457 36.3796 27.982 36.1235C28.3183 35.8675 28.703 35.682 29.1128 35.5784C29.5226 35.4747 29.9491 35.455 30.3668 35.5204C30.7844 35.5858 31.1845 35.735 31.543 35.959L54.3657 46.1973L54.3831 46.2036ZM56.4377 7.87324C56.8019 7.66044 57.2052 7.52331 57.6235 7.47007C58.0419 7.41683 58.4667 7.44857 58.8725 7.5634C59.2783 7.67822 59.6567 7.87376 59.9852 8.13831C60.3136 8.40286 60.5853 8.73097 60.7839 9.103C60.9825 9.47503 61.104 9.88332 61.1411 10.3034C61.1782 10.7235 61.1301 11.1468 60.9998 11.5478C60.8694 11.9489 60.6594 12.3196 60.3824 12.6376C60.1054 12.9556 59.7671 13.2144 59.3877 13.3986L47.7183 18.4497L47.7025 18.4576C47.3384 18.6654 46.9364 18.7981 46.5202 18.8479C46.104 18.8976 45.682 18.8634 45.2793 18.7473C44.8765 18.6312 44.5011 18.4355 44.1753 18.1717C43.8495 17.908 43.5798 17.5817 43.3823 17.2119C43.1848 16.8422 43.0634 16.4366 43.0254 16.0192C42.9873 15.6018 43.0333 15.1809 43.1607 14.7816C43.288 14.3822 43.4942 14.0125 43.7669 13.6941C44.0397 13.3758 44.3735 13.1155 44.7486 12.9284L56.4204 7.88272L56.4377 7.87324ZM37.6341 17.4082C37.2179 17.3333 36.8212 17.1749 36.4678 16.9426C36.1144 16.7104 35.8117 16.409 35.5779 16.0566C35.3441 15.7042 35.184 15.3082 35.1073 14.8923C35.0305 14.4765 35.0388 14.0494 35.1315 13.6368C35.2242 13.2242 35.3994 12.8346 35.6466 12.4915C35.8938 12.1484 36.2079 11.8589 36.57 11.6404C36.9321 11.4219 37.3346 11.2789 37.7534 11.2201C38.1721 11.1613 38.5985 11.1878 39.0067 11.2981L45.7743 12.9789H45.7941C46.2093 13.0551 46.605 13.2144 46.9572 13.4472C47.3094 13.68 47.611 13.9815 47.8439 14.3337C48.0767 14.6859 48.236 15.0815 48.3123 15.4968C48.3886 15.912 48.3802 16.3384 48.2876 16.7504C48.1951 17.1623 48.0203 17.5513 47.7738 17.8941C47.5272 18.2368 47.214 18.5263 46.8529 18.745C46.4918 18.9638 46.0902 19.1074 45.6723 19.1672C45.2543 19.227 44.8286 19.2017 44.4206 19.093L37.6539 17.4098L37.6341 17.4082ZM17.9264 19.7442C18.1103 19.3639 18.369 19.0248 18.6872 18.747C19.0054 18.4693 19.3764 18.2587 19.7779 18.1279C20.1795 17.9971 20.6033 17.9488 21.024 17.9859C21.4447 18.023 21.8536 18.1447 22.2261 18.3438C22.5986 18.5428 22.927 18.815 23.1917 19.1442C23.4564 19.4733 23.6518 19.8525 23.7663 20.259C23.8807 20.6655 23.9119 21.091 23.8578 21.5098C23.8038 21.9287 23.6657 22.3323 23.4518 22.6965L20.0253 28.7718L20.015 28.7892C19.8303 29.1681 19.5711 29.5058 19.2528 29.7822C18.9346 30.0586 18.5638 30.268 18.1628 30.3978C17.7618 30.5277 17.3387 30.5753 16.9188 30.5379C16.499 30.5004 16.091 30.3787 15.7192 30.18C15.3475 29.9812 15.0197 29.7096 14.7553 29.3812C14.491 29.0529 14.2956 28.6746 14.1808 28.269C14.066 27.8634 14.0342 27.4388 14.0873 27.0207C14.1404 26.6025 14.2772 26.1993 14.4897 25.8353L17.9162 19.7623L17.9264 19.7442ZM35.8118 11.4649C36.2056 11.3145 36.6257 11.245 37.0469 11.2608C37.4681 11.2765 37.8818 11.377 38.2633 11.5563C38.6448 11.7356 38.9862 11.9901 39.267 12.3044C39.5479 12.6187 39.7625 12.9864 39.8979 13.3856C40.0334 13.7847 40.0869 14.2071 40.0553 14.6274C40.0237 15.0478 39.9077 15.4574 39.7141 15.8319C39.5206 16.2063 39.2534 16.5379 38.9288 16.8067C38.6041 17.0755 38.2285 17.2761 37.8246 17.3964L21.9061 23.5894L21.8871 23.5965C21.4926 23.7489 21.0714 23.82 20.6487 23.8054C20.2261 23.7908 19.8108 23.6909 19.4277 23.5117C19.0447 23.3325 18.7019 23.0777 18.4198 22.7625C18.1378 22.4474 17.9224 22.0785 17.7866 21.6781C17.6508 21.2776 17.5974 20.8537 17.6296 20.4321C17.6617 20.0104 17.7789 19.5996 17.9739 19.2244C18.1689 18.8491 18.4378 18.5172 18.7644 18.2486C19.091 17.9799 19.4686 17.7801 19.8744 17.6611L35.7952 11.4704L35.8118 11.4649ZM27.1026 12.7869C25.9626 13.219 24.7201 13.3033 23.5321 13.0292C22.3442 12.7551 21.2642 12.1348 20.4288 11.2469C19.5934 10.3589 19.04 9.24315 18.8388 8.04071C18.6375 6.83826 18.7974 5.60315 19.2981 4.49156C19.7989 3.37997 20.618 2.44185 21.652 1.79583C22.6859 1.14982 23.8882 0.824934 25.1068 0.862266C26.3254 0.899598 27.5055 1.29747 28.498 2.00556C29.4905 2.71366 30.2506 3.70016 30.6824 4.84032C31.2612 6.36883 31.2093 8.06465 30.538 9.55486C29.8667 11.0451 28.631 12.2076 27.1026 12.7869ZM24.0207 23.2891C23.6402 22.3327 23.6528 21.2647 24.0557 20.3175C24.4587 19.3703 25.2195 18.6207 26.1725 18.2316C28.175 17.4232 35.4135 15.6152 36.2235 17.6121C36.3026 20.2602 41.3371 46.2328 33.5367 42.337C31.5477 43.1454 27.9055 41.7309 27.0892 39.7363L24.031 23.3121L24.0207 23.2891ZM18.7183 25.8922C19.0479 26.1569 19.3205 26.4855 19.5198 26.8583C19.7191 27.2312 19.8409 27.6405 19.8778 28.0616C19.9147 28.4827 19.8661 28.907 19.7347 29.3088C19.6034 29.7106 19.3921 30.0817 19.1135 30.3997C18.835 30.7177 18.495 30.9761 18.114 31.1593C17.733 31.3424 17.3189 31.4466 16.8965 31.4655C16.4742 31.4844 16.0524 31.4176 15.6566 31.2692C15.2608 31.1208 14.899 30.8939 14.5932 30.602L1.26196 19.9267L1.24616 19.9148C0.622246 19.3859 0.223545 18.6389 0.131333 17.8262C0.0391201 17.0135 0.260338 16.1962 0.74989 15.5409C1.46083 16.5376 2.53612 17.2137 3.74243 17.4226C4.94875 17.6315 6.18878 17.3563 7.19347 16.6567L18.7048 25.878L18.7183 25.8922Z" fill="#202020"/>
</svg>
