<svg width="72" height="57" viewBox="0 0 72 57" fill="none" xmlns="http://www.w3.org/2000/svg">
<path d="M50.7791 21.4018C50.7712 21.3979 50.7712 21.4018 50.7791 21.4018L50.7713 21.3939H50.7657C50.6914 21.3149 50.5816 21.292 50.5065 21.2248C50.2546 21.0023 49.9686 20.8217 49.6594 20.6898C49.3757 20.6036 49.0824 20.5529 48.7862 20.5389C48.6566 20.531 48.5373 20.4678 48.4021 20.4678C48.0701 20.489 47.7433 20.5612 47.4333 20.6819C47.3432 20.6932 47.2543 20.7128 47.1678 20.7404C46.9837 20.8398 46.8114 20.9596 46.6541 21.0976C46.4507 21.2063 46.261 21.3389 46.0891 21.4927L18.2096 50.5757C17.903 50.8889 17.6617 51.2598 17.4995 51.667C17.3373 52.0742 17.2575 52.5094 17.2647 52.9477C17.272 53.3859 17.3661 53.8183 17.5417 54.2199C17.7172 54.6214 17.9707 54.9842 18.2875 55.2871C18.6042 55.59 18.978 55.827 19.387 55.9845C19.796 56.1419 20.2322 56.2166 20.6703 56.2043C21.1084 56.1919 21.5397 56.0928 21.9392 55.9125C22.3387 55.7323 22.6985 55.4746 22.9976 55.1543L48.5783 28.461L58.5353 37.9438H45.2673C44.4129 37.9811 43.6059 38.3468 43.0145 38.9645C42.4232 39.5823 42.0931 40.4044 42.0931 41.2596C42.0931 42.1148 42.4232 42.937 43.0145 43.5547C43.6059 44.1725 44.4129 44.5381 45.2673 44.5755H66.8233C67.4854 44.574 68.1319 44.3746 68.6797 44.0028C69.2276 43.631 69.6517 43.1039 69.8976 42.4891C70.1435 41.8744 70.1999 41.2002 70.0596 40.5531C69.9193 39.9061 69.5887 39.3158 69.1102 38.8581L50.7791 21.4018ZM3.50966 28.0058H28.6881C29.5425 27.9685 30.3495 27.6028 30.9408 26.9851C31.5322 26.3673 31.8623 25.5452 31.8623 24.69C31.8623 23.8348 31.5322 23.0126 30.9408 22.3949C30.3495 21.7771 29.5425 21.4115 28.6881 21.3742H3.50966C2.6553 21.4115 1.84831 21.7771 1.25695 22.3949C0.665585 23.0126 0.335492 23.8348 0.335492 24.69C0.335492 25.5452 0.665585 26.3673 1.25695 26.9851C1.84831 27.6028 2.6553 27.9685 3.50966 28.0058ZM3.50966 37.9533H22.0604C22.9394 37.9533 23.7824 37.6041 24.404 36.9826C25.0255 36.361 25.3747 35.518 25.3747 34.639C25.3747 33.76 25.0255 32.9171 24.404 32.2955C23.7824 31.674 22.9394 31.3248 22.0604 31.3248H3.50966C2.63067 31.3248 1.78768 31.674 1.16614 32.2955C0.544594 32.9171 0.195416 33.76 0.195416 34.639C0.195416 35.518 0.544594 36.361 1.16614 36.9826C1.78768 37.6041 2.63067 37.9533 3.50966 37.9533ZM18.7414 44.5913C18.7414 43.7117 18.3923 42.8681 17.7707 42.2458C17.1492 41.6235 16.306 41.2733 15.4264 41.2723H3.50966C2.62941 41.2723 1.78521 41.622 1.16278 42.2444C0.540352 42.8668 0.190674 43.711 0.190674 44.5913C0.190674 45.4715 0.540352 46.3157 1.16278 46.9381C1.78521 47.5606 2.62941 47.9102 3.50966 47.9102H15.4264C16.3067 47.9102 17.1509 47.5606 17.7733 46.9381C18.3957 46.3157 18.7454 45.4715 18.7454 44.5913M69.699 6.45452C69.699 7.67471 69.3371 8.86749 68.6592 9.88204C67.9813 10.8966 67.0178 11.6873 65.8905 12.1543C64.7632 12.6212 63.5228 12.7434 62.326 12.5053C61.1293 12.2673 60.03 11.6797 59.1672 10.8169C58.3044 9.95412 57.7168 8.85484 57.4788 7.6581C57.2407 6.46136 57.3629 5.22091 57.8298 4.09361C58.2968 2.9663 59.0875 2.00278 60.1021 1.32488C61.1166 0.646982 62.3094 0.285156 63.5296 0.285156C65.1657 0.285575 66.7346 0.935696 67.8915 2.09259C69.0484 3.24948 69.6985 4.81843 69.699 6.45452ZM68.4828 21.3734H63.396L51.0186 6.72715C50.4918 6.09954 49.7504 5.6903 48.9387 5.579C48.1269 5.46771 47.3027 5.66232 46.6265 6.12499L33.7369 14.8634C33.3759 15.108 33.0665 15.4213 32.8265 15.7855C32.5865 16.1497 32.4206 16.5575 32.3382 16.9858C32.2558 17.4141 32.2586 17.8544 32.3464 18.2816C32.4342 18.7088 32.6053 19.1145 32.8499 19.4756C33.0945 19.8367 33.4078 20.1461 33.772 20.3861C34.1362 20.6261 34.544 20.792 34.9723 20.8744C35.4006 20.9567 35.8409 20.9539 36.2681 20.8661C36.6953 20.7783 37.101 20.6073 37.4621 20.3627L47.8821 13.2885L59.3216 26.8371C59.6323 27.2062 60.0204 27.5026 60.4583 27.7053C60.8962 27.9079 61.3733 28.0119 61.8559 28.0098H68.4899C69.3701 28.009 70.2141 27.6586 70.836 27.0357C71.4579 26.4127 71.8069 25.5683 71.8061 24.688C71.8054 23.8078 71.455 22.9639 70.8321 22.3419C70.2091 21.72 69.3646 21.3711 68.4844 21.3718" fill="#202020"/>
</svg>
