<svg width="54" height="75" viewBox="0 0 54 75" fill="none" xmlns="http://www.w3.org/2000/svg">
<path d="M50.3244 72.4996H52.221C52.3714 72.4725 52.5259 72.4787 52.6736 72.5178C52.8213 72.5569 52.9586 72.6279 53.0758 72.7259C53.193 72.8239 53.2873 72.9464 53.3521 73.0848C53.4168 73.2232 53.4503 73.3741 53.4503 73.5269C53.4503 73.6797 53.4168 73.8306 53.3521 73.969C53.2873 74.1074 53.193 74.2299 53.0758 74.3279C52.9586 74.4259 52.8213 74.4969 52.6736 74.536C52.5259 74.5751 52.3714 74.5813 52.221 74.5542H50.3244C50.1741 74.5813 50.0196 74.5751 49.8719 74.536C49.7242 74.4969 49.5869 74.4259 49.4697 74.3279C49.3524 74.2299 49.2581 74.1074 49.1934 73.969C49.1287 73.8306 49.0952 73.6797 49.0952 73.5269C49.0952 73.3741 49.1287 73.2232 49.1934 73.0848C49.2581 72.9464 49.3524 72.8239 49.4697 72.7259C49.5869 72.6279 49.7242 72.5569 49.8719 72.5178C50.0196 72.4787 50.1741 72.4725 50.3244 72.4996ZM49.0861 57.9545V57.8905C49.0943 57.5674 49.2284 57.2603 49.4598 57.0346C49.6912 56.809 50.0016 56.6827 50.3248 56.6827C50.6481 56.6827 50.9585 56.809 51.1899 57.0346C51.4213 57.2603 51.5554 57.5674 51.5635 57.8905V57.9545C51.5554 58.2776 51.4213 58.5848 51.1899 58.8104C50.9585 59.036 50.6481 59.1623 50.3248 59.1623C50.0016 59.1623 49.6912 59.036 49.4598 58.8104C49.2284 58.5848 49.0943 58.2776 49.0861 57.9545ZM49.0861 61.9097V61.8464C49.082 61.6811 49.1109 61.5167 49.1713 61.3627C49.2317 61.2088 49.3222 61.0685 49.4377 60.9501C49.5531 60.8317 49.6911 60.7376 49.8434 60.6734C49.9958 60.6091 50.1595 60.5761 50.3248 60.5761C50.4902 60.5761 50.6539 60.6091 50.8062 60.6734C50.9586 60.7376 51.0966 60.8317 51.212 60.9501C51.3274 61.0685 51.418 61.2088 51.4784 61.3627C51.5388 61.5167 51.5677 61.6811 51.5635 61.8464V61.9097C51.5554 62.2328 51.4213 62.5399 51.1899 62.7655C50.9585 62.9912 50.6481 63.1175 50.3248 63.1175C50.0016 63.1175 49.6912 62.9912 49.4598 62.7655C49.2284 62.5399 49.0943 62.2328 49.0861 61.9097ZM49.0861 65.8608V65.7976C49.0943 65.4745 49.2284 65.1674 49.4598 64.9417C49.6912 64.7161 50.0016 64.5898 50.3248 64.5898C50.6481 64.5898 50.9585 64.7161 51.1899 64.9417C51.4213 65.1674 51.5554 65.4745 51.5635 65.7976V65.8608C51.5554 66.1839 51.4213 66.4911 51.1899 66.7167C50.9585 66.9423 50.6481 67.0686 50.3248 67.0686C50.0016 67.0686 49.6912 66.9423 49.4598 66.7167C49.2284 66.4911 49.0943 66.1839 49.0861 65.8608ZM49.0861 69.812V69.7496C49.0943 69.4265 49.2284 69.1193 49.4598 68.8937C49.6912 68.6681 50.0016 68.5418 50.3248 68.5418C50.6481 68.5418 50.9585 68.6681 51.1899 68.8937C51.4213 69.1193 51.5554 69.4265 51.5635 69.7496V69.812C51.5554 70.1351 51.4213 70.4422 51.1899 70.6679C50.9585 70.8935 50.6481 71.0198 50.3248 71.0198C50.0016 71.0198 49.6912 70.8935 49.4598 70.6679C49.2284 70.4422 49.0943 70.1351 49.0861 69.812ZM50.3244 53.138H52.221C52.3719 53.1092 52.5272 53.114 52.676 53.1522C52.8248 53.1903 52.9633 53.2608 53.0817 53.3587C53.2 53.4566 53.2953 53.5794 53.3607 53.7183C53.4262 53.8573 53.4601 54.009 53.4601 54.1626C53.4601 54.3162 53.4262 54.4679 53.3607 54.6068C53.2953 54.7458 53.2 54.8686 53.0817 54.9665C52.9633 55.0644 52.8248 55.1349 52.676 55.173C52.5272 55.2112 52.3719 55.216 52.221 55.1871H50.3244C50.1739 55.2153 50.0191 55.2099 49.8709 55.1715C49.7227 55.133 49.5847 55.0623 49.4669 54.9645C49.3491 54.8667 49.2543 54.7442 49.1892 54.6055C49.1242 54.4669 49.0904 54.3157 49.0904 54.1626C49.0904 54.0095 49.1242 53.8582 49.1892 53.7196C49.2543 53.581 49.3491 53.4584 49.4669 53.3606C49.5847 53.2628 49.7227 53.1922 49.8709 53.1537C50.0191 53.1152 50.1739 53.1099 50.3244 53.138ZM0.832031 64.636H19.1805V74.5439H0.832031V64.636ZM9.12397 72.2096H46.2445V74.5463H9.12397V72.2096ZM30.7764 42.9843C29.7722 42.9843 28.8082 42.59 28.0917 41.8864C27.3752 41.1828 26.9636 40.226 26.9453 39.222L26.1899 17.2882C26.168 16.2709 26.5511 15.2866 27.255 14.5517C27.9588 13.8169 28.9258 13.3918 29.9431 13.3699C30.9604 13.348 31.9448 13.7311 32.6796 14.435C33.4144 15.1388 33.8396 16.1058 33.8615 17.1231L34.6162 39.0632C34.6395 40.0812 34.2575 41.0668 33.5541 41.8032C32.8508 42.5396 31.8837 42.9664 30.8657 42.9898L30.7764 42.9843ZM8.94616 63.1906C7.94199 63.191 6.97788 62.7968 6.26157 62.0931C5.54526 61.3893 5.13409 60.4323 5.11668 59.4283L4.35964 28.7593C4.33784 27.742 4.72107 26.7577 5.42501 26.0229C6.12895 25.2881 7.09594 24.8631 8.11326 24.8413C9.13057 24.8195 10.1149 25.2027 10.8496 25.9067C11.5844 26.6106 12.0094 27.5776 12.0312 28.5949L12.7828 59.2639C12.8063 60.2818 12.4246 61.2673 11.7215 62.0037C11.0185 62.74 10.0517 63.167 9.03388 63.1906H8.94616ZM5.74176 32.7113C5.18112 32.0685 4.75502 31.3198 4.48864 30.5096C4.22225 29.6993 4.12098 28.8439 4.19082 27.9938C4.26066 27.1437 4.50019 26.3163 4.89524 25.5604C5.2903 24.8045 5.83288 24.1354 6.4909 23.5927L22.5959 10.9126C23.995 9.87467 25.7439 9.42348 27.4706 9.65503C29.1972 9.88658 30.7654 10.7826 31.8416 12.1525C32.4028 12.7945 32.8294 13.5425 33.0963 14.3522C33.3632 15.162 33.4649 16.0171 33.3955 16.8669C33.326 17.7167 33.0867 18.5439 32.6918 19.2996C32.2969 20.0553 31.7544 20.724 31.0964 21.2663L28.1813 23.5627H27.6984L14.9891 33.5766C13.872 34.4195 12.5151 34.8839 11.1159 34.9023C9.71658 34.9206 8.34797 34.4919 7.20923 33.6785V34.057C6.65959 33.6801 6.16561 33.2279 5.74176 32.7136M23.9551 13.1514L10.6381 28.6842L23.9551 13.1514ZM41.8523 11.5306C40.902 12.2963 39.7458 12.7629 38.5302 12.8713C37.3146 12.9798 36.0941 12.7252 35.0232 12.1397C33.9523 11.5543 33.0791 10.6644 32.5142 9.58252C31.9493 8.50069 31.718 7.27558 31.8495 6.06223C31.9811 4.84888 32.4696 3.70182 33.2533 2.76621C34.037 1.8306 35.0806 1.14849 36.252 0.806183C37.4235 0.46388 38.6702 0.476776 39.8343 0.843237C40.9985 1.2097 42.0278 1.91326 42.7919 2.86488C43.8157 4.13937 44.2918 5.76809 44.1156 7.39333C43.9395 9.01857 43.1254 10.5074 41.8523 11.533" fill="#202020"/>
</svg>
