<svg width="45" height="68" viewBox="0 0 45 68" fill="none" xmlns="http://www.w3.org/2000/svg">
<path d="M5.88602 29.2627C5.30695 29.5405 4.6617 29.6509 4.02321 29.5811C3.38473 29.5114 2.77849 29.2645 2.27303 28.8682C1.76757 28.4719 1.38307 27.9421 1.16298 27.3387C0.942902 26.7353 0.896026 26.0824 1.02765 25.4538L4.85239 16.0049V15.9875C4.94626 15.545 5.12637 15.1253 5.38244 14.7523C5.63852 14.3794 5.96554 14.0605 6.34485 13.814C6.72415 13.5674 7.1483 13.398 7.59308 13.3153C8.03786 13.2327 8.49457 13.2385 8.93711 13.3323C9.37966 13.4262 9.79939 13.6063 10.1723 13.8624C10.5453 14.1185 10.8641 14.4455 11.1107 14.8248C11.3572 15.2041 11.5267 15.6282 11.6093 16.073C11.6919 16.5178 11.6862 16.9745 11.5923 17.4171L10.8582 19.2299L18.6127 15.4083L18.6238 15.3964C19.3683 14.8956 20.2788 14.705 21.1617 14.8649C22.0446 15.0249 22.8303 15.5229 23.3517 16.2531C23.8732 16.9833 24.0893 17.888 23.9542 18.7751C23.819 19.6621 23.3432 20.4614 22.6279 21.0031L22.6509 21.1304V30.4125C22.6828 30.2963 22.7208 30.1818 22.7646 30.0695L27.0872 21.5184L27.0935 21.5034C27.4409 20.6705 28.1011 20.0072 28.9323 19.6558C29.7635 19.3044 30.6993 19.2931 31.5388 19.6243C32.3782 19.9554 33.0543 20.6026 33.4217 21.4268C33.7892 22.251 33.8187 23.1864 33.5039 24.0321L29.1766 32.5746L29.1687 32.5943C28.9021 33.2651 28.4312 33.8351 27.8228 34.2236C27.2145 34.6121 26.4993 34.7994 25.7786 34.7591C25.0579 34.7189 24.3681 34.453 23.8068 33.9991C23.2455 33.5452 22.8411 32.9263 22.6509 32.23V34.8876L22.6548 34.9129C22.7669 35.6826 22.6345 36.4682 22.2763 37.1587L30.9207 63.8378C31.0984 64.7266 30.9186 65.6495 30.4203 66.4065C29.9219 67.1635 29.1451 67.6935 28.2585 67.8814C27.3719 68.0694 26.4469 67.9002 25.6843 67.4105C24.9216 66.9208 24.3828 66.1502 24.1847 65.2658V65.2445L17.7459 45.4072L11.3157 65.2421L11.3102 65.2634C11.1121 66.1478 10.5733 66.9185 9.81061 67.4081C9.04795 67.8978 8.12299 68.067 7.23637 67.8791C6.34975 67.6911 5.573 67.1611 5.07462 66.4041C4.57625 65.6471 4.39645 64.7242 4.57423 63.8355L13.2668 37.0236C13.1133 36.6979 13.0069 36.352 12.9507 35.9963V25.7991L6.85089 28.802L6.83509 28.8154C6.54356 29.0118 6.2238 29.1627 5.88681 29.2627M13.5331 14.8014L13.0527 12.7531H52.9271L52.3329 14.9776H38.8285L38.16 17.485L25.9999 18.9628C25.9342 18.4926 25.8157 18.0313 25.6466 17.5878C25.2681 16.5856 24.6434 15.6947 23.8303 14.9972C23.0171 14.2998 22.0416 13.8181 20.9934 13.5965C19.9453 13.3749 18.8582 13.4206 17.8324 13.7294C16.8065 14.0381 15.8748 14.6 15.1231 15.3632L13.5331 14.8014ZM22.0329 12.0672C20.8928 12.4984 19.6505 12.582 18.4629 12.3073C17.2754 12.0325 16.1959 11.4119 15.361 10.5238C14.5262 9.63565 13.9734 8.51994 13.7725 7.31768C13.5717 6.11543 13.7318 4.88061 14.2326 3.76935C14.7335 2.65808 15.5526 1.72026 16.5863 1.07444C17.6201 0.428623 18.8221 0.103811 20.0405 0.141064C21.2588 0.178317 22.4388 0.575964 23.4312 1.28373C24.4235 1.9915 25.1838 2.97762 25.6158 4.11741C26.1941 5.64678 26.1414 7.34317 25.4694 8.83373C24.7974 10.3243 23.5611 11.487 22.0321 12.0664" fill="#202020"/>
</svg>
