<svg width="72" height="76" viewBox="0 0 72 76" fill="none" xmlns="http://www.w3.org/2000/svg">
<path d="M26.6028 50.0449C26.6734 49.6287 26.8273 49.2311 27.0553 48.8759C27.2833 48.5207 27.5808 48.2152 27.9297 47.9778C28.2787 47.7403 28.6721 47.5758 29.0862 47.4942C29.5003 47.4125 29.9267 47.4153 30.3397 47.5024C30.7527 47.5895 31.1438 47.7592 31.4896 48.0012C31.8355 48.2432 32.1289 48.5526 32.3522 48.9107C32.5755 49.2689 32.7242 49.6685 32.7893 50.0856C32.8544 50.5026 32.8346 50.9285 32.7311 51.3377L32.8528 60.5724V60.5922C32.7322 61.1782 32.454 61.7203 32.0483 62.16C31.6425 62.5997 31.1245 62.9205 30.55 63.0877C30.4623 63.1225 30.3698 63.1541 30.2774 63.1817L13.6785 74.49L13.6595 74.494C13.2589 74.6283 12.8353 74.6804 12.4141 74.6469C11.9929 74.6134 11.5828 74.4951 11.2085 74.2991C10.8342 74.1032 10.5033 73.8335 10.2358 73.5065C9.96833 73.1794 9.76972 72.8016 9.65192 72.3958C9.53413 71.9901 9.49958 71.5646 9.55035 71.1452C9.60112 70.7257 9.73617 70.3208 9.94738 69.9549C10.1586 69.5889 10.4416 69.2694 10.7794 69.0156C11.1172 68.7618 11.5028 68.5789 11.9131 68.4779L26.7055 58.3992L26.5988 50.0631L26.6028 50.0449ZM6.30481 18.9586C5.66854 19.2002 4.97491 19.2476 4.31169 19.0948C3.64848 18.942 3.04548 18.596 2.57901 18.1004C2.11254 17.6048 1.80356 16.982 1.69117 16.3107C1.57878 15.6395 1.66804 14.95 1.94764 14.3295C2.22724 13.709 2.68462 13.1854 3.26191 12.8249C3.83919 12.4645 4.51043 12.2833 5.19069 12.3045C5.87095 12.3256 6.52964 12.5481 7.08343 12.9437C7.63722 13.3393 8.06121 13.8903 8.30174 14.527C8.62383 15.3795 8.59444 16.325 8.22004 17.1559C7.84564 17.9868 7.15682 18.6351 6.30481 18.9586ZM57.4133 4.12669C59.2136 4.12448 60.9855 4.57456 62.5666 5.43559C64.1476 6.29662 65.487 7.54102 66.4618 9.05455C67.4366 10.5681 68.0156 12.3022 68.1456 14.0978C68.2756 15.8934 67.9524 17.6929 67.2058 19.331C66.4592 20.9692 65.313 22.3936 63.8725 23.4734C62.432 24.5531 60.7433 25.2538 58.9614 25.5109C57.1796 25.768 55.3617 25.5734 53.6747 24.945C51.9877 24.3165 50.4856 23.2743 49.3062 21.9141L51.1364 21.1239C52.5537 22.5451 54.4115 23.4431 56.4057 23.6708C58.3999 23.8985 60.4123 23.4424 62.1135 22.3772C63.8147 21.3119 65.1038 19.7007 65.7698 17.8073C66.4358 15.9138 66.4392 13.8504 65.7795 11.9547C65.1198 10.0591 63.836 8.44357 62.1384 7.3727C60.4408 6.30183 58.4299 5.83905 56.4349 6.06013C54.44 6.2812 52.5792 7.17303 51.1572 8.5896C49.7352 10.0062 48.8363 11.8636 48.6077 13.8576L46.6716 14.6953C46.7184 11.877 47.8706 9.18988 49.8799 7.21301C51.8891 5.23614 54.5946 4.12775 57.4133 4.12669ZM57.4133 7.35006C58.6278 7.35029 59.8241 7.64464 60.9001 8.20794C61.9761 8.77125 62.8996 9.58676 63.5917 10.5847C64.2839 11.5827 64.724 12.7335 64.8745 13.9386C65.0251 15.1437 64.8815 16.3674 64.4561 17.5049C64.0307 18.6425 63.3362 19.6601 62.4318 20.4708C61.5275 21.2814 60.4403 21.861 59.2631 22.16C58.086 22.4589 56.854 22.4684 55.6724 22.1875C54.4909 21.9066 53.3949 21.3437 52.4783 20.547L54.4712 19.684C55.4343 20.2728 56.5519 20.559 57.6795 20.5057C58.807 20.4523 59.8926 20.0619 60.7958 19.3848C61.6991 18.7077 62.3783 17.7752 62.7457 16.7078C63.1131 15.6405 63.1518 14.4874 62.8568 13.3979C62.5617 12.3083 61.9465 11.3323 61.0907 10.5963C60.2349 9.86016 59.1779 9.39781 58.0564 9.26902C56.935 9.14022 55.8007 9.35091 54.8003 9.87382C53.7999 10.3967 52.9795 11.2078 52.4451 12.2021L50.0744 13.2294C50.4491 11.5622 51.38 10.0722 52.7142 9.00454C54.0483 7.93684 55.7061 7.35502 57.4148 7.3548M57.4148 0.506624C59.869 0.505601 62.2826 1.13319 64.4254 2.32956C66.5682 3.52593 68.3689 5.25121 69.6558 7.34092C70.9427 9.43064 71.6729 11.8151 71.7768 14.2671C71.8807 16.7191 71.3548 19.1568 70.2494 21.3479C69.1439 23.539 67.4956 25.4105 65.4617 26.7838C63.4277 28.1572 61.0759 28.9867 58.6305 29.1933C56.185 29.3999 53.7274 28.9767 51.4918 27.964C49.2563 26.9514 47.3174 25.383 45.86 23.4084L48.0213 22.4728C49.8154 24.6865 52.3342 26.1949 55.1327 26.7315C57.9312 27.268 60.8292 26.7982 63.3149 25.4051C65.8006 24.0119 67.7138 21.785 68.7167 19.1178C69.7195 16.4507 69.7474 13.5149 68.7954 10.8292C67.8434 8.14347 65.9728 5.88065 63.5141 4.4405C61.0553 3.00035 58.1667 2.47556 55.3585 2.95885C52.5504 3.44214 50.0034 4.90241 48.1675 7.08166C46.3317 9.26091 45.3252 12.0189 45.3258 14.8684C45.3258 15.0035 45.3298 15.1386 45.3337 15.2737L43.1092 16.2355C43.0665 15.7858 43.0452 15.3291 43.0452 14.8684C43.0451 12.9814 43.4167 11.113 44.1387 9.3697C44.8607 7.62639 45.919 6.04238 47.2532 4.7081C48.5874 3.37382 50.1714 2.3154 51.9147 1.59329C53.6579 0.871179 55.5264 0.499512 57.4133 0.499512M23.1621 27.1004L20.2517 32.2591L20.2414 32.2749C20.1908 32.3689 20.1379 32.459 20.0834 32.5475C19.9954 32.6938 19.8941 32.8316 19.7807 32.9592C19.31 33.4815 18.6808 33.8349 17.9899 33.9649C17.2989 34.095 16.5843 33.9946 15.956 33.6791C15.7306 33.5582 15.5212 33.4099 15.3325 33.2374L15.2598 33.1765L1.92849 22.5004L1.91506 22.4886C1.29048 21.96 0.891238 21.2128 0.79886 20.3998C0.706483 19.5868 0.927936 18.7691 1.418 18.1139C2.01438 18.9491 2.87033 19.5637 3.85245 19.8617C4.83458 20.1597 5.8877 20.1245 6.84771 19.7615C7.20678 19.6271 7.54743 19.4479 7.86158 19.2281L16.506 26.1537L17.7182 24.0019C17.8516 23.4607 18.1195 22.962 18.4971 22.552C18.8746 22.142 19.3496 21.834 19.8779 21.6565L35.3839 15.6286C35.5018 15.5735 35.6233 15.5263 35.7474 15.4871L35.7964 15.4674L35.8138 15.4618C36.6392 15.1797 37.5425 15.234 38.3283 15.6128L43.3795 16.8716L53.9449 12.3009L53.9631 12.2906C54.3274 12.076 54.7313 11.9374 55.1505 11.8829C55.5697 11.8285 55.9957 11.8594 56.4026 11.9738C56.8096 12.0882 57.1893 12.2838 57.5187 12.5487C57.8482 12.8136 58.1206 13.1424 58.3197 13.5154C58.5188 13.8883 58.6404 14.2977 58.6772 14.7189C58.714 15.14 58.6652 15.5643 58.5338 15.9661C58.4024 16.3679 58.1911 16.739 57.9125 17.057C57.634 17.3751 57.294 17.6335 56.913 17.8167L45.3756 22.8086C44.6382 23.2565 43.7557 23.4007 42.914 23.2109L36.9628 21.73L36.2468 22.0065C36.5258 24.7961 38.5772 36.4355 37.6511 42.7012L54.3638 50.1974L54.3796 50.2069C54.8384 50.4671 55.2284 50.8333 55.5171 51.2748C55.8057 51.7163 55.9847 52.2204 56.039 52.7451C56.3448 53.2571 56.5085 53.8414 56.5132 54.4378L59.0633 71.9707V71.9905C59.0836 72.4128 59.0183 72.8349 58.8713 73.2314C58.7243 73.6279 58.4987 73.9905 58.208 74.2975C57.9173 74.6046 57.5675 74.8497 57.1796 75.0181C56.7917 75.1865 56.3738 75.2747 55.951 75.2775C55.5282 75.2803 55.1092 75.1975 54.7191 75.0342C54.3291 74.8709 53.9761 74.6304 53.6814 74.3272C53.3867 74.024 53.1563 73.6644 53.0042 73.2699C52.852 72.8754 52.7812 72.4542 52.7959 72.0316L50.3612 55.2336L30.3122 46.2462C29.8218 46.0876 29.3504 45.8756 28.9063 45.614L28.4606 45.4141L28.4432 45.4046C27.8763 45.0876 27.4167 44.6089 27.1228 44.0296C26.8289 43.4504 26.7142 42.7967 26.7932 42.152L24.0274 27.309L24.0179 27.2877C23.9574 27.1368 23.907 26.9821 23.867 26.8246L23.1621 27.1004ZM27.1006 16.787C25.9605 17.2183 24.7181 17.3018 23.5305 17.027C22.3429 16.7522 21.2634 16.1314 20.4286 15.2432C19.5937 14.3549 19.041 13.2391 18.8403 12.0367C18.6396 10.8344 18.7999 9.59952 19.301 8.48827C19.802 7.37702 20.6213 6.43929 21.6552 5.79363C22.6892 5.14797 23.8914 4.82339 25.1098 4.86091C26.3282 4.89844 27.5081 5.29639 28.5004 6.00445C29.4926 6.71251 30.2526 7.69889 30.6844 8.83886C30.9711 9.59604 31.1059 10.4023 31.0809 11.2116C31.056 12.0208 30.8719 12.8173 30.5391 13.5554C30.2063 14.2935 29.7313 14.9588 29.1414 15.5133C28.5514 16.0678 27.8579 16.5006 27.1006 16.787Z" fill="#202020"/>
</svg>
