<svg width="80" height="70" viewBox="0 0 80 70" fill="none" xmlns="http://www.w3.org/2000/svg">
<path d="M3.62677 23.3805H28.7262C29.1646 23.3873 29.5999 23.3068 30.0068 23.1437C30.4137 22.9807 30.7842 22.7383 31.0966 22.4307C31.4089 22.1231 31.657 21.7565 31.8263 21.3521C31.9957 20.9477 32.0829 20.5137 32.0829 20.0753C32.0829 19.6369 31.9957 19.2029 31.8263 18.7986C31.657 18.3942 31.4089 18.0275 31.0966 17.72C30.7842 17.4124 30.4137 17.17 30.0068 17.0069C29.5999 16.8439 29.1646 16.7634 28.7262 16.7702H3.62677C2.75904 16.7836 1.93139 17.1377 1.3225 17.7561C0.713609 18.3745 0.372327 19.2075 0.372327 20.0753C0.372327 20.9432 0.713609 21.7762 1.3225 22.3946C1.93139 23.013 2.75904 23.3671 3.62677 23.3805ZM3.62677 33.298H22.1183C22.9858 33.2845 23.8132 32.9305 24.422 32.3123C25.0307 31.694 25.3719 30.8612 25.3719 29.9936C25.3719 29.126 25.0307 28.2931 24.422 27.6749C23.8132 27.0567 22.9858 26.7026 22.1183 26.6892H3.62677C2.75925 26.7026 1.9318 27.0567 1.32306 27.6749C0.714312 28.2931 0.37311 29.126 0.37311 29.9936C0.37311 30.8612 0.714312 31.694 1.32306 32.3123C1.9318 32.9305 2.75925 33.2845 3.62677 33.298ZM18.8096 39.9106C18.8098 39.4767 18.7245 39.0469 18.5586 38.646C18.3927 38.245 18.1494 37.8806 17.8427 37.5736C17.5359 37.2667 17.1717 37.0231 16.7709 36.857C16.37 36.6908 15.9403 36.6052 15.5064 36.6051H3.62519C2.74829 36.6051 1.90731 36.9534 1.28725 37.5735C0.667194 38.1935 0.318848 39.0345 0.318848 39.9114C0.318848 40.7883 0.667194 41.6293 1.28725 42.2494C1.90731 42.8694 2.74829 43.2178 3.62519 43.2178H15.5064C16.3827 43.2165 17.2228 42.8675 17.8421 42.2475C18.4614 41.6275 18.8093 40.787 18.8096 39.9106ZM25.5139 39.3749L25.8023 39.6064C25.8987 39.6804 25.9791 39.7731 26.0387 39.8789C26.0983 39.9848 26.136 40.1016 26.1493 40.2223C26.1627 40.3431 26.1515 40.4653 26.1165 40.5816C26.0814 40.6979 26.0232 40.8059 25.9454 40.8992L7.59138 60.9325L8.23463 61.5267C8.39587 61.6665 8.4975 61.8627 8.51866 62.075C8.53982 62.2874 8.47891 62.4998 8.34842 62.6686L8.14455 62.9191C8.07847 63.0035 7.99608 63.0736 7.90228 63.1254C7.80848 63.1772 7.7052 63.2096 7.59862 63.2206C7.49203 63.2316 7.38432 63.221 7.28193 63.1894C7.17953 63.1578 7.08455 63.106 7.00266 63.0369L6.30409 62.392L5.75882 63.01C5.60212 63.1946 5.38073 63.3122 5.14006 63.3388C4.89938 63.3654 4.65765 63.299 4.46442 63.153L4.17599 62.9231C4.08015 62.8486 4.0002 62.7556 3.94084 62.6497C3.88149 62.5438 3.84393 62.4272 3.83037 62.3065C3.81682 62.1859 3.82756 62.0638 3.86194 61.9474C3.89633 61.8309 3.95367 61.7226 4.03058 61.6287L4.68174 60.8914L3.81248 60.0853C3.65007 59.9465 3.54714 59.7507 3.52493 59.5382C3.50273 59.3257 3.56295 59.1128 3.69315 58.9434L3.90098 58.6906C3.96691 58.6064 4.04912 58.5363 4.14272 58.4846C4.23631 58.4329 4.33937 58.4006 4.44573 58.3896C4.55209 58.3786 4.65958 58.3892 4.76177 58.4207C4.86396 58.4521 4.95876 58.5039 5.0405 58.5728L5.97061 59.4334L24.225 39.5195C24.3801 39.3331 24.6013 39.2139 24.8422 39.1868C25.0832 39.1597 25.3252 39.2268 25.5179 39.3741M40.7884 60.2134H34.2895V62.637H40.7844L40.7884 60.2134ZM42.2969 62.2047V63.5063C42.3099 63.67 42.2863 63.8346 42.2278 63.988C42.1692 64.1415 42.0773 64.28 41.9586 64.3935C41.8399 64.507 41.6974 64.5926 41.5414 64.6442C41.3855 64.6958 41.22 64.712 41.057 64.6916H0.333072V67.1105H41.9516C45.265 66.6885 44.7095 62.2008 44.7095 62.2008L42.2969 62.2047ZM20.5275 64.1385C21.1811 64.7749 22.0584 65.1293 22.9706 65.1257C23.8829 65.122 24.7572 64.7604 25.4056 64.1187L40.3664 49.4274C40.9879 48.8208 41.359 48.003 41.4063 47.1357L53.1808 17.9595C53.3528 17.535 53.4392 17.0806 53.435 16.6226C53.4309 16.1646 53.3363 15.712 53.1567 15.2906C52.9771 14.8693 52.716 14.4876 52.3884 14.1674C52.0609 13.8473 51.6733 13.595 51.2479 13.4251C50.9224 13.2975 50.5801 13.2176 50.2317 13.188C49.6233 12.9338 48.9552 12.8579 48.3053 12.969C47.6554 13.08 47.0504 13.3736 46.561 13.8155L27.6871 33.2703C26.9999 33.8902 26.5867 34.7574 26.5382 35.6816C26.4898 36.6058 26.81 37.5114 27.4286 38.1998L27.4832 38.2606C28.1097 38.9246 28.9719 39.3161 29.8841 39.351C30.7964 39.3859 31.6859 39.0613 32.3613 38.4471L40.9749 29.5688L34.9074 44.6086C34.8322 44.796 34.7733 44.9895 34.7312 45.187L20.5196 59.1457C19.8591 59.7938 19.4827 60.6775 19.4732 61.6028C19.4637 62.5281 19.8219 63.4193 20.4691 64.0808L20.5275 64.1385ZM76.7709 57.7257V59.0288C76.784 59.1927 76.7603 59.3574 76.7017 59.511C76.6431 59.6646 76.551 59.8032 76.4321 59.9167C76.3132 60.0302 76.1705 60.1158 76.0143 60.1673C75.8582 60.2187 75.6926 60.2347 75.5295 60.2141H64.6408L68.5604 22.4717C68.5645 22.35 68.5437 22.2288 68.4994 22.1154C68.455 22.002 68.388 21.8988 68.3025 21.8122C68.2169 21.7256 68.1145 21.6573 68.0017 21.6116C67.8888 21.5659 67.7678 21.5437 67.6461 21.5464H67.2755C67.0327 21.5504 66.8009 21.6479 66.6283 21.8187C66.4557 21.9895 66.3558 22.2203 66.3493 22.463L62.4226 60.2165H57.5579C57.9346 59.802 58.2058 59.3028 58.3485 58.7612C58.4911 58.2196 58.5011 57.6516 58.3774 57.1054L56.5907 49.0355C56.5049 48.6456 56.3531 48.2733 56.1418 47.9347C56.0994 47.2935 55.8806 46.6766 55.5097 46.1519L50.7738 39.3804C50.241 38.628 49.432 38.1171 48.5236 37.9595C47.6152 37.8018 46.6814 38.0102 45.9262 38.5391C45.1711 39.0679 44.656 39.8742 44.4936 40.7818C44.3312 41.6893 44.5347 42.6242 45.0596 43.3821L49.7046 50.0162C49.7177 50.1951 49.7441 50.3729 49.7836 50.548L51.5727 58.6155C51.7033 59.2119 51.989 59.7634 52.4009 60.2141H47.4832V62.637H62.1698L61.8244 65.9663L60.56 65.8683C60.4532 65.8653 60.3469 65.8838 60.2473 65.9226C60.1477 65.9614 60.0569 66.0198 59.9802 66.0942C59.9035 66.1687 59.8425 66.2577 59.8008 66.3562C59.7592 66.4546 59.7376 66.5603 59.7374 66.6672V66.9936C59.7397 67.2069 59.8237 67.4113 59.9722 67.5645C60.1207 67.7177 60.3224 67.8081 60.5355 67.817L61.7209 67.9095L61.668 68.8901C61.6659 69.0112 61.688 69.1315 61.733 69.244C61.778 69.3564 61.845 69.4588 61.9301 69.5449C62.0152 69.6311 62.1166 69.6995 62.2285 69.7459C62.3403 69.7924 62.4604 69.816 62.5815 69.8155H62.9521C63.1945 69.81 63.4256 69.7118 63.5978 69.5412C63.7701 69.3705 63.8704 69.1404 63.8782 68.898L63.9217 68.0762L64.87 68.1505C64.9771 68.1535 65.0837 68.135 65.1835 68.0961C65.2833 68.0571 65.3742 67.9985 65.4509 67.9236C65.5276 67.8488 65.5884 67.7593 65.6298 67.6605C65.6712 67.5617 65.6923 67.4555 65.6918 67.3484L65.6974 67.0244C65.6944 66.8113 65.6101 66.6073 65.4617 66.4543C65.3134 66.3012 65.1122 66.2106 64.8992 66.201L64.026 66.1338L64.3887 62.6323H76.4287C79.7406 62.2087 79.1851 57.7225 79.1851 57.7225L76.7709 57.7257ZM47.1023 15.6417C46.7597 16.488 46.7631 17.4349 47.1117 18.2787C47.4604 19.1225 48.1264 19.7956 48.9665 20.1532L55.4986 22.9672C56.3456 23.3171 57.2963 23.3197 58.1453 22.9744C58.9942 22.629 59.6731 21.9636 60.0354 21.1217C60.3977 20.2799 60.4141 19.3293 60.0813 18.4755C59.7484 17.6216 59.0929 16.9329 58.2565 16.5584L51.7221 13.7491C50.8722 13.3819 49.9114 13.367 49.0507 13.7078C48.1899 14.0486 47.4997 14.7172 47.1316 15.5667L47.1023 15.6417ZM55.0979 22.3801C55.5326 23.183 56.2651 23.7831 57.1379 24.0512C58.0107 24.3193 58.9538 24.234 59.7643 23.8135L71.0694 18.0132C71.8921 17.5905 72.5132 16.8583 72.796 15.9776C73.0789 15.0969 73.0003 14.14 72.5775 13.3172C72.1548 12.4945 71.4226 11.8734 70.5419 11.5906C69.6612 11.3078 68.7043 11.3864 67.8816 11.8091L56.5812 17.611C55.7574 18.0327 55.1347 18.7643 54.85 19.6449C54.5654 20.5256 54.642 21.4832 55.0632 22.3074L55.0979 22.3801ZM58.1799 9.09621C57.628 10.1641 56.7718 11.0444 55.7196 11.6256C54.6673 12.2068 53.4663 12.4628 52.2685 12.3612C51.0707 12.2597 49.93 11.8051 48.9906 11.0551C48.0512 10.305 47.3554 9.29316 46.9913 8.14757C46.6271 7.00197 46.6109 5.77409 46.9448 4.6193C47.2786 3.4645 47.9475 2.43468 48.8668 1.66014C49.7861 0.885599 50.9145 0.401143 52.1092 0.268066C53.3039 0.134988 54.5112 0.359271 55.5784 0.912537C57.0087 1.65268 58.0864 2.93064 58.5746 4.46534C59.0627 6.00003 58.9213 7.66578 58.1814 9.09621" fill="#202020"/>
</svg>
