<svg width="40" height="70" viewBox="0 0 40 70" fill="none" xmlns="http://www.w3.org/2000/svg">
<path d="M10.1171 8.11298C10.2437 8.04995 10.3466 7.94779 10.4105 7.82167C10.4744 7.69554 10.496 7.55218 10.472 7.41284C11.0412 7.25595 11.567 6.97076 12.009 6.57914C13.5799 5.07295 12.7052 3.4585 11.1982 1.88909C9.6912 0.319686 8.11626 -0.621483 6.54527 0.884704C6.13158 1.30901 5.82092 1.82271 5.63729 2.38615C5.49435 2.3587 5.34633 2.3797 5.21666 2.44582C5.08699 2.51195 4.98307 2.61942 4.92134 2.75124C4.2827 2.78619 3.65701 2.94536 3.0793 3.21985C2.58017 3.44986 2.12376 3.76304 1.72958 4.146C1.14855 4.703 0.711616 5.39289 0.456413 6.15625C0.201211 6.91961 0.135389 7.73357 0.264615 8.52801C0.393842 9.32246 0.714243 10.0736 1.19823 10.7167C1.68221 11.3598 2.31527 11.8757 3.04288 12.2198C3.77049 12.5639 4.57085 12.7261 5.37503 12.6922C6.1792 12.6583 6.96309 12.4295 7.65919 12.0254C8.35528 11.6212 8.94272 11.054 9.3709 10.3724C9.79908 9.6909 10.0552 8.91548 10.1171 8.11298ZM10.1685 2.87136C10.988 3.72718 11.6217 4.46052 10.7643 5.28631C10.5194 5.51943 10.4664 5.45305 10.0531 5.65298C10.0055 5.54153 9.9278 5.44553 9.82871 5.37574C9.72961 5.30596 9.61304 5.26514 9.49206 5.25787C9.29002 4.89829 9.04277 4.56606 8.75635 4.26928C8.46319 3.96314 8.13234 3.69547 7.77172 3.47272C7.77072 3.34549 7.73286 3.22128 7.66274 3.11511C7.59262 3.00894 7.49323 2.92538 7.3766 2.87452C7.59629 2.46834 7.53465 2.41144 7.78199 2.17595C8.6394 1.35015 9.34744 2.0179 10.1677 2.87214M29.4929 69.9259C28.7335 69.9247 28.0056 69.6224 27.4687 69.0852C26.9319 68.5481 26.6299 67.82 26.6291 67.0606V44.233H23.5875V67.0598C23.575 67.8116 23.2676 68.5284 22.7315 69.0556C22.1954 69.5829 21.4736 69.8784 20.7217 69.8784C19.9698 69.8784 19.248 69.5829 18.7119 69.0556C18.1758 68.5284 17.8684 67.8116 17.8559 67.0598V41.9817C17.855 41.6702 17.9055 41.3608 18.0053 41.0658C17.8337 40.5779 17.7482 40.064 17.7524 39.547L17.8188 24.2369C17.8628 22.9382 18.4112 21.7077 19.3477 20.8068C20.2842 19.9059 21.5349 19.4055 22.8344 19.4118H28.2799V19.4631C29.4237 19.587 30.4826 20.1254 31.2566 20.9767C32.0306 21.828 32.466 22.9332 32.4808 24.0836L32.416 39.3881C32.4132 39.9041 32.3237 40.4159 32.1513 40.9022C32.2909 41.2455 32.3628 41.6126 32.363 41.9832V67.0598C32.3616 67.8197 32.0589 68.548 31.5213 69.0851C30.9838 69.6222 30.2552 69.9243 29.4953 69.9252M36.7923 42.858C36.0562 42.8808 35.3411 42.6108 34.8038 42.1071C34.2665 41.6035 33.9509 40.9073 33.9261 40.1712V23.3835C33.973 22.6555 34.2952 21.9726 34.8273 21.4736C35.3595 20.9746 36.0616 20.6969 36.7911 20.6969C37.5206 20.6969 38.2228 20.9746 38.7549 21.4736C39.287 21.9726 39.6093 22.6555 39.6561 23.3835V40.1728C39.6316 40.9085 39.3163 41.6044 38.7795 42.1081C38.2427 42.6117 37.5281 42.882 36.7923 42.8596M31.2828 12.385C31.2901 13.6048 30.9356 14.7994 30.2641 15.8177C29.5926 16.8361 28.6343 17.6325 27.5102 18.1063C26.3862 18.58 25.1469 18.7099 23.949 18.4795C22.7512 18.2491 21.6485 17.6687 20.7805 16.8117C19.9125 15.9547 19.318 14.8595 19.0722 13.6647C18.8265 12.4699 18.9405 11.2291 19.3998 10.0991C19.8592 8.96905 20.6433 8.00059 21.6529 7.31611C22.6626 6.63163 23.8525 6.26186 25.0723 6.25356C26.7088 6.24347 28.2824 6.88369 29.447 8.03348C30.6116 9.18326 31.2719 10.7485 31.2828 12.385ZM14.0557 23.4799C13.2959 23.4793 12.5675 23.177 12.0305 22.6396C11.4935 22.1021 11.1919 21.3735 11.1919 20.6137V7.7795C11.6526 7.61363 12.073 7.35213 12.4254 7.01219C13.8241 5.67432 13.6163 4.24636 12.8205 2.95591C13.2572 2.74617 13.74 2.65063 14.2237 2.67825C14.7073 2.70587 15.1761 2.85573 15.5861 3.11381C15.996 3.3719 16.3339 3.72977 16.5679 4.15395C16.8019 4.57812 16.9245 5.05473 16.9242 5.53919V20.6137C16.924 21.3738 16.622 22.1027 16.0845 22.6402C15.547 23.1776 14.8181 23.4797 14.058 23.4799" fill="#202020"/>
</svg>
