<svg width="60" height="38" viewBox="0 0 60 38" fill="none" xmlns="http://www.w3.org/2000/svg">
<path d="M31.4557 11.3561C30.3889 9.97473 29.2945 8.56258 28.3335 7.34008C27.8146 6.66816 27.0681 6.20898 26.2344 6.0489C25.4006 5.88881 24.5371 6.03886 23.8063 6.47083L13.4257 12.705C12.8566 13.0463 12.1752 13.1475 11.5314 12.9864C10.8877 12.8254 10.3343 12.4151 9.99296 11.846C9.65165 11.2769 9.55041 10.5955 9.7115 9.95171C9.87259 9.30794 10.2828 8.75453 10.8519 8.41322L21.268 2.16009C21.2954 2.14854 21.3219 2.1348 21.3471 2.119C23.1238 1.08194 25.2186 0.730819 27.2363 1.13187C29.2541 1.53292 31.0554 2.65842 32.3005 4.2961C33.3815 5.67111 34.6404 7.29109 35.8336 8.83916L35.9569 8.77041L44.8826 19.4907C28.2087 19.4907 27.0186 25.4436 19.5761 25.4436C14.5186 25.4436 12.1345 22.466 12.1345 22.466L31.4557 11.3561ZM46.1304 0.992919C47.3508 0.992763 48.5439 1.35452 49.5587 2.03245C50.5735 2.71037 51.3644 3.67401 51.8315 4.80149C52.2986 5.92897 52.4209 7.16965 52.1828 8.36661C51.9448 9.56358 51.3571 10.6631 50.4942 11.526C49.6312 12.389 48.5317 12.9767 47.3347 13.2147C46.1378 13.4528 44.8971 13.3305 43.7696 12.8634C42.6421 12.3963 41.6785 11.6053 41.0006 10.5905C40.3226 9.57574 39.9609 8.38269 39.961 7.16228C39.9619 5.52632 40.6121 3.95761 41.7689 2.80081C42.9257 1.64401 44.4944 0.993757 46.1304 0.992919ZM59.7675 29.6121C55.6006 27.8261 48.7548 25.4459 43.3962 25.4459C38.3332 25.4459 34.1631 26.9284 30.2965 28.7175C26.723 30.2047 23.4467 31.3972 19.5769 31.3972C13.6233 31.3972 4.09623 27.8269 0.228027 26.3326V32.5897C5.28553 34.6672 13.3254 37.3485 19.5769 37.3485C24.6392 37.3485 28.5066 35.8636 32.3787 34.0729C35.9514 32.5897 39.2269 31.3972 43.3954 31.3972C48.75 31.3972 56.4904 34.6672 59.7667 36.1576L59.7675 29.6121Z" fill="#202020"/>
</svg>
