<svg width="77" height="74" viewBox="0 0 77 74" fill="none" xmlns="http://www.w3.org/2000/svg">
<path d="M69.4266 70.5732H55.0159C54.83 70.5732 54.646 70.6098 54.4743 70.6809C54.3026 70.752 54.1466 70.8563 54.0151 70.9877C53.8837 71.1191 53.7795 71.2751 53.7083 71.4469C53.6372 71.6186 53.6006 71.8026 53.6006 71.9885C53.6006 72.1743 53.6372 72.3584 53.7083 72.5301C53.7795 72.7018 53.8837 72.8578 54.0151 72.9892C54.1466 73.1207 54.3026 73.2249 54.4743 73.2961C54.646 73.3672 54.83 73.4038 55.0159 73.4038H69.4235C69.7988 73.4038 70.1588 73.2547 70.4242 72.9892C70.6897 72.7238 70.8388 72.3638 70.8388 71.9885C70.8388 71.6131 70.6897 71.2531 70.4242 70.9877C70.1588 70.7223 69.7988 70.5732 69.4235 70.5732M42.354 70.5732H27.9496C27.5742 70.5732 27.2142 70.7223 26.9488 70.9877C26.6834 71.2531 26.5343 71.6131 26.5343 71.9885C26.5343 72.3638 26.6834 72.7238 26.9488 72.9892C27.2142 73.2547 27.5742 73.4038 27.9496 73.4038H42.3571C42.7325 73.4038 43.0925 73.2547 43.3579 72.9892C43.6233 72.7238 43.7724 72.3638 43.7724 71.9885C43.7724 71.6131 43.6233 71.2531 43.3579 70.9877C43.0925 70.7223 42.7325 70.5732 42.3571 70.5732M75.0349 73.497H75.1076C75.4855 73.497 75.8479 73.3469 76.1151 73.0797C76.3823 72.8125 76.5324 72.4501 76.5324 72.0722C76.5324 71.6944 76.3823 71.332 76.1151 71.0648C75.8479 70.7976 75.4855 70.6474 75.1076 70.6474H75.0349C74.657 70.6474 74.2947 70.7976 74.0275 71.0648C73.7603 71.332 73.6101 71.6944 73.6101 72.0722C73.6101 72.4501 73.7603 72.8125 74.0275 73.0797C74.2947 73.3469 74.657 73.497 75.0349 73.497ZM48.8703 73.497H48.9422C49.32 73.497 49.6824 73.3469 49.9496 73.0797C50.2168 72.8125 50.367 72.4501 50.367 72.0722C50.367 71.6944 50.2168 71.332 49.9496 71.0648C49.6824 70.7976 49.32 70.6474 48.9422 70.6474H48.8703C48.4924 70.6474 48.13 70.7976 47.8628 71.0648C47.5956 71.332 47.4455 71.6944 47.4455 72.0722C47.4455 72.4501 47.5956 72.8125 47.8628 73.0797C48.13 73.3469 48.4924 73.497 48.8703 73.497ZM21.9635 73.497H22.0355C22.4133 73.497 22.7757 73.3469 23.0429 73.0797C23.3101 72.8125 23.4602 72.4501 23.4602 72.0722C23.4602 71.6944 23.3101 71.332 23.0429 71.0648C22.7757 70.7976 22.4133 70.6474 22.0355 70.6474H21.9635C21.5857 70.6474 21.2233 70.7976 20.9561 71.0648C20.6889 71.332 20.5387 71.6944 20.5387 72.0722C20.5387 72.4501 20.6889 72.8125 20.9561 73.0797C21.2233 73.3469 21.5857 73.497 21.9635 73.497ZM16.6002 70.5732H2.19265C1.81729 70.5732 1.4573 70.7223 1.19188 70.9877C0.926455 71.2531 0.777344 71.6131 0.777344 71.9885C0.777344 72.3638 0.926455 72.7238 1.19188 72.9892C1.4573 73.2547 1.81729 73.4038 2.19265 73.4038H16.6002C16.7861 73.4038 16.9701 73.3672 17.1418 73.2961C17.3135 73.2249 17.4696 73.1207 17.601 72.9892C17.7324 72.8578 17.8367 72.7018 17.9078 72.5301C17.9789 72.3584 18.0155 72.1743 18.0155 71.9885C18.0155 71.8026 17.9789 71.6186 17.9078 71.4469C17.8367 71.2751 17.7324 71.1191 17.601 70.9877C17.4696 70.8563 17.3135 70.752 17.1418 70.6809C16.9701 70.6098 16.7861 70.5732 16.6002 70.5732ZM33.87 41.7596H26.3304V46.2189H19.8505V41.7596H3.18756L13.5752 29.0763H7.00993L18.515 15.0299H11.685L23.687 0.375L34.2817 15.0299H27.8737L33.9206 23.3922L30.8347 25.4808C30.7818 25.5179 30.7288 25.5558 30.6767 25.5946C30.3568 25.811 30.0682 26.0705 29.8193 26.3658C29.6528 26.5504 29.5092 26.7545 29.3918 26.9735V26.9775C28.9293 27.7835 28.7495 28.7209 28.8808 29.6408C29.0122 30.5607 29.4472 31.4104 30.1168 32.0547C30.7864 32.699 31.6521 33.1011 32.5764 33.1971C33.5007 33.293 34.4305 33.0773 35.2182 32.5842L38.421 37.0095L33.87 41.7596ZM66.0784 32.7509H60.9901L48.615 18.1079C48.0901 17.4802 47.3502 17.0705 46.5397 16.9587C45.7291 16.8469 44.906 17.0411 44.2308 17.5033L31.3318 26.2418C30.6026 26.736 30.0997 27.4996 29.9335 28.3646C29.7674 29.2296 29.9517 30.1252 30.4459 30.8544C30.9401 31.5835 31.7037 32.0865 32.5688 32.2526C33.4338 32.4187 34.3294 32.2344 35.0585 31.7402L45.4896 24.6692L56.918 38.2154C57.2297 38.5845 57.6185 38.8807 58.057 39.0834C58.4955 39.286 58.9732 39.39 59.4562 39.3881H66.0863C66.9666 39.3871 67.8103 39.0364 68.432 38.4132C69.0537 37.79 69.4024 36.9454 69.4013 36.0652C69.4003 35.1849 69.0496 34.3411 68.4264 33.7195C67.8033 33.0978 66.9586 32.7499 66.0784 32.7509ZM67.7577 17.8305C67.7578 19.1426 67.3688 20.4253 66.6399 21.5163C65.911 22.6073 64.8749 23.4576 63.6627 23.9597C62.4504 24.4618 61.1165 24.593 59.8297 24.3369C58.5428 24.0808 57.3608 23.4488 56.4332 22.5209C55.5056 21.5929 54.874 20.4107 54.6183 19.1237C54.3627 17.8368 54.4944 16.5029 54.997 15.2909C55.4995 14.0788 56.3502 13.043 57.4414 12.3145C58.5327 11.586 59.8155 11.1974 61.1276 11.1981C61.9985 11.1981 62.8608 11.3696 63.6653 11.703C64.4699 12.0363 65.2009 12.5249 65.8166 13.1408C66.4323 13.7567 66.9206 14.4879 67.2536 15.2926C67.5867 16.0972 67.758 16.9596 67.7577 17.8305ZM48.3779 32.7802C48.3685 32.7762 48.3685 32.7802 48.3779 32.7802L48.3685 32.7723C48.2894 32.6932 48.1804 32.6703 48.1053 32.6032C47.8544 32.3797 47.5681 32.1995 47.2582 32.0697C46.976 31.9824 46.6839 31.9312 46.3889 31.9172C46.2577 31.9093 46.14 31.8445 46.0025 31.8445C45.6706 31.8656 45.3442 31.9389 45.0352 32.0618C44.9447 32.0724 44.8554 32.0923 44.7689 32.1211C44.584 32.2193 44.4108 32.3384 44.2529 32.4759C44.0491 32.5852 43.8587 32.7178 43.6855 32.871L15.8124 61.9517C15.5084 62.2652 15.2694 62.6357 15.1092 63.0419C14.949 63.4481 14.8707 63.8819 14.8788 64.3185C14.8869 64.7551 14.9814 65.1857 15.1566 65.5857C15.3319 65.9856 15.5845 66.3469 15.9 66.6489C16.2154 66.9508 16.5875 67.1873 16.9947 67.3448C17.402 67.5024 17.8363 67.5778 18.2729 67.5668C18.7094 67.5558 19.1394 67.4585 19.5382 67.2806C19.937 67.1028 20.2966 66.8478 20.5964 66.5303L46.1748 39.8417L56.1317 49.3245H42.8676C42.0133 49.3618 41.2063 49.7275 40.6149 50.3452C40.0236 50.963 39.6935 51.7852 39.6935 52.6404C39.6935 53.4955 40.0236 54.3177 40.6149 54.9355C41.2063 55.5532 42.0133 55.9189 42.8676 55.9562H64.4197C65.0822 55.9557 65.7294 55.7569 66.2779 55.3855C66.8265 55.0141 67.2514 54.487 67.4979 53.872C67.7444 53.2571 67.8012 52.5825 67.661 51.935C67.5208 51.2875 67.1901 50.6968 66.7114 50.2388L48.3779 32.7802Z" fill="#202020"/>
</svg>
