<svg width="259" height="183" viewBox="0 0 259 183" fill="none" xmlns="http://www.w3.org/2000/svg">
<path d="M167.265 60.2713C153.984 45.9318 135.12 37.709 115.514 37.709C97.684 37.709 80.6757 44.3684 67.6217 56.4607L60.323 63.2214C31.8017 89.6415 30.0924 134.341 56.5136 162.864L144.387 257.727C157.67 272.067 176.533 280.291 196.14 280.291C213.968 280.291 230.977 273.632 244.031 261.54L251.327 254.779C265.124 242 273.118 224.587 273.839 205.746C274.559 186.905 267.92 168.932 255.139 155.137L167.265 60.2713ZM267.958 205.52C267.296 222.789 259.97 238.75 247.327 250.461L240.031 257.222C228.069 268.303 212.482 274.405 196.141 274.405C178.167 274.405 160.879 266.869 148.706 253.726L60.8316 158.864C36.6176 132.721 38.1833 91.7534 64.3243 67.5382L71.623 60.7775C83.5846 49.6977 99.172 43.595 115.514 43.595C133.488 43.595 150.775 51.1303 162.947 64.2703L250.821 159.134C262.533 171.777 268.618 188.25 267.958 205.52Z" fill="#B4B4B4"/>
<path d="M282.816 129.499L194.943 34.6358C174.553 12.6244 145.599 0 115.5 0C88.131 0 62.0218 10.2229 41.9845 28.7839L34.687 35.5446C13.5103 55.1604 1.23905 81.8912 0.132476 110.813C-0.972921 139.734 9.22051 167.326 28.8375 188.503L116.711 283.365C137.099 305.376 166.056 318 196.154 318C223.523 318 249.631 307.777 269.668 289.216L276.966 282.457C298.141 262.841 310.414 236.11 311.52 207.188C312.627 178.267 302.432 150.675 282.816 129.499ZM305.639 206.964C304.592 234.314 292.99 259.591 272.965 278.139L265.668 284.898C246.722 302.448 222.036 312.114 196.154 312.114C167.689 312.114 140.308 300.177 121.029 279.365L33.1555 184.502C14.6074 164.479 4.96844 138.389 6.0138 111.038C7.06034 83.6864 18.6641 58.4095 38.6872 39.8626L45.9847 33.1019C64.9306 15.5509 89.619 5.88603 115.5 5.88603C143.965 5.88603 171.345 17.8229 190.623 38.6347L278.497 133.498C297.046 153.522 306.684 179.612 305.639 206.964Z" fill="#B4B4B4"/>
<path d="M176.491 51.7278C160.84 34.8314 138.613 25.1406 115.509 25.1406C94.4999 25.1406 74.4591 32.9879 59.0766 47.2368L51.7791 53.9975C35.523 69.054 26.103 89.5727 25.2531 111.775C24.4043 133.976 32.2292 155.155 47.288 171.411L135.162 266.277C150.814 283.173 173.042 292.862 196.145 292.862C217.154 292.862 237.195 285.016 252.578 270.767L259.874 264.006C276.13 248.949 285.551 228.429 286.399 206.228C287.249 184.028 279.424 162.848 264.365 146.592L176.491 51.7278ZM280.517 206.002C279.729 226.631 270.976 245.699 255.873 259.687L248.576 266.448C234.285 279.684 215.665 286.975 196.143 286.975C174.675 286.975 154.021 277.973 139.479 262.276L51.6048 167.41C37.6149 152.308 30.3445 132.63 31.1332 112C31.9231 91.3703 40.6745 72.3042 55.778 58.3155L63.0755 51.5548C77.3668 38.3171 95.9879 31.0267 115.508 31.0267C136.978 31.0267 157.631 40.0299 172.172 55.7268L260.046 150.591C274.037 165.694 281.307 185.373 280.517 206.002Z" fill="#B4B4B4"/>
<path d="M139.588 85.9116C133.403 79.2357 124.634 75.4062 115.528 75.4062C107.246 75.4062 99.336 78.507 93.2569 84.1388L85.9606 90.8995C72.6993 103.182 71.9047 123.965 84.1877 137.227L172.063 232.092C178.247 238.767 187.014 242.597 196.119 242.597C204.402 242.597 212.313 239.495 218.393 233.863L225.688 227.105C232.112 221.153 235.834 213.056 236.17 204.307C236.504 195.555 233.41 187.2 227.46 180.776L139.588 85.9116ZM221.688 222.787L214.393 229.545C209.405 234.165 202.915 236.711 196.12 236.711C188.649 236.711 181.456 233.569 176.382 228.092L88.5057 133.228C78.4276 122.346 79.0798 105.294 89.9607 95.2175L97.2571 88.4568C102.244 83.8374 108.734 81.2923 115.528 81.2923C123 81.2923 130.195 84.4342 135.27 89.9118L223.143 184.776C228.026 190.046 230.564 196.902 230.288 204.081C230.013 211.259 226.959 217.904 221.688 222.787Z" fill="#B4B4B4"/>
<path d="M158.039 68.8191C147.125 57.0365 131.627 50.2793 115.519 50.2793C100.869 50.2793 86.8948 55.751 76.1681 65.6878L68.8706 72.4473C45.4359 94.155 44.0304 130.884 65.738 154.32L153.613 249.182C164.527 260.965 180.026 267.722 196.135 267.722C210.783 267.722 224.757 262.251 235.483 252.315L242.783 245.556C266.218 223.847 267.623 187.118 245.913 163.683L158.039 68.8191ZM238.784 241.238L231.484 247.997C221.85 256.921 209.296 261.836 196.136 261.836C181.66 261.836 167.736 255.767 157.932 245.182L70.0572 150.319C50.5533 129.264 51.8164 96.268 72.8707 76.7641L80.1682 70.0046C89.8025 61.079 102.357 56.1642 115.517 56.1642C129.992 56.1642 143.918 62.2338 153.72 72.8169L241.594 167.681C261.099 188.736 259.837 221.734 238.784 241.238Z" fill="#B4B4B4"/>
<path d="M148.816 77.3644C140.271 68.141 128.138 62.8495 115.525 62.8495C104.055 62.8495 93.1137 67.1333 84.7143 74.9135L77.418 81.673C68.543 89.8934 63.3998 101.096 62.9348 113.215C62.471 125.334 66.7431 136.897 74.9647 145.772L162.838 240.636C171.384 249.861 183.518 255.151 196.131 255.151C207.601 255.151 218.541 250.867 226.94 243.088L234.237 236.329C252.585 219.332 253.686 190.576 236.688 172.228L148.816 77.3644ZM230.237 232.012L222.94 238.771C215.634 245.539 206.113 249.266 196.132 249.266C185.154 249.266 174.593 244.663 167.158 236.636L79.2838 141.773C72.1311 134.05 68.4147 123.989 68.8185 113.441C69.2223 102.892 73.6968 93.1437 81.4193 85.991L88.7156 79.2315C96.0214 72.4637 105.544 68.7355 115.525 68.7355C126.503 68.7355 137.063 73.3384 144.498 81.3634L232.371 176.23C247.162 192.196 246.205 217.22 230.237 232.012Z" fill="#B4B4B4"/>
<path d="M185.716 43.1812C167.695 23.7279 142.104 12.5703 115.503 12.5703C91.3134 12.5703 68.2401 21.6042 50.5302 38.0086L43.2327 44.7681C4.53558 80.614 2.21649 141.258 38.0612 179.956L125.935 274.82C143.956 294.272 169.546 305.429 196.147 305.429C220.336 305.429 243.411 296.395 261.122 279.99L268.418 273.231C287.133 255.894 297.98 232.269 298.957 206.707C299.936 181.145 290.926 156.762 273.588 138.045L185.716 43.1812ZM293.077 206.482C292.16 230.472 281.982 252.644 264.418 268.912L257.122 275.671C240.504 291.064 218.848 299.542 196.147 299.542C171.181 299.542 147.164 289.073 130.253 270.819L42.3792 175.955C8.73939 139.639 10.916 82.7259 47.2329 49.0873L54.5304 42.3277C71.1478 26.9334 92.8025 18.4563 115.503 18.4563C140.47 18.4563 164.487 28.9264 181.398 47.1802L269.272 142.044C285.539 159.608 293.994 182.492 293.077 206.482Z" fill="#B4B4B4"/>
</svg>
