<svg width="327" height="205" viewBox="0 0 327 205" fill="none" xmlns="http://www.w3.org/2000/svg">
<g clip-path="url(#clip0_2312_13985)">
<rect width="327" height="205" fill="white"/>
<g clip-path="url(#clip1_2312_13985)">
<path d="M165.722 103H150.604V116.858H165.722V103Z" fill="#B4B4B4"/>
<path d="M29.6605 103H-21.7397V116.858H29.6605V103Z" fill="#B4B4B4"/>
<path d="M62.9213 103H47.8032V116.858H62.9213V103Z" fill="#B4B4B4"/>
<path d="M132.461 103H81.0605V116.858H132.461V103Z" fill="#B4B4B4"/>
<path d="M268.522 103H253.404V116.858H268.522V103Z" fill="#B4B4B4"/>
<path d="M338.064 103H286.664V116.858H338.064V103Z" fill="#B4B4B4"/>
<path d="M235.261 103H183.861V116.858H235.261V103Z" fill="#B4B4B4"/>
<path d="M165.722 132.143H150.604V146.001H165.722V132.143Z" fill="#B4B4B4"/>
<path d="M62.9213 132.143H47.8032V146.001H62.9213V132.143Z" fill="#B4B4B4"/>
<path d="M132.461 132.143H81.0605V146.001H132.461V132.143Z" fill="#B4B4B4"/>
<path d="M29.6605 132.143H-21.7397V146.001H29.6605V132.143Z" fill="#B4B4B4"/>
<path d="M235.261 132.143H183.861V146.001H235.261V132.143Z" fill="#B4B4B4"/>
<path d="M338.064 132.143H286.664V146.001H338.064V132.143Z" fill="#B4B4B4"/>
<path d="M268.522 132.143H253.404V146.001H268.522V132.143Z" fill="#B4B4B4"/>
</g>
</g>
<defs>
<clipPath id="clip0_2312_13985">
<rect width="327" height="205" fill="white"/>
</clipPath>
<clipPath id="clip1_2312_13985">
<rect width="786.414" height="43" fill="white" transform="translate(-55 103)"/>
</clipPath>
</defs>
</svg>
