<svg width="327" height="205" viewBox="0 0 327 205" fill="none" xmlns="http://www.w3.org/2000/svg">
<g clip-path="url(#clip0_2312_14026)">
<rect width="327" height="205" fill="white"/>
<g clip-path="url(#clip1_2312_14026)">
<path d="M694 105.119H0V118.389H694V105.119Z" fill="#B4B4B4"/>
<path d="M694 130.24H0V143.51H694V130.24Z" fill="#B4B4B4"/>
<path d="M217.128 79.998H202.653V93.2683H217.128V79.998Z" fill="#B4B4B4"/>
<path d="M188.179 79.998H173.704V93.2683H188.179V79.998Z" fill="#B4B4B4"/>
<path d="M246.08 79.998H231.605V93.2683H246.08V79.998Z" fill="#B4B4B4"/>
<path d="M303.983 79.998H289.506V93.2683H303.983V79.998Z" fill="#B4B4B4"/>
<path d="M275.031 79.998H260.554V93.2683H275.031V79.998Z" fill="#B4B4B4"/>
<path d="M43.4243 79.998H28.9492V93.2683H43.4243V79.998Z" fill="#B4B4B4"/>
<path d="M332.931 79.998H318.456V93.2683H332.931V79.998Z" fill="#B4B4B4"/>
<path d="M72.3764 79.998H57.9014V93.2683H72.3764V79.998Z" fill="#B4B4B4"/>
<path d="M101.326 79.998H86.8506V93.2683H101.326V79.998Z" fill="#B4B4B4"/>
<path d="M130.278 79.998H115.803V93.2683H130.278V79.998Z" fill="#B4B4B4"/>
<path d="M159.227 79.998H144.752V93.2683H159.227V79.998Z" fill="#B4B4B4"/>
<path d="M14.475 79.998H0V93.2683H14.475V79.998Z" fill="#B4B4B4"/>
<path d="M130.278 155.361H115.803V168.63H130.278V155.361Z" fill="#B4B4B4"/>
<path d="M14.475 155.361H0V168.63H14.475V155.361Z" fill="#B4B4B4"/>
<path d="M101.326 155.361H86.8506V168.63H101.326V155.361Z" fill="#B4B4B4"/>
<path d="M159.227 155.361H144.752V168.63H159.227V155.361Z" fill="#B4B4B4"/>
<path d="M43.4243 155.361H28.9492V168.63H43.4243V155.361Z" fill="#B4B4B4"/>
<path d="M72.3764 155.361H57.9014V168.63H72.3764V155.361Z" fill="#B4B4B4"/>
<path d="M303.983 155.361H289.506V168.63H303.983V155.361Z" fill="#B4B4B4"/>
<path d="M275.031 155.361H260.554V168.63H275.031V155.361Z" fill="#B4B4B4"/>
<path d="M332.931 155.361H318.456V168.63H332.931V155.361Z" fill="#B4B4B4"/>
<path d="M217.128 155.361H202.653V168.63H217.128V155.361Z" fill="#B4B4B4"/>
<path d="M246.08 155.361H231.605V168.63H246.08V155.361Z" fill="#B4B4B4"/>
<path d="M188.179 155.361H173.704V168.63H188.179V155.361Z" fill="#B4B4B4"/>
</g>
</g>
<defs>
<clipPath id="clip0_2312_14026">
<rect width="327" height="205" fill="white"/>
</clipPath>
<clipPath id="clip1_2312_14026">
<rect width="694" height="88.6333" fill="white" transform="translate(0 80)"/>
</clipPath>
</defs>
</svg>
