<svg width="327" height="205" viewBox="0 0 327 205" fill="none" xmlns="http://www.w3.org/2000/svg">
<g clip-path="url(#clip0_2312_14107)">
<rect width="327" height="205" fill="white"/>
<g clip-path="url(#clip1_2312_14107)">
<path d="M419.021 157.199C412.968 163.366 407.249 169.19 395.836 169.19C384.421 169.19 378.703 163.366 372.65 157.199C366.35 150.782 359.208 143.506 345.408 143.506C331.608 143.506 324.468 150.78 318.167 157.198C312.114 163.366 306.397 169.19 294.982 169.19C283.567 169.19 277.849 163.366 271.796 157.198C265.496 150.782 258.355 143.506 244.556 143.506C230.758 143.506 223.616 150.779 217.316 157.198C211.262 163.365 205.544 169.19 194.127 169.19C182.713 169.19 176.997 163.366 170.944 157.199C164.643 150.782 157.502 143.506 143.703 143.506C129.903 143.506 122.761 150.78 116.461 157.199C110.408 163.366 104.69 169.19 93.2751 169.19C81.8614 169.19 76.1438 163.366 70.0897 157.199C63.7891 150.782 56.6474 143.506 42.8482 143.506C29.0501 143.506 21.9096 150.78 15.6089 157.199C9.55603 163.366 3.83838 169.19 -7.57533 169.19C-18.989 169.19 -24.7067 163.366 -30.7596 157.199C-37.0614 150.782 -44.2019 143.507 -58 143.507V149.189C-46.5863 149.189 -40.8686 155.014 -34.8157 161.18C-28.5151 167.598 -21.3745 174.874 -7.57647 174.874C6.22159 174.874 13.3621 167.599 19.6628 161.18C25.7157 155.014 31.4334 149.189 42.8471 149.189C54.2619 149.189 59.9796 155.014 66.0336 161.182C72.3343 167.599 79.476 174.874 93.274 174.874C107.072 174.874 114.215 167.6 120.516 161.182C126.568 155.014 132.287 149.189 143.702 149.189C155.116 149.189 160.833 155.014 166.886 161.182C173.187 167.598 180.328 174.874 194.126 174.874C207.927 174.874 215.069 167.599 221.371 161.18C227.423 155.014 233.141 149.189 244.555 149.189C255.969 149.189 261.686 155.014 267.739 161.18C274.04 167.598 281.181 174.874 294.981 174.874C308.78 174.874 315.922 167.599 322.222 161.18C328.275 155.014 333.993 149.189 345.406 149.189C356.821 149.189 362.54 155.014 368.593 161.182C374.894 167.599 382.035 174.874 395.835 174.874C409.634 174.874 416.775 167.6 423.076 161.182C428.951 155.197 434.499 149.545 445.214 149.206L445.034 143.526C432.042 143.938 425.124 150.984 419.021 157.199Z" fill="#B4B4B4"/>
<path d="M419.021 172.262C412.968 178.428 407.249 184.253 395.836 184.253C384.421 184.253 378.703 178.428 372.65 172.262C366.35 165.844 359.208 158.568 345.408 158.568C331.608 158.568 324.468 165.843 318.167 172.261C312.114 178.428 306.397 184.253 294.982 184.253C283.567 184.253 277.849 178.428 271.796 172.261C265.496 165.844 258.355 158.568 244.556 158.568C230.758 158.568 223.616 165.842 217.316 172.261C211.262 178.428 205.544 184.253 194.127 184.253C182.713 184.253 176.997 178.428 170.944 172.262C164.643 165.844 157.502 158.568 143.703 158.568C129.903 158.568 122.761 165.843 116.461 172.262C110.408 178.428 104.69 184.253 93.2751 184.253C81.8614 184.253 76.1438 178.428 70.0897 172.262C63.7891 165.844 56.6474 158.568 42.8482 158.568C29.0501 158.568 21.9096 165.843 15.6089 172.262C9.55603 178.428 3.83838 184.253 -7.57533 184.253C-18.989 184.253 -24.7067 178.428 -30.7596 172.262C-37.0614 165.844 -44.2019 158.569 -58 158.569V164.252C-46.5863 164.252 -40.8686 170.076 -34.8157 176.243C-28.5151 182.661 -21.3745 189.936 -7.57647 189.936C6.22159 189.936 13.3621 182.662 19.6628 176.243C25.7157 170.076 31.4334 164.252 42.8471 164.252C54.2619 164.252 59.9796 170.076 66.0336 176.244C72.3343 182.661 79.476 189.936 93.274 189.936C107.072 189.936 114.215 182.663 120.516 176.244C126.568 170.076 132.287 164.252 143.702 164.252C155.116 164.252 160.833 170.076 166.886 176.243C173.187 182.661 180.328 189.936 194.126 189.936C207.927 189.936 215.069 182.662 221.371 176.243C227.423 170.076 233.141 164.252 244.555 164.252C255.969 164.252 261.686 170.076 267.739 176.243C274.04 182.661 281.181 189.936 294.981 189.936C308.78 189.936 315.922 182.662 322.222 176.243C328.275 170.076 333.993 164.252 345.406 164.252C356.821 164.252 362.54 170.076 368.593 176.244C374.894 182.662 382.035 189.936 395.835 189.936C409.634 189.936 416.775 182.663 423.076 176.244C428.951 170.261 434.499 164.609 445.214 164.27L445.034 158.59C432.042 159 425.124 166.046 419.021 172.262Z" fill="#B4B4B4"/>
<path d="M-34.8157 40.6723C-28.5151 47.0901 -21.3745 54.3647 -7.57647 54.3647C6.22159 54.3647 13.3621 47.0912 19.6628 40.6723C25.7168 34.5069 31.4334 28.6824 42.8471 28.6824C54.2619 28.6824 59.9796 34.5069 66.0336 40.6735C72.3332 47.0912 79.4748 54.3647 93.274 54.3647C107.073 54.3647 114.215 47.0912 120.516 40.6735C126.568 34.5069 132.288 28.6824 143.702 28.6824C155.116 28.6824 160.833 34.5069 166.886 40.6735C173.187 47.0912 180.328 54.3647 194.126 54.3647C207.927 54.3647 215.069 47.0901 221.371 40.6723C227.423 34.5069 233.142 28.6824 244.556 28.6824C255.97 28.6824 261.687 34.5069 267.74 40.6723C274.041 47.0901 281.183 54.3647 294.982 54.3647C308.781 54.3647 315.923 47.0901 322.223 40.6723C328.276 34.5069 333.994 28.6824 345.408 28.6824C356.822 28.6824 362.541 34.5069 368.594 40.6735C374.895 47.0912 382.036 54.3647 395.836 54.3647C409.635 54.3647 416.775 47.0912 423.077 40.6735C428.952 34.6899 434.5 29.0381 445.215 28.6995L445.035 23.0205C432.043 23.4307 425.125 30.4769 419.022 36.6924C412.968 42.8589 407.251 48.6823 395.837 48.6823C384.422 48.6823 378.704 42.8578 372.651 36.6924C366.35 30.2746 359.208 23 345.408 23C331.608 23 324.468 30.2735 318.167 36.6912C312.114 42.8578 306.397 48.6823 294.982 48.6823C283.567 48.6823 277.849 42.8578 271.796 36.6912C265.496 30.2735 258.354 23 244.556 23C230.758 23 223.616 30.2735 217.317 36.6912C211.262 42.8578 205.544 48.6823 194.127 48.6823C182.713 48.6823 176.997 42.8578 170.944 36.6924C164.642 30.2746 157.501 23 143.702 23C129.902 23 122.76 30.2746 116.459 36.6924C110.407 42.8589 104.689 48.6823 93.274 48.6823C81.8603 48.6823 76.1427 42.8578 70.0886 36.6924C63.7879 30.2746 56.6463 23 42.8471 23C29.049 23 21.9085 30.2735 15.6078 36.6924C9.55489 42.8589 3.83725 48.6823 -7.57647 48.6823C-18.9902 48.6823 -24.7078 42.8578 -30.7607 36.6924C-37.0614 30.2735 -44.2019 23 -58 23V28.6824C-46.5863 28.6824 -40.8686 34.5069 -34.8157 40.6723Z" fill="#B4B4B4"/>
<path d="M419.021 127.072C412.967 133.239 407.249 139.063 395.836 139.063C384.421 139.063 378.703 133.239 372.65 127.072C366.35 120.654 359.208 113.379 345.408 113.379C331.608 113.379 324.468 120.654 318.167 127.071C312.114 133.239 306.397 139.063 294.982 139.063C283.567 139.063 277.849 133.238 271.795 127.071C265.495 120.654 258.354 113.379 244.555 113.379C230.757 113.379 223.615 120.652 217.314 127.071C211.26 133.238 205.543 139.063 194.126 139.063C182.712 139.063 176.995 133.239 170.942 127.072C164.642 120.654 157.501 113.379 143.702 113.379C129.902 113.379 122.76 120.654 116.459 127.072C110.407 133.239 104.689 139.063 93.274 139.063C81.8603 139.063 76.1427 133.239 70.0886 127.072C63.7879 120.654 56.6463 113.379 42.8471 113.379C29.049 113.379 21.9085 120.654 15.6078 127.072C9.55489 133.239 3.83725 139.063 -7.57647 139.063C-18.9902 139.063 -24.7078 133.238 -30.7607 127.072C-37.0614 120.654 -44.2019 113.379 -58 113.379V119.061C-46.5863 119.061 -40.8686 124.886 -34.8157 131.052C-28.5151 137.47 -21.3745 144.746 -7.57647 144.746C6.22159 144.746 13.3621 137.471 19.6628 131.052C25.7157 124.886 31.4334 119.061 42.8471 119.061C54.2619 119.061 59.9796 124.886 66.0336 131.054C72.3343 137.47 79.476 144.746 93.274 144.746C107.072 144.746 114.215 137.471 120.516 131.054C126.568 124.886 132.287 119.061 143.702 119.061C155.116 119.061 160.833 124.886 166.886 131.054C173.187 137.47 180.328 144.746 194.126 144.746C207.927 144.746 215.069 137.471 221.371 131.052C227.423 124.886 233.141 119.061 244.555 119.061C255.969 119.061 261.686 124.886 267.739 131.052C274.04 137.47 281.181 144.746 294.981 144.746C308.78 144.746 315.922 137.471 322.222 131.052C328.275 124.886 333.993 119.061 345.406 119.061C356.821 119.061 362.54 124.886 368.593 131.054C374.894 137.47 382.035 144.746 395.835 144.746C409.634 144.746 416.774 137.472 423.076 131.054C428.951 125.069 434.499 119.417 445.214 119.078L445.034 113.399C432.041 113.81 425.124 120.855 419.021 127.072Z" fill="#B4B4B4"/>
<path d="M419.021 187.327C412.967 193.494 407.249 199.318 395.836 199.318C384.421 199.318 378.703 193.494 372.65 187.327C366.35 180.909 359.208 173.635 345.408 173.635C331.608 173.635 324.468 180.908 318.167 187.327C312.114 193.494 306.397 199.318 294.982 199.318C283.567 199.318 277.849 193.494 271.796 187.327C265.496 180.909 258.355 173.635 244.556 173.635C230.758 173.635 223.616 180.908 217.316 187.326C211.262 193.494 205.544 199.318 194.127 199.318C182.713 199.318 176.997 193.494 170.944 187.327C164.643 180.909 157.502 173.635 143.703 173.635C129.903 173.635 122.761 180.908 116.461 187.327C110.408 193.494 104.69 199.318 93.2751 199.318C81.8614 199.318 76.1438 193.494 70.0897 187.327C63.7891 180.909 56.6474 173.635 42.8482 173.635C29.0501 173.635 21.9096 180.908 15.6089 187.327C9.55603 193.494 3.83838 199.318 -7.57533 199.318C-18.989 199.318 -24.7067 193.494 -30.7596 187.327C-37.0614 180.909 -44.2019 173.635 -58 173.635V179.317C-46.5863 179.317 -40.8686 185.142 -34.8157 191.308C-28.5151 197.726 -21.3745 205.001 -7.57647 205.001C6.22159 205.001 13.3621 197.727 19.6628 191.308C25.7157 185.142 31.4334 179.317 42.8471 179.317C54.2619 179.317 59.9796 185.142 66.0336 191.308C72.3343 197.726 79.476 205.001 93.274 205.001C107.072 205.001 114.215 197.727 120.516 191.308C126.568 185.142 132.287 179.317 143.702 179.317C155.116 179.317 160.833 185.142 166.886 191.308C173.187 197.726 180.328 205.001 194.126 205.001C207.927 205.001 215.069 197.726 221.371 191.307C227.423 185.142 233.141 179.317 244.555 179.317C255.969 179.317 261.686 185.142 267.739 191.308C274.04 197.726 281.181 205.001 294.981 205.001C308.78 205.001 315.922 197.727 322.222 191.308C328.275 185.142 333.993 179.317 345.406 179.317C356.821 179.317 362.54 185.142 368.593 191.308C374.894 197.726 382.035 205.001 395.835 205.001C409.634 205.001 416.774 197.727 423.076 191.308C428.951 185.324 434.499 179.673 445.214 179.334L445.034 173.654C432.041 174.064 425.124 181.112 419.021 187.327Z" fill="#B4B4B4"/>
<path d="M419.021 142.136C412.968 148.303 407.249 154.127 395.836 154.127C384.421 154.127 378.703 148.303 372.65 142.135C366.35 135.717 359.208 128.441 345.408 128.441C331.608 128.441 324.468 135.716 318.167 142.135C312.114 148.303 306.397 154.127 294.982 154.127C283.567 154.127 277.849 148.303 271.796 142.135C265.496 135.717 258.355 128.441 244.556 128.441C230.758 128.441 223.616 135.715 217.316 142.134C211.262 148.301 205.544 154.127 194.127 154.127C182.713 154.127 176.997 148.303 170.944 142.135C164.643 135.717 157.502 128.441 143.703 128.441C129.903 128.441 122.761 135.716 116.461 142.135C110.408 148.303 104.69 154.127 93.2751 154.127C81.8614 154.127 76.1438 148.303 70.0897 142.135C63.7891 135.717 56.6474 128.441 42.8482 128.441C29.0501 128.441 21.9096 135.716 15.6089 142.135C9.55603 148.303 3.83838 154.127 -7.57533 154.127C-18.989 154.127 -24.7067 148.303 -30.7596 142.135C-37.0614 135.716 -44.2019 128.441 -58 128.441V134.124C-46.5863 134.124 -40.8686 139.948 -34.8157 146.116C-28.5151 152.534 -21.3745 159.81 -7.57647 159.81C6.22159 159.81 13.3621 152.535 19.6628 146.116C25.7157 139.948 31.4334 134.124 42.8471 134.124C54.2619 134.124 59.9796 139.948 66.0336 146.116C72.3343 152.534 79.476 159.81 93.274 159.81C107.072 159.81 114.215 152.535 120.516 146.116C126.568 139.948 132.287 134.124 143.702 134.124C155.116 134.124 160.833 139.948 166.886 146.116C173.187 152.534 180.328 159.81 194.126 159.81C207.927 159.81 215.069 152.535 221.371 146.115C227.423 139.948 233.141 134.124 244.555 134.124C255.969 134.124 261.686 139.948 267.739 146.116C274.04 152.534 281.181 159.81 294.981 159.81C308.78 159.81 315.922 152.535 322.222 146.116C328.275 139.948 333.993 134.124 345.406 134.124C356.821 134.124 362.54 139.948 368.593 146.116C374.894 152.534 382.035 159.81 395.835 159.81C409.634 159.81 416.775 152.536 423.076 146.117C428.951 140.132 434.499 134.481 445.214 134.142L445.034 128.462C432.042 128.873 425.124 135.919 419.021 142.136Z" fill="#B4B4B4"/>
<path d="M419.021 51.7549C412.967 57.9214 407.249 63.7448 395.836 63.7448C384.421 63.7448 378.703 57.9203 372.65 51.7549C366.35 45.3371 359.208 38.0625 345.408 38.0625C331.608 38.0625 324.468 45.336 318.167 51.7537C312.114 57.9203 306.397 63.7448 294.982 63.7448C283.567 63.7448 277.849 57.9203 271.796 51.7537C265.496 45.336 258.355 38.0625 244.556 38.0625C230.758 38.0625 223.616 45.336 217.317 51.7537C211.262 57.9203 205.544 63.7448 194.127 63.7448C182.713 63.7448 176.997 57.9203 170.944 51.7549C164.643 45.3371 157.502 38.0625 143.703 38.0625C129.903 38.0625 122.761 45.336 116.461 51.7549C110.408 57.9214 104.69 63.7448 93.2751 63.7448C81.8614 63.7448 76.1438 57.9203 70.0897 51.7549C63.7891 45.3371 56.6474 38.0625 42.8482 38.0625C29.0501 38.0625 21.9096 45.336 15.6089 51.7549C9.55603 57.9203 3.83838 63.7448 -7.57533 63.7448C-18.989 63.7448 -24.7067 57.9203 -30.7596 51.7549C-37.0614 45.336 -44.2019 38.0625 -58 38.0625V43.7449C-46.5863 43.7449 -40.8686 49.5694 -34.8157 55.7348C-28.5151 62.1526 -21.3745 69.4272 -7.57647 69.4272C6.22159 69.4272 13.3621 62.1537 19.6628 55.7348C25.7157 49.5683 31.4334 43.7449 42.8471 43.7449C54.2619 43.7449 59.9796 49.5694 66.0336 55.736C72.3332 62.1537 79.4748 69.4272 93.274 69.4272C107.073 69.4272 114.215 62.1537 120.516 55.736C126.568 49.5694 132.287 43.7449 143.702 43.7449C155.116 43.7449 160.833 49.5694 166.886 55.736C173.187 62.1537 180.328 69.4272 194.126 69.4272C207.927 69.4272 215.069 62.1526 221.371 55.7348C227.423 49.5694 233.141 43.7449 244.555 43.7449C255.969 43.7449 261.686 49.5694 267.739 55.7348C274.04 62.1526 281.181 69.4272 294.981 69.4272C308.78 69.4272 315.922 62.1526 322.222 55.7348C328.275 49.5683 333.993 43.7449 345.406 43.7449C356.821 43.7449 362.54 49.5694 368.593 55.736C374.894 62.1537 382.035 69.4272 395.835 69.4272C409.634 69.4272 416.774 62.1537 423.076 55.736C428.951 49.7524 434.499 44.1006 445.214 43.762L445.034 38.083C432.042 38.4932 425.124 45.5383 419.021 51.7549Z" fill="#B4B4B4"/>
<path d="M419.021 66.8185C412.968 72.9851 407.249 78.8095 395.836 78.8095C384.421 78.8095 378.703 72.9851 372.65 66.8185C366.35 60.4008 359.208 53.125 345.408 53.125C331.608 53.125 324.468 60.3996 318.167 66.8174C312.114 72.9839 306.397 78.8095 294.982 78.8095C283.567 78.8095 277.849 72.9851 271.796 66.8174C265.496 60.3996 258.355 53.125 244.556 53.125C230.758 53.125 223.616 60.3996 217.316 66.8174C211.262 72.9851 205.544 78.8095 194.127 78.8095C182.713 78.8095 176.997 72.9851 170.944 66.8185C164.643 60.4008 157.502 53.125 143.703 53.125C129.903 53.125 122.761 60.3996 116.461 66.8185C110.408 72.9851 104.69 78.8095 93.2751 78.8095C81.8614 78.8095 76.1438 72.9851 70.0897 66.8185C63.7891 60.4008 56.6474 53.125 42.8482 53.125C29.0501 53.125 21.9096 60.3996 15.6089 66.8185C9.55603 72.9851 3.83838 78.8095 -7.57533 78.8095C-18.989 78.8095 -24.7067 72.9851 -30.7596 66.8185C-37.0614 60.3996 -44.2019 53.125 -58 53.125V58.8074C-46.5863 58.8074 -40.8686 64.6319 -34.8157 70.7985C-28.5151 77.2162 -21.3745 84.492 -7.57647 84.492C6.22159 84.492 13.3621 77.2173 19.6628 70.7985C25.7157 64.6319 31.4334 58.8074 42.8471 58.8074C54.2619 58.8074 59.9796 64.6319 66.0336 70.7996C72.3343 77.2173 79.476 84.492 93.274 84.492C107.072 84.492 114.215 77.2173 120.516 70.7996C126.568 64.633 132.287 58.8074 143.702 58.8074C155.116 58.8074 160.833 64.6319 166.886 70.7996C173.187 77.2173 180.328 84.492 194.126 84.492C207.927 84.492 215.069 77.2173 221.371 70.7985C227.423 64.6319 233.141 58.8074 244.555 58.8074C255.969 58.8074 261.686 64.6319 267.739 70.7985C274.04 77.2162 281.181 84.492 294.981 84.492C308.78 84.492 315.922 77.2173 322.222 70.7985C328.275 64.6319 333.993 58.8074 345.406 58.8074C356.821 58.8074 362.54 64.6319 368.593 70.7996C374.894 77.2173 382.035 84.492 395.835 84.492C409.634 84.492 416.775 77.2173 423.076 70.7996C428.951 64.816 434.499 59.1643 445.214 58.8245L445.034 53.1455C432.042 53.5557 425.124 60.6019 419.021 66.8185Z" fill="#B4B4B4"/>
<path d="M419.021 112.01C412.967 118.175 407.249 124 395.836 124C384.421 124 378.703 118.175 372.65 112.01C366.35 105.592 359.208 98.3187 345.408 98.3187C331.608 98.3187 324.468 105.592 318.167 112.01C312.114 118.175 306.397 124 294.982 124C283.567 124 277.849 118.175 271.796 112.01C265.496 105.592 258.355 98.3187 244.556 98.3187C230.758 98.3187 223.616 105.592 217.317 112.009C211.262 118.175 205.544 124 194.127 124C182.713 124 176.997 118.175 170.944 112.01C164.643 105.592 157.502 98.3175 143.703 98.3175C129.903 98.3175 122.761 105.591 116.461 112.009C110.408 118.175 104.69 123.999 93.2751 123.999C81.8614 123.999 76.1427 118.174 70.0897 112.009C63.7891 105.591 56.6474 98.3164 42.8482 98.3164C29.0501 98.3164 21.9096 105.59 15.6089 112.008C9.55603 118.174 3.83838 123.998 -7.57533 123.998C-18.989 123.998 -24.7067 118.173 -30.7596 112.008C-37.0614 105.591 -44.2019 98.3175 -58 98.3175V104C-46.5863 104 -40.8686 109.824 -34.8157 115.99C-28.5151 122.408 -21.3745 129.681 -7.57647 129.681C6.22159 129.681 13.3621 122.408 19.6628 115.99C25.7157 109.823 31.4334 104 42.8471 104C54.2619 104 59.9796 109.824 66.0336 115.99C72.3343 122.408 79.4748 129.681 93.274 129.681C107.073 129.681 114.215 122.408 120.516 115.99C126.568 109.824 132.287 104 143.702 104C155.116 104 160.833 109.824 166.886 115.99C173.187 122.408 180.328 129.681 194.126 129.681C207.927 129.681 215.069 122.406 221.371 115.989C227.423 109.823 233.141 104 244.555 104C255.969 104 261.686 109.824 267.739 115.99C274.04 122.408 281.181 129.681 294.981 129.681C308.78 129.681 315.922 122.408 322.222 115.99C328.275 109.823 333.993 104 345.406 104C356.821 104 362.54 109.824 368.593 115.99C374.894 122.408 382.035 129.681 395.835 129.681C409.634 129.681 416.774 122.408 423.076 115.99C428.951 110.006 434.499 104.355 445.214 104.016L445.034 98.3369C432.042 98.7483 425.124 105.793 419.021 112.01Z" fill="#B4B4B4"/>
<path d="M419.021 96.9463C412.967 103.113 407.249 108.936 395.836 108.936C384.421 108.936 378.703 103.112 372.65 96.9463C366.35 90.5285 359.208 83.2539 345.408 83.2539C331.608 83.2539 324.468 90.5274 318.167 96.9451C312.114 103.112 306.397 108.936 294.982 108.936C283.567 108.936 277.849 103.112 271.796 96.9451C265.496 90.5274 258.355 83.2539 244.556 83.2539C230.758 83.2539 223.616 90.5274 217.317 96.9451C211.262 103.112 205.544 108.936 194.127 108.936C182.713 108.936 176.997 103.112 170.944 96.9463C164.643 90.5285 157.502 83.2539 143.703 83.2539C129.903 83.2539 122.761 90.5285 116.461 96.9463C110.408 103.113 104.69 108.936 93.2751 108.936C81.8614 108.936 76.1438 103.112 70.0897 96.9463C63.7891 90.5285 56.6474 83.2539 42.8482 83.2539C29.0501 83.2539 21.9096 90.5274 15.6089 96.9463C9.55603 103.113 3.83838 108.936 -7.57533 108.936C-18.989 108.936 -24.7067 103.112 -30.7596 96.9463C-37.0614 90.5274 -44.2019 83.2539 -58 83.2539V88.9363C-46.5863 88.9363 -40.8686 94.7608 -34.8157 100.926C-28.5151 107.344 -21.3745 114.619 -7.57647 114.619C6.22159 114.619 13.3621 107.345 19.6628 100.926C25.7157 94.7608 31.4334 88.9363 42.8471 88.9363C54.2619 88.9363 59.9796 94.7608 66.0336 100.927C72.3332 107.345 79.4748 114.619 93.274 114.619C107.073 114.619 114.215 107.345 120.516 100.927C126.568 94.7608 132.287 88.9363 143.702 88.9363C155.116 88.9363 160.833 94.7608 166.886 100.927C173.187 107.345 180.328 114.619 194.126 114.619C207.927 114.619 215.069 107.344 221.371 100.926C227.423 94.7608 233.141 88.9363 244.555 88.9363C255.969 88.9363 261.686 94.7608 267.739 100.926C274.04 107.344 281.181 114.619 294.981 114.619C308.78 114.619 315.922 107.344 322.222 100.926C328.275 94.7597 333.993 88.9363 345.406 88.9363C356.821 88.9363 362.54 94.7608 368.593 100.927C374.894 107.345 382.035 114.619 395.835 114.619C409.634 114.619 416.774 107.345 423.076 100.927C428.951 94.9438 434.499 89.292 445.214 88.9534L445.034 83.2744C432.042 83.6846 425.124 90.7297 419.021 96.9463Z" fill="#B4B4B4"/>
<path d="M419.021 81.8838C412.967 88.0503 407.249 93.8748 395.836 93.8748C384.421 93.8748 378.703 88.0503 372.65 81.8838C366.35 75.466 359.208 68.1914 345.408 68.1914C331.608 68.1914 324.468 75.4649 318.167 81.8838C312.114 88.0503 306.397 93.8748 294.982 93.8748C283.567 93.8748 277.849 88.0503 271.796 81.8838C265.496 75.466 258.355 68.1914 244.556 68.1914C230.758 68.1914 223.616 75.4649 217.316 81.8826C211.262 88.0492 205.544 93.8737 194.127 93.8737C182.713 93.8737 176.997 88.0492 170.944 81.8838C164.643 75.466 157.502 68.1914 143.703 68.1914C129.903 68.1914 122.761 75.466 116.461 81.8838C110.408 88.0503 104.69 93.8748 93.2751 93.8748C81.8614 93.8748 76.1438 88.0503 70.0897 81.8838C63.7891 75.466 56.6474 68.1914 42.8482 68.1914C29.0501 68.1914 21.9096 75.466 15.6089 81.8838C9.55603 88.0503 3.83838 93.8748 -7.57533 93.8748C-18.989 93.8748 -24.7067 88.0503 -30.7596 81.8838C-37.0614 75.466 -44.2019 68.1914 -58 68.1914V73.8738C-46.5863 73.8738 -40.8686 79.6983 -34.8157 85.8649C-28.5151 92.2826 -21.3745 99.5572 -7.57647 99.5572C6.22159 99.5572 13.3621 92.2826 19.6628 85.8649C25.7157 79.6983 31.4334 73.8738 42.8471 73.8738C54.2619 73.8738 59.9796 79.6983 66.0336 85.8649C72.3343 92.2826 79.476 99.5572 93.274 99.5572C107.072 99.5572 114.215 92.2837 120.516 85.8649C126.568 79.6983 132.287 73.8738 143.702 73.8738C155.116 73.8738 160.833 79.6983 166.886 85.8649C173.187 92.2826 180.328 99.5572 194.126 99.5572C207.927 99.5572 215.069 92.2826 221.371 85.8637C227.423 79.6983 233.141 73.8738 244.555 73.8738C255.969 73.8738 261.686 79.6983 267.739 85.8637C274.04 92.2815 281.181 99.5561 294.981 99.5561C308.78 99.5561 315.922 92.2815 322.222 85.8637C328.275 79.6983 333.993 73.8738 345.406 73.8738C356.821 73.8738 362.54 79.6983 368.593 85.8649C374.894 92.2826 382.035 99.5572 395.835 99.5572C409.634 99.5572 416.774 92.2837 423.076 85.8649C428.951 79.8813 434.499 74.2295 445.214 73.8897L445.034 68.2107C432.042 68.6221 425.124 75.6672 419.021 81.8838Z" fill="#B4B4B4"/>
</g>
</g>
<defs>
<clipPath id="clip0_2312_14107">
<rect width="327" height="205" fill="white"/>
</clipPath>
<clipPath id="clip1_2312_14107">
<rect width="503.214" height="182" fill="white" transform="translate(-58 23)"/>
</clipPath>
</defs>
</svg>
