<svg width="310" height="143" viewBox="0 0 310 143" fill="none" xmlns="http://www.w3.org/2000/svg">
<path d="M450.701 82.168H-53.5V88.2219H450.701V82.168Z" fill="#B4B4B4"/>
<path d="M450.701 95.8594H-53.5V101.913H450.701V95.8594Z" fill="#B4B4B4"/>
<path d="M450.701 68.4727H-53.5V74.5266H450.701V68.4727Z" fill="#B4B4B4"/>
<path d="M450.701 136.947H-53.5V143.001H450.701V136.947Z" fill="#B4B4B4"/>
<path d="M450.701 123.25H-53.5V129.304H450.701V123.25Z" fill="#B4B4B4"/>
<path d="M450.701 109.557H-53.5V115.611H450.701V109.557Z" fill="#B4B4B4"/>
<path d="M450.701 13.6953H-53.5V19.7492H450.701V13.6953Z" fill="#B4B4B4"/>
<path d="M450.701 0H-53.5V6.05394H450.701V0Z" fill="#B4B4B4"/>
<path d="M450.701 54.7793H-53.5V60.8332H450.701V54.7793Z" fill="#B4B4B4"/>
<path d="M450.701 27.3887H-53.5V33.4426H450.701V27.3887Z" fill="#B4B4B4"/>
<path d="M450.701 41.084H-53.5V47.1379H450.701V41.084Z" fill="#B4B4B4"/>
</svg>
