<svg width="324" height="205" viewBox="0 0 324 205" fill="none" xmlns="http://www.w3.org/2000/svg">
<g clip-path="url(#clip0_2312_13860)">
<path d="M161.982 205.067V200.067C177.562 200.067 192.924 197.81 207.643 193.36L209.09 198.145C193.903 202.738 178.053 205.067 161.982 205.067ZM161.982 205.067C118.716 205.067 78.039 188.218 47.444 157.624C16.849 127.029 0 86.352 0 43.086C0 29.049 1.785 15.127 5.306 1.70895L10.142 2.97795C6.73 15.982 5 29.477 5 43.086C5 85.017 21.329 124.438 50.979 154.088C80.63 183.737 120.051 200.067 161.982 200.067V205.067ZM161.982 192.18C79.771 192.18 12.888 125.297 12.888 43.086C12.888 29.001 14.853 15.059 18.728 1.64895L23.531 3.03695C19.787 15.996 17.888 29.47 17.888 43.086C17.888 122.54 82.529 187.18 161.982 187.18C177.566 187.18 192.907 184.701 207.576 179.811L209.158 184.555C193.977 189.615 178.105 192.18 161.982 192.18ZM161.982 179.292V174.292C177.669 174.292 192.983 171.575 207.502 166.217L209.232 170.908C194.158 176.471 178.26 179.292 161.982 179.292ZM161.982 179.292C125.6 179.292 91.396 165.124 65.669 139.398C39.943 113.67 25.775 79.465 25.775 43.085C25.775 28.895 27.931 14.932 32.184 1.58395L36.948 3.10195C32.852 15.959 30.775 29.412 30.775 43.086C30.775 78.131 44.422 111.08 69.204 135.864C93.986 160.645 126.935 174.293 161.981 174.293L161.982 179.292ZM161.982 166.405V161.405C177.756 161.405 193.04 158.378 207.408 152.408L209.326 157.025C194.347 163.249 178.418 166.405 161.982 166.405ZM161.982 166.405C129.042 166.405 98.074 153.578 74.784 130.286C51.491 106.995 38.663 76.027 38.663 43.086C38.663 28.787 41.072 14.795 45.822 1.50195L50.531 3.18495C45.973 15.937 43.663 29.362 43.663 43.086C43.663 74.69 55.971 104.403 78.319 126.75C100.666 149.097 130.378 161.405 161.982 161.405V166.405ZM161.982 153.518V148.518C177.885 148.518 193.129 145.095 207.291 138.345L209.443 142.859C194.603 149.932 178.635 153.518 161.982 153.518ZM161.982 153.518C132.485 153.518 104.753 142.031 83.895 121.173C63.038 100.315 51.551 72.583 51.551 43.086C51.551 28.632 54.279 14.607 59.658 1.39995L64.289 3.28695C59.154 15.892 56.551 29.283 56.551 43.086C56.551 71.2469 67.518 97.724 87.43 117.638C107.344 137.552 133.82 148.518 161.982 148.518V153.518ZM161.982 140.63V135.63C177.856 135.63 193.472 131.577 207.144 123.909L209.589 128.27C195.173 136.355 178.71 140.63 161.982 140.63ZM161.982 140.63C135.926 140.63 111.431 130.484 93.008 112.06C74.585 93.636 64.439 69.141 64.439 43.086C64.439 28.419 67.589 14.35 73.802 1.27095L78.318 3.41695C72.426 15.821 69.439 29.167 69.439 43.087C69.439 67.806 79.065 91.046 96.543 108.525C114.022 126.004 137.263 135.63 161.982 135.63V140.63ZM161.982 127.743V122.743C178.182 122.743 193.732 117.943 206.951 108.861L209.783 112.982C195.726 122.639 179.197 127.743 161.982 127.743ZM161.982 127.743C139.37 127.743 118.111 118.937 102.122 102.947C86.132 86.958 77.327 65.698 77.327 43.086C77.327 28.3 81.167 13.781 88.432 1.10095L92.77 3.58595C85.938 15.511 82.327 29.17 82.327 43.086C82.327 64.363 90.612 84.366 105.657 99.412C120.703 114.457 140.706 122.744 161.982 122.744V127.743ZM161.982 114.855V109.855C178.558 109.855 194.435 103.754 206.69 92.678L210.044 96.387C196.868 108.296 179.799 114.855 161.982 114.855ZM161.982 114.855C142.812 114.855 124.79 107.39 111.235 93.834C97.679 80.278 90.214 62.256 90.214 43.086C90.214 27.75 94.955 13.151 103.926 0.868953L107.963 3.81795C99.622 15.239 95.214 28.818 95.214 43.086C95.214 60.92 102.159 77.688 114.77 90.298C127.38 102.909 144.147 109.855 161.982 109.855V114.855ZM161.982 101.968V96.968C176.374 96.968 189.904 91.363 200.081 81.185C202.374 78.893 204.471 76.387 206.314 73.734L210.419 76.587C208.407 79.484 206.117 82.22 203.614 84.721C192.496 95.843 177.709 101.968 161.982 101.968ZM161.982 101.968C146.254 101.968 131.468 95.843 120.347 84.72C109.226 73.599 103.102 58.813 103.102 43.085C103.102 27.357 109.226 12.571 120.347 1.44995C120.655 1.14095 120.969 0.836953 121.284 0.534953L124.739 4.14895C124.452 4.42295 124.167 4.70095 123.885 4.98295C113.707 15.161 108.103 28.692 108.103 43.085C108.103 57.477 113.707 71.0079 123.883 81.185C134.061 91.363 147.591 96.968 161.983 96.968V101.968H161.982ZM161.982 89.081V84.081C172.93 84.081 183.224 79.816 190.969 72.072C198.71 64.3289 202.974 54.035 202.974 43.086C202.974 32.136 198.71 21.841 190.969 14.099C186.774 9.90395 181.87 6.73695 176.395 4.68395L178.149 0.00195312C184.298 2.30595 189.801 5.85895 194.504 10.563C203.191 19.25 207.974 30.8 207.974 43.085C207.974 55.37 203.191 66.919 194.504 75.607C185.815 84.296 174.265 89.081 161.982 89.081ZM161.982 89.081C149.698 89.081 138.148 84.296 129.461 75.608C120.773 66.92 115.989 55.371 115.989 43.086C115.989 30.801 120.773 19.251 129.461 10.564C134.162 5.86095 139.665 2.30795 145.816 0.00295312L147.57 4.68495C142.092 6.73795 137.189 9.90495 132.996 14.1C125.254 21.843 120.989 32.138 120.989 43.087C120.989 54.036 125.254 64.3299 132.996 72.074C140.74 79.818 151.034 84.081 161.982 84.081V89.081ZM161.982 76.193C153.139 76.193 144.826 72.749 138.573 66.495C132.32 60.242 128.877 51.929 128.877 43.086C128.877 34.243 132.321 25.929 138.574 19.676C144.826 13.422 153.139 9.97795 161.982 9.97795C170.824 9.97795 179.137 13.422 185.39 19.677C191.643 25.929 195.087 34.243 195.087 43.086C195.087 51.929 191.643 60.242 185.39 66.495C179.14 72.749 170.827 76.193 161.982 76.193ZM161.982 14.978C154.475 14.978 147.418 17.902 142.11 23.212C136.8 28.521 133.877 35.579 133.877 43.086C133.877 50.593 136.801 57.65 142.108 62.96C147.417 68.27 154.475 71.193 161.982 71.193C169.491 71.193 176.547 68.269 181.854 62.96C187.164 57.651 190.087 50.593 190.087 43.086C190.087 35.579 187.163 28.521 181.855 23.212C176.545 17.902 169.488 14.978 161.982 14.978ZM161.982 63.306C156.585 63.306 151.507 61.202 147.685 57.383C143.867 53.562 141.764 48.485 141.764 43.086C141.764 37.687 143.867 32.61 147.685 28.79C151.506 24.97 156.583 22.867 161.982 22.867C167.381 22.867 172.458 24.971 176.279 28.79C180.096 32.609 182.199 37.686 182.199 43.087C182.199 48.488 180.096 53.566 176.278 57.384C172.456 61.203 167.379 63.306 161.982 63.306ZM161.982 27.866C157.919 27.866 154.097 29.449 151.221 32.325C148.347 35.2 146.764 39.022 146.764 43.086C146.764 47.15 148.347 50.972 151.221 53.848C154.097 56.723 157.919 58.306 161.982 58.306C166.045 58.306 169.866 56.723 172.743 53.847C175.616 50.973 177.199 47.151 177.199 43.086C177.199 39.021 175.617 35.199 172.743 32.325C169.867 29.45 166.045 27.866 161.982 27.866ZM161.982 50.418C160.023 50.418 158.181 49.654 156.796 48.268C155.414 46.887 154.651 45.046 154.651 43.086C154.651 41.1 155.393 39.308 156.797 37.903C158.182 36.517 160.023 35.753 161.981 35.753C163.938 35.753 165.779 36.516 167.165 37.902C168.55 39.287 169.311 41.128 169.311 43.086C169.311 45.043 168.548 46.883 167.165 48.269C165.781 49.655 163.94 50.418 161.982 50.418ZM161.982 40.753C161.334 40.753 160.795 40.977 160.336 41.437C159.876 41.898 159.652 42.437 159.652 43.086C159.652 43.736 159.875 44.274 160.333 44.732C160.795 45.194 161.333 45.418 161.982 45.418C162.63 45.418 163.17 45.194 163.628 44.735C164.088 44.275 164.312 43.735 164.312 43.086C164.312 42.436 164.088 41.897 163.629 41.437C163.169 40.977 162.63 40.753 161.982 40.753ZM206.313 12.437C204.474 9.78895 202.377 7.28195 200.081 4.98595C199.797 4.70095 199.514 4.42495 199.228 4.15295L202.677 0.533953C202.995 0.836953 203.31 1.14295 203.62 1.45495C206.122 3.95595 208.411 6.69295 210.42 9.58495L206.313 12.437Z" fill="#B4B4B4"/>
<path d="M161.928 205.086C135.858 205.086 110.012 198.796 87.1836 186.897L89.4946 182.463C111.613 193.992 136.66 200.086 161.929 200.086C203.86 200.086 243.282 183.757 272.931 154.107C302.58 124.457 318.91 85.036 318.91 43.105C318.91 29.485 317.18 15.984 313.765 2.978L318.601 1.708C322.123 15.129 323.91 29.057 323.91 43.105C323.91 86.372 307.061 127.048 276.467 157.643C245.872 188.237 205.195 205.086 161.928 205.086ZM161.928 192.199C135.605 192.199 109.724 185.239 87.0816 172.071L89.5956 167.749C111.475 180.474 136.487 187.199 161.928 187.199C241.381 187.199 306.022 122.558 306.022 43.105C306.022 29.491 304.121 16.01 300.372 3.037L305.175 1.648C309.055 15.073 311.023 29.021 311.023 43.105C311.022 125.315 244.139 192.199 161.928 192.199ZM161.928 179.31C135.063 179.31 109.139 171.551 86.9586 156.872L89.7186 152.702C111.077 166.839 136.047 174.31 161.928 174.31C196.974 174.31 229.923 160.663 254.705 135.882C279.486 111.1 293.134 78.151 293.134 43.105C293.134 29.427 291.055 15.968 286.955 3.102L291.719 1.583C295.976 14.941 298.134 28.911 298.134 43.104C298.134 79.485 283.966 113.69 258.24 139.417C232.514 165.142 198.31 179.31 161.928 179.31ZM161.928 166.423C134.419 166.423 108.445 157.608 86.8126 140.929L89.8656 136.969C110.616 152.967 135.535 161.423 161.929 161.423C193.533 161.423 223.245 149.115 245.593 126.767C267.94 104.42 280.247 74.708 280.247 43.104C280.247 29.369 277.935 15.938 273.375 3.184L278.084 1.5C282.837 14.796 285.247 28.794 285.247 43.104C285.247 76.043 272.42 107.011 249.128 130.302C225.835 153.595 194.868 166.423 161.928 166.423ZM161.928 153.536C133.853 153.536 107.113 143.007 86.6326 123.889L90.0446 120.234C109.596 138.485 135.124 148.537 161.928 148.537C190.089 148.537 216.565 137.57 236.479 117.657C256.393 97.745 267.36 71.269 267.36 43.106C267.36 29.298 264.754 15.901 259.613 3.287L264.244 1.4C269.63 14.615 272.36 28.648 272.36 43.106C272.36 72.605 260.873 100.336 240.014 121.193C219.156 142.048 191.424 153.536 161.928 153.536ZM161.928 140.647C135.873 140.647 111.378 130.501 92.9526 112.078C90.6546 109.778 88.4526 107.349 86.4056 104.856L90.2706 101.683C92.2136 104.051 94.3056 106.358 96.4886 108.542C113.968 126.02 137.209 135.646 161.927 135.646C186.645 135.646 209.885 126.02 227.365 108.541C244.844 91.063 254.47 67.823 254.47 43.103C254.47 29.178 251.479 15.825 245.579 3.414L250.095 1.268C256.316 14.355 259.47 28.43 259.47 43.103C259.47 69.159 249.324 93.654 230.9 112.077C212.477 130.501 187.982 140.647 161.928 140.647ZM161.928 127.759C139.314 127.759 118.055 118.953 102.068 102.965C95.5426 96.441 90.1716 88.998 86.1016 80.842L90.5766 78.61C94.4036 86.283 99.4596 93.288 105.603 99.43C120.646 114.475 140.65 122.76 161.928 122.76C183.204 122.76 203.208 114.475 218.253 99.43C233.299 84.383 241.585 64.38 241.585 43.105C241.585 29.183 237.97 15.518 231.13 3.586L235.468 1.1C242.74 13.787 246.585 28.312 246.585 43.105C246.585 65.716 237.778 86.975 221.788 102.965C205.799 118.954 184.541 127.759 161.928 127.759ZM161.928 114.873C142.757 114.873 124.734 107.408 111.179 93.852C97.6236 80.297 90.1576 62.275 90.1576 43.104C90.1576 27.76 94.9046 13.154 103.886 0.867L107.923 3.817C99.5716 15.243 95.1576 28.828 95.1576 43.104C95.1576 60.939 102.103 77.706 114.715 90.316C127.326 102.927 144.094 109.872 161.929 109.872C179.763 109.872 196.53 102.927 209.141 90.316C221.752 77.705 228.698 60.939 228.698 43.104C228.698 28.827 224.284 15.241 215.933 3.817L219.97 0.867C228.95 13.153 233.698 27.759 233.698 43.104C233.698 62.274 226.232 80.297 212.677 93.852C199.121 107.407 181.098 114.873 161.928 114.873ZM161.928 101.984C146.199 101.984 131.413 95.859 120.292 84.738C109.171 73.617 103.046 58.831 103.046 43.104C103.046 27.375 109.171 12.59 120.292 1.47C120.605 1.157 120.923 0.845 121.244 0.537L124.705 4.146C124.411 4.428 124.118 4.713 123.83 5.002C113.65 15.18 108.046 28.71 108.046 43.103C108.046 57.495 113.65 71.025 123.827 81.202C134.004 91.378 147.535 96.983 161.928 96.983C176.321 96.983 189.851 91.379 200.028 81.202C210.206 71.025 215.81 57.494 215.81 43.103C215.81 28.711 210.206 15.181 200.028 5.005C199.738 4.714 199.445 4.428 199.15 4.146L202.611 0.537C202.931 0.844 203.248 1.155 203.563 1.47C214.685 12.59 220.81 27.376 220.81 43.104C220.81 58.831 214.685 73.617 203.563 84.738C192.442 95.86 177.656 101.984 161.928 101.984ZM161.928 89.097C149.642 89.097 138.092 84.313 129.406 75.626C120.718 66.94 115.932 55.39 115.932 43.105C115.932 30.82 120.717 19.27 129.406 10.582C134.125 5.864 139.646 2.304 145.819 0L147.567 4.685C142.07 6.736 137.149 9.91 132.941 14.118C125.197 21.861 120.932 32.156 120.932 43.105C120.932 54.055 125.197 64.349 132.941 72.091C140.684 79.834 150.978 84.098 161.928 84.098C172.877 84.098 183.171 79.834 190.914 72.092C198.658 64.348 202.923 54.053 202.923 43.106C202.923 32.159 198.658 21.864 190.914 14.119C186.704 9.911 181.783 6.737 176.287 4.686L178.036 0C184.207 2.303 189.729 5.863 194.45 10.582C203.138 19.272 207.924 30.822 207.924 43.105C207.924 55.388 203.139 66.938 194.45 75.626C185.763 84.313 174.213 89.097 161.928 89.097ZM161.928 76.21C153.085 76.21 144.772 72.766 138.518 66.513C132.264 60.259 128.82 51.946 128.82 43.104C128.82 34.264 132.264 25.95 138.518 19.695C144.771 13.442 153.085 9.999 161.928 9.999C170.77 9.999 179.083 13.442 185.336 19.695C191.59 25.947 195.034 34.26 195.034 43.104C195.034 51.946 191.59 60.26 185.336 66.514C179.083 72.767 170.769 76.21 161.928 76.21ZM161.928 15C154.42 15 147.362 17.923 142.053 23.232C136.743 28.542 133.82 35.6 133.82 43.105C133.82 50.611 136.744 57.669 142.053 62.979C147.363 68.288 154.421 71.211 161.928 71.211C169.434 71.211 176.491 68.288 181.801 62.979C187.111 57.67 190.034 50.612 190.034 43.105C190.034 35.597 187.11 28.54 181.801 23.232C176.493 17.923 169.435 15 161.928 15ZM161.928 63.322C156.529 63.322 151.45 61.219 147.63 57.4C143.811 53.579 141.707 48.502 141.707 43.104C141.707 37.706 143.811 32.629 147.629 28.808C151.45 24.99 156.527 22.887 161.928 22.887C167.329 22.887 172.406 24.99 176.224 28.808C180.044 32.628 182.148 37.705 182.148 43.104C182.148 48.503 180.044 53.58 176.224 57.4C172.404 61.22 167.328 63.322 161.928 63.322ZM161.928 27.887C157.863 27.887 154.04 29.47 151.165 32.343C148.291 35.219 146.707 39.042 146.707 43.104C146.707 47.166 148.29 50.988 151.166 53.864C154.041 56.739 157.863 58.322 161.928 58.322C165.991 58.322 169.814 56.739 172.689 53.865C175.564 50.99 177.148 47.168 177.148 43.104C177.148 39.041 175.564 35.219 172.689 32.343C169.815 29.47 165.994 27.887 161.928 27.887ZM161.928 50.435C159.942 50.435 158.149 49.692 156.744 48.288C155.357 46.902 154.594 45.062 154.594 43.105C154.594 41.149 155.358 39.308 156.744 37.921C158.127 36.537 159.968 35.775 161.928 35.775C163.885 35.775 165.726 36.537 167.112 37.922C168.498 39.308 169.26 41.148 169.26 43.105C169.26 45.091 168.517 46.884 167.111 48.289C165.729 49.672 163.888 50.435 161.928 50.435ZM161.928 40.774C161.278 40.774 160.739 40.997 160.281 41.455C159.819 41.917 159.594 42.456 159.594 43.104C159.594 43.752 159.819 44.29 160.28 44.751C160.74 45.211 161.279 45.434 161.928 45.434C162.578 45.434 163.116 45.211 163.574 44.753C164.036 44.291 164.26 43.752 164.26 43.104C164.26 42.456 164.036 41.917 163.576 41.457C163.117 40.998 162.578 40.774 161.928 40.774ZM90.5766 7.598L86.1016 5.369C86.8166 3.933 87.5856 2.496 88.3866 1.099L92.7246 3.586C91.9716 4.899 91.2496 6.249 90.5766 7.598Z" fill="#B4B4B4"/>
</g>
<defs>
<clipPath id="clip0_2312_13860">
<rect width="323.909" height="205.086" fill="white"/>
</clipPath>
</defs>
</svg>
