<svg width="327" height="205" viewBox="0 0 327 205" fill="none" xmlns="http://www.w3.org/2000/svg">
<g clip-path="url(#clip0_2312_13886)">
<rect width="327" height="205" fill="white"/>
<g clip-path="url(#clip1_2312_13886)">
<path d="M184.168 184.978H177.495L177.493 17H161.342V103.17H166.081V21.738H172.754L172.756 189.716H188.907V103.53H184.168V184.978Z" fill="#B4B4B4"/>
<path d="M161.278 184.978H154.604L154.603 17H138.452V103.17H143.19V21.738H149.864L149.866 189.716H166.017V103.53H161.278V184.978Z" fill="#B4B4B4"/>
<path d="M207.059 184.978H200.384L200.383 17H184.233V103.17H188.972V21.738H195.645L195.646 189.716H211.797V103.53H207.059V184.978Z" fill="#B4B4B4"/>
<path d="M138.388 184.978H131.713L131.711 17H115.561V103.17H120.299V21.738H126.973L126.975 189.716H143.126V103.53H138.388V184.978Z" fill="#B4B4B4"/>
<path d="M92.6073 184.978H85.9333L85.9313 17H69.7812V103.17H74.5203V21.738H81.1923L81.1943 189.716H97.3463V103.53H92.6073V184.978Z" fill="#B4B4B4"/>
<path d="M69.7156 184.978H63.0416L63.0406 17H46.8896V103.17H51.6276V21.738H58.3016L58.3036 189.716H74.4547V103.53H69.7156V184.978Z" fill="#B4B4B4"/>
<path d="M115.497 184.978H108.823L108.821 17H92.6709V103.17H97.4099V21.738H104.083L104.084 189.716H120.235V103.53H115.497V184.978Z" fill="#B4B4B4"/>
<path d="M46.826 184.978H40.151L40.15 17H24V103.17H28.738V21.738H35.412L35.413 189.716H51.564V103.53H46.826V184.978Z" fill="#B4B4B4"/>
<path d="M229.95 184.978H223.275L223.274 17H207.124V103.17H211.862V21.738H218.536L218.537 189.716H234.688V103.53H229.95V184.978Z" fill="#B4B4B4"/>
<path d="M252.84 184.978H246.166L246.164 17H230.013V103.17H234.751V21.738H241.425L241.427 189.716H257.579V103.53H252.84V184.978Z" fill="#B4B4B4"/>
<path d="M275.73 184.978H269.055L269.054 17H252.904V103.17H257.642V21.738H264.316L264.317 189.716H280.468V103.53H275.73V184.978Z" fill="#B4B4B4"/>
<path d="M298.621 184.978H291.947L291.946 17H275.794V103.17H280.533V21.738H287.208V189.716H303.359V103.53H298.621V184.978Z" fill="#B4B4B4"/>
<path d="M344.401 184.978H337.726V17H321.576V103.17H326.314V21.738H332.988V189.716H349.139V103.53H344.401V184.978Z" fill="#B4B4B4"/>
<path d="M321.511 184.978H314.836L314.835 17H298.684V103.17H303.422V21.738H310.097L310.098 189.716H326.25V103.53H321.511V184.978Z" fill="#B4B4B4"/>
</g>
</g>
<defs>
<clipPath id="clip0_2312_13886">
<rect width="327" height="205" fill="white"/>
</clipPath>
<clipPath id="clip1_2312_13886">
<rect width="432.251" height="172.716" fill="white" transform="translate(24 17)"/>
</clipPath>
</defs>
</svg>
