<svg width="76" height="36" viewBox="0 0 76 36" fill="none" xmlns="http://www.w3.org/2000/svg">
<path d="M57.6512 7.6731C58.6522 7.43204 59.7078 7.59658 60.5879 8.13082C61.468 8.66507 62.1012 9.52566 62.3492 10.5249C62.5973 11.5241 62.4402 12.5809 61.9121 13.4647C61.384 14.3486 60.5279 14.9877 59.5304 15.2428L42.1073 17.4886L42.0836 17.4941C41.083 17.7312 40.0293 17.564 39.1513 17.0287C38.2733 16.4934 37.642 15.6333 37.3945 14.6352C37.147 13.6371 37.3033 12.5817 37.8294 11.6982C38.3555 10.8147 39.209 10.1745 40.2044 9.91658L57.6283 7.67863L57.6512 7.6731ZM5.20491 31.3865C4.33107 31.6215 3.39982 31.5032 2.61252 31.0571C1.82522 30.611 1.24515 29.8729 0.997716 29.0025C0.750286 28.1321 0.855385 27.1993 1.29029 26.4057C1.72519 25.6122 2.45495 25.0217 3.32178 24.7619L24.2843 20.6875L24.3025 20.682C25.1764 20.4475 26.1074 20.5663 26.8944 21.0126C27.6814 21.4589 28.2612 22.197 28.5085 23.0673C28.7559 23.9376 28.6509 24.8702 28.2162 25.6637C27.7816 26.4572 27.0522 27.0479 26.1856 27.3081L5.22387 31.3801L5.20491 31.3865ZM28.2007 26.2626C27.5265 26.8786 26.6352 27.2015 25.7229 27.1603C24.8106 27.1191 23.952 26.7171 23.3361 26.0429C22.7201 25.3687 22.3972 24.4774 22.4384 23.5651C22.4796 22.6528 22.8815 21.7942 23.5557 21.1782L38.0905 10.9684L38.1024 10.9549C38.7785 10.3491 39.6664 10.0346 40.5731 10.0799C41.4798 10.1252 42.332 10.5266 42.9443 11.1969C43.5567 11.8671 43.8796 12.752 43.8431 13.6591C43.8065 14.5662 43.4133 15.4222 42.749 16.0409L28.2173 26.2468L28.2007 26.2626ZM61.4309 28.3283C61.4057 28.7491 61.2958 29.1605 61.1078 29.5378C60.9198 29.9151 60.6576 30.2507 60.3369 30.5243C60.0162 30.7979 59.6436 31.004 59.2414 31.1302C58.8391 31.2564 58.4156 31.3002 57.996 31.2588C57.5765 31.2175 57.1696 31.0919 56.7997 30.8896C56.4299 30.6873 56.1046 30.4125 55.8435 30.0815C55.5824 29.7506 55.3907 29.3704 55.28 28.9636C55.1693 28.5568 55.1418 28.1319 55.1991 27.7143L56.5425 10.9194V10.8996C56.5673 10.478 56.6771 10.0658 56.8651 9.68762C57.0532 9.30947 57.3157 8.9732 57.6369 8.69899C57.9581 8.42478 58.3314 8.21829 58.7344 8.0919C59.1374 7.96551 59.5617 7.92183 59.982 7.96348C60.4023 8.00513 60.8098 8.13125 61.1801 8.33427C61.5505 8.5373 61.876 8.81304 62.1371 9.14496C62.3983 9.47688 62.5897 9.85813 62.6998 10.2658C62.81 10.6736 62.8367 11.0993 62.7783 11.5176L61.427 28.3101L61.4309 28.3283ZM70.7012 12.808C69.5305 13.1513 68.2844 13.1397 67.1203 12.7747C65.9563 12.4097 64.9266 11.7077 64.1615 10.7575C63.3965 9.80729 62.9304 8.65153 62.8222 7.4364C62.714 6.22127 62.9686 5.00135 63.5538 3.93092C64.1389 2.86049 65.0284 1.98764 66.1097 1.42275C67.191 0.857866 68.4155 0.626315 69.6283 0.757387C70.8412 0.888458 71.988 1.37626 72.9236 2.15911C73.8592 2.94196 74.5417 3.98468 74.8847 5.15541C75.1124 5.93227 75.185 6.7464 75.0981 7.55128C75.0112 8.35617 74.7666 9.13605 74.3782 9.8464C73.9899 10.5567 73.4654 11.1836 72.8348 11.6912C72.2041 12.1989 71.4797 12.5773 70.7027 12.8049M0.178223 33.3004H72.1457V35.6371H0.178223V33.3004Z" fill="#202020"/>
</svg>
