<svg width="56" height="58" viewBox="0 0 56 58" fill="none" xmlns="http://www.w3.org/2000/svg">
<path d="M51.9358 22.3712H46.8474L34.4716 7.72898C33.9463 7.10131 33.2062 6.69169 32.3954 6.57993C31.5846 6.46817 30.7612 6.66229 30.0858 7.12445L17.1883 15.8629C16.4591 16.357 15.956 17.1205 15.7897 17.9855C15.6234 18.8506 15.8076 19.7462 16.3017 20.4755C16.7958 21.2047 17.5593 21.7078 18.4244 21.8741C19.2894 22.0404 20.1851 21.8562 20.9143 21.3621L31.3454 14.2903L42.7754 27.8365C43.0869 28.2058 43.4756 28.5022 43.9142 28.7048C44.3528 28.9075 44.8305 29.0114 45.3136 29.0092H51.9437C52.8239 29.0082 53.6677 28.6575 54.2894 28.0343C54.9111 27.4111 55.2598 26.5665 55.2587 25.6863C55.2577 24.806 54.907 23.9622 54.2838 23.3406C53.6606 22.7189 52.816 22.3702 51.9358 22.3712ZM53.6126 7.45398C53.6126 8.76595 53.2235 10.0485 52.4945 11.1393C51.7656 12.2301 50.7294 13.0802 49.5172 13.582C48.305 14.0839 46.9712 14.2149 45.6845 13.9586C44.3978 13.7023 43.2161 13.0702 42.2887 12.1421C41.3613 11.2141 40.73 10.0319 40.4746 8.74499C40.2192 7.45811 40.3513 6.1244 40.854 4.91256C41.3567 3.70073 42.2075 2.66521 43.2989 1.937C44.3902 1.20878 45.673 0.820597 46.9849 0.821535C47.8557 0.821639 48.7179 0.993297 49.5222 1.3267C50.3266 1.66011 51.0574 2.14873 51.6729 2.76465C52.2884 3.38057 52.7765 4.11172 53.1093 4.91633C53.4421 5.72094 53.6132 6.58324 53.6126 7.45398ZM34.2369 22.4013C34.229 22.3973 34.229 22.4013 34.2369 22.4013L34.229 22.3934H34.2226C34.1436 22.3143 34.0362 22.2914 33.9619 22.2243C33.7108 22.001 33.4246 21.8208 33.1147 21.6909C32.8326 21.6035 32.5405 21.5522 32.2455 21.5383C32.1159 21.5304 31.9958 21.4656 31.8606 21.4656C31.5282 21.4865 31.2013 21.5598 30.8918 21.6829C30.8009 21.6931 30.7114 21.713 30.6247 21.7422C30.4402 21.84 30.2678 21.9591 30.1111 22.097C29.9065 22.2059 29.7156 22.3385 29.5421 22.4921L1.66813 51.5728C1.36749 51.887 1.13168 52.2573 0.97416 52.6626C0.816639 53.0679 0.740495 53.5003 0.750071 53.935C0.759647 54.3698 0.854756 54.7984 1.02997 55.1963C1.20519 55.5943 1.45707 55.9539 1.77125 56.2545C2.08543 56.5552 2.45575 56.791 2.86106 56.9485C3.26638 57.106 3.69874 57.1822 4.13348 57.1726C4.56822 57.163 4.99682 57.0679 5.39481 56.8927C5.79279 56.7175 6.15236 56.4656 6.453 56.1514L32.0329 29.4604L41.9899 38.9433H28.7242C27.8698 38.9806 27.0628 39.3462 26.4715 39.964C25.8801 40.5817 25.55 41.4039 25.55 42.2591C25.55 43.1143 25.8801 43.9364 26.4715 44.5542C27.0628 45.1719 27.8698 45.5376 28.7242 45.5749H50.2818C50.9438 45.5731 51.59 45.3735 52.1376 45.0016C52.6852 44.6297 53.1091 44.1025 53.3548 43.4878C53.6005 42.8732 53.6568 42.1991 53.5165 41.5522C53.3761 40.9053 53.0455 40.3151 52.5672 39.8576L34.2369 22.4013Z" fill="#202020"/>
</svg>
