<svg width="72" height="57" viewBox="0 0 72 57" fill="none" xmlns="http://www.w3.org/2000/svg">
<path d="M16.0224 47.9089C16.8741 47.8577 17.6733 47.4805 18.2542 46.8555C18.8351 46.2306 19.1531 45.4059 19.142 44.5528C19.1309 43.6996 18.7917 42.8835 18.1947 42.2739C17.5978 41.6642 16.789 41.3079 15.9363 41.2788H12.3059C11.4542 41.33 10.655 41.7072 10.0741 42.3322C9.49316 42.9571 9.17525 43.7818 9.18633 44.635C9.19742 45.4881 9.53664 46.3042 10.1336 46.9139C10.7305 47.5235 11.5393 47.8799 12.392 47.9089H16.0224ZM3.35097 41.2788C4.00741 41.2788 4.6491 41.4735 5.1949 41.8382C5.74071 42.2029 6.16611 42.7212 6.41732 43.3277C6.66852 43.9342 6.73425 44.6015 6.60619 45.2453C6.47812 45.8891 6.16202 46.4805 5.69785 46.9447C5.23368 47.4089 4.6423 47.725 3.99848 47.853C3.35466 47.9811 2.68732 47.9154 2.08085 47.6642C1.47439 47.413 0.956032 46.9875 0.591337 46.4417C0.226642 45.8959 0.0319858 45.2543 0.0319858 44.5978C0.0313616 44.1618 0.116784 43.7299 0.283358 43.327C0.449932 42.924 0.694382 42.5579 1.0027 42.2495C1.31102 41.9412 1.67715 41.6968 2.08011 41.5302C2.48307 41.3636 2.91494 41.2782 3.35097 41.2788ZM21.9816 31.3219C22.638 31.3219 23.2797 31.5165 23.8255 31.8812C24.3713 32.2459 24.7967 32.7643 25.0479 33.3707C25.2991 33.9772 25.3648 34.6445 25.2368 35.2884C25.1087 35.9322 24.7926 36.5236 24.3284 36.9877C23.8643 37.4519 23.2729 37.768 22.6291 37.8961C21.9852 38.0241 21.3179 37.9584 20.7114 37.7072C20.105 37.456 19.5866 37.0306 19.2219 36.4848C18.8572 35.939 18.6626 35.2973 18.6626 34.6409C18.6626 33.7606 19.0122 32.9164 19.6347 32.294C20.2571 31.6715 21.1013 31.3219 21.9816 31.3219ZM28.7728 28.0029C29.6279 27.9561 30.4317 27.5807 31.0164 26.955C31.6011 26.3294 31.9213 25.502 31.9102 24.6457C31.8991 23.7895 31.5575 22.9707 30.9567 22.3605C30.356 21.7502 29.5427 21.3958 28.6867 21.3712H25.0556C24.2005 21.418 23.3967 21.7935 22.812 22.4191C22.2273 23.0447 21.9071 23.8721 21.9182 24.7284C21.9293 25.5846 22.2709 26.4034 22.8717 27.0136C23.4724 27.6239 24.2857 27.9783 25.1417 28.0029H28.7728ZM3.50981 28.0029H7.10617C7.96057 27.9604 8.76557 27.5896 9.35322 26.9679C9.94087 26.3463 10.2658 25.5217 10.2602 24.6662C10.2546 23.8108 9.91888 22.9906 9.32313 22.3766C8.72738 21.7627 7.91759 21.4025 7.06271 21.3712H3.46635C2.61194 21.4137 1.80694 21.7845 1.21929 22.4062C0.631645 23.0279 0.306732 23.8524 0.312338 24.7079C0.317944 25.5633 0.653638 26.3836 1.24939 26.9975C1.84513 27.6114 2.65492 27.9716 3.50981 28.0029ZM3.50981 37.9504H13.0566C13.9049 37.9 14.7015 37.5262 15.2824 36.906C15.8633 36.2858 16.1841 35.4664 16.1789 34.6166C16.1736 33.7669 15.8426 32.9515 15.2541 32.3386C14.6656 31.7256 13.8644 31.3617 13.0155 31.3219H3.50981C2.63082 31.3219 1.78783 31.671 1.16628 32.2926C0.544743 32.9141 0.195565 33.7571 0.195565 34.6361C0.195565 35.5151 0.544743 36.3581 1.16628 36.9796C1.78783 37.6012 2.63082 37.9504 3.50981 37.9504ZM16.1014 21.3712C16.7578 21.3712 17.3995 21.5659 17.9453 21.9306C18.4911 22.2953 18.9165 22.8136 19.1678 23.4201C19.419 24.0266 19.4847 24.6939 19.3566 25.3377C19.2286 25.9815 18.9125 26.5729 18.4483 27.0371C17.9841 27.5013 17.3927 27.8174 16.7489 27.9454C16.1051 28.0735 15.4378 28.0078 14.8313 27.7566C14.2248 27.5054 13.7065 27.0799 13.3418 26.5341C12.9771 25.9883 12.7824 25.3467 12.7824 24.6902C12.7824 23.81 13.1321 22.9658 13.7545 22.3433C14.377 21.7209 15.2212 21.3712 16.1014 21.3712ZM50.7793 21.3981C50.7714 21.3981 50.7714 21.3981 50.7793 21.3981L50.7714 21.391H50.7659C50.6916 21.312 50.5817 21.2883 50.5051 21.2219C50.2533 20.9985 49.967 20.8176 49.6572 20.6861C49.3744 20.6016 49.0826 20.5509 48.7879 20.5352C48.6583 20.5273 48.539 20.4648 48.4038 20.4648C48.072 20.487 47.7454 20.5589 47.435 20.6782C47.3449 20.6909 47.2561 20.7112 47.1695 20.739C46.9848 20.8374 46.8123 20.9573 46.6558 21.0962C46.4523 21.2028 46.2626 21.3339 46.0908 21.4866L18.2098 50.5744C17.9088 50.8888 17.6727 51.2593 17.515 51.665C17.3573 52.0706 17.281 52.5033 17.2905 52.9384C17.3 53.3735 17.3951 53.8025 17.5704 54.2008C17.7457 54.5992 17.9977 54.9591 18.3121 55.2601C18.6265 55.561 18.9971 55.7971 19.4027 55.9548C19.8083 56.1125 20.241 56.1888 20.6761 56.1793C21.1112 56.1698 21.5402 56.0747 21.9386 55.8994C22.3369 55.7241 22.6968 55.4721 22.9978 55.1577L48.5785 28.462L58.5354 37.9448H45.2674C44.8198 37.9253 44.3728 37.9966 43.9535 38.1544C43.5342 38.3122 43.1511 38.5533 42.8275 38.8631C42.5038 39.173 42.2462 39.5451 42.0703 39.9571C41.8943 40.3692 41.8036 40.8126 41.8036 41.2607C41.8036 41.7087 41.8943 42.1521 42.0703 42.5642C42.2462 42.9762 42.5038 43.3484 42.8275 43.6582C43.1511 43.968 43.5342 44.2091 43.9535 44.3669C44.3728 44.5247 44.8198 44.596 45.2674 44.5765H66.8234C67.4857 44.5752 68.1324 44.3758 68.6804 44.004C69.2284 43.6322 69.6527 43.1049 69.8986 42.49C70.1446 41.8751 70.2009 41.2007 70.0604 40.5535C69.92 39.9063 69.5891 39.316 69.1104 38.8583L50.7793 21.3981ZM69.6967 6.45396C69.6963 7.67411 69.334 8.86672 68.6557 9.88099C67.9775 10.8953 67.0137 11.6856 65.8863 12.1522C64.7588 12.6187 63.5184 12.7405 62.3217 12.502C61.1251 12.2636 60.0261 11.6756 59.1636 10.8126C58.3011 9.94954 57.7139 8.85011 57.4762 7.65333C57.2385 6.45655 57.361 5.21617 57.8283 4.08903C58.2956 2.9619 59.0865 1.99862 60.1012 1.32102C61.1159 0.643416 62.3088 0.281914 63.5289 0.282227C65.165 0.282227 66.7341 0.932102 67.8911 2.08891C69.048 3.24572 69.6981 4.81472 69.6983 6.4508M68.4845 21.3704H63.3978L51.0172 6.72738C50.4909 6.09964 49.7499 5.69014 48.9383 5.57855C48.1268 5.46696 47.3028 5.66125 46.6266 6.12364L33.7371 14.8621C33.0077 15.3561 32.5045 16.1195 32.3381 16.9846C32.1716 17.8496 32.3557 18.7453 32.8497 19.4747C33.3436 20.204 34.1071 20.7073 34.9722 20.8737C35.8372 21.0401 36.7329 20.8561 37.4622 20.3621L47.8823 13.2887L59.3225 26.8357C59.6333 27.2049 60.0213 27.5013 60.4592 27.7039C60.8972 27.9066 61.3743 28.0105 61.8568 28.0084H68.4908C69.3711 28.0077 70.215 27.6573 70.8369 27.0343C71.4588 26.4114 71.8078 25.5669 71.8071 24.6867C71.8063 23.8064 71.4559 22.9625 70.833 22.3406C70.21 21.7187 69.3648 21.3697 68.4845 21.3704Z" fill="#202020"/>
</svg>
