<?xml version="1.0" encoding="utf-8"?><svg viewBox="0 0 32 32" xmlns="http://www.w3.org/2000/svg" xmlns:xlink="http://www.w3.org/1999/xlink"><style>:root>svg{display:none}:root>svg:target{display:block}</style><svg viewBox="0 0 24 24" id="accordion-arrow" xmlns="http://www.w3.org/2000/svg"><path fill="currentColor" d="m16 8.4-8.9 8.9q-.275.275-.7.275t-.7-.275-.275-.7.275-.7L14.6 7H7q-.425 0-.712-.288T6 6t.288-.712T7 5h10q.425 0 .713.288T18 6v10q0 .425-.288.713T17 17t-.712-.288T16 16z"/></svg><svg fill="none" viewBox="0 0 24 24" id="arrow-down" xmlns="http://www.w3.org/2000/svg"><path d="m18 10-6 6-6-6" stroke="#B4B4B4" stroke-width="2.5" stroke-linecap="round" stroke-linejoin="round"/></svg><svg viewBox="0 0 24 24" id="arrow-up" xmlns="http://www.w3.org/2000/svg"><path fill="currentColor" d="M12 14.975q-.2 0-.375-.062T11.3 14.7l-4.6-4.6q-.275-.275-.275-.7t.275-.7.7-.275.7.275l3.9 3.9 3.9-3.9q.275-.275.7-.275t.7.275.275.7-.275.7l-4.6 4.6q-.15.15-.325.213t-.375.062"/></svg><svg fill="none" viewBox="0 0 24 24" id="calendar" xmlns="http://www.w3.org/2000/svg"><path d="M18 5H6a2 2 0 0 0-2 2v11a2 2 0 0 0 2 2h12a2 2 0 0 0 2-2V7a2 2 0 0 0-2-2Z" stroke="#B4B4B4" stroke-width="2"/><path d="M4 10h16M9 15h6M9 3v3m6-3v3" stroke="#B4B4B4" stroke-width="2" stroke-linecap="round"/></svg><svg fill="none" viewBox="0 0 24 24" id="close" xmlns="http://www.w3.org/2000/svg"><path d="M18 6 6 18M6 6l12 12" stroke="#CD313C" stroke-width="3" stroke-linecap="round" stroke-linejoin="round"/></svg><svg fill="none" viewBox="0 0 32 32" id="glasses" xmlns="http://www.w3.org/2000/svg"><path d="M7.999 12a4 4 0 1 0 0 8 4 4 0 0 0 0-8Zm-6.667 4a6.666 6.666 0 0 1 10.923-5.13 5.333 5.333 0 0 1 7.488 0 6.666 6.666 0 1 1-1.686 2.104 2.666 2.666 0 0 0-4.117 0 6.665 6.665 0 0 1-10.068 8.26A6.667 6.667 0 0 1 1.332 16Zm22.667-4a3.995 3.995 0 0 0-4 4 4 4 0 1 0 4-4Z" fill="#202020"/></svg><svg fill="none" viewBox="0 0 24 24" id="location" xmlns="http://www.w3.org/2000/svg"><path d="M14.5 9a2.5 2.5 0 1 1-5 0 2.5 2.5 0 0 1 5 0Z" stroke="#B4B4B4" stroke-width="2" stroke-linecap="round" stroke-linejoin="round"/><path d="M18 20c0 1.105-2.685 2-6 2-3.314 0-6-.895-6-2m7.258-2.506a1.813 1.813 0 0 1-2.514 0c-3.09-2.993-7.229-6.336-5.21-11.19C6.625 3.679 9.245 2 12 2c2.754 0 5.374 1.68 6.467 4.304 2.015 4.847-2.113 8.207-5.21 11.19Z" stroke="#B4B4B4" stroke-width="2" stroke-linecap="round" stroke-linejoin="round"/></svg><svg fill="none" viewBox="0 0 18 18" id="login" xmlns="http://www.w3.org/2000/svg"><path d="M6.75 2.25h7.5v13.5h-7.5m3-6.75-3-3m3 3-3 3m3-3h-7.5" stroke="#fff" stroke-width="2" stroke-linecap="round" stroke-linejoin="round"/></svg><svg fill="none" viewBox="0 0 12 12" id="pic" xmlns="http://www.w3.org/2000/svg"><path d="M11.25 10.083V1.917A1.17 1.17 0 0 0 10.083.75H1.917A1.17 1.17 0 0 0 .75 1.917v8.166a1.17 1.17 0 0 0 1.167 1.167h8.166a1.17 1.17 0 0 0 1.167-1.167ZM4.192 7.155l1.225 1.476 1.808-2.328a.293.293 0 0 1 .467.006l2.047 2.73a.292.292 0 0 1-.233.467H2.512a.29.29 0 0 1-.228-.473l1.453-1.866a.288.288 0 0 1 .455-.012Z" fill="#fff"/></svg><svg fill="none" viewBox="0 0 24 24" id="right-arr" xmlns="http://www.w3.org/2000/svg"><path d="M3.272 12h18m0 0L11.62 2.182M21.273 12l-9.653 9.818" stroke="#fff" stroke-width="2.5" stroke-linecap="round" stroke-linejoin="round"/></svg><svg viewBox="0 0 24 24" id="slider-arrow" xmlns="http://www.w3.org/2000/svg"><path fill="currentColor" d="m10.8 12 3.9 3.9q.275.275.275.7t-.275.7-.7.275-.7-.275l-4.6-4.6q-.15-.15-.212-.325T8.425 12t.063-.375.212-.325l4.6-4.6q.275-.275.7-.275t.7.275.275.7-.275.7z"/></svg></svg>